<?xml version="1.0" encoding="UTF-8" standalone="no"?>
<!-- Created with Inkscape (http://www.inkscape.org/) -->

<svg
   xmlns:dc="http://purl.org/dc/elements/1.1/"
   xmlns:cc="http://creativecommons.org/ns#"
   xmlns:rdf="http://www.w3.org/1999/02/22-rdf-syntax-ns#"
   xmlns:svg="http://www.w3.org/2000/svg"
   xmlns="http://www.w3.org/2000/svg"
   xmlns:sodipodi="http://sodipodi.sourceforge.net/DTD/sodipodi-0.dtd"
   xmlns:inkscape="http://www.inkscape.org/namespaces/inkscape"
   width="64"
   height="64"
   id="svg2"
   version="1.1"
   inkscape:version="0.91 r13725"
   sodipodi:docname="AutomorphismWorkPanel.svg">
  <defs
     id="defs4">
    <marker
       inkscape:stockid="Arrow2Lend"
       orient="auto"
       refY="0.0"
       refX="0.0"
       id="Arrow2Lend"
       style="overflow:visible;"
       inkscape:isstock="true">
      <path
         id="path4175"
         style="fill-rule:evenodd;stroke-width:0.625;stroke-linejoin:round;stroke:#000000;stroke-opacity:1;fill:#000000;fill-opacity:1"
         d="M 8.7185878,4.0337352 L -2.2072895,0.016013256 L 8.7185884,-4.0017078 C 6.9730900,-1.6296469 6.9831476,1.6157441 8.7185878,4.0337352 z "
         transform="scale(1.1) rotate(180) translate(1,0)" />
    </marker>
    <marker
       inkscape:stockid="Arrow1Lend"
       orient="auto"
       refY="0.0"
       refX="0.0"
       id="marker4430"
       style="overflow:visible;"
       inkscape:isstock="true">
      <path
         id="path4432"
         d="M 0.0,0.0 L 5.0,-5.0 L -12.5,0.0 L 5.0,5.0 L 0.0,0.0 z "
         style="fill-rule:evenodd;stroke:#000000;stroke-width:1pt;stroke-opacity:1;fill:#000000;fill-opacity:1"
         transform="scale(0.8) rotate(180) translate(12.5,0)" />
    </marker>
    <marker
       inkscape:stockid="Arrow1Lend"
       orient="auto"
       refY="0.0"
       refX="0.0"
       id="Arrow1Lend"
       style="overflow:visible;"
       inkscape:isstock="true">
      <path
         id="path4157"
         d="M 0.0,0.0 L 5.0,-5.0 L -12.5,0.0 L 5.0,5.0 L 0.0,0.0 z "
         style="fill-rule:evenodd;stroke:#000000;stroke-width:1pt;stroke-opacity:1;fill:#000000;fill-opacity:1"
         transform="scale(0.8) rotate(180) translate(12.5,0)" />
    </marker>
  </defs>
  <sodipodi:namedview
     id="base"
     pagecolor="#ffffff"
     bordercolor="#666666"
     borderopacity="1.0"
     inkscape:pageopacity="0.0"
     inkscape:pageshadow="2"
     inkscape:zoom="4"
     inkscape:cx="30.720301"
     inkscape:cy="44.989716"
     inkscape:document-units="px"
     inkscape:current-layer="layer1"
     showgrid="false"
     inkscape:window-width="1920"
     inkscape:window-height="1056"
     inkscape:window-x="0"
     inkscape:window-y="24"
     inkscape:window-maximized="1" />
  <metadata
     id="metadata7">
    <rdf:RDF>
      <cc:Work
         rdf:about="">
        <dc:format>image/svg+xml</dc:format>
        <dc:type
           rdf:resource="http://purl.org/dc/dcmitype/StillImage" />
        <dc:title />
      </cc:Work>
    </rdf:RDF>
  </metadata>
  <g
     inkscape:label="Layer 1"
     inkscape:groupmode="layer"
     id="layer1"
     transform="translate(0,-988.36218)">
    <path
       style="fill:none;stroke:#000000;stroke-width:1.1242789px;stroke-linecap:butt;stroke-linejoin:miter;stroke-opacity:1"
       d="m 58.18786,1019.9243 -22.12572,2.0495 9.174079,9.0762"
       id="path3128"
       inkscape:connector-curvature="0" />
    <path
       style="fill:none;stroke:#000000;stroke-width:1px;stroke-linecap:butt;stroke-linejoin:miter;stroke-opacity:1"
       d="m 27.25,1042.8622 -2,-13.25 12.25,-6.75 8.5,-10.75"
       id="path3126"
       inkscape:connector-curvature="0" />
    <path
       style="fill:none;stroke:#000000;stroke-width:1px;stroke-linecap:butt;stroke-linejoin:miter;stroke-opacity:1"
       d="m 12.5,1000.6122 8.25,15.75 -11.25,-2"
       id="path3122"
       inkscape:connector-curvature="0" />
    <path
       style="fill:none;stroke:#000000;stroke-width:1px;stroke-linecap:butt;stroke-linejoin:miter;stroke-opacity:1"
       d="m 25,1005.3622 -4.5,11 5,12.25 -13,8.5"
       id="path3124"
       inkscape:connector-curvature="0" />
    <path
       sodipodi:type="arc"
       style="fill:#0000ff;fill-opacity:1;fill-rule:nonzero;stroke:#0000ff;stroke-width:2;stroke-linecap:round;stroke-linejoin:miter;stroke-miterlimit:4;stroke-opacity:1;stroke-dasharray:none;stroke-dashoffset:0"
       id="path2985"
       sodipodi:cx="10.625"
       sodipodi:cy="12.375"
       sodipodi:rx="1.875"
       sodipodi:ry="1.875"
       d="M 12.5,12.375 A 1.875,1.875 0 0 1 10.625,14.25 1.875,1.875 0 0 1 8.75,12.375 1.875,1.875 0 0 1 10.625,10.5 1.875,1.875 0 0 1 12.5,12.375 Z"
       transform="translate(1.5,986.86218)" />
    <path
       transform="translate(-1.625,1001.7372)"
       sodipodi:type="arc"
       style="fill:#0000ff;fill-opacity:1;fill-rule:nonzero;stroke:#0000ff;stroke-width:2;stroke-linecap:round;stroke-linejoin:miter;stroke-miterlimit:4;stroke-opacity:1;stroke-dasharray:none;stroke-dashoffset:0"
       id="path2985-9"
       sodipodi:cx="10.625"
       sodipodi:cy="12.375"
       sodipodi:rx="1.875"
       sodipodi:ry="1.875"
       d="M 12.5,12.375 A 1.875,1.875 0 0 1 10.625,14.25 1.875,1.875 0 0 1 8.75,12.375 1.875,1.875 0 0 1 10.625,10.5 1.875,1.875 0 0 1 12.5,12.375 Z" />
    <path
       sodipodi:type="arc"
       style="fill:#0000ff;fill-opacity:1;fill-rule:nonzero;stroke:#0000ff;stroke-width:2;stroke-linecap:round;stroke-linejoin:miter;stroke-miterlimit:4;stroke-opacity:1;stroke-dasharray:none;stroke-dashoffset:0"
       id="path2985-3"
       sodipodi:cx="10.625"
       sodipodi:cy="12.375"
       sodipodi:rx="1.875"
       sodipodi:ry="1.875"
       d="M 12.5,12.375 A 1.875,1.875 0 0 1 10.625,14.25 1.875,1.875 0 0 1 8.75,12.375 1.875,1.875 0 0 1 10.625,10.5 1.875,1.875 0 0 1 12.5,12.375 Z"
       transform="translate(14.875,991.98718)" />
    <path
       sodipodi:type="arc"
       style="fill:#0000ff;fill-opacity:1;fill-rule:nonzero;stroke:#0000ff;stroke-width:2;stroke-linecap:round;stroke-linejoin:miter;stroke-miterlimit:4;stroke-opacity:1;stroke-dasharray:none;stroke-dashoffset:0"
       id="path2985-7"
       sodipodi:cx="10.625"
       sodipodi:cy="12.375"
       sodipodi:rx="1.875"
       sodipodi:ry="1.875"
       d="M 12.5,12.375 A 1.875,1.875 0 0 1 10.625,14.25 1.875,1.875 0 0 1 8.75,12.375 1.875,1.875 0 0 1 10.625,10.5 1.875,1.875 0 0 1 12.5,12.375 Z"
       transform="matrix(-0.46238449,0.88667953,-0.88667953,-0.46238449,72.741339,1016.7027)" />
    <path
       transform="matrix(-0.46238449,0.88667953,-0.88667953,-0.46238449,61.996946,1008.3039)"
       sodipodi:type="arc"
       style="fill:#0000ff;fill-opacity:1;fill-rule:nonzero;stroke:#0000ff;stroke-width:2;stroke-linecap:round;stroke-linejoin:miter;stroke-miterlimit:4;stroke-opacity:1;stroke-dasharray:none;stroke-dashoffset:0"
       id="path2985-9-1"
       sodipodi:cx="10.625"
       sodipodi:cy="12.375"
       sodipodi:rx="1.875"
       sodipodi:ry="1.875"
       d="M 12.5,12.375 A 1.875,1.875 0 0 1 10.625,14.25 1.875,1.875 0 0 1 8.75,12.375 1.875,1.875 0 0 1 10.625,10.5 1.875,1.875 0 0 1 12.5,12.375 Z" />
    <path
       sodipodi:type="arc"
       style="fill:#0000ff;fill-opacity:1;fill-rule:nonzero;stroke:#0000ff;stroke-width:2;stroke-linecap:round;stroke-linejoin:miter;stroke-miterlimit:4;stroke-opacity:1;stroke-dasharray:none;stroke-dashoffset:0"
       id="path2985-3-9"
       sodipodi:cx="10.625"
       sodipodi:cy="12.375"
       sodipodi:rx="1.875"
       sodipodi:ry="1.875"
       d="M 12.5,12.375 A 1.875,1.875 0 0 1 10.625,14.25 1.875,1.875 0 0 1 8.75,12.375 1.875,1.875 0 0 1 10.625,10.5 1.875,1.875 0 0 1 12.5,12.375 Z"
       transform="matrix(-0.46238449,0.88667953,-0.88667953,-0.46238449,62.512757,1027.1924)" />
    <path
       sodipodi:type="arc"
       style="fill:#ff0000;fill-opacity:1;fill-rule:nonzero;stroke:#ff0000;stroke-width:2;stroke-linecap:round;stroke-linejoin:miter;stroke-miterlimit:4;stroke-opacity:1;stroke-dasharray:none;stroke-dashoffset:0"
       id="path2985-7-7"
       sodipodi:cx="10.625"
       sodipodi:cy="12.375"
       sodipodi:rx="1.875"
       sodipodi:ry="1.875"
       d="M 12.5,12.375 A 1.875,1.875 0 0 1 10.625,14.25 1.875,1.875 0 0 1 8.75,12.375 1.875,1.875 0 0 1 10.625,10.5 1.875,1.875 0 0 1 12.5,12.375 Z"
       transform="matrix(-0.99995611,-0.00936977,0.00936977,-0.99995611,37.171805,1054.4612)" />
    <path
       sodipodi:type="arc"
       style="fill:#ff0000;fill-opacity:1;fill-rule:nonzero;stroke:#ff0000;stroke-width:2;stroke-linecap:round;stroke-linejoin:miter;stroke-miterlimit:4;stroke-opacity:1;stroke-dasharray:none;stroke-dashoffset:0"
       id="path2985-3-9-2"
       sodipodi:cx="10.625"
       sodipodi:cy="12.375"
       sodipodi:rx="1.875"
       sodipodi:ry="1.875"
       d="M 12.5,12.375 A 1.875,1.875 0 0 1 10.625,14.25 1.875,1.875 0 0 1 8.75,12.375 1.875,1.875 0 0 1 10.625,10.5 1.875,1.875 0 0 1 12.5,12.375 Z"
       transform="matrix(-0.99995611,-0.00936977,0.00936977,-0.99995611,23.845359,1049.2112)" />
    <path
       sodipodi:type="arc"
       style="fill:#ff6600;fill-opacity:1;fill-rule:nonzero;stroke:#ff6600;stroke-width:2;stroke-linecap:round;stroke-linejoin:miter;stroke-miterlimit:4;stroke-opacity:1;stroke-dasharray:none;stroke-dashoffset:0"
       id="path2985-7-7-1"
       sodipodi:cx="10.625"
       sodipodi:cy="12.375"
       sodipodi:rx="1.875"
       sodipodi:ry="1.875"
       d="M 12.5,12.375 A 1.875,1.875 0 0 1 10.625,14.25 1.875,1.875 0 0 1 8.75,12.375 1.875,1.875 0 0 1 10.625,10.5 1.875,1.875 0 0 1 12.5,12.375 Z"
       transform="matrix(-0.99995611,-0.00936977,0.00936977,-0.99995611,31.008583,1028.5862)" />
    <path
       sodipodi:type="arc"
       style="fill:#ff6600;fill-opacity:1;fill-rule:nonzero;stroke:#ff6600;stroke-width:2;stroke-linecap:round;stroke-linejoin:miter;stroke-miterlimit:4;stroke-opacity:1;stroke-dasharray:none;stroke-dashoffset:0"
       id="path2985-7-7-1-5"
       sodipodi:cx="10.625"
       sodipodi:cy="12.375"
       sodipodi:rx="1.875"
       sodipodi:ry="1.875"
       d="M 12.5,12.375 A 1.875,1.875 0 0 1 10.625,14.25 1.875,1.875 0 0 1 8.75,12.375 1.875,1.875 0 0 1 10.625,10.5 1.875,1.875 0 0 1 12.5,12.375 Z"
       transform="matrix(-0.99995611,-0.00936977,0.00936977,-0.99995611,47.758583,1034.8362)" />
    <path
       sodipodi:type="arc"
       style="fill:#008000;fill-opacity:1;fill-rule:nonzero;stroke:#008000;stroke-width:2;stroke-linecap:round;stroke-linejoin:miter;stroke-miterlimit:4;stroke-opacity:1;stroke-dasharray:none;stroke-dashoffset:0"
       id="path2985-7-7-1-5-3"
       sodipodi:cx="10.625"
       sodipodi:cy="12.375"
       sodipodi:rx="1.875"
       sodipodi:ry="1.875"
       d="M 12.5,12.375 A 1.875,1.875 0 0 1 10.625,14.25 1.875,1.875 0 0 1 8.75,12.375 1.875,1.875 0 0 1 10.625,10.5 1.875,1.875 0 0 1 12.5,12.375 Z"
       transform="matrix(-0.99995611,-0.00936977,0.00936977,-0.99995611,36.008583,1041.3362)" />
    <path
       style="fill:none;fill-rule:evenodd;stroke:#000000;stroke-width:1.42935777px;stroke-linecap:butt;stroke-linejoin:miter;stroke-opacity:1;marker-end:url(#Arrow2Lend)"
       d="m 53.425216,992.99993 c -42.342072,-5.3164 -28.7154,10.96017 3.176974,8.68167"
       id="path4148"
       inkscape:connector-curvature="0" />
  </g>
</svg>
