<?xml version="1.0" encoding="UTF-8" standalone="no"?>
<!-- Generator: Adobe Illustrator 12.0.0, SVG Export Plug-In . SVG Version: 6.00 Build 51448)  -->

<svg
   xmlns:dc="http://purl.org/dc/elements/1.1/"
   xmlns:cc="http://creativecommons.org/ns#"
   xmlns:rdf="http://www.w3.org/1999/02/22-rdf-syntax-ns#"
   xmlns:svg="http://www.w3.org/2000/svg"
   xmlns="http://www.w3.org/2000/svg"
   xmlns:sodipodi="http://sodipodi.sourceforge.net/DTD/sodipodi-0.dtd"
   xmlns:inkscape="http://www.inkscape.org/namespaces/inkscape"
   height="64"
   id="Layer_1"
   inkscape:version="0.48.3.1 r9886"
   sodipodi:docname="PluginDatabase.svg"
   sodipodi:version="0.32"
   space="preserve"
   style="overflow:visible"
   version="1.0"
   viewBox="0 0 63.812196 64.000007"
   width="64"
   inkscape:output_extension="org.inkscape.output.svg.inkscape">
  <metadata
     id="metadata3">
    <rdf:RDF>
      <cc:Work
         rdf:about="">
        <dc:title>Database, Base de donnée</dc:title>
        <dc:description />
        <dc:subject>
          <rdf:Bag>
            <rdf:li>computer</rdf:li>
            <rdf:li>database</rdf:li>
          </rdf:Bag>
        </dc:subject>
        <dc:publisher>
          <cc:Agent
             rdf:about="http://www.openclipart.org/">
            <dc:title>Open Clip Art Library</dc:title>
          </cc:Agent>
        </dc:publisher>
        <dc:creator>
          <cc:Agent>
            <dc:title>Architetto Francesco Rollandin</dc:title>
          </cc:Agent>
        </dc:creator>
        <dc:rights>
          <cc:Agent>
            <dc:title>Architetto Francesco Rollandin</dc:title>
          </cc:Agent>
        </dc:rights>
        <dc:date />
        <dc:format>image/svg+xml</dc:format>
        <dc:type
           rdf:resource="http://purl.org/dc/dcmitype/StillImage" />
        <cc:license
           rdf:resource="http://web.resource.org/cc/PublicDomain" />
        <dc:language>en</dc:language>
      </cc:Work>
      <cc:License
         rdf:about="http://web.resource.org/cc/PublicDomain">
        <cc:permits
           rdf:resource="http://web.resource.org/cc/Reproduction" />
        <cc:permits
           rdf:resource="http://web.resource.org/cc/Distribution" />
        <cc:permits
           rdf:resource="http://web.resource.org/cc/DerivativeWorks" />
      </cc:License>
    </rdf:RDF>
  </metadata>
  <defs
     id="defs94" />
  <sodipodi:namedview
     bordercolor="#666666"
     borderopacity="1.0"
     id="base"
     inkscape:current-layer="Layer_1"
     inkscape:cx="-36.147798"
     inkscape:cy="31.999977"
     inkscape:pageopacity="0.0"
     inkscape:pageshadow="2"
     inkscape:window-height="744"
     inkscape:window-width="1280"
     inkscape:window-x="0"
     inkscape:window-y="24"
     inkscape:zoom="2.6128611"
     pagecolor="#ffffff"
     showgrid="false"
     fit-margin-top="0"
     fit-margin-left="0"
     fit-margin-right="0"
     fit-margin-bottom="0"
     inkscape:window-maximized="1" />
  <g
     id="g3"
     transform="matrix(0.46450848,0,0,0.43932328,4.8003668,1.9135745)">
    <linearGradient
       gradientUnits="userSpaceOnUse"
       id="XMLID_7_"
       x1="0.94679999"
       x2="117.5381"
       y1="109.2632"
       y2="109.2632">
      <stop
         id="stop6"
         offset="0"
         style="stop-color:#DFDFDF" />
      <stop
         id="stop8"
         offset="0.2168"
         style="stop-color:#DADADA" />
      <stop
         id="stop10"
         offset="0.4798"
         style="stop-color:#CBCBCB" />
      <stop
         id="stop12"
         offset="0.7655"
         style="stop-color:#B3B3B3" />
      <stop
         id="stop14"
         offset="1"
         style="stop-color:#9A9999" />
    </linearGradient>
    <path
       d="m 59.245,81.758 c -16.198,0 -34.292,0.914 -49.354,7.532 -9.702,4.264 -8.862,9.426 -8.862,18.82 0,10.063 -1.553,16.549 8.862,21.125 15.062,6.618 33.156,7.532 49.354,7.532 16.196,0 34.29,-0.914 49.353,-7.532 10.408,-4.575 8.859,-11.047 8.859,-21.107 0,-9.4 0.848,-14.572 -8.859,-18.838 C 93.535,82.672 75.441,81.758 59.245,81.758"
       id="path16"
       style="fill:url(#XMLID_7_)"
       inkscape:connector-curvature="0" />
    <linearGradient
       gradientTransform="matrix(0,205.5401,205.5401,0,-94889.922,51048.383)"
       gradientUnits="userSpaceOnUse"
       id="XMLID_8_"
       x1="-248.4731"
       x2="-246.68941"
       y1="461.95169"
       y2="461.95169">
      <stop
         id="stop19"
         offset="0"
         style="stop-color:#FFFFFF" />
      <stop
         id="stop21"
         offset="1"
         style="stop-color:#000000" />
    </linearGradient>
    <path
       d="m 0.111,97.803 c 0,7.478 0,14.952 0,22.43 0,10.707 20.244,13.583 27.649,14.884 19.037,3.34 38.954,3.471 58.077,0.771 7.419,-1.048 32.537,-3.764 32.537,-15.165 1.182,-7.064 0,-15.253 0,-22.43 C 118.374,87.588 98.13,84.711 90.726,83.411 71.688,80.067 51.773,79.938 32.65,82.638 25.231,83.686 0.111,86.404 0.111,97.803 m 1.834,22.92 c 0,-7.115 -1.563,-16.009 0,-22.92 0,-8.952 21.52,-11.87 27.212,-12.829 19.661,-3.31 40.515,-3.31 60.175,0 5.69,0.959 27.209,3.877 27.209,12.829 0.727,3.217 0,7.433 0,10.714 0,3.741 0.83,8.542 0,12.206 0,8.954 -21.516,11.87 -27.209,12.83 -19.66,3.31 -40.515,3.31 -60.175,0 -5.694,-0.96 -27.212,-3.876 -27.212,-12.83"
       id="path23"
       style="fill:url(#XMLID_8_)"
       inkscape:connector-curvature="0" />
    <path
       d="m 115.27,94.8 c 0.684,4.564 0.051,9.646 0.051,14.248 0,3.567 1.216,9.359 -1.346,12.368 -4.271,5.016 -12.504,6.906 -18.577,8.336 -11.8,2.774 -24.058,3.652 -36.152,3.652 -11.452,0 -23.015,-0.808 -34.23,-3.221 -6.582,-1.416 -14.912,-3.24 -19.918,-8.146 -2.984,-2.923 -1.929,-7.76 -1.929,-11.542 0,-5.047 -0.742,-10.697 0.052,-15.696 -3.039,3.653 -1.275,12.389 -1.275,16.692 0,3.515 -1.218,9.307 1.302,12.281 4.13,4.882 12.11,6.751 17.999,8.175 12.385,2.993 25.292,3.901 38,3.901 12.086,0 24.31,-0.848 36.131,-3.471 6.381,-1.415 14.459,-3.221 19.302,-7.998 2.923,-2.884 1.863,-7.728 1.863,-11.439 -0.002,-4.587 1.957,-14.257 -1.273,-18.14"
       id="path25"
       style="fill:#c6c6c6"
       inkscape:connector-curvature="0" />
    <path
       d="m 115.32,101.431 c 0,3.094 -9.531,6.556 -11.499,7.342 -13.091,5.226 -27.68,6.585 -41.647,6.774 -15.248,0.207 -31.057,-1.056 -45.492,-6.316 -0.784,-0.284 -14.697,-6.201 -13.492,-7.871 0.262,-0.363 11.674,4.182 12.449,4.4 15.042,4.235 31,5.146 46.551,4.978 13.896,-0.147 28.103,-1.225 41.503,-5.145 0.839,-0.244 11.627,-3.557 11.627,-4.162"
       id="path27"
       style="fill:#e5e5e5"
       inkscape:connector-curvature="0" />
    <path
       d="m 59.245,0.097 c -16.313,0 -34.572,0.979 -49.738,7.612 -10.256,4.484 -9.396,10.297 -9.396,20.062 0,9.221 -1.663,16.163 7.861,20.844 15.241,7.49 34.625,8.323 51.273,8.323 16.313,0 34.568,-0.981 49.734,-7.613 10.256,-4.485 9.396,-10.297 9.396,-20.062 0,-9.222 1.663,-16.164 -7.86,-20.844 C 95.274,0.93 75.892,0.097 59.245,0.097"
       id="path29"
       style="fill:#f4f2f2"
       inkscape:connector-curvature="0" />
    <path
       d="m 6.055,93.085 c 4.915,4.906 13.096,6.689 19.621,8.074 10.997,2.335 22.342,3.196 33.569,3.196 10.459,0 20.991,-0.771 31.273,-2.734 7.192,-1.373 16.497,-3.125 21.918,-8.536 C 107.521,88.176 99.34,86.394 92.814,85.007 81.818,82.672 70.472,81.811 59.245,81.811 c -10.459,0 -20.991,0.771 -31.273,2.733 -7.192,1.373 -16.497,3.127 -21.917,8.541"
       id="path31"
       style="fill:#7c7c7c"
       inkscape:connector-curvature="0" />
    <linearGradient
       gradientUnits="userSpaceOnUse"
       id="XMLID_9_"
       x1="0.94679999"
       x2="117.5381"
       y1="68.888199"
       y2="68.888199">
      <stop
         id="stop34"
         offset="0"
         style="stop-color:#DFDFDF" />
      <stop
         id="stop36"
         offset="0.2168"
         style="stop-color:#DADADA" />
      <stop
         id="stop38"
         offset="0.4798"
         style="stop-color:#CBCBCB" />
      <stop
         id="stop40"
         offset="0.7655"
         style="stop-color:#B3B3B3" />
      <stop
         id="stop42"
         offset="1"
         style="stop-color:#9A9999" />
    </linearGradient>
    <path
       d="m 59.245,41.385 c -16.198,0 -34.292,0.912 -49.354,7.531 -9.702,4.263 -8.862,9.427 -8.862,18.821 0,10.065 -1.553,16.547 8.862,21.125 15.062,6.617 33.156,7.53 49.354,7.53 16.196,0 34.29,-0.913 49.353,-7.53 10.408,-4.576 8.859,-11.048 8.859,-21.108 0,-9.401 0.848,-14.573 -8.859,-18.838 C 93.535,42.297 75.441,41.385 59.245,41.385"
       id="path44"
       style="fill:url(#XMLID_9_)"
       inkscape:connector-curvature="0" />
    <linearGradient
       gradientTransform="matrix(0,205.5463,205.5463,0,-94893.484,51026.383)"
       gradientUnits="userSpaceOnUse"
       id="XMLID_10_"
       x1="-248.55811"
       x2="-246.7719"
       y1="461.95261"
       y2="461.95261">
      <stop
         id="stop47"
         offset="0"
         style="stop-color:#FFFFFF" />
      <stop
         id="stop49"
         offset="1"
         style="stop-color:#000000" />
    </linearGradient>
    <path
       d="m 0.111,57.429 c 0,7.477 0,14.954 0,22.43 0,10.707 20.243,13.585 27.649,14.884 19.037,3.343 38.954,3.471 58.077,0.772 7.422,-1.048 32.537,-3.765 32.537,-15.166 1.182,-7.066 0,-15.252 0,-22.431 C 118.374,47.212 98.13,44.335 90.726,43.035 71.688,39.692 51.773,39.563 32.65,42.262 25.231,43.311 0.111,46.029 0.111,57.429 m 1.834,22.92 c 0,-7.115 -1.564,-16.01 0,-22.92 0,-8.951 21.521,-11.871 27.212,-12.829 19.661,-3.311 40.515,-3.311 60.175,0 5.69,0.958 27.209,3.878 27.209,12.829 0.729,3.215 0,7.433 0,10.713 0,3.742 0.83,8.543 0,12.208 0,8.953 -21.519,11.871 -27.209,12.83 -19.66,3.31 -40.515,3.31 -60.175,0 C 23.464,92.22 1.945,89.302 1.945,80.349"
       id="path51"
       style="fill:url(#XMLID_10_)"
       inkscape:connector-curvature="0" />
    <path
       d="m 115.27,54.425 c 0.671,4.573 0.051,9.643 0.051,14.252 0,3.565 1.216,9.359 -1.346,12.368 -4.271,5.015 -12.505,6.905 -18.577,8.334 -11.8,2.777 -24.058,3.654 -36.152,3.654 -11.452,0 -23.015,-0.81 -34.23,-3.223 C 18.434,88.396 10.106,86.571 5.098,81.666 2.114,78.743 3.169,73.906 3.169,70.124 c 0,-5.056 -0.728,-10.69 0.052,-15.7 -3.041,3.654 -1.275,12.391 -1.275,16.694 0,3.514 -1.218,9.306 1.302,12.282 4.13,4.883 12.11,6.75 17.999,8.173 12.385,2.994 25.292,3.902 38,3.902 12.086,0 24.31,-0.848 36.131,-3.471 6.381,-1.414 14.458,-3.222 19.302,-8 2.923,-2.881 1.863,-7.727 1.863,-11.439 -0.002,-4.586 1.959,-14.257 -1.273,-18.14"
       id="path53"
       style="fill:#c6c6c6"
       inkscape:connector-curvature="0" />
    <path
       d="m 115.32,61.056 c 0,3.097 -9.527,6.556 -11.499,7.343 C 90.73,73.625 76.141,74.982 62.174,75.171 46.926,75.378 31.117,74.118 16.682,68.857 15.899,68.572 1.982,62.652 3.19,60.984 c 0.264,-0.363 11.672,4.183 12.449,4.4 15.042,4.237 31,5.145 46.551,4.978 13.896,-0.147 28.103,-1.224 41.503,-5.145 0.839,-0.244 11.627,-3.553 11.627,-4.161"
       id="path55"
       style="fill:#e5e5e5"
       inkscape:connector-curvature="0" />
    <path
       d="m 6.055,52.496 c 4.914,4.908 13.096,6.691 19.621,8.076 10.997,2.334 22.344,3.195 33.569,3.195 10.459,0 20.991,-0.771 31.273,-2.732 7.192,-1.372 16.499,-3.125 21.918,-8.539 C 107.523,47.588 99.34,45.805 92.814,44.421 81.818,42.087 70.472,41.227 59.245,41.227 c -10.459,0 -20.991,0.77 -31.273,2.732 -7.192,1.371 -16.497,3.124 -21.917,8.537"
       id="path57"
       style="fill:#7c7c7c"
       inkscape:connector-curvature="0" />
    <linearGradient
       gradientUnits="userSpaceOnUse"
       id="XMLID_11_"
       x1="0.94679999"
       x2="117.5381"
       y1="28.517599"
       y2="28.517599">
      <stop
         id="stop60"
         offset="0"
         style="stop-color:#DFDFDF" />
      <stop
         id="stop62"
         offset="0.2168"
         style="stop-color:#DADADA" />
      <stop
         id="stop64"
         offset="0.4798"
         style="stop-color:#CBCBCB" />
      <stop
         id="stop66"
         offset="0.7655"
         style="stop-color:#B3B3B3" />
      <stop
         id="stop68"
         offset="1"
         style="stop-color:#9A9999" />
    </linearGradient>
    <path
       d="m 59.245,1.013 c -16.198,0 -34.292,0.914 -49.354,7.533 -9.702,4.263 -8.862,9.425 -8.862,18.819 0,10.065 -1.553,16.549 8.862,21.125 15.062,6.619 33.156,7.533 49.354,7.533 16.196,0 34.29,-0.914 49.353,-7.533 10.408,-4.574 8.859,-11.047 8.859,-21.106 0,-9.401 0.848,-14.573 -8.859,-18.838 C 93.535,1.927 75.441,1.013 59.245,1.013"
       id="path70"
       style="fill:url(#XMLID_11_)"
       inkscape:connector-curvature="0" />
    <linearGradient
       gradientTransform="matrix(0,205.5401,205.5401,0,-94889.922,51003.008)"
       gradientUnits="userSpaceOnUse"
       id="XMLID_12_"
       x1="-248.644"
       x2="-246.86349"
       y1="461.95169"
       y2="461.95169">
      <stop
         id="stop73"
         offset="0"
         style="stop-color:#FFFFFF" />
      <stop
         id="stop75"
         offset="1"
         style="stop-color:#000000" />
    </linearGradient>
    <path
       d="m 0.111,17.058 c 0,7.477 0,14.952 0,22.429 0,10.706 20.244,13.583 27.649,14.883 19.037,3.342 38.954,3.473 58.077,0.773 7.419,-1.048 32.537,-3.766 32.537,-15.165 1.182,-7.066 0,-15.253 0,-22.429 C 118.374,6.841 98.132,3.965 90.726,2.664 71.688,-0.678 51.773,-0.807 32.65,1.893 25.229,2.94 0.111,5.657 0.111,17.058 m 1.834,22.92 c 0,-7.116 -1.563,-16.009 0,-22.919 0,-8.954 21.519,-11.87 27.212,-12.83 19.661,-3.309 40.515,-3.309 60.175,0 5.693,0.96 27.209,3.876 27.209,12.83 0.727,3.216 0,7.432 0,10.713 0,3.742 0.83,8.542 0,12.206 0,8.952 -21.519,11.87 -27.209,12.83 -19.66,3.309 -40.515,3.309 -60.175,0 C 23.464,51.848 1.945,48.93 1.945,39.978"
       id="path77"
       style="fill:url(#XMLID_12_)"
       inkscape:connector-curvature="0" />
    <path
       d="m 115.27,14.055 c 0.688,4.561 0.051,9.649 0.051,14.248 0,3.565 1.216,9.359 -1.346,12.368 -4.271,5.016 -12.504,6.907 -18.577,8.336 -11.8,2.775 -24.058,3.653 -36.152,3.653 -11.452,0 -23.015,-0.808 -34.23,-3.22 C 18.434,48.023 10.104,46.199 5.098,41.294 2.114,38.37 3.169,33.533 3.169,29.752 3.169,24.709 2.42,19.051 3.221,14.056 0.182,17.71 1.946,26.445 1.946,30.748 c 0,3.516 -1.218,9.305 1.302,12.282 4.13,4.882 12.11,6.75 17.999,8.172 12.385,2.995 25.292,3.904 38,3.904 12.086,0 24.31,-0.848 36.131,-3.471 6.381,-1.415 14.458,-3.222 19.302,-8 2.923,-2.881 1.863,-7.725 1.863,-11.438 -0.002,-4.59 1.957,-14.259 -1.273,-18.142"
       id="path79"
       style="fill:#c6c6c6"
       inkscape:connector-curvature="0" />
    <path
       d="m 115.32,20.686 c 0,3.094 -9.531,6.556 -11.499,7.341 C 90.73,33.253 76.141,34.612 62.174,34.801 46.926,35.008 31.117,33.746 16.682,28.485 15.898,28.2 1.985,22.284 3.19,20.614 c 0.262,-0.363 11.674,4.181 12.449,4.4 15.042,4.235 31,5.145 46.551,4.978 13.896,-0.148 28.103,-1.226 41.503,-5.145 0.839,-0.244 11.627,-3.557 11.627,-4.161"
       id="path81"
       style="fill:#e5e5e5"
       inkscape:connector-curvature="0" />
    <path
       d="m 6.406,14.686 c 15.486,8.523 36.565,8.748 53.676,8.583 11.762,-0.115 23.614,-0.8 35.222,-2.802 5.619,-0.97 14.366,-1.932 18.547,-6.401 C 108.159,9.316 99.467,7.761 92.414,6.473 80.549,4.307 68.414,3.652 56.369,3.77 45.55,3.876 34.588,4.46 23.972,6.657 18.28,7.833 9.974,9.489 6.406,14.686"
       id="path83"
       style="fill:#eaeaea"
       inkscape:connector-curvature="0" />
    <path
       d="m 75.179,7.957 c 8.388,0.161 16.835,0.947 24.993,2.965 0.513,0.126 8.388,2.143 8.388,2.402 0,-1.625 -12.061,-3.779 -13.161,-4.017 C 83.467,6.721 71.218,5.464 59.014,5.333 47.72,5.214 36.309,5.961 25.229,8.233 c -1.168,0.239 -12.772,2.226 -12.772,4.119 0,3.243 36.386,4.876 38.848,4.989 3.257,0.15 20.747,3.581 16.654,-2.647 C 64.02,8.7 69.725,7.852 75.179,7.957"
       id="path85"
       style="fill:#f4f4f4"
       inkscape:connector-curvature="0" />
    <path
       d="M 1.712,33.572 C 47.449,47.671 74.84,45.829 118.914,31.923"
       id="path87"
       style="fill:none;stroke:#9a9999"
       inkscape:connector-curvature="0" />
    <path
       d="m 1.37,72.804 c 45.737,14.1 73.128,12.257 117.202,-1.649"
       id="path89"
       style="fill:none;stroke:#9a9999"
       inkscape:connector-curvature="0" />
    <path
       d="m 0.916,112.063 c 45.737,14.098 73.128,12.256 117.202,-1.65"
       id="path91"
       style="fill:none;stroke:#9a9999"
       inkscape:connector-curvature="0" />
  </g>
</svg>
