<?xml version="1.0" encoding="UTF-8" standalone="no"?>
<!-- Created with Inkscape (http://www.inkscape.org/) -->

<svg
   xmlns:dc="http://purl.org/dc/elements/1.1/"
   xmlns:cc="http://creativecommons.org/ns#"
   xmlns:rdf="http://www.w3.org/1999/02/22-rdf-syntax-ns#"
   xmlns:svg="http://www.w3.org/2000/svg"
   xmlns="http://www.w3.org/2000/svg"
   xmlns:xlink="http://www.w3.org/1999/xlink"
   xmlns:sodipodi="http://sodipodi.sourceforge.net/DTD/sodipodi-0.dtd"
   xmlns:inkscape="http://www.inkscape.org/namespaces/inkscape"
   sodipodi:docname="Save.svg"
   inkscape:version="0.48.3.1 r9886"
   sodipodi:version="0.32"
   id="svg2913"
   height="64"
   width="64"
   inkscape:output_extension="org.inkscape.output.svg.inkscape"
   version="1.1">
  <defs
     id="defs3">
    <inkscape:perspective
       sodipodi:type="inkscape:persp3d"
       inkscape:vp_x="0 : 24 : 1"
       inkscape:vp_y="0 : 1000 : 0"
       inkscape:vp_z="48 : 24 : 1"
       inkscape:persp3d-origin="24 : 16 : 1"
       id="perspective104" />
    <radialGradient
       inkscape:collect="always"
       xlink:href="#linearGradient5060"
       id="radialGradient5031"
       gradientUnits="userSpaceOnUse"
       gradientTransform="matrix(-2.774389,0,0,1.969706,112.7623,-872.8854)"
       cx="605.71429"
       cy="486.64789"
       fx="605.71429"
       fy="486.64789"
       r="117.14286" />
    <linearGradient
       inkscape:collect="always"
       id="linearGradient5060">
      <stop
         style="stop-color:black;stop-opacity:1;"
         offset="0"
         id="stop5062" />
      <stop
         style="stop-color:black;stop-opacity:0;"
         offset="1"
         id="stop5064" />
    </linearGradient>
    <radialGradient
       inkscape:collect="always"
       xlink:href="#linearGradient5060"
       id="radialGradient5029"
       gradientUnits="userSpaceOnUse"
       gradientTransform="matrix(2.774389,0,0,1.969706,-1891.633,-872.8854)"
       cx="605.71429"
       cy="486.64789"
       fx="605.71429"
       fy="486.64789"
       r="117.14286" />
    <linearGradient
       id="linearGradient5048">
      <stop
         style="stop-color:black;stop-opacity:0;"
         offset="0"
         id="stop5050" />
      <stop
         id="stop5056"
         offset="0.5"
         style="stop-color:black;stop-opacity:1;" />
      <stop
         style="stop-color:black;stop-opacity:0;"
         offset="1"
         id="stop5052" />
    </linearGradient>
    <linearGradient
       inkscape:collect="always"
       xlink:href="#linearGradient5048"
       id="linearGradient5027"
       gradientUnits="userSpaceOnUse"
       gradientTransform="matrix(2.774389,0,0,1.969706,-1892.179,-872.8854)"
       x1="302.85715"
       y1="366.64789"
       x2="302.85715"
       y2="609.50507" />
    <linearGradient
       inkscape:collect="always"
       id="linearGradient6925">
      <stop
         style="stop-color:#204a87;stop-opacity:1;"
         offset="0"
         id="stop6927" />
      <stop
         style="stop-color:#204a87;stop-opacity:0;"
         offset="1"
         id="stop6929" />
    </linearGradient>
    <linearGradient
       inkscape:collect="always"
       id="linearGradient6901">
      <stop
         style="stop-color:#3465a4;stop-opacity:1;"
         offset="0"
         id="stop6903" />
      <stop
         style="stop-color:#3465a4;stop-opacity:0;"
         offset="1"
         id="stop6905" />
    </linearGradient>
    <linearGradient
       inkscape:collect="always"
       id="linearGradient4991">
      <stop
         style="stop-color:#ffffff;stop-opacity:1;"
         offset="0"
         id="stop4993" />
      <stop
         style="stop-color:#ffffff;stop-opacity:0;"
         offset="1"
         id="stop4995" />
    </linearGradient>
    <radialGradient
       inkscape:collect="always"
       xlink:href="#linearGradient4991"
       id="radialGradient4997"
       cx="23.447077"
       cy="6.4576745"
       fx="23.447077"
       fy="6.4576745"
       r="19.0625"
       gradientTransform="matrix(-1.7482464,-0.01338395,-0.01360542,1.7771739,53.540296,-14.868541)"
       gradientUnits="userSpaceOnUse" />
    <linearGradient
       id="linearGradient2187"
       inkscape:collect="always">
      <stop
         id="stop2189"
         offset="0"
         style="stop-color:#ffffff;stop-opacity:1;" />
      <stop
         id="stop2191"
         offset="1"
         style="stop-color:#ffffff;stop-opacity:0;" />
    </linearGradient>
    <linearGradient
       inkscape:collect="always"
       xlink:href="#linearGradient2187"
       id="linearGradient1764"
       gradientUnits="userSpaceOnUse"
       gradientTransform="matrix(1.2157716,0,0,1.2157716,-13.079108,-11.938571)"
       x1="33.059906"
       y1="27.394117"
       x2="12.624337"
       y2="12.583769" />
    <linearGradient
       inkscape:collect="always"
       id="linearGradient8662">
      <stop
         style="stop-color:#000000;stop-opacity:1;"
         offset="0"
         id="stop8664" />
      <stop
         style="stop-color:#000000;stop-opacity:0;"
         offset="1"
         id="stop8666" />
    </linearGradient>
    <radialGradient
       inkscape:collect="always"
       xlink:href="#linearGradient8662"
       id="radialGradient8668"
       cx="24.837126"
       cy="36.421127"
       fx="24.837126"
       fy="36.421127"
       r="15.644737"
       gradientTransform="matrix(1,0,0,0.536723,0,16.87306)"
       gradientUnits="userSpaceOnUse" />
    <linearGradient
       id="linearGradient2555">
      <stop
         id="stop2557"
         offset="0"
         style="stop-color:#ffffff;stop-opacity:1;" />
      <stop
         style="stop-color:#e6e6e6;stop-opacity:1.0000000;"
         offset="0.50000000"
         id="stop2561" />
      <stop
         id="stop2563"
         offset="0.75000000"
         style="stop-color:#ffffff;stop-opacity:1.0000000;" />
      <stop
         style="stop-color:#e1e1e1;stop-opacity:1.0000000;"
         offset="0.84166664"
         id="stop2565" />
      <stop
         id="stop2559"
         offset="1.0000000"
         style="stop-color:#ffffff;stop-opacity:1.0000000;" />
    </linearGradient>
    <linearGradient
       id="linearGradient4274">
      <stop
         style="stop-color:#ffffff;stop-opacity:0.25490198;"
         offset="0.0000000"
         id="stop4276" />
      <stop
         style="stop-color:#ffffff;stop-opacity:1.0000000;"
         offset="1.0000000"
         id="stop4278" />
    </linearGradient>
    <linearGradient
       id="linearGradient4264"
       inkscape:collect="always">
      <stop
         id="stop4266"
         offset="0"
         style="stop-color:#000000;stop-opacity:1;" />
      <stop
         id="stop4268"
         offset="1"
         style="stop-color:#000000;stop-opacity:0;" />
    </linearGradient>
    <linearGradient
       id="linearGradient4254"
       inkscape:collect="always">
      <stop
         id="stop4256"
         offset="0"
         style="stop-color:#ffffff;stop-opacity:1;" />
      <stop
         id="stop4258"
         offset="1"
         style="stop-color:#ffffff;stop-opacity:0;" />
    </linearGradient>
    <linearGradient
       id="linearGradient4244">
      <stop
         id="stop4246"
         offset="0.0000000"
         style="stop-color:#e4e4e4;stop-opacity:1.0000000;" />
      <stop
         id="stop4248"
         offset="1.0000000"
         style="stop-color:#d3d3d3;stop-opacity:1.0000000;" />
    </linearGradient>
    <linearGradient
       id="linearGradient4236"
       inkscape:collect="always">
      <stop
         id="stop4238"
         offset="0"
         style="stop-color:#eeeeee;stop-opacity:1;" />
      <stop
         id="stop4240"
         offset="1"
         style="stop-color:#eeeeee;stop-opacity:0;" />
    </linearGradient>
    <linearGradient
       id="linearGradient4228">
      <stop
         id="stop4230"
         offset="0.0000000"
         style="stop-color:#bbbbbb;stop-opacity:1.0000000;" />
      <stop
         id="stop4232"
         offset="1.0000000"
         style="stop-color:#9f9f9f;stop-opacity:1.0000000;" />
    </linearGradient>
    <linearGradient
       id="linearGradient4184">
      <stop
         id="stop4186"
         offset="0.0000000"
         style="stop-color:#838383;stop-opacity:1.0000000;" />
      <stop
         id="stop4188"
         offset="1.0000000"
         style="stop-color:#bbbbbb;stop-opacity:0.0000000;" />
    </linearGradient>
    <linearGradient
       gradientTransform="matrix(1.33,0,0,1.33,-6.8757343,-3.2854817)"
       y2="35.28125"
       x2="24.6875"
       y1="35.28125"
       x1="7.0625"
       gradientUnits="userSpaceOnUse"
       id="linearGradient4209"
       xlink:href="#linearGradient4184"
       inkscape:collect="always" />
    <linearGradient
       gradientUnits="userSpaceOnUse"
       y2="40.943935"
       x2="36.183067"
       y1="28.481176"
       x1="7.6046205"
       id="linearGradient4234"
       xlink:href="#linearGradient4228"
       inkscape:collect="always"
       gradientTransform="matrix(1.33,0,0,1.33,-7.93374,-1.5221411)" />
    <linearGradient
       gradientUnits="userSpaceOnUse"
       y2="33.758667"
       x2="12.221823"
       y1="37.205811"
       x1="12.277412"
       id="linearGradient4242"
       xlink:href="#linearGradient4236"
       inkscape:collect="always"
       gradientTransform="matrix(1.33,0,0,1.33,-7.93374,-1.5221411)" />
    <radialGradient
       gradientUnits="userSpaceOnUse"
       gradientTransform="matrix(1.7107019,1.0396583,-0.94534006,1.5555042,-11.065023,-8.0083649)"
       r="20.935818"
       fy="2.958519"
       fx="15.571491"
       cy="2.958519"
       cx="15.571491"
       id="radialGradient4250"
       xlink:href="#linearGradient4244"
       inkscape:collect="always" />
    <linearGradient
       gradientUnits="userSpaceOnUse"
       y2="47.620636"
       x2="44.0961"
       y1="4.433136"
       x1="12.378357"
       id="linearGradient4260"
       xlink:href="#linearGradient4254"
       inkscape:collect="always"
       gradientTransform="matrix(1.33,0,0,1.33,-7.93374,-1.5221411)" />
    <radialGradient
       gradientUnits="userSpaceOnUse"
       gradientTransform="matrix(1,0,0,0.651032,0,9.455693)"
       r="23.555494"
       fy="27.096155"
       fx="23.201941"
       cy="27.096155"
       cx="23.201941"
       id="radialGradient4270"
       xlink:href="#linearGradient4264"
       inkscape:collect="always" />
    <linearGradient
       gradientUnits="userSpaceOnUse"
       y2="26.357183"
       x2="23.688078"
       y1="11.318835"
       x1="23.688078"
       id="linearGradient4272"
       xlink:href="#linearGradient4274"
       inkscape:collect="always"
       gradientTransform="matrix(1.33,0,0,1.33,-7.93374,-1.5221411)" />
    <linearGradient
       inkscape:collect="always"
       xlink:href="#linearGradient2555"
       id="linearGradient2553"
       x1="33.431175"
       y1="31.964777"
       x2="21.747974"
       y2="11.780679"
       gradientUnits="userSpaceOnUse" />
    <linearGradient
       inkscape:collect="always"
       xlink:href="#linearGradient6901"
       id="linearGradient6907"
       x1="14.751649"
       y1="15.868432"
       x2="8.8953285"
       y2="16.743431"
       gradientUnits="userSpaceOnUse"
       gradientTransform="matrix(1.33,0,0,1.33,-7.93374,-8.3383911)" />
    <linearGradient
       inkscape:collect="always"
       xlink:href="#linearGradient6925"
       id="linearGradient6931"
       x1="12.25"
       y1="18.25"
       x2="7"
       y2="21.118431"
       gradientUnits="userSpaceOnUse"
       gradientTransform="matrix(1.33,0,0,1.33,-7.93374,-8.3383911)" />
  </defs>
  <sodipodi:namedview
     inkscape:window-y="24"
     inkscape:window-x="0"
     inkscape:window-height="744"
     inkscape:window-width="1280"
     inkscape:document-units="px"
     inkscape:grid-bbox="true"
     showgrid="false"
     inkscape:current-layer="layer2"
     inkscape:cy="19.490845"
     inkscape:cx="-291.16342"
     inkscape:zoom="1"
     inkscape:pageshadow="2"
     inkscape:pageopacity="0.0"
     borderopacity="0.22745098"
     bordercolor="#666666"
     pagecolor="#ffffff"
     id="base"
     inkscape:showpageshadow="false"
     fill="#3465a4"
     stroke="#204a87"
     fit-margin-top="0"
     fit-margin-left="0"
     fit-margin-right="0"
     fit-margin-bottom="0"
     inkscape:window-maximized="1" />
  <metadata
     id="metadata4">
    <rdf:RDF>
      <cc:Work
         rdf:about="">
        <dc:format>image/svg+xml</dc:format>
        <dc:type
           rdf:resource="http://purl.org/dc/dcmitype/StillImage" />
        <dc:title>Save</dc:title>
        <dc:creator>
          <cc:Agent>
            <dc:title>Jakub Steiner</dc:title>
          </cc:Agent>
        </dc:creator>
        <dc:subject>
          <rdf:Bag>
            <rdf:li>hdd</rdf:li>
            <rdf:li>hard drive</rdf:li>
            <rdf:li>save</rdf:li>
            <rdf:li>io</rdf:li>
            <rdf:li>store</rdf:li>
          </rdf:Bag>
        </dc:subject>
        <cc:license
           rdf:resource="http://creativecommons.org/licenses/publicdomain/" />
        <dc:identifier />
        <dc:source>http://jimmac.musichall.cz</dc:source>
      </cc:Work>
      <cc:License
         rdf:about="http://creativecommons.org/licenses/publicdomain/">
        <cc:permits
           rdf:resource="http://creativecommons.org/ns#Reproduction" />
        <cc:permits
           rdf:resource="http://creativecommons.org/ns#Distribution" />
        <cc:permits
           rdf:resource="http://creativecommons.org/ns#DerivativeWorks" />
      </cc:License>
    </rdf:RDF>
  </metadata>
  <g
     inkscape:label="pix"
     id="layer2"
     inkscape:groupmode="layer"
     transform="translate(8.5180895,8.4006217)">
    <g
       style="display:inline"
       id="g5022"
       transform="matrix(0.03207169,0,0,0.02565839,52.567335,47.192141)">
      <rect
         y="-150.69685"
         x="-1559.2523"
         height="478.35718"
         width="1339.6335"
         id="rect4173"
         style="opacity:0.40206185;color:#000000;fill:url(#linearGradient5027);fill-opacity:1;fill-rule:nonzero;stroke:none;stroke-width:1;marker:none;visibility:visible;display:inline;overflow:visible" />
      <path
         sodipodi:nodetypes="cccc"
         id="path5058"
         d="m -219.61876,-150.68038 c 0,0 0,478.33079 0,478.33079 142.874166,0.90045 345.40022,-107.16966 345.40014,-239.196175 0,-132.026537 -159.436816,-239.134595 -345.40014,-239.134615 z"
         style="opacity:0.40206185;color:#000000;fill:url(#radialGradient5029);fill-opacity:1;fill-rule:nonzero;stroke:none;stroke-width:1;marker:none;visibility:visible;display:inline;overflow:visible"
         inkscape:connector-curvature="0" />
      <path
         style="opacity:0.40206185;color:#000000;fill:url(#radialGradient5031);fill-opacity:1;fill-rule:nonzero;stroke:none;stroke-width:1;marker:none;visibility:visible;display:inline;overflow:visible"
         d="m -1559.2523,-150.68038 c 0,0 0,478.33079 0,478.33079 -142.8742,0.90045 -345.4002,-107.16966 -345.4002,-239.196175 0,-132.026537 159.4368,-239.134595 345.4002,-239.134615 z"
         id="path5018"
         sodipodi:nodetypes="cccc"
         inkscape:connector-curvature="0" />
    </g>
    <path
       sodipodi:nodetypes="cccsccccccccc"
       id="path4196"
       d="m 7.0762277,9.0681542 c -0.83125,0 -1.3715612,0.3859394 -1.7040599,1.1221918 -1.3e-6,0 -8.6034381,22.74773 -8.6034381,22.74773 0,0 -0.3325,0.893174 -0.3325,2.369063 0,0 0,12.834457 0,12.834457 0,1.439876 0.8748547,2.161253 2.2028125,2.16125 l 51.2881228,0 c 1.309855,0 2.119688,-0.955179 2.119688,-2.452187 l 0,-12.834458 c 0,0 0.14093,-1.024662 -0.124688,-1.745625 L 42.986228,10.398158 C 42.740809,9.7173232 42.139144,9.0839878 41.489978,9.0681542 l -34.4137503,0 z"
       style="fill:none;stroke:#535353;stroke-width:2.66000009;stroke-linecap:round;stroke-linejoin:round;stroke-miterlimit:4;stroke-opacity:1;stroke-dasharray:none"
       inkscape:connector-curvature="0" />
    <path
       sodipodi:nodetypes="ccccccccc"
       id="path4170"
       d="m -3.5798633,34.383619 1.0169208,-0.920646 50.0208865,0.08313 4.605002,0.422006 0,13.883248 c 0,1.497007 -0.807334,2.45163 -2.117189,2.45163 l -51.3153733,0 c -1.327958,0 -2.210247,-0.720928 -2.210247,-2.160803 l 0,-13.75856 z"
       style="fill:url(#linearGradient4234);fill-opacity:1;fill-rule:evenodd;stroke:none"
       inkscape:connector-curvature="0" />
    <path
       sodipodi:nodetypes="csccccccs"
       id="path3093"
       d="m -3.213458,32.944016 c -0.95,1.947501 -8.188e-4,3.1825 1.3775,3.1825 0,0 51.869998,0 51.869998,0 1.488332,-0.03167 2.454167,-1.345834 1.899999,-2.850001 l -8.93,-22.89023 c -0.245417,-0.6808347 -0.870833,-1.3141701 -1.52,-1.3300037 l -34.3899986,0 c -0.83125,0 -1.3774997,0.4037521 -1.7099983,1.1400037 0,0 -8.5975001,22.747731 -8.5975001,22.747731 z"
       style="fill:url(#radialGradient4250);fill-opacity:1;fill-rule:evenodd;stroke:none"
       inkscape:connector-curvature="0" />
    <rect
       y="39.939522"
       x="2.5173945"
       height="7.3981252"
       width="23.44125"
       id="rect4174"
       style="color:#000000;fill:url(#linearGradient4209);fill-opacity:1;fill-rule:evenodd;stroke:none;stroke-width:2.40899992;marker:none;visibility:visible;display:inline;overflow:visible" />
    <path
       sodipodi:nodetypes="cscc"
       id="path4194"
       d="m 2.5173929,47.337643 c 0,0 0,-5.335275 0,-5.335275 2.4412515,4.228371 11.0343321,5.335275 17.2068711,5.335275 0,0 -17.2068711,0 -17.2068711,0 z"
       style="opacity:0.81142853;fill:url(#linearGradient4242);fill-opacity:1;fill-rule:evenodd;stroke:none"
       inkscape:connector-curvature="0" />
    <path
       sodipodi:nodetypes="cccccccc"
       id="path4201"
       d="m 51.645155,32.564014 c 0.08449,1.662465 -0.550624,3.080067 -1.758414,3.117187 0,0 -50.69789266,-1e-6 -50.69789252,0 -1.71467838,0 -2.48408888,-0.432179 -2.77178748,-1.154514 0.1220427,1.255962 1.0983372,2.193577 2.77178748,2.193577 -1.4e-7,-10e-7 50.69789252,0 50.69789252,0 1.431089,-0.04398 2.331231,-1.893952 1.798378,-3.983072 l -0.03996,-0.173178 z"
       style="fill:#ffffff;fill-opacity:1;fill-rule:evenodd;stroke:none"
       inkscape:connector-curvature="0" />
    <path
       id="path4211"
       d="m 6.6546975,11.985671 c -0.06128,0.266427 -0.249375,0.51444 -0.249375,0.789688 0,1.261645 0.7860034,2.38 1.7871875,3.449687 0.3195564,-0.204919 0.4856056,-0.471362 0.83125,-0.665 C 7.773149,14.474761 6.9577433,13.276992 6.6546975,11.985671 z m 35.4528125,0 c -0.304207,1.28959 -1.119876,2.490327 -2.369063,3.574375 0.364612,0.204265 0.537305,0.48976 0.872813,0.706563 1.007158,-1.072853 1.745625,-2.225149 1.745625,-3.49125 0,-0.275248 -0.18832,-0.523261 -0.249375,-0.789688 z m 2.909375,11.221875 c -0.816342,5.373348 -9.707155,9.6425 -20.656563,9.6425 -10.922297,2e-6 -19.7639989,-4.246405 -20.6149995,-9.600937 -0.043035,0.262186 -0.16625,0.521203 -0.16625,0.789687 4e-7,5.74287 9.2955085,10.432189 20.7812495,10.432188 11.485742,0 20.822812,-4.689317 20.822813,-10.432188 0,-0.283188 -0.118438,-0.555083 -0.16625,-0.83125 z"
       style="opacity:0.69142857;color:#000000;fill:url(#linearGradient4272);fill-opacity:1;fill-rule:evenodd;stroke:none;stroke-width:2;marker:none;visibility:visible;display:inline;overflow:visible"
       inkscape:connector-curvature="0" />
    <path
       transform="matrix(1.33,0,0,1.33,-7.8161834,-1.2870237)"
       d="m 8.5736699,25.593554 c 0,0.561378 -0.6133786,1.016466 -1.3700194,1.016466 -0.7566409,0 -1.3700195,-0.455088 -1.3700195,-1.016466 0,-0.561379 0.6133786,-1.016466 1.3700195,-1.016466 0.7566408,0 1.3700194,0.455087 1.3700194,1.016466 z"
       sodipodi:ry="1.016466"
       sodipodi:rx="1.3700194"
       sodipodi:cy="25.593554"
       sodipodi:cx="7.2036505"
       id="path4224"
       style="color:#000000;fill:#ffffff;fill-opacity:0.45762706;fill-rule:evenodd;stroke:none;stroke-width:2;marker:none;visibility:visible;display:inline;overflow:visible"
       sodipodi:type="arc" />
    <path
       sodipodi:type="arc"
       style="color:#000000;fill:#ffffff;fill-opacity:0.45762706;fill-rule:evenodd;stroke:none;stroke-width:2;marker:none;visibility:visible;display:inline;overflow:visible"
       id="path4226"
       sodipodi:cx="7.2036505"
       sodipodi:cy="25.593554"
       sodipodi:rx="1.3700194"
       sodipodi:ry="1.016466"
       d="m 8.5736699,25.593554 c 0,0.561378 -0.6133786,1.016466 -1.3700194,1.016466 -0.7566409,0 -1.3700195,-0.455088 -1.3700195,-1.016466 0,-0.561379 0.6133786,-1.016466 1.3700195,-1.016466 0.7566408,0 1.3700194,0.455087 1.3700194,1.016466 z"
       transform="matrix(1.33,0,0,1.33,37.242436,-1.4045824)" />
    <path
       style="fill:none;stroke:url(#linearGradient4260);stroke-width:1.33000028;stroke-linecap:round;stroke-linejoin:round;stroke-miterlimit:4;stroke-opacity:1;stroke-dasharray:none"
       d="m 7.5508049,9.6707705 c -0.8002503,0 -1.320412,0.3715465 -1.6405098,1.0803415 -1.3e-6,0 -8.5319698,22.065661 -8.5319698,22.065661 0,0 -0.3201001,0.859864 -0.3201001,2.280714 0,0 0,12.355828 0,12.355828 0,1.801804 0.5905946,2.163775 2.12066384,2.163775 l 50.12358296,0 c 1.759758,0 2.04064,-0.420808 2.04064,-2.443864 l 0,-12.355828 c 0,0 0.135674,-0.986449 -0.120039,-1.680525 L 42.454129,10.784926 C 42.217864,10.12948 41.721762,9.6860137 41.096804,9.6707705 l -33.5459991,0 z"
       id="path4252"
       sodipodi:nodetypes="cccsccccccccc"
       inkscape:connector-curvature="0" />
    <path
       style="fill:none;stroke:#ffffff;stroke-width:1.33000064px;stroke-linecap:square;stroke-linejoin:miter;stroke-opacity:0.42372885"
       d="m 45.93126,40.27865 0,6.677843"
       id="path4282"
       inkscape:connector-curvature="0" />
    <path
       id="path4284"
       d="m 43.27126,40.358153 0,6.677844"
       style="fill:none;stroke:#ffffff;stroke-width:1.33000064px;stroke-linecap:square;stroke-linejoin:miter;stroke-opacity:0.42372885"
       inkscape:connector-curvature="0" />
    <path
       style="fill:none;stroke:#ffffff;stroke-width:1.33000064px;stroke-linecap:square;stroke-linejoin:miter;stroke-opacity:0.42372885"
       d="m 40.61126,40.358153 0,6.677844"
       id="path4286"
       inkscape:connector-curvature="0" />
    <path
       id="path4288"
       d="m 37.95126,40.358153 0,6.677844"
       style="fill:none;stroke:#ffffff;stroke-width:1.33000064px;stroke-linecap:square;stroke-linejoin:miter;stroke-opacity:0.42372885"
       inkscape:connector-curvature="0" />
    <path
       style="fill:none;stroke:#ffffff;stroke-width:1.33000064px;stroke-linecap:square;stroke-linejoin:miter;stroke-opacity:0.42372885"
       d="m 35.29126,40.358153 0,6.677844"
       id="path4290"
       inkscape:connector-curvature="0" />
    <path
       id="path4292"
       d="m 32.63126,40.358153 0,6.677844"
       style="fill:none;stroke:#ffffff;stroke-width:1.33000064px;stroke-linecap:square;stroke-linejoin:miter;stroke-opacity:0.42372885"
       inkscape:connector-curvature="0" />
    <path
       id="path4294"
       d="m 44.60126,40.345015 0,6.677844"
       style="opacity:0.09714284;fill:none;stroke:#000000;stroke-width:1.33000064px;stroke-linecap:square;stroke-linejoin:miter;stroke-opacity:1"
       inkscape:connector-curvature="0" />
    <path
       style="opacity:0.09714284;fill:none;stroke:#000000;stroke-width:1.33000064px;stroke-linecap:square;stroke-linejoin:miter;stroke-opacity:1"
       d="m 41.94126,40.424519 0,6.677843"
       id="path4296"
       inkscape:connector-curvature="0" />
    <path
       id="path4298"
       d="m 39.28126,40.424519 0,6.677843"
       style="opacity:0.09714284;fill:none;stroke:#000000;stroke-width:1.33000064px;stroke-linecap:square;stroke-linejoin:miter;stroke-opacity:1"
       inkscape:connector-curvature="0" />
    <path
       style="opacity:0.09714284;fill:none;stroke:#000000;stroke-width:1.33000064px;stroke-linecap:square;stroke-linejoin:miter;stroke-opacity:1"
       d="m 36.62126,40.424519 0,6.677843"
       id="path4300"
       inkscape:connector-curvature="0" />
    <path
       id="path4302"
       d="m 33.96126,40.424519 0,6.677843"
       style="opacity:0.09714284;fill:none;stroke:#000000;stroke-width:1.33000064px;stroke-linecap:square;stroke-linejoin:miter;stroke-opacity:1"
       inkscape:connector-curvature="0" />
    <path
       id="path4572"
       d="m 2.54001,39.957234 0,7.356562 16.708125,0 L 2.9971975,46.856609 2.54001,39.957234 z"
       style="opacity:0.43999999;fill:#ffffff;fill-opacity:1;fill-rule:evenodd;stroke:none"
       inkscape:connector-curvature="0" />
    <path
       sodipodi:type="arc"
       style="opacity:0.20571427;color:#000000;fill:url(#linearGradient2553);fill-opacity:1;fill-rule:evenodd;stroke:none;stroke-width:0.93365198;marker:none;visibility:visible;display:inline;overflow:visible"
       id="path2545"
       sodipodi:cx="25"
       sodipodi:cy="19.5625"
       sodipodi:rx="14.875"
       sodipodi:ry="6.6875"
       d="m 39.875,19.5625 c 0,3.693404 -6.659764,6.6875 -14.875,6.6875 -8.215236,0 -14.875,-2.994096 -14.875,-6.6875 0,-3.693404 6.659764,-6.6875 14.875,-6.6875 8.215236,0 14.875,2.994096 14.875,6.6875 z"
       transform="matrix(1.3802939,0,0,1.4107935,-10.105468,-4.307999)" />
  </g>
  <g
     inkscape:groupmode="layer"
     id="layer1"
     inkscape:label="down"
     transform="translate(8.5180895,8.4006217)">
    <path
       transform="matrix(1.5031527,0,0,-1.0102693,-13.133674,63.036777)"
       d="m 40.481863,36.421127 c 0,4.637477 -7.004387,8.396894 -15.644737,8.396894 -8.64035,0 -15.6447375,-3.759417 -15.6447375,-8.396894 0,-4.637476 7.0043875,-8.396893 15.6447375,-8.396893 8.64035,0 15.644737,3.759417 15.644737,8.396893 z"
       sodipodi:ry="8.3968935"
       sodipodi:rx="15.644737"
       sodipodi:cy="36.421127"
       sodipodi:cx="24.837126"
       id="path8660"
       style="opacity:0.14117647;color:#000000;fill:url(#radialGradient8668);fill-opacity:1;fill-rule:evenodd;stroke:none;stroke-width:1;marker:none;visibility:visible;display:inline;overflow:visible"
       sodipodi:type="arc" />
    <path
       style="color:#000000;fill:url(#linearGradient6907);fill-opacity:1;fill-rule:nonzero;stroke:url(#linearGradient6931);stroke-width:1.3299998;stroke-linecap:butt;stroke-linejoin:miter;stroke-miterlimit:4;stroke-opacity:1;stroke-dasharray:none;stroke-dashoffset:0;marker:none;visibility:visible;display:block;overflow:visible"
       d="M -3.6731514,26.022417 C -5.0437196,-15.500889 30.292609,-8.9383744 30.080873,12.660565 l 9.726176,0 L 24.674737,29.931921 8.8048766,12.660565 c 0,0 10.0301054,0 10.0301054,0 0.607893,-14.5892571 -22.2344429,-18.85761 -22.5081334,13.361852 z"
       id="path1432"
       sodipodi:nodetypes="ccccccc"
       inkscape:connector-curvature="0" />
    <path
       sodipodi:nodetypes="ccccccc"
       id="path2177"
       d="m 2.2596597,3.7700682 c 6.3070857,-12.1617 27.2093073,-8.4941253 26.7295333,9.9421338 l 8.402105,0 c 0,0 -12.722547,14.57331 -12.722547,14.57331 L 11.240444,13.712202 c 0,0 8.587332,0 8.587332,0 C 20.189077,-1.6828563 6.5928724,-0.97747746 2.2596597,3.7700682 z"
       style="opacity:0.47159095;color:#000000;fill:none;stroke:url(#linearGradient1764);stroke-width:1.32999909;stroke-linecap:butt;stroke-linejoin:miter;stroke-miterlimit:10;stroke-opacity:1;stroke-dasharray:none;stroke-dashoffset:0;marker:none;visibility:visible;display:block;overflow:visible"
       inkscape:connector-curvature="0" />
    <path
       style="opacity:0.49431817;color:#000000;fill:url(#radialGradient4997);fill-opacity:1;fill-rule:nonzero;stroke:none;stroke-width:0.9999997;marker:none;visibility:visible;display:inline;overflow:visible"
       d="m 38.306576,13.223054 -2.638954,3.385793 C 28.472279,14.592178 25.179043,20.238872 14.821608,18.912128 L 9.6860973,13.048111 19.244102,13.158215 C 19.308941,-2.5975031 3.164192,-1.6897663 -1.2448158,9.7866215 3.8197627,-10.015683 29.16437,-7.2658634 29.683076,13.093378 l 8.6235,0.129676 z"
       id="path4989"
       sodipodi:nodetypes="cccccccc"
       inkscape:connector-curvature="0" />
  </g>
</svg>
