<?xml version="1.0" encoding="UTF-8" standalone="no"?>
<!-- Created with Inkscape (http://www.inkscape.org/) -->

<svg
   xmlns:dc="http://purl.org/dc/elements/1.1/"
   xmlns:cc="http://creativecommons.org/ns#"
   xmlns:rdf="http://www.w3.org/1999/02/22-rdf-syntax-ns#"
   xmlns:svg="http://www.w3.org/2000/svg"
   xmlns="http://www.w3.org/2000/svg"
   xmlns:xlink="http://www.w3.org/1999/xlink"
   xmlns:sodipodi="http://sodipodi.sourceforge.net/DTD/sodipodi-0.dtd"
   xmlns:inkscape="http://www.inkscape.org/namespaces/inkscape"
   width="48.000000px"
   height="48.000000px"
   id="svg97"
   sodipodi:version="0.32"
   inkscape:version="0.48.3.1 r9886"
   sodipodi:docname="ProfileManager.svg"
   inkscape:export-filename="/home/jimmac/Desktop/horlander-style3.png"
   inkscape:export-xdpi="90.000000"
   inkscape:export-ydpi="90.000000"
   inkscape:output_extension="org.inkscape.output.svg.inkscape"
   version="1.1">
  <defs
     id="defs3">
    <inkscape:perspective
       sodipodi:type="inkscape:persp3d"
       inkscape:vp_x="0 : 24 : 1"
       inkscape:vp_y="0 : 1000 : 0"
       inkscape:vp_z="48 : 24 : 1"
       inkscape:persp3d-origin="24 : 16 : 1"
       id="perspective71" />
    <linearGradient
       inkscape:collect="always"
       id="linearGradient5060">
      <stop
         style="stop-color:black;stop-opacity:1;"
         offset="0"
         id="stop5062" />
      <stop
         style="stop-color:black;stop-opacity:0;"
         offset="1"
         id="stop5064" />
    </linearGradient>
    <linearGradient
       id="linearGradient5048">
      <stop
         style="stop-color:black;stop-opacity:0;"
         offset="0"
         id="stop5050" />
      <stop
         id="stop5056"
         offset="0.5"
         style="stop-color:black;stop-opacity:1;" />
      <stop
         style="stop-color:black;stop-opacity:0;"
         offset="1"
         id="stop5052" />
    </linearGradient>
    <linearGradient
       id="linearGradient9766">
      <stop
         style="stop-color:#6194cb;stop-opacity:1;"
         offset="0"
         id="stop9768" />
      <stop
         style="stop-color:#729fcf;stop-opacity:1;"
         offset="1"
         id="stop9770" />
    </linearGradient>
    <linearGradient
       id="linearGradient3096">
      <stop
         id="stop3098"
         offset="0"
         style="stop-color:#424242;stop-opacity:1;" />
      <stop
         id="stop3100"
         offset="1.0000000"
         style="stop-color:#777777;stop-opacity:1.0000000;" />
    </linearGradient>
    <linearGradient
       id="linearGradient319"
       inkscape:collect="always">
      <stop
         id="stop320"
         offset="0"
         style="stop-color:#ffffff;stop-opacity:1;" />
      <stop
         id="stop321"
         offset="1"
         style="stop-color:#ffffff;stop-opacity:0;" />
    </linearGradient>
    <linearGradient
       id="linearGradient1789">
      <stop
         style="stop-color:#202020;stop-opacity:1.0000000;"
         offset="0.0000000"
         id="stop1790" />
      <stop
         style="stop-color:#b9b9b9;stop-opacity:1.0000000;"
         offset="1.0000000"
         id="stop1791" />
    </linearGradient>
    <linearGradient
       id="linearGradient3983">
      <stop
         style="stop-color:#ffffff;stop-opacity:0.87628865;"
         offset="0.0000000"
         id="stop3984" />
      <stop
         style="stop-color:#fffffe;stop-opacity:0.0000000;"
         offset="1.0000000"
         id="stop3985" />
    </linearGradient>
    <linearGradient
       id="linearGradient12512">
      <stop
         id="stop12513"
         offset="0.0000000"
         style="stop-color:#ffffff;stop-opacity:1.0000000;" />
      <stop
         id="stop12517"
         offset="0.50000000"
         style="stop-color:#fff520;stop-opacity:0.89108908;" />
      <stop
         id="stop12514"
         offset="1.0000000"
         style="stop-color:#fff300;stop-opacity:0.0000000;" />
    </linearGradient>
    <linearGradient
       gradientUnits="userSpaceOnUse"
       y2="6037.6113"
       x2="2375.5308"
       y1="6145.3945"
       x1="2482.9919"
       id="linearGradient2646"
       xlink:href="#BlackTransparent" />
    <linearGradient
       id="BlackTransparent">
      <stop
         stop-color="black"
         id="stop11"
         offset="0" />
      <stop
         stop-color="black"
         stop-opacity="0"
         id="stop13"
         offset="1" />
    </linearGradient>
    <linearGradient
       gradientUnits="userSpaceOnUse"
       gradientTransform="scale(0.9886127,1.0115185)"
       y2="47.812668"
       x2="83.675858"
       y1="44.053135"
       x1="79.829231"
       spreadMethod="pad"
       id="linearGradient2648"
       xlink:href="#WhiteTransparent" />
    <linearGradient
       id="WhiteTransparent">
      <stop
         stop-color="white"
         id="stop6"
         offset="0" />
      <stop
         stop-color="white"
         stop-opacity="0"
         id="stop8"
         offset="1" />
    </linearGradient>
    <linearGradient
       gradientUnits="userSpaceOnUse"
       gradientTransform="scale(1.0305396,0.97036546)"
       y2="33.172035"
       x2="86.887421"
       y1="25.779484"
       x1="93.848137"
       id="linearGradient2650"
       xlink:href="#WhiteTransparent" />
    <linearGradient
       id="linearGradient6992">
      <stop
         stop-color="white"
         id="stop6994"
         offset="0" />
      <stop
         stop-color="white"
         stop-opacity="0"
         id="stop6996"
         offset="1" />
    </linearGradient>
    <linearGradient
       gradientUnits="userSpaceOnUse"
       gradientTransform="scale(1.0051837,0.99484302)"
       y2="37.38924"
       x2="94.160507"
       y1="43.505783"
       x1="88.10717"
       id="linearGradient2652"
       xlink:href="#WhiteTransparent" />
    <linearGradient
       id="linearGradient6999">
      <stop
         stop-color="white"
         id="stop7001"
         offset="0" />
      <stop
         stop-color="white"
         stop-opacity="0"
         id="stop7003"
         offset="1" />
    </linearGradient>
    <linearGradient
       gradientUnits="userSpaceOnUse"
       gradientTransform="scale(0.98878348,1.0113438)"
       y2="76.4729"
       x2="40.966862"
       y1="88.632996"
       x1="53.403946"
       spreadMethod="pad"
       id="linearGradient2654"
       xlink:href="#BlackTransparent" />
    <linearGradient
       id="linearGradient7006">
      <stop
         stop-color="black"
         id="stop7008"
         offset="0" />
      <stop
         stop-color="black"
         stop-opacity="0"
         id="stop7010"
         offset="1" />
    </linearGradient>
    <linearGradient
       gradientUnits="userSpaceOnUse"
       gradientTransform="scale(0.9983675,1.0016352)"
       y2="93.403931"
       x2="37.688839"
       y1="85.275032"
       x1="29.53705"
       id="linearGradient2656"
       xlink:href="#WhiteTransparent" />
    <linearGradient
       id="linearGradient7013">
      <stop
         stop-color="white"
         id="stop7015"
         offset="0" />
      <stop
         stop-color="white"
         stop-opacity="0"
         id="stop7017"
         offset="1" />
    </linearGradient>
    <clipPath
       id="clipoutline2"
       clipPathUnits="userSpaceOnUse">
      <path
         d="m 55.8,12 0.76,0.16 c 8.84,-2.94 28.68,8.64 24.26,18.96 -1.12,1.62 -0.93,4.5 0.42,6.31 L 56.43,62.25 c -1.39,-1.39 -4.48,-1.36 -5.9,0 L 9.5,101.63 c -3.74,3.59 -0.8,6.64 0.78,8.25 l 7.36,7.36 c 1.61,1.6 5.86,3.76 8.88,0.56 L 65.24,76.99 c 1.35,-1.42 1.36,-4.47 0,-5.87 0,0 0.01,-0.02 0,-0.02 L 90.15,46.2 c 2.63,2.37 5.11382,2.57485 7.47,1.93 4.55057,-1.24543 7.08725,3.20664 9.81,6.46 l -1.23,1.21 c -1.82,1.84 -1.65,4.94 0.39,6.98 2.04,2.04 5.15,2.21 6.97,0.39 l 8.14,-8.13 c 1.82,-1.84 1.65,-4.94 -0.4,-6.97 -1.84,-1.85 -4.51,-2.09 -6.37,-0.77 -5.58,-6.26 -2.65,-7.2 -10.01,-15.35 L 91.13,17.86 C 81.2,8.12 68.3,8.13 55.8,12 z"
         id="outline2"
         inkscape:connector-curvature="0" />
    </clipPath>
    <linearGradient
       gradientUnits="userSpaceOnUse"
       gradientTransform="scale(1.030675,0.97023795)"
       y2="55.614986"
       x2="110.02714"
       y1="45.523941"
       x1="120.218"
       id="linearGradient2658"
       xlink:href="#WhiteTransparent" />
    <linearGradient
       id="linearGradient7022">
      <stop
         stop-color="white"
         id="stop7024"
         offset="0" />
      <stop
         stop-color="white"
         stop-opacity="0"
         id="stop7026"
         offset="1" />
    </linearGradient>
    <linearGradient
       inkscape:collect="always"
       xlink:href="#linearGradient5048"
       id="linearGradient7169"
       gradientUnits="userSpaceOnUse"
       gradientTransform="matrix(2.774389,0,0,1.969706,-1892.179,-872.8854)"
       x1="302.85715"
       y1="366.64789"
       x2="302.85715"
       y2="609.50507" />
    <radialGradient
       inkscape:collect="always"
       xlink:href="#linearGradient5060"
       id="radialGradient7171"
       gradientUnits="userSpaceOnUse"
       gradientTransform="matrix(2.774389,0,0,1.969706,-1891.633,-872.8854)"
       cx="605.71429"
       cy="486.64789"
       fx="605.71429"
       fy="486.64789"
       r="117.14286" />
    <radialGradient
       inkscape:collect="always"
       xlink:href="#linearGradient5060"
       id="radialGradient7173"
       gradientUnits="userSpaceOnUse"
       gradientTransform="matrix(-2.774389,0,0,1.969706,112.7623,-872.8854)"
       cx="605.71429"
       cy="486.64789"
       fx="605.71429"
       fy="486.64789"
       r="117.14286" />
    <radialGradient
       inkscape:collect="always"
       xlink:href="#linearGradient1789"
       id="radialGradient7175"
       gradientUnits="userSpaceOnUse"
       gradientTransform="matrix(1.055022,-0.02734504,0.177703,1.190929,-3.572177,-7.125301)"
       cx="20.706017"
       cy="37.517986"
       fx="20.706017"
       fy="37.517986"
       r="30.905205" />
    <linearGradient
       inkscape:collect="always"
       xlink:href="#linearGradient3096"
       id="linearGradient7177"
       gradientUnits="userSpaceOnUse"
       x1="18.112709"
       y1="31.367750"
       x2="15.514889"
       y2="6.1802502" />
    <linearGradient
       inkscape:collect="always"
       xlink:href="#linearGradient3983"
       id="linearGradient7179"
       gradientUnits="userSpaceOnUse"
       gradientTransform="matrix(1.516844,0,0,0.708978,-0.879573,-1.318166)"
       x1="6.2297964"
       y1="13.773066"
       x2="9.8980894"
       y2="66.834053" />
    <linearGradient
       inkscape:collect="always"
       xlink:href="#linearGradient9766"
       id="linearGradient7181"
       gradientUnits="userSpaceOnUse"
       x1="22.175976"
       y1="36.987999"
       x2="22.065331"
       y2="32.050499" />
    <linearGradient
       inkscape:collect="always"
       xlink:href="#linearGradient319"
       id="linearGradient7183"
       gradientUnits="userSpaceOnUse"
       gradientTransform="matrix(1.317489,0,0,0.816256,-0.879573,-1.318166)"
       x1="13.035696"
       y1="32.567184"
       x2="12.853771"
       y2="46.689312" />
  </defs>
  <sodipodi:namedview
     fill="#729fcf"
     id="base"
     pagecolor="#ffffff"
     bordercolor="#666666"
     borderopacity="0.10196078"
     inkscape:pageopacity="0.0"
     inkscape:pageshadow="2"
     inkscape:zoom="5.6568542"
     inkscape:cx="12.523366"
     inkscape:cy="25.312409"
     inkscape:current-layer="layer1"
     showgrid="false"
     inkscape:grid-bbox="true"
     inkscape:document-units="px"
     inkscape:window-width="872"
     inkscape:window-height="659"
     inkscape:window-x="195"
     inkscape:window-y="30"
     inkscape:showpageshadow="false"
     stroke="#3465a4"
     inkscape:window-maximized="0" />
  <metadata
     id="metadata4">
    <rdf:RDF>
      <cc:Work
         rdf:about="">
        <dc:format>image/svg+xml</dc:format>
        <dc:type
           rdf:resource="http://purl.org/dc/dcmitype/StillImage" />
        <dc:title>New Folder</dc:title>
        <dc:date />
        <dc:creator>
          <cc:Agent>
            <dc:title>Jakub Steiner</dc:title>
          </cc:Agent>
        </dc:creator>
        <cc:license
           rdf:resource="http://creativecommons.org/licenses/publicdomain/" />
        <dc:source>http://jimmac.musichall.cz</dc:source>
        <dc:subject>
          <rdf:Bag>
            <rdf:li>folder</rdf:li>
            <rdf:li>directory</rdf:li>
            <rdf:li>create</rdf:li>
            <rdf:li>new</rdf:li>
          </rdf:Bag>
        </dc:subject>
        <dc:contributor>
          <cc:Agent>
            <dc:title>Tuomas Kuosmanen</dc:title>
          </cc:Agent>
        </dc:contributor>
      </cc:Work>
      <cc:License
         rdf:about="http://creativecommons.org/licenses/publicdomain/">
        <cc:permits
           rdf:resource="http://creativecommons.org/ns#Reproduction" />
        <cc:permits
           rdf:resource="http://creativecommons.org/ns#Distribution" />
        <cc:permits
           rdf:resource="http://creativecommons.org/ns#DerivativeWorks" />
      </cc:License>
    </rdf:RDF>
  </metadata>
  <g
     id="layer1"
     inkscape:label="Folder"
     inkscape:groupmode="layer">
    <g
       id="g7141"
       transform="matrix(0.88044531,0,0,0.8653032,7.164315,8.2899839)">
      <g
         transform="matrix(0.02165152,0,0,0.01903841,42.41538,36.93372)"
         id="g5022"
         style="display:inline">
        <rect
           style="opacity:0.40206185;color:#000000;fill:url(#linearGradient7169);fill-opacity:1;fill-rule:nonzero;stroke:none;stroke-width:1;marker:none;visibility:visible;display:inline;overflow:visible"
           id="rect4173"
           width="1339.6335"
           height="478.35718"
           x="-1559.2523"
           y="-150.69685" />
        <path
           style="opacity:0.40206185;color:#000000;fill:url(#radialGradient7171);fill-opacity:1;fill-rule:nonzero;stroke:none;stroke-width:1;marker:none;visibility:visible;display:inline;overflow:visible"
           d="m -219.61876,-150.68038 c 0,0 0,478.33079 0,478.33079 142.874166,0.90045 345.40022,-107.16966 345.40014,-239.196175 0,-132.026537 -159.436816,-239.134595 -345.40014,-239.134615 z"
           id="path5058"
           sodipodi:nodetypes="cccc"
           inkscape:connector-curvature="0" />
        <path
           sodipodi:nodetypes="cccc"
           id="path5018"
           d="m -1559.2523,-150.68038 c 0,0 0,478.33079 0,478.33079 -142.8742,0.90045 -345.4002,-107.16966 -345.4002,-239.196175 0,-132.026537 159.4368,-239.134595 345.4002,-239.134615 z"
           style="opacity:0.40206185;color:#000000;fill:url(#radialGradient7173);fill-opacity:1;fill-rule:nonzero;stroke:none;stroke-width:1;marker:none;visibility:visible;display:inline;overflow:visible"
           inkscape:connector-curvature="0" />
      </g>
      <path
         sodipodi:nodetypes="ccccccssssccc"
         style="fill:url(#radialGradient7175);fill-opacity:1;fill-rule:nonzero;stroke:url(#linearGradient7177);stroke-width:1;stroke-linecap:round;stroke-linejoin:round;stroke-miterlimit:4;stroke-opacity:1;stroke-dasharray:none"
         id="path216"
         d="m 4.5217805,38.687417 c 0.021796,0.416304 0.4599049,0.832609 0.8762095,0.832609 l 31.327021,0 c 0.416302,0 0.810812,-0.416305 0.789016,-0.832609 L 36.577584,11.460682 c -0.0218,-0.416303 -0.459897,-0.832616 -0.876201,-0.832616 l -13.270873,0 c -0.485057,0 -1.234473,-0.315589 -1.401644,-1.1066322 L 20.417475,6.6283628 C 20.262006,5.8926895 19.535261,5.5904766 19.118957,5.5904766 l -14.7788595,0 c -0.4163128,0 -0.8108208,0.4163041 -0.7890249,0.8326083 L 4.5217805,38.687417 z"
         inkscape:connector-curvature="0" />
      <path
         style="opacity:0.11363633;color:#000000;fill:#729fcf;fill-opacity:1;fill-rule:nonzero;stroke:#000000;stroke-width:1.00000024;stroke-linecap:round;stroke-linejoin:round;stroke-miterlimit:4;stroke-opacity:1;stroke-dasharray:none;stroke-dashoffset:0;marker:none;visibility:visible;display:inline;overflow:visible"
         d="m 5.2265927,22.5625 30.2655803,0"
         id="path9788"
         sodipodi:nodetypes="cc"
         inkscape:connector-curvature="0" />
      <path
         style="opacity:0.11363633;color:#000000;fill:#729fcf;fill-opacity:1;fill-rule:nonzero;stroke:#000000;stroke-width:1.00000036;stroke-linecap:round;stroke-linejoin:round;stroke-miterlimit:4;stroke-opacity:1;stroke-dasharray:none;stroke-dashoffset:0;marker:none;visibility:visible;display:inline;overflow:visible"
         d="m 5.0421736,18.5625 30.4469304,0"
         id="path9784"
         sodipodi:nodetypes="cc"
         inkscape:connector-curvature="0" />
      <path
         sodipodi:nodetypes="cc"
         id="path9778"
         d="m 4.9806965,12.5625 30.5073605,0"
         style="opacity:0.11363633;color:#000000;fill:#729fcf;fill-opacity:1;fill-rule:nonzero;stroke:#000000;stroke-width:1;stroke-linecap:round;stroke-linejoin:round;stroke-miterlimit:4;stroke-opacity:1;stroke-dasharray:none;stroke-dashoffset:0;marker:none;visibility:visible;display:inline;overflow:visible"
         inkscape:connector-curvature="0" />
      <path
         sodipodi:nodetypes="cc"
         id="path9798"
         d="m 5.3861577,32.5625 30.1087233,0"
         style="opacity:0.11363633;color:#000000;fill:#729fcf;fill-opacity:1;fill-rule:nonzero;stroke:#000000;stroke-width:1.00000036;stroke-linecap:round;stroke-linejoin:round;stroke-miterlimit:4;stroke-opacity:1;stroke-dasharray:none;stroke-dashoffset:0;marker:none;visibility:visible;display:inline;overflow:visible"
         inkscape:connector-curvature="0" />
      <path
         style="opacity:0.11363633;color:#000000;fill:#729fcf;fill-opacity:1;fill-rule:nonzero;stroke:#000000;stroke-width:1.00000024;stroke-linecap:round;stroke-linejoin:round;stroke-miterlimit:4;stroke-opacity:1;stroke-dasharray:none;stroke-dashoffset:0;marker:none;visibility:visible;display:inline;overflow:visible"
         d="m 5.5091398,34.5625 29.9877532,0"
         id="path9800"
         sodipodi:nodetypes="cc"
         inkscape:connector-curvature="0" />
      <path
         sodipodi:nodetypes="cc"
         id="path9782"
         d="m 5.0421736,16.5625 30.4469304,0"
         style="opacity:0.11363633;color:#000000;fill:#729fcf;fill-opacity:1;fill-rule:nonzero;stroke:#000000;stroke-width:1.00000036;stroke-linecap:round;stroke-linejoin:round;stroke-miterlimit:4;stroke-opacity:1;stroke-dasharray:none;stroke-dashoffset:0;marker:none;visibility:visible;display:inline;overflow:visible"
         inkscape:connector-curvature="0" />
      <path
         style="opacity:0.11363633;color:#000000;fill:#729fcf;fill-opacity:1;fill-rule:nonzero;stroke:#000000;stroke-width:1.00000024;stroke-linecap:round;stroke-linejoin:round;stroke-miterlimit:4;stroke-opacity:1;stroke-dasharray:none;stroke-dashoffset:0;marker:none;visibility:visible;display:inline;overflow:visible"
         d="m 5.0114345,14.5625 30.4771455,0"
         id="path9780"
         sodipodi:nodetypes="cc"
         inkscape:connector-curvature="0" />
      <path
         style="opacity:0.11363633;color:#000000;fill:#729fcf;fill-opacity:1;fill-rule:nonzero;stroke:#000000;stroke-width:1.00000024;stroke-linecap:round;stroke-linejoin:round;stroke-miterlimit:4;stroke-opacity:1;stroke-dasharray:none;stroke-dashoffset:0;marker:none;visibility:visible;display:inline;overflow:visible"
         d="m 4.9220969,10.5625 15.2808151,0"
         id="path9776"
         sodipodi:nodetypes="cc"
         inkscape:connector-curvature="0" />
      <path
         sodipodi:nodetypes="cc"
         id="path9774"
         d="m 4.8737534,8.5624999 14.7837336,0"
         style="opacity:0.11363633;color:#000000;fill:#729fcf;fill-opacity:1;fill-rule:nonzero;stroke:#000000;stroke-width:0.99999982;stroke-linecap:round;stroke-linejoin:round;stroke-miterlimit:4;stroke-opacity:1;stroke-dasharray:none;stroke-dashoffset:0;marker:none;visibility:visible;display:inline;overflow:visible"
         inkscape:connector-curvature="0" />
      <path
         sodipodi:nodetypes="cc"
         id="path9794"
         d="m 5.3246666,28.5625 30.1692094,0"
         style="opacity:0.11363633;color:#000000;fill:#729fcf;fill-opacity:1;fill-rule:nonzero;stroke:#000000;stroke-width:1.00000036;stroke-linecap:round;stroke-linejoin:round;stroke-miterlimit:4;stroke-opacity:1;stroke-dasharray:none;stroke-dashoffset:0;marker:none;visibility:visible;display:inline;overflow:visible"
         inkscape:connector-curvature="0" />
      <path
         style="opacity:0.11363633;color:#000000;fill:#729fcf;fill-opacity:1;fill-rule:nonzero;stroke:#000000;stroke-width:1;stroke-linecap:round;stroke-linejoin:round;stroke-miterlimit:4;stroke-opacity:1;stroke-dasharray:none;stroke-dashoffset:0;marker:none;visibility:visible;display:inline;overflow:visible"
         d="m 5.2880638,26.5625 30.2051202,0"
         id="path9792"
         sodipodi:nodetypes="cc"
         inkscape:connector-curvature="0" />
      <path
         sodipodi:nodetypes="cc"
         id="path9790"
         d="m 5.2265927,24.5625 30.2655803,0"
         style="opacity:0.11363633;color:#000000;fill:#729fcf;fill-opacity:1;fill-rule:nonzero;stroke:#000000;stroke-width:1.00000024;stroke-linecap:round;stroke-linejoin:round;stroke-miterlimit:4;stroke-opacity:1;stroke-dasharray:none;stroke-dashoffset:0;marker:none;visibility:visible;display:inline;overflow:visible"
         inkscape:connector-curvature="0" />
      <path
         sodipodi:nodetypes="cc"
         id="path9786"
         d="m 5.1958537,20.5625 30.2957953,0"
         style="opacity:0.11363633;color:#000000;fill:#729fcf;fill-opacity:1;fill-rule:nonzero;stroke:#000000;stroke-width:1.00000012;stroke-linecap:round;stroke-linejoin:round;stroke-miterlimit:4;stroke-opacity:1;stroke-dasharray:none;stroke-dashoffset:0;marker:none;visibility:visible;display:inline;overflow:visible"
         inkscape:connector-curvature="0" />
      <path
         style="opacity:0.11363633;color:#000000;fill:#729fcf;fill-opacity:1;fill-rule:nonzero;stroke:#000000;stroke-width:1.00000036;stroke-linecap:round;stroke-linejoin:round;stroke-miterlimit:4;stroke-opacity:1;stroke-dasharray:none;stroke-dashoffset:0;marker:none;visibility:visible;display:inline;overflow:visible"
         d="m 5.3246666,30.5625 30.1692094,0"
         id="path9796"
         sodipodi:nodetypes="cc"
         inkscape:connector-curvature="0" />
      <path
         sodipodi:nodetypes="cc"
         id="path9802"
         d="m 5.5091398,36.5625 29.9877532,0"
         style="opacity:0.11363633;color:#000000;fill:#729fcf;fill-opacity:1;fill-rule:nonzero;stroke:#000000;stroke-width:1.00000024;stroke-linecap:round;stroke-linejoin:round;stroke-miterlimit:4;stroke-opacity:1;stroke-dasharray:none;stroke-dashoffset:0;marker:none;visibility:visible;display:inline;overflow:visible"
         inkscape:connector-curvature="0" />
      <path
         sodipodi:nodetypes="cccccccccscccccc"
         id="path219"
         d="m 6.068343,38.864023 c 0.016343,0.312228 -0.1809113,0.520379 -0.4985848,0.416303 l 0,0 C 5.2520766,39.176251 5.033027,38.968099 5.0166756,38.65587 L 4.068956,6.5913839 C 4.0526131,6.2791558 4.2341418,6.0906134 4.5463699,6.0906134 L 18.96842,6.0429196 c 0.312228,0 0.931943,0.3004727 1.132936,1.3221818 l 0.573489,2.8155346 C 20.247791,9.715379 20.255652,9.7010175 20.037287,9.0239299 L 19.631192,7.7647478 C 19.412142,7.0371009 18.932991,6.9328477 18.620763,6.9328477 l -12.8877741,0 c -0.3122276,0 -0.5094814,0.2081522 -0.4931306,0.5203887 L 6.1778636,38.968099 6.068343,38.864023 z"
         style="opacity:0.45142858;color:#000000;fill:url(#linearGradient7179);fill-opacity:1;fill-rule:nonzero;stroke:none;stroke-width:1.21380496;marker:none;visibility:visible;display:block;overflow:visible"
         inkscape:connector-curvature="0" />
      <g
         inkscape:export-ydpi="74.800003"
         inkscape:export-xdpi="74.800003"
         inkscape:export-filename="/home/jimmac/ximian_art/icons/nautilus/suse93/gnome-fs-directory.png"
         transform="matrix(1.040764,0,0.05449252,1.040764,-8.670199,2.670594)"
         id="g220"
         style="fill:#ffffff;fill-opacity:0.75706213;fill-rule:nonzero;stroke:none">
        <path
           sodipodi:nodetypes="cscscs"
           id="path221"
           d="m 42.417183,8.5151772 c 0.0051,-0.097113 -0.128161,-0.2469882 -0.235117,-0.2470056 l -13.031401,-0.00212 c 0,0 0.911714,0.5879545 2.201812,0.5962436 l 11.053497,0.07102 c 0.01109,-0.2117278 0.0027,-0.2560322 0.01121,-0.4181395 z"
           style="fill:#ffffff;fill-opacity:0.50847461"
           inkscape:connector-curvature="0" />
      </g>
      <path
         inkscape:export-ydpi="74.800003"
         inkscape:export-xdpi="74.800003"
         inkscape:export-filename="/home/jimmac/ximian_art/icons/nautilus/suse93/gnome-fs-directory.png"
         sodipodi:nodetypes="cscccscc"
         id="path233"
         d="m 39.783532,39.51062 c 1.143894,-0.04406 1.963076,-1.096299 2.047035,-2.321005 0.791787,-11.548687 1.65936,-21.231949 1.65936,-21.231949 0.07215,-0.247484 -0.167911,-0.494967 -0.48014,-0.494967 l -34.3711566,0 c 0,0 -1.8503191,21.866892 -1.8503191,21.866892 -0.1145551,0.982066 -0.4660075,1.804718 -1.5498358,2.183713 l 34.5450565,-0.0027 z"
         style="color:#000000;fill:url(#linearGradient7181);fill-opacity:1;fill-rule:nonzero;stroke:#3465a4;stroke-width:1;stroke-linecap:butt;stroke-linejoin:round;stroke-miterlimit:4;stroke-opacity:1;stroke-dasharray:none;stroke-dashoffset:0;marker:none;visibility:visible;display:block"
         inkscape:connector-curvature="0" />
      <path
         style="opacity:0.46590911;fill:none;stroke:url(#linearGradient7183);stroke-width:0.9999997px;stroke-linecap:round;stroke-linejoin:miter;stroke-opacity:1"
         d="m 9.6202444,16.463921 32.7910986,0.06481 -1.574046,20.001979 c -0.08432,1.071511 -0.450678,1.428215 -1.872656,1.428215 -1.871502,0 -28.677968,-0.03241 -31.394742,-0.03241 0.2335983,-0.320811 0.3337557,-0.988623 0.3350963,-1.004612 L 9.6202444,16.463921 z"
         id="path304"
         sodipodi:nodetypes="ccsscsc"
         inkscape:connector-curvature="0" />
      <path
         style="fill:#ffffff;fill-opacity:0.0892857;fill-rule:evenodd;stroke:none"
         d="M 9.6202481,16.223182 8.4536014,31.866453 c 0,0 8.2961546,-4.148078 18.6663476,-4.148078 10.370193,0 15.55529,-11.495193 15.55529,-11.495193 l -33.0549909,0 z"
         id="path323"
         sodipodi:nodetypes="ccccc"
         inkscape:connector-curvature="0" />
    </g>
    <g
       style="display:inline"
       transform="matrix(0.20299062,0,0,0.20204461,3.1273238,3.2246347)"
       id="g4782">
      <title
         id="title4784">Layer 1</title>
      <g
         transform="translate(-7.67725,-9.58139)"
         id="hammer">
        <use
           style="opacity:0.25;stroke:#000000;stroke-width:8;stroke-linejoin:round"
           xlink:href="#outline2"
           id="use50"
           x="0"
           y="0"
           width="128"
           height="128" />
        <use
           style="opacity:0.5;stroke:#000000;stroke-width:4;stroke-linejoin:round"
           xlink:href="#outline2"
           id="use52"
           x="0"
           y="0"
           width="128"
           height="128" />
        <path
           style="fill:#d3d7cf"
           d="M 82.92,35.75 53.47,65.2 62.3,74.03 91.75,44.59 82.92,35.75 z"
           id="path54"
           inkscape:connector-curvature="0" />
        <path
           style="opacity:0.5;fill:url(#linearGradient2646)"
           d="M 88.93,41.76 59.48,71.2 62.3,74.03 91.75,44.59 88.93,41.76 z"
           id="path56"
           inkscape:connector-curvature="0" />
        <path
           style="fill:url(#linearGradient2648)"
           d="M 86.46,37.04 57.13,66.37 60.92,70.16 89.5,40.08 86.46,37.04 z"
           id="path58"
           inkscape:connector-curvature="0" />
        <path
           style="fill:#2e3436"
           d="m 55.8,12 0.76,0.16 c 8.84,-2.94 28.68,8.64 24.26,18.96 -1.12,1.62 -0.93,4.5 0.42,6.31 l 8.91,8.77 c 2.63,2.37 5.11,2.57 7.47,1.93 4.55,-1.23 7.08,3.2 9.81,6.46 l -1.23,1.21 c -1.82,1.84 -1.65,4.94 0.39,6.98 2.04,2.04 5.15,2.21 6.97,0.39 l 8.14,-8.13 c 1.82,-1.84 1.65,-4.94 -0.4,-6.97 -1.84,-1.85 -4.51,-2.09 -6.37,-0.77 -5.58,-6.26 -2.65,-7.2 -10.01,-15.35 L 91.13,17.86 C 81.2,8.12 68.3,8.13 55.8,12 z"
           id="path60"
           inkscape:connector-curvature="0" />
        <path
           style="opacity:0.5;fill:url(#linearGradient2650)"
           d="m 114.93,47.3 c -5.58,-6.26 -2.65,-7.2 -10.01,-15.35 L 91.13,17.86 C 85.44,12.28 78.77,9.9 71.77,9.6 L 112.9,51.13 115.87535,48.4 114.93,47.3 z"
           id="path62"
           inkscape:connector-curvature="0" />
        <path
           style="opacity:0.25;fill:url(#linearGradient2652)"
           d="m 81.45,28 c 0.05,1 -0.17934,2 -0.65,3.12 -1.1,1.62 -0.91,4.5 0.44,6.31 l 8.91,8.77 c 2.63,2.37 5.11,2.57 7.47,1.93 1.08,-0.33 2.06,-0.27 2.98,0 C 103.4,48.9 81.44,27.58 81.45,27.9 l 0,0.1 z"
           id="path64"
           inkscape:connector-curvature="0" />
        <path
           style="fill:#3465a4"
           d="m 56.43,62.25 c -1.39,-1.39 -4.48,-1.36 -5.9,0 L 9.5,101.63 c -3.74,3.59 -0.82,6.64 0.78,8.25 l 7.36,7.36 c 1.61,1.6 5.86,3.76 8.88,0.56 L 65.24,76.99 c 1.35,-1.42 1.36,-4.47 0,-5.87 0,0 0.01,-0.02 0,-0.02 l -8.81,-8.85 z"
           id="path66"
           inkscape:connector-curvature="0" />
        <path
           style="opacity:0.25;fill:url(#linearGradient2654)"
           d="m 10.27,109.87 7.36,7.37 c 1.61,1.6 5.73,3.89 8.75,0.71 L 65.25,76.98 c 1.35,-1.43 1.39,-4.5 0,-5.88 l -8.83,-8.84 -46.15,47.61 z"
           id="path68"
           inkscape:connector-curvature="0" />
        <path
           style="opacity:0.5;fill:url(#linearGradient2656)"
           d="m 51.2,65.7 -38.88,38.04 c -1.62,1.56 -1.07,3.75 0.1,4.89 L 16.55,112.6 58.92,69 55,65.32 c -0.84,-0.8 -2.8,-0.57 -3.8,0.38 z"
           id="path70"
           inkscape:connector-curvature="0" />
        <use
           style="fill:none;stroke:#ffffff;stroke-width:4;stroke-linejoin:round;stroke-opacity:0.2"
           xlink:href="#outline2"
           clip-path="url(#clipoutline2)"
           id="use72"
           x="0"
           y="0"
           width="128"
           height="128" />
        <path
           style="fill:url(#linearGradient2658)"
           d="m 120.45,49.26 c 1.51,1.44 1.8,3.44 -0.28,5.36 l -3.87,3.63 c -2.08,1.95 -7.52,-3.25 -5.45,-5.19 l 3.88,-3.63 c 2.07,-1.95 4.21,-1.61 5.72,-0.17 z"
           id="path74"
           inkscape:connector-curvature="0" />
      </g>
    </g>
  </g>
  <g
     inkscape:groupmode="layer"
     id="layer2"
     inkscape:label="pattern" />
</svg>
