<?xml version="1.0" encoding="UTF-8" standalone="no"?>
<!-- Created with Inkscape (http://www.inkscape.org/) -->
<svg xmlns:dc="http://purl.org/dc/elements/1.1/" xmlns:cc="http://creativecommons.org/ns#" xmlns:rdf="http://www.w3.org/1999/02/22-rdf-syntax-ns#" xmlns:svg="http://www.w3.org/2000/svg" xmlns="http://www.w3.org/2000/svg" xmlns:sodipodi="http://sodipodi.sourceforge.net/DTD/sodipodi-0.dtd" xmlns:inkscape="http://www.inkscape.org/namespaces/inkscape" width="153" height="153" id="svg3915" version="1.1" inkscape:version="0.48.0 r9654" sodipodi:docname="New document 6">
  <defs id="defs3917"/>
  <sodipodi:namedview id="base" pagecolor="#ffffff" bordercolor="#666666" borderopacity="1.0" inkscape:pageopacity="0.0" inkscape:pageshadow="2" inkscape:zoom="2.5022428" inkscape:cx="-8.2742658" inkscape:cy="159.72516" inkscape:document-units="px" inkscape:current-layer="layer1" showgrid="false" inkscape:window-width="1920" inkscape:window-height="1150" inkscape:window-x="-8" inkscape:window-y="-8" inkscape:window-maximized="1"/>
  <metadata id="metadata3920">
    <rdf:RDF>
      <cc:Work rdf:about="">
        <dc:format>image/svg+xml</dc:format>
        <dc:type rdf:resource="http://purl.org/dc/dcmitype/StillImage"/>
        <dc:title/>
      </cc:Work>
    </rdf:RDF>
  </metadata>
  <g inkscape:label="Layer 1" inkscape:groupmode="layer" id="layer1" transform="translate(0,-899.36218)">
    <g transform="matrix(0.993706,0,0,0.99352017,-468.95771,705.97623)" id="g3882">
      <path inkscape:connector-curvature="0" id="path3823" d="m 562.532,309.99975 c 0,7.07611 -5.73635,12.81243 -12.81251,12.81243 -7.07614,0 -12.81249,-5.73632 -12.81249,-12.81243 0,-7.07612 5.73635,-12.81245 12.81249,-12.81245 7.07616,0 12.81251,5.73633 12.81251,12.81245 z" style="fill:#000000;fill-opacity:1;stroke:none"/>
      <path id="path3017" d="m 548.9375,196.65625 c -41.42401,-0.002 -75,33.58048 -75,75 0,40.76695 32.53205,73.89765 72.875,74.9375 -19.98025,-0.99982 -35.75,-17.37403 -35.75,-37.4375 0,-20.71068 16.78932,-37.5 37.6875,-37.5 20.89818,0 37.6875,-16.78932 37.6875,-37.5 0,-20.71068 -16.78483,-37.4983 -37.5,-37.5 z m 0,24.6875 c 7.07373,0 12.8125,5.73877 12.8125,12.8125 0,7.07373 -5.73877,12.8125 -12.8125,12.8125 -7.07373,0 -12.8125,-5.73877 -12.8125,-12.8125 0,-7.07373 5.73877,-12.8125 12.8125,-12.8125 z" style="fill:#000000;stroke:#000000;stroke-width:1;stroke-linecap:butt;stroke-miterlimit:4;stroke-opacity:1;stroke-dashoffset:0" inkscape:connector-curvature="0"/>
      <path inkscape:connector-curvature="0" id="path3810" d="m 548.93705,196.17568 c -41.67628,0 -75.48023,33.80395 -75.48023,75.48023 0,41.67628 33.80395,75.48023 75.48023,75.48023 41.67628,0 75.45053,-33.80395 75.45053,-75.48023 0,-41.67628 -33.77425,-75.48023 -75.45053,-75.48023 z m 0,0.95019 c 41.16276,0 74.50035,33.36728 74.50035,74.53004 0,41.16277 -33.33759,74.53005 -74.50035,74.53005 -41.16277,0 -74.53005,-33.36728 -74.53005,-74.53005 0,-41.16276 33.36728,-74.53004 74.53005,-74.53004 z" style="font-size:medium;font-style:normal;font-variant:normal;font-weight:normal;font-stretch:normal;text-indent:0;text-align:start;text-decoration:none;line-height:normal;letter-spacing:normal;word-spacing:normal;text-transform:none;direction:ltr;block-progression:tb;writing-mode:lr-tb;text-anchor:start;baseline-shift:baseline;color:#000000;fill:#000000;fill-opacity:1;stroke:none;stroke-width:1;marker:none;visibility:visible;display:inline;overflow:visible;enable-background:accumulate;font-family:Sans;-inkscape-font-specification:Sans"/>
    </g>
  </g>
</svg>