<?xml version="1.0" encoding="UTF-8" standalone="no"?>
<!-- Created with Inkscape (http://www.inkscape.org/) -->

<svg
   xmlns:dc="http://purl.org/dc/elements/1.1/"
   xmlns:cc="http://creativecommons.org/ns#"
   xmlns:rdf="http://www.w3.org/1999/02/22-rdf-syntax-ns#"
   xmlns:svg="http://www.w3.org/2000/svg"
   xmlns="http://www.w3.org/2000/svg"
   xmlns:xlink="http://www.w3.org/1999/xlink"
   xmlns:sodipodi="http://sodipodi.sourceforge.net/DTD/sodipodi-0.dtd"
   xmlns:inkscape="http://www.inkscape.org/namespaces/inkscape"
   height="64"
   width="64"
   id="svg4085"
   sodipodi:version="0.32"
   inkscape:version="0.48.3.1 r9886"
   version="1.0"
   sodipodi:docname="GeoManip.svg"
   inkscape:output_extension="org.inkscape.output.svg.inkscape">
  <defs
     id="defs4087">
    <inkscape:perspective
       sodipodi:type="inkscape:persp3d"
       inkscape:vp_x="-50 : 600 : 1"
       inkscape:vp_y="0 : 1000 : 0"
       inkscape:vp_z="700 : 600 : 1"
       inkscape:persp3d-origin="300 : 400 : 1"
       id="perspective128" />
    <linearGradient
       inkscape:collect="always"
       id="linearGradient3936">
      <stop
         style="stop-color:#000000;stop-opacity:1;"
         offset="0"
         id="stop3938" />
      <stop
         style="stop-color:#000000;stop-opacity:0;"
         offset="1"
         id="stop3940" />
    </linearGradient>
    <linearGradient
       inkscape:collect="always"
       xlink:href="#linearGradient3936"
       id="linearGradient4083"
       gradientUnits="userSpaceOnUse"
       gradientTransform="matrix(1,0,0,1.3450246,0,-145.63881)"
       x1="308.45398"
       y1="422.89987"
       x2="341.10791"
       y2="417.33072" />
    <linearGradient
       inkscape:collect="always"
       xlink:href="#linearGradient3834"
       id="linearGradient4079"
       gradientUnits="userSpaceOnUse"
       x1="315.89062"
       y1="422.16272"
       x2="318.2041"
       y2="420.47055" />
    <linearGradient
       inkscape:collect="always"
       xlink:href="#linearGradient3834"
       id="linearGradient4077"
       gradientUnits="userSpaceOnUse"
       x1="315.89062"
       y1="422.16272"
       x2="318.2041"
       y2="420.47055" />
    <linearGradient
       inkscape:collect="always"
       id="linearGradient3834">
      <stop
         style="stop-color:#fff3de;stop-opacity:1;"
         offset="0"
         id="stop3836" />
      <stop
         style="stop-color:#fff3de;stop-opacity:0;"
         offset="1"
         id="stop3838" />
    </linearGradient>
    <linearGradient
       inkscape:collect="always"
       xlink:href="#linearGradient3834"
       id="linearGradient4081"
       gradientUnits="userSpaceOnUse"
       x1="315.89062"
       y1="422.16272"
       x2="318.2041"
       y2="420.47055" />
    <linearGradient
       id="linearGradient3735">
      <stop
         style="stop-color:#ffc789;stop-opacity:1;"
         offset="0"
         id="stop3737" />
      <stop
         style="stop-color:#ffe7cd;stop-opacity:1;"
         offset="1"
         id="stop3739" />
    </linearGradient>
    <linearGradient
       inkscape:collect="always"
       xlink:href="#linearGradient3735"
       id="linearGradient4075"
       gradientUnits="userSpaceOnUse"
       gradientTransform="translate(13.938485,-1.2508897)"
       x1="302.25095"
       y1="423.34338"
       x2="379.75198"
       y2="423.34338" />
    <linearGradient
       inkscape:collect="always"
       id="linearGradient3786">
      <stop
         style="stop-color:#fff3de;stop-opacity:1;"
         offset="0"
         id="stop3788" />
      <stop
         style="stop-color:#fff3de;stop-opacity:0;"
         offset="1"
         id="stop3790" />
    </linearGradient>
    <linearGradient
       inkscape:collect="always"
       xlink:href="#linearGradient3786"
       id="linearGradient4073"
       gradientUnits="userSpaceOnUse"
       x1="349.07529"
       y1="406.46149"
       x2="348.99274"
       y2="412.18591" />
    <linearGradient
       id="linearGradient3444">
      <stop
         style="stop-color:#ffbd75;stop-opacity:0.58389264;"
         offset="0"
         id="stop3446" />
      <stop
         style="stop-color:#f9dbba;stop-opacity:1;"
         offset="1"
         id="stop3448" />
    </linearGradient>
    <linearGradient
       inkscape:collect="always"
       xlink:href="#linearGradient3444"
       id="linearGradient4071"
       gradientUnits="userSpaceOnUse"
       gradientTransform="translate(-74.465261,91.067047)"
       x1="356.01794"
       y1="306.62802"
       x2="469.72247"
       y2="326.99695" />
    <linearGradient
       id="linearGradient3458">
      <stop
         style="stop-color:#5f411c;stop-opacity:1;"
         offset="0"
         id="stop3460" />
      <stop
         style="stop-color:#454545;stop-opacity:1;"
         offset="1"
         id="stop3462" />
    </linearGradient>
    <linearGradient
       inkscape:collect="always"
       xlink:href="#linearGradient3458"
       id="linearGradient4069"
       gradientUnits="userSpaceOnUse"
       gradientTransform="translate(-74.529686,91.198322)"
       x1="391.58401"
       y1="323.46234"
       x2="469.93027"
       y2="323.46234" />
    <linearGradient
       id="linearGradient2662">
      <stop
         style="stop-color:#fbc594;stop-opacity:1;"
         offset="0"
         id="stop2664" />
      <stop
         style="stop-color:#c9884e;stop-opacity:1;"
         offset="1"
         id="stop2666" />
    </linearGradient>
    <linearGradient
       inkscape:collect="always"
       xlink:href="#linearGradient2662"
       id="linearGradient4067"
       gradientUnits="userSpaceOnUse"
       gradientTransform="translate(-74.529686,91.198322)"
       x1="448.6561"
       y1="329.3609"
       x2="368.34616"
       y2="313.40134" />
    <filter
       inkscape:collect="always"
       id="filter3976"
       x="-0.050001409"
       width="1.1000028"
       y="-0.26246116"
       height="1.5249223"
       color-interpolation-filters="sRGB">
      <feGaussianBlur
         inkscape:collect="always"
         stdDeviation="1.637157"
         id="feGaussianBlur3978" />
    </filter>
    <inkscape:perspective
       sodipodi:type="inkscape:persp3d"
       inkscape:vp_x="-50 : 600 : 1"
       inkscape:vp_y="0 : 1000 : 0"
       inkscape:vp_z="700 : 600 : 1"
       inkscape:persp3d-origin="300 : 400 : 1"
       id="perspective4093" />
    <linearGradient
       inkscape:collect="always"
       xlink:href="#linearGradient3936"
       id="linearGradient2507"
       gradientUnits="userSpaceOnUse"
       gradientTransform="matrix(5.2869163,1.6886764,-2.2713113,7.1110325,-601.65114,-3392.2323)"
       x1="308.45398"
       y1="422.89987"
       x2="341.10791"
       y2="417.33072" />
    <linearGradient
       inkscape:collect="always"
       xlink:href="#linearGradient3735"
       id="linearGradient2543"
       gradientUnits="userSpaceOnUse"
       gradientTransform="matrix(5.2869163,1.6886764,-1.6886764,5.2869163,-771.78401,-2605.3279)"
       x1="302.25095"
       y1="423.34338"
       x2="379.75198"
       y2="423.34338" />
    <linearGradient
       inkscape:collect="always"
       xlink:href="#linearGradient3786"
       id="linearGradient2590"
       gradientUnits="userSpaceOnUse"
       x1="349.07529"
       y1="406.46149"
       x2="348.99274"
       y2="412.18591"
       gradientTransform="matrix(5.2869163,1.6886764,-1.6886764,5.2869163,-847.58796,-2622.2521)" />
    <linearGradient
       inkscape:collect="always"
       xlink:href="#linearGradient3444"
       id="linearGradient2595"
       gradientUnits="userSpaceOnUse"
       gradientTransform="matrix(5.5500554,0,0,5.5500554,-2024.9069,-1730.0349)"
       x1="356.01794"
       y1="306.62802"
       x2="469.72247"
       y2="326.99695" />
    <linearGradient
       inkscape:collect="always"
       xlink:href="#linearGradient2662"
       id="linearGradient2598"
       gradientUnits="userSpaceOnUse"
       gradientTransform="matrix(5.5500554,0,0,5.5500554,-2025.2645,-1729.3063)"
       x1="448.6561"
       y1="329.3609"
       x2="368.34616"
       y2="313.40134" />
    <linearGradient
       inkscape:collect="always"
       xlink:href="#linearGradient3458"
       id="linearGradient2600"
       gradientUnits="userSpaceOnUse"
       gradientTransform="matrix(5.5500554,0,0,5.5500554,-2025.2645,-1729.3063)"
       x1="391.58401"
       y1="323.46234"
       x2="469.93027"
       y2="323.46234" />
  </defs>
  <sodipodi:namedview
     id="base"
     pagecolor="#ffffff"
     bordercolor="#666666"
     borderopacity="1.0"
     inkscape:pageopacity="0.0"
     inkscape:pageshadow="2"
     inkscape:cx="25.448513"
     inkscape:cy="2.6629509"
     inkscape:zoom="4"
     inkscape:document-units="px"
     inkscape:current-layer="layer1"
     showgrid="false"
     inkscape:window-width="1280"
     inkscape:window-height="744"
     inkscape:window-x="0"
     inkscape:window-y="24"
     fit-margin-top="0"
     fit-margin-left="0"
     fit-margin-right="0"
     fit-margin-bottom="0"
     inkscape:window-maximized="1" />
  <metadata
     id="metadata4090">
    <rdf:RDF>
      <cc:Work
         rdf:about="">
        <dc:format>image/svg+xml</dc:format>
        <dc:type
           rdf:resource="http://purl.org/dc/dcmitype/StillImage" />
        <dc:title></dc:title>
        <dc:date />
        <dc:creator>
          <cc:Agent>
            <dc:title />
          </cc:Agent>
        </dc:creator>
        <dc:rights>
          <cc:Agent>
            <dc:title />
          </cc:Agent>
        </dc:rights>
        <dc:publisher>
          <cc:Agent>
            <dc:title />
          </cc:Agent>
        </dc:publisher>
        <dc:identifier />
        <dc:source />
        <dc:relation />
        <dc:language />
        <dc:subject>
          <rdf:Bag />
        </dc:subject>
        <dc:coverage />
        <dc:description />
        <dc:contributor>
          <cc:Agent>
            <dc:title />
          </cc:Agent>
        </dc:contributor>
        <cc:license
           rdf:resource="" />
      </cc:Work>
    </rdf:RDF>
  </metadata>
  <g
     inkscape:groupmode="layer"
     inkscape:label="Warstwa 1"
     id="layer1"
     transform="translate(-297.14101,-132.91649)">
    <g
       id="g2638"
       transform="matrix(0.13720328,0.07268883,-0.07242425,0.13770451,296.22184,116.29268)">
      <rect
         ry="0.76011413"
         transform="matrix(5.1840768,1.6704088,-1.5006385,4.647297,-899.9529,-2352.72)"
         y="409.6326"
         x="318.81674"
         height="13.953773"
         width="77.746269"
         id="rect3747"
         style="fill:#000000;fill-opacity:1;fill-rule:nonzero;stroke:#000000;stroke-width:0.80000019;stroke-linecap:butt;stroke-miterlimit:4;stroke-opacity:1;stroke-dasharray:none;stroke-dashoffset:0;filter:url(#filter3976)" />
      <rect
         ry="4.2186747"
         transform="matrix(0.9517189,0.3069709,-0.3069709,0.9517189,0,0)"
         y="27.20566"
         x="149.71359"
         height="77.444199"
         width="431.49609"
         id="rect2619"
         style="fill:url(#linearGradient2598);fill-opacity:1;fill-rule:nonzero;stroke:url(#linearGradient2600);stroke-width:4.4400444;stroke-linecap:butt;stroke-miterlimit:4;stroke-opacity:1;stroke-dasharray:none;stroke-dashoffset:0" />
      <rect
         ry="4.2186747"
         transform="matrix(0.9517189,0.3069709,-0.3069709,0.9517189,0,0)"
         y="29.131445"
         x="151.96204"
         height="72.860214"
         width="427.59854"
         id="rect2670"
         style="fill:none;stroke:url(#linearGradient2595);stroke-width:2.77502775;stroke-linecap:butt;stroke-miterlimit:4;stroke-opacity:1;stroke-dasharray:none;stroke-dashoffset:0" />
      <path
         sodipodi:nodetypes="cc"
         id="path3456"
         d="m 143.5027,80.76407 394.24384,127.4072"
         style="fill:none;stroke:#573006;stroke-width:11.10011005;stroke-linecap:butt;stroke-miterlimit:4;stroke-opacity:1;stroke-dasharray:2.77502757, 2.77502757;stroke-dashoffset:0"
         inkscape:connector-curvature="0" />
      <path
         sodipodi:nodetypes="cc"
         id="path3475"
         d="m 146.36833,76.401278 -6.31491,19.710379"
         style="fill:none;stroke:#573006;stroke-width:2.77502751;stroke-linecap:butt;stroke-miterlimit:0;stroke-opacity:1;stroke-dasharray:none;stroke-dashoffset:0"
         inkscape:connector-curvature="0" />
      <path
         id="rect3781"
         d="m 139.37854,74.773053 c -2.21016,-0.712814 -4.52733,0.602349 -5.22782,2.773738 L 130.081,90.288312 c 10.58543,5.239004 8.56865,4.876765 12.92084,1.46095 5.44084,-4.270287 15.66135,-7.42205 18.49005,-3.514392 2.82884,3.907585 2.85236,6.889128 10.54152,8.343734 7.68913,1.454537 11.22963,-0.03311 16.60665,0.683035 5.37704,0.716098 14.35882,3.149361 21.03218,7.784261 6.67337,4.63485 6.39095,5.12797 12.11238,7.95674 5.72142,2.82882 2.40398,2.26992 11.16317,3.56559 8.75917,1.29572 24.61567,2.75566 32.59503,3.30154 7.97949,0.54603 15.97185,2.6307 22.50007,7.71983 6.52816,5.08929 2.83429,-1.07978 13.4065,7.30376 10.57201,8.38365 4.78639,5.98732 15.68554,6.96514 10.8991,0.97798 7.9989,-2.93749 17.30171,3.03799 9.30283,5.97542 7.66244,11.4621 25.3259,13.59918 17.66346,2.13708 13.02943,-4.31976 23.11203,2.40543 10.08263,6.72527 8.06685,11.57625 18.53059,13.91708 10.46378,2.34089 8.69871,-1.73014 19.16248,0.61075 10.46374,2.34083 10.17967,1.66677 21.5412,2.79233 11.36154,1.12551 7.5665,-3.07565 17.79425,3.19525 10.22764,6.27093 6.7346,4.20386 10.46112,6.89615 3.72656,2.69236 -1.27929,5.66459 7.57081,3.48455 8.85011,-2.17992 3.43661,-7.44879 12.42215,-2.07537 8.98555,5.37337 16.52047,12.28869 22.04256,12.55047 5.52217,0.26191 3.23754,-6.92917 10.74483,1.47684 7.50737,8.40592 5.72793,9.26208 10.95986,10.43248 2.61591,0.58513 5.06889,-0.8643 7.30081,-2.46707 l 0.82426,-2.5806 c 0.70045,-2.17128 -0.6061,-4.63014 -2.81621,-5.34293 L 139.37854,74.773053 z"
         style="opacity:0.43902438;fill:url(#linearGradient2590);fill-opacity:1;fill-rule:nonzero;stroke:none"
         inkscape:connector-curvature="0" />
      <path
         sodipodi:nodetypes="cc"
         id="path3479"
         d="m 188.7287,89.643762 -6.31489,19.710328"
         style="fill:none;stroke:#573006;stroke-width:2.77502751;stroke-linecap:butt;stroke-miterlimit:0;stroke-opacity:1;stroke-dasharray:none;stroke-dashoffset:0"
         inkscape:connector-curvature="0" />
      <path
         sodipodi:nodetypes="cc"
         id="path3483"
         d="m 231.03414,103.15873 -6.31489,19.71033"
         style="fill:none;stroke:#573006;stroke-width:2.77502751;stroke-linecap:butt;stroke-miterlimit:0;stroke-opacity:1;stroke-dasharray:none;stroke-dashoffset:0"
         inkscape:connector-curvature="0" />
      <path
         sodipodi:nodetypes="cc"
         id="path3487"
         d="m 273.18264,116.93907 -6.31497,19.71036"
         style="fill:none;stroke:#573006;stroke-width:2.77502751;stroke-linecap:butt;stroke-miterlimit:0;stroke-opacity:1;stroke-dasharray:none;stroke-dashoffset:0"
         inkscape:connector-curvature="0" />
      <path
         sodipodi:nodetypes="cc"
         id="path3491"
         d="m 315.4979,130.31659 -6.3149,19.71032"
         style="fill:none;stroke:#573006;stroke-width:2.77502751;stroke-linecap:butt;stroke-miterlimit:0;stroke-opacity:1;stroke-dasharray:none;stroke-dashoffset:0"
         inkscape:connector-curvature="0" />
      <path
         sodipodi:nodetypes="cc"
         id="path3495"
         d="m 357.67889,144.32899 -6.31495,19.71031"
         style="fill:none;stroke:#573006;stroke-width:2.77502751;stroke-linecap:butt;stroke-miterlimit:0;stroke-opacity:1;stroke-dasharray:none;stroke-dashoffset:0"
         inkscape:connector-curvature="0" />
      <path
         sodipodi:nodetypes="cc"
         id="path3499"
         d="m 399.98867,157.99765 -6.31497,19.71036"
         style="fill:none;stroke:#573006;stroke-width:2.77502751;stroke-linecap:butt;stroke-miterlimit:0;stroke-opacity:1;stroke-dasharray:none;stroke-dashoffset:0"
         inkscape:connector-curvature="0" />
      <path
         sodipodi:nodetypes="cc"
         id="path3503"
         d="m 442.15096,171.7472 -6.31492,19.71038"
         style="fill:none;stroke:#573006;stroke-width:2.77502751;stroke-linecap:butt;stroke-miterlimit:0;stroke-opacity:1;stroke-dasharray:none;stroke-dashoffset:0"
         inkscape:connector-curvature="0" />
      <path
         sodipodi:nodetypes="cc"
         id="path3507"
         d="m 484.47099,185.23053 -6.31491,19.71038"
         style="fill:none;stroke:#573006;stroke-width:2.77502751;stroke-linecap:butt;stroke-miterlimit:0;stroke-opacity:1;stroke-dasharray:none;stroke-dashoffset:0"
         inkscape:connector-curvature="0" />
      <path
         sodipodi:nodetypes="cc"
         id="path3511"
         d="m 526.78119,198.8519 -6.31491,19.71037"
         style="fill:none;stroke:#573006;stroke-width:2.77502751;stroke-linecap:butt;stroke-miterlimit:0;stroke-opacity:1;stroke-dasharray:none;stroke-dashoffset:0"
         inkscape:connector-curvature="0" />
      <path
         id="text3513"
         d="m 159.963,48.125034 0,1.624433 c -1e-5,0.96263 -0.27797,1.884345 -0.83388,2.765147 -0.55592,0.880804 -1.35129,1.321205 -2.38611,1.321205 -0.59684,0 -1.10101,-0.131158 -1.51253,-0.393473 -0.41153,-0.262316 -0.80139,-0.746036 -1.16959,-1.451161 -0.36821,-0.705122 -0.55231,-1.452361 -0.55231,-2.241718 l 0,-1.624433 c 0,-0.957808 0.27675,-1.878319 0.83027,-2.761537 0.5535,-0.883201 1.34767,-1.324806 2.3825,-1.324816 0.59201,1e-5 1.09378,0.129964 1.50531,0.389864 0.41151,0.259919 0.80378,0.742435 1.17681,1.447551 0.37301,0.705131 0.55952,1.454777 0.55953,2.248938 l 0,0 z m -1.48726,0 c -1e-5,-0.803788 -0.22382,-1.506505 -0.67144,-2.108154 -0.2551,-0.332098 -0.61368,-0.498151 -1.07573,-0.498159 -0.44763,8e-6 -0.81343,0.182907 -1.0974,0.548697 -0.42837,0.553518 -0.64255,1.239389 -0.64255,2.057616 l 0,1.624433 c 0,0.80861 0.22621,1.511327 0.67865,2.108154 0.25028,0.332107 0.60886,0.49816 1.07574,0.498159 0.4428,10e-7 0.80619,-0.182898 1.09017,-0.548697 0.42837,-0.553509 0.64255,-1.23938 0.64256,-2.057616 l 0,-1.624433 z"
         style="font-size:29.57190704px;font-style:normal;font-weight:bold;fill:#000000;fill-opacity:1;stroke:none;font-family:Futura XBlk BT"
         transform="matrix(0.9525881,0.304263,-0.304263,0.9525881,0,0)"
         inkscape:connector-curvature="0" />
      <path
         id="text3525"
         d="m 199.64367,52.247588 3.24165,0 c 0.17808,-0.144393 0.34654,-0.21659 0.50538,-0.216592 0.22621,2e-6 0.4055,0.07461 0.53787,0.223811 0.13235,0.149209 0.19853,0.404305 0.19854,0.765289 l 0,0.707531 -6.74321,0 0,-1.566676 c 2.66648,-2.199599 4.27647,-3.61466 4.82999,-4.245186 0.27915,-0.322474 0.41873,-0.628108 0.41874,-0.916902 -1e-5,-0.360978 -0.15764,-0.679848 -0.47289,-0.956611 -0.31527,-0.276747 -0.73521,-0.415125 -1.25984,-0.415133 -0.52945,8e-6 -0.96985,0.154028 -1.32121,0.462061 -0.1829,0.163654 -0.3297,0.406717 -0.4404,0.72919 -0.0674,0.202159 -0.16004,0.346553 -0.27796,0.433182 -0.11792,0.08664 -0.26352,0.129961 -0.43679,0.129955 -0.20215,6e-6 -0.37663,-0.07219 -0.52343,-0.216591 -0.1468,-0.144387 -0.2202,-0.312847 -0.2202,-0.505379 0,-0.288781 0.13357,-0.649766 0.4007,-1.082956 0.26712,-0.433174 0.65699,-0.779719 1.16959,-1.039637 0.51259,-0.2599 1.06971,-0.389855 1.67136,-0.389864 0.93374,9e-6 1.69903,0.282781 2.29587,0.848315 0.59682,0.565552 0.89523,1.25022 0.89524,2.054006 -1e-5,0.409123 -0.0854,0.788157 -0.2563,1.137103 -0.17087,0.348958 -0.58119,0.831474 -1.23096,1.447551 -0.5102,0.48613 -1.50411,1.357307 -2.98174,2.613533 l 0,0 z"
         style="font-size:29.57190704px;font-style:normal;font-weight:bold;fill:#000000;fill-opacity:1;stroke:none;font-family:Futura XBlk BT"
         transform="matrix(0.9525881,0.304263,-0.304263,0.9525881,0,0)"
         inkscape:connector-curvature="0" />
      <path
         id="text3557"
         d="m 247.8452,44.26609 0,5.790203 c 0.31284,3e-6 0.54387,0.06859 0.69309,0.205761 0.1492,0.137178 0.2238,0.31406 0.22381,0.530648 -1e-5,0.216594 -0.0758,0.39468 -0.22742,0.534259 -0.15162,0.139583 -0.38145,0.209373 -0.68948,0.209371 l 0,0.592016 c 0.31284,10e-7 0.54387,0.06979 0.69309,0.209371 0.1492,0.139582 0.2238,0.317668 0.22381,0.534258 -1e-5,0.216592 -0.0758,0.393474 -0.22742,0.530648 -0.15162,0.137175 -0.40552,0.205762 -0.76168,0.205762 l -1.98542,0 c -0.35618,0 -0.61007,-0.06859 -0.76168,-0.205762 -0.15162,-0.137174 -0.22742,-0.316463 -0.22742,-0.537868 0,-0.21659 0.0758,-0.393472 0.22742,-0.530648 0.15161,-0.137173 0.4055,-0.20576 0.76168,-0.205761 l 0.57758,0 0,-0.592016 -4.02138,0 0,-1.234569 3.54488,-6.035673 1.95654,0 z m -1.48004,5.790203 0,-3.638731 -2.14426,3.638731 2.14426,0 z"
         style="font-size:29.57190704px;font-style:normal;font-weight:bold;fill:#000000;fill-opacity:1;stroke:none;font-family:Futura XBlk BT"
         transform="matrix(0.9525881,0.304263,-0.304263,0.9525881,0,0)"
         inkscape:connector-curvature="0" />
      <path
         id="text3569"
         d="m 287.31777,48.565436 c 0.35617,-0.298409 0.6955,-0.516204 1.01798,-0.653384 0.32248,-0.137168 0.66661,-0.205755 1.03242,-0.205761 0.77491,6e-6 1.45356,0.308046 2.03595,0.924122 0.58239,0.616086 0.87358,1.388593 0.87359,2.317525 -1e-5,0.861553 -0.27075,1.558254 -0.81222,2.090104 -0.54148,0.531852 -1.27669,0.797777 -2.20562,0.797777 -0.77492,0 -1.41266,-0.180492 -1.91322,-0.541477 -0.50057,-0.360985 -0.8784,-0.916901 -1.13349,-1.667752 -0.2551,-0.750846 -0.38265,-1.588331 -0.38265,-2.512457 0,-1.107015 0.25269,-2.027527 0.75807,-2.761537 0.50538,-0.733995 1.0998,-1.303148 1.78327,-1.70746 0.68346,-0.404294 1.40543,-0.606445 2.16591,-0.606455 0.60164,1e-5 1.06851,0.117932 1.40062,0.353766 0.21659,0.158842 0.32488,0.360994 0.32489,0.606455 -10e-6,0.216599 -0.0722,0.398295 -0.21659,0.545088 -0.1444,0.146808 -0.31768,0.220208 -0.51982,0.220201 -0.11552,7e-6 -0.28158,-0.05775 -0.49816,-0.173273 -0.12996,-0.06738 -0.2551,-0.101068 -0.37542,-0.101076 -0.4717,8e-6 -0.96023,0.133572 -1.4656,0.400693 -0.50539,0.267137 -0.94338,0.677456 -1.31399,1.23096 -0.2551,0.385057 -0.44041,0.86637 -0.55592,1.443941 l 0,0 z m 0.21659,2.288646 c 0.15402,0.577578 0.36219,0.972255 0.62451,1.184031 0.26231,0.21178 0.63653,0.317668 1.12266,0.317667 0.48612,10e-7 0.86034,-0.127547 1.12267,-0.382644 0.26231,-0.255094 0.39346,-0.60164 0.39347,-1.039637 -10e-6,-0.500563 -0.15042,-0.916899 -0.45123,-1.249009 -0.30083,-0.332102 -0.63895,-0.498155 -1.01437,-0.49816 -0.29842,5e-6 -0.61729,0.146805 -0.95661,0.440402 -0.33933,0.293605 -0.6197,0.702721 -0.8411,1.22735 l 0,0 z"
         style="font-size:29.57190704px;font-style:normal;font-weight:bold;fill:#000000;fill-opacity:1;stroke:none;font-family:Futura XBlk BT"
         transform="matrix(0.9525881,0.304263,-0.304263,0.9525881,0,0)"
         inkscape:connector-curvature="0" />
      <path
         id="text3573"
         d="m 335.93822,48.890322 c 0.38023,0.293606 0.66541,0.626915 0.85554,0.999929 0.19011,0.373022 0.28517,0.783341 0.28517,1.23096 0,0.495755 -0.12154,0.951799 -0.36459,1.368134 -0.24307,0.416337 -0.62451,0.744833 -1.14432,0.985489 -0.51983,0.240657 -1.0974,0.360985 -1.73273,0.360985 -0.63534,0 -1.2081,-0.120328 -1.71829,-0.360985 -0.5102,-0.240656 -0.88683,-0.570356 -1.12989,-0.989099 -0.24306,-0.418741 -0.36459,-0.873582 -0.36459,-1.364524 0,-0.447619 0.0951,-0.857938 0.28518,-1.23096 0.19011,-0.373014 0.47529,-0.706323 0.85553,-0.999929 -0.33211,-0.308035 -0.58239,-0.635328 -0.75085,-0.981879 -0.16846,-0.34654 -0.25269,-0.712338 -0.25269,-1.097395 0,-0.755655 0.28879,-1.406631 0.86637,-1.95293 0.57757,-0.546282 1.31879,-0.819427 2.22367,-0.819437 0.90486,1e-5 1.64608,0.273155 2.22366,0.819437 0.57757,0.546299 0.86636,1.197275 0.86637,1.95293 -10e-6,0.38987 -0.083,0.758075 -0.24908,1.104614 -0.16606,0.346551 -0.41755,0.671438 -0.75446,0.97466 l 0,0 z m -0.5126,-2.050396 c 0,-0.365791 -0.1432,-0.677441 -0.42957,-0.934951 -0.28639,-0.257495 -0.67264,-0.386246 -1.15876,-0.386254 -0.49095,8e-6 -0.87961,0.128759 -1.16599,0.386254 -0.28638,0.25751 -0.42957,0.56916 -0.42957,0.934951 0,0.370618 0.14319,0.684675 0.42957,0.942172 0.28638,0.257508 0.67504,0.386259 1.16599,0.386254 0.48612,5e-6 0.87237,-0.128746 1.15876,-0.386254 0.28637,-0.257497 0.42957,-0.571554 0.42957,-0.942172 l 0,0 z m 0.17327,4.353482 c 0,-0.389861 -0.16726,-0.742423 -0.50177,-1.057687 -0.33451,-0.315256 -0.74965,-0.472886 -1.24539,-0.47289 -0.49576,4e-6 -0.91089,0.157634 -1.2454,0.47289 -0.33452,0.315264 -0.50178,0.672639 -0.50177,1.072126 -10e-6,0.308043 0.14439,0.576375 0.43318,0.804997 0.28878,0.228626 0.72678,0.342937 1.31399,0.342936 0.59201,10e-7 1.0312,-0.11431 1.31759,-0.342936 0.28638,-0.228622 0.42957,-0.501767 0.42957,-0.819436 l 0,0 z"
         style="font-size:29.57190704px;font-style:normal;font-weight:bold;fill:#000000;fill-opacity:1;stroke:none;font-family:Futura XBlk BT"
         transform="matrix(0.9525881,0.304263,-0.304263,0.9525881,0,0)"
         inkscape:connector-curvature="0" />
      <path
         id="text3585"
         d="m 371.92491,44.146897 0,8.100507 1.49448,0 c 0.35617,2e-6 0.61006,0.06859 0.76168,0.205762 0.15161,0.137175 0.22742,0.316465 0.22742,0.537868 0,0.216592 -0.0758,0.393474 -0.22742,0.530648 -0.15162,0.137175 -0.40551,0.205762 -0.76168,0.205762 l -4.46899,0 c -0.35618,0 -0.61007,-0.06859 -0.76168,-0.205762 -0.15162,-0.137174 -0.22742,-0.316463 -0.22742,-0.537868 0,-0.21659 0.0758,-0.393473 0.22742,-0.530648 0.15161,-0.137173 0.4055,-0.20576 0.76168,-0.205762 l 1.49448,0 0,-6.172846 -1.32121,0.346545 c -0.21178,0.05776 -0.37061,0.08664 -0.4765,0.08664 -0.18771,7e-6 -0.35016,-0.0746 -0.48733,-0.223811 -0.13718,-0.1492 -0.20576,-0.332099 -0.20576,-0.548697 0,-0.197331 0.0505,-0.352554 0.15161,-0.465671 0.10108,-0.113101 0.31285,-0.212973 0.63534,-0.299618 l 3.18388,-0.823046 z"
         style="font-size:29.57190704px;font-style:normal;font-weight:bold;fill:#000000;fill-opacity:1;stroke:none;font-family:Futura XBlk BT"
         transform="matrix(0.9525881,0.304263,-0.304263,0.9525881,0,0)"
         inkscape:connector-curvature="0" />
      <path
         id="text3589"
         d="m 381.56683,48.125018 0,1.624434 c -10e-6,0.96263 -0.27796,1.884345 -0.83387,2.765146 -0.55593,0.880805 -1.3513,1.321206 -2.38612,1.321206 -0.59683,0 -1.101,-0.131158 -1.51252,-0.393474 -0.41153,-0.262315 -0.80139,-0.746035 -1.1696,-1.45116 -0.3682,-0.705122 -0.55231,-1.452361 -0.5523,-2.241718 l 0,-1.624434 c -10e-6,-0.957807 0.27675,-1.878318 0.83026,-2.761536 0.55351,-0.883202 1.34768,-1.324806 2.3825,-1.324816 0.59201,1e-5 1.09378,0.129964 1.50531,0.389864 0.41152,0.259918 0.80379,0.742435 1.17681,1.447551 0.37301,0.705131 0.55952,1.454776 0.55953,2.248937 l 0,0 z m -1.48726,0 c 0,-0.803787 -0.22381,-1.506504 -0.67143,-2.108153 -0.2551,-0.332099 -0.61368,-0.498152 -1.07574,-0.49816 -0.44762,8e-6 -0.81342,0.182907 -1.09739,0.548698 -0.42837,0.553517 -0.64256,1.239389 -0.64255,2.057615 l 0,1.624434 c -1e-5,0.80861 0.22621,1.511327 0.67865,2.108153 0.25028,0.332108 0.60886,0.498161 1.07573,0.49816 0.44281,1e-6 0.8062,-0.182898 1.09018,-0.548698 0.42836,-0.553508 0.64255,-1.239379 0.64255,-2.057615 l 0,-1.624434 z"
         style="font-size:29.57190704px;font-style:normal;font-weight:bold;fill:#000000;fill-opacity:1;stroke:none;font-family:Futura XBlk BT"
         transform="matrix(0.9525881,0.304263,-0.304263,0.9525881,0,0)"
         inkscape:connector-curvature="0" />
      <path
         id="text3597"
         d="m 415.78585,44.146916 0,8.100507 1.49447,0 c 0.35617,2e-6 0.61006,0.06859 0.76168,0.205762 0.15161,0.137176 0.22742,0.316465 0.22742,0.537868 0,0.216592 -0.0758,0.393474 -0.22742,0.530648 -0.15162,0.137175 -0.40551,0.205762 -0.76168,0.205762 l -4.46899,0 c -0.35618,0 -0.61007,-0.06859 -0.76168,-0.205762 -0.15162,-0.137174 -0.22742,-0.316463 -0.22742,-0.537868 0,-0.21659 0.0758,-0.393472 0.22742,-0.530648 0.15161,-0.137173 0.4055,-0.20576 0.76168,-0.205762 l 1.49448,0 0,-6.172846 -1.32121,0.346545 c -0.21178,0.05777 -0.37061,0.08664 -0.4765,0.08664 -0.18771,7e-6 -0.35016,-0.0746 -0.48733,-0.223811 -0.13717,-0.1492 -0.20576,-0.332099 -0.20576,-0.548697 0,-0.197331 0.0505,-0.352554 0.15161,-0.465671 0.10108,-0.1131 0.31286,-0.212973 0.63534,-0.299618 l 3.18389,-0.823046 z"
         style="font-size:29.57190704px;font-style:normal;font-weight:bold;fill:#000000;fill-opacity:1;stroke:none;font-family:Futura XBlk BT"
         transform="matrix(0.9525881,0.304263,-0.304263,0.9525881,0,0)"
         inkscape:connector-curvature="0" />
      <path
         id="text3629"
         d="m 421.78031,52.247423 3.24165,0 c 0.17808,-0.144392 0.34654,-0.216589 0.50538,-0.216591 0.22621,2e-6 0.4055,0.07461 0.53787,0.223811 0.13235,0.149209 0.19853,0.404305 0.19854,0.765289 l 0,0.707531 -6.7432,0 0,-1.566676 c 2.66647,-2.199599 4.27646,-3.61466 4.82998,-4.245186 0.27915,-0.322474 0.41874,-0.628108 0.41874,-0.916902 0,-0.360978 -0.15763,-0.679848 -0.47289,-0.956611 -0.31526,-0.276747 -0.73521,-0.415125 -1.25984,-0.415133 -0.52945,8e-6 -0.96985,0.154028 -1.3212,0.462061 -0.18291,0.163654 -0.32971,0.406717 -0.44041,0.72919 -0.0674,0.202159 -0.16003,0.346553 -0.27795,0.433182 -0.11793,0.08664 -0.26352,0.129961 -0.4368,0.129955 -0.20215,6e-6 -0.37663,-0.07219 -0.52342,-0.216591 -0.14681,-0.144387 -0.22021,-0.312847 -0.22021,-0.505379 0,-0.288781 0.13357,-0.649766 0.4007,-1.082956 0.26713,-0.433174 0.65699,-0.779719 1.16959,-1.039637 0.5126,-0.2599 1.06972,-0.389855 1.67136,-0.389864 0.93374,9e-6 1.69903,0.282781 2.29587,0.848315 0.59682,0.565552 0.89523,1.250219 0.89524,2.054006 -10e-6,0.409123 -0.0854,0.788157 -0.2563,1.137103 -0.17087,0.348958 -0.58119,0.831474 -1.23096,1.447551 -0.5102,0.48613 -1.50411,1.357307 -2.98174,2.613532 l 0,0 z"
         style="font-size:29.57190704px;font-style:normal;font-weight:bold;fill:#000000;fill-opacity:1;stroke:none;font-family:Futura XBlk BT"
         transform="matrix(0.9525881,0.304263,-0.304263,0.9525881,0,0)"
         inkscape:connector-curvature="0" />
      <path
         id="text3605"
         d="m 460.6501,44.146881 0,8.100508 1.49448,0 c 0.35617,2e-6 0.61006,0.06859 0.76168,0.205762 0.15161,0.137175 0.22741,0.316464 0.22742,0.537868 -1e-5,0.216591 -0.0758,0.393474 -0.22742,0.530648 -0.15162,0.137174 -0.40551,0.205761 -0.76168,0.205761 l -4.46899,0 c -0.35618,0 -0.61007,-0.06859 -0.76168,-0.205761 -0.15162,-0.137174 -0.22742,-0.316463 -0.22742,-0.537868 0,-0.21659 0.0758,-0.393473 0.22742,-0.530648 0.15161,-0.137173 0.4055,-0.20576 0.76168,-0.205762 l 1.49447,0 0,-6.172847 -1.3212,0.346546 c -0.21178,0.05777 -0.37061,0.08664 -0.4765,0.08664 -0.18772,7e-6 -0.35016,-0.0746 -0.48733,-0.223811 -0.13718,-0.1492 -0.20576,-0.332099 -0.20576,-0.548698 0,-0.19733 0.0505,-0.352554 0.15161,-0.465671 0.10108,-0.1131 0.31285,-0.212972 0.63533,-0.299617 l 3.18389,-0.823047 z"
         style="font-size:29.57190704px;font-style:normal;font-weight:bold;fill:#000000;fill-opacity:1;stroke:none;font-family:Futura XBlk BT"
         transform="matrix(0.9525881,0.304263,-0.304263,0.9525881,0,0)"
         inkscape:connector-curvature="0" />
      <path
         id="text3637"
         d="m 469.55894,44.266063 0,5.790203 c 0.31285,4e-6 0.54388,0.06859 0.69309,0.205762 0.1492,0.137177 0.22381,0.31406 0.22381,0.530648 0,0.216593 -0.0758,0.394679 -0.22742,0.534258 -0.15162,0.139583 -0.38145,0.209373 -0.68948,0.209371 l 0,0.592016 c 0.31285,10e-7 0.54388,0.06979 0.69309,0.209371 0.1492,0.139582 0.22381,0.317668 0.22381,0.534258 0,0.216592 -0.0758,0.393475 -0.22742,0.530649 -0.15162,0.137174 -0.40551,0.205761 -0.76168,0.205761 l -1.98542,0 c -0.35617,0 -0.61006,-0.06859 -0.76167,-0.205761 -0.15162,-0.137174 -0.22743,-0.316463 -0.22742,-0.537868 -10e-6,-0.21659 0.0758,-0.393473 0.22742,-0.530648 0.15161,-0.137173 0.4055,-0.205761 0.76167,-0.205762 l 0.57758,0 0,-0.592016 -4.02137,0 0,-1.234569 3.54487,-6.035673 1.95654,0 z m -1.48004,5.790203 0,-3.638731 -2.14425,3.638731 2.14425,0 z"
         style="font-size:29.57190704px;font-style:normal;font-weight:bold;fill:#000000;fill-opacity:1;stroke:none;font-family:Futura XBlk BT"
         transform="matrix(0.9525881,0.304263,-0.304263,0.9525881,0,0)"
         inkscape:connector-curvature="0" />
      <path
         id="text3613"
         d="m 504.51015,44.146981 0,8.100507 1.49448,0 c 0.35616,2e-6 0.61006,0.06859 0.76168,0.205762 0.1516,0.137175 0.22741,0.316465 0.22742,0.537868 -1e-5,0.216591 -0.0758,0.393474 -0.22742,0.530648 -0.15162,0.137175 -0.40552,0.205762 -0.76168,0.205762 l -4.469,0 c -0.35617,0 -0.61006,-0.06859 -0.76168,-0.205762 -0.15161,-0.137174 -0.22742,-0.316463 -0.22742,-0.537868 0,-0.21659 0.0758,-0.393473 0.22742,-0.530648 0.15162,-0.137173 0.40551,-0.20576 0.76168,-0.205762 l 1.49448,0 0,-6.172846 -1.3212,0.346545 c -0.21178,0.05776 -0.37062,0.08664 -0.47651,0.08664 -0.18771,7e-6 -0.35015,-0.0746 -0.48733,-0.223811 -0.13717,-0.1492 -0.20576,-0.332099 -0.20576,-0.548698 0,-0.19733 0.0505,-0.352553 0.15162,-0.46567 0.10107,-0.113101 0.31285,-0.212973 0.63533,-0.299618 l 3.18389,-0.823046 z"
         style="font-size:29.57190704px;font-style:normal;font-weight:bold;fill:#000000;fill-opacity:1;stroke:none;font-family:Futura XBlk BT"
         transform="matrix(0.9525881,0.304263,-0.304263,0.9525881,0,0)"
         inkscape:connector-curvature="0" />
      <path
         id="text3645"
         d="m 509.17693,48.565333 c 0.35617,-0.298409 0.6955,-0.516204 1.01798,-0.653384 0.32248,-0.137168 0.66662,-0.205755 1.03242,-0.205761 0.77491,6e-6 1.45356,0.308046 2.03596,0.924122 0.58238,0.616086 0.87357,1.388593 0.87358,2.317525 -1e-5,0.861553 -0.27075,1.558254 -0.81222,2.090104 -0.54148,0.531852 -1.27669,0.797777 -2.20562,0.797777 -0.77492,0 -1.41266,-0.180492 -1.91322,-0.541477 -0.50057,-0.360985 -0.8784,-0.916901 -1.13349,-1.667752 -0.2551,-0.750846 -0.38265,-1.588331 -0.38265,-2.512457 0,-1.107015 0.25269,-2.027527 0.75807,-2.761537 0.50538,-0.733995 1.0998,-1.303148 1.78327,-1.70746 0.68346,-0.404294 1.40543,-0.606445 2.16591,-0.606455 0.60164,10e-6 1.06851,0.117932 1.40062,0.353766 0.21659,0.158842 0.32488,0.360994 0.32489,0.606455 -10e-6,0.216599 -0.0722,0.398295 -0.21659,0.545088 -0.1444,0.146808 -0.31767,0.220208 -0.51982,0.220201 -0.11552,7e-6 -0.28157,-0.05775 -0.49816,-0.173273 -0.12996,-0.06738 -0.2551,-0.101068 -0.37542,-0.101076 -0.4717,8e-6 -0.96023,0.133572 -1.4656,0.400693 -0.50539,0.267137 -0.94338,0.677456 -1.31399,1.23096 -0.2551,0.385057 -0.4404,0.86637 -0.55592,1.443941 l 0,0 z m 0.21659,2.288646 c 0.15402,0.577578 0.36219,0.972255 0.62451,1.184031 0.26231,0.21178 0.63653,0.317668 1.12266,0.317667 0.48612,10e-7 0.86035,-0.127547 1.12267,-0.382644 0.26231,-0.255094 0.39346,-0.60164 0.39347,-1.039637 -10e-6,-0.500563 -0.15042,-0.916899 -0.45123,-1.249009 -0.30083,-0.332102 -0.63895,-0.498155 -1.01437,-0.49816 -0.29842,5e-6 -0.61729,0.146805 -0.95661,0.440402 -0.33933,0.293605 -0.61969,0.702721 -0.8411,1.22735 l 0,0 z"
         style="font-size:29.57190704px;font-style:normal;font-weight:bold;fill:#000000;fill-opacity:1;stroke:none;font-family:Futura XBlk BT"
         transform="matrix(0.9525881,0.304263,-0.304263,0.9525881,0,0)"
         inkscape:connector-curvature="0" />
      <path
         id="text3621"
         d="m 549.23369,44.14703 0,8.100508 1.49448,0 c 0.35617,1e-6 0.61006,0.06859 0.76168,0.205761 0.15161,0.137176 0.22741,0.316465 0.22742,0.537868 -10e-6,0.216592 -0.0758,0.393475 -0.22742,0.530649 -0.15162,0.137174 -0.40551,0.205761 -0.76168,0.205761 l -4.469,0 c -0.35617,0 -0.61006,-0.06859 -0.76168,-0.205761 -0.15161,-0.137174 -0.22742,-0.316464 -0.22742,-0.537868 0,-0.21659 0.0758,-0.393473 0.22742,-0.530649 0.15162,-0.137172 0.40551,-0.20576 0.76168,-0.205761 l 1.49448,0 0,-6.172847 -1.3212,0.346546 c -0.21178,0.05777 -0.37062,0.08664 -0.4765,0.08664 -0.18772,8e-6 -0.35016,-0.0746 -0.48733,-0.22381 -0.13718,-0.1492 -0.20577,-0.332099 -0.20577,-0.548698 0,-0.19733 0.0505,-0.352554 0.15162,-0.465671 0.10107,-0.1131 0.31285,-0.212972 0.63533,-0.299618 l 3.18389,-0.823046 z"
         style="font-size:29.57190704px;font-style:normal;font-weight:bold;fill:#000000;fill-opacity:1;stroke:none;font-family:Futura XBlk BT"
         transform="matrix(0.9525881,0.304263,-0.304263,0.9525881,0,0)"
         inkscape:connector-curvature="0" />
      <path
         id="text3653"
         d="m 557.86727,48.890269 c 0.38023,0.293606 0.66541,0.626915 0.85553,0.999929 0.19011,0.373021 0.28517,0.783341 0.28518,1.230959 -10e-6,0.495755 -0.12154,0.9518 -0.36459,1.368134 -0.24308,0.416337 -0.62452,0.744833 -1.14433,0.98549 -0.51982,0.240657 -1.0974,0.360985 -1.73273,0.360985 -0.63533,0 -1.2081,-0.120328 -1.71829,-0.360985 -0.51019,-0.240657 -0.88682,-0.570356 -1.12988,-0.9891 -0.24306,-0.418741 -0.3646,-0.873582 -0.36459,-1.364524 -1e-5,-0.447618 0.0951,-0.857938 0.28517,-1.230959 0.19012,-0.373014 0.4753,-0.706323 0.85554,-0.999929 -0.33211,-0.308036 -0.58239,-0.635329 -0.75085,-0.98188 -0.16846,-0.34654 -0.25269,-0.712337 -0.25269,-1.097395 0,-0.755655 0.28879,-1.406631 0.86636,-1.95293 0.57758,-0.546281 1.3188,-0.819426 2.22367,-0.819436 0.90487,10e-6 1.64609,0.273155 2.22367,0.819436 0.57757,0.546299 0.86636,1.197275 0.86637,1.95293 -10e-6,0.389871 -0.083,0.758075 -0.24908,1.104615 -0.16606,0.346551 -0.41755,0.671437 -0.75446,0.97466 l 0,0 z m -0.5126,-2.050396 c -1e-5,-0.365791 -0.1432,-0.677441 -0.42957,-0.934952 -0.28639,-0.257494 -0.67264,-0.386246 -1.15877,-0.386254 -0.49094,8e-6 -0.8796,0.12876 -1.16598,0.386254 -0.28638,0.257511 -0.42957,0.569161 -0.42957,0.934952 0,0.370618 0.14319,0.684675 0.42957,0.942171 0.28638,0.257509 0.67504,0.38626 1.16598,0.386255 0.48613,5e-6 0.87238,-0.128746 1.15877,-0.386255 0.28637,-0.257496 0.42956,-0.571553 0.42957,-0.942171 l 0,0 z m 0.17327,4.353481 c -10e-6,-0.389861 -0.16726,-0.742423 -0.50177,-1.057686 -0.33452,-0.315257 -0.74965,-0.472887 -1.2454,-0.472891 -0.49575,4e-6 -0.91089,0.157634 -1.2454,0.472891 -0.33451,0.315263 -0.50177,0.672638 -0.50177,1.072126 0,0.308043 0.1444,0.576375 0.43319,0.804997 0.28878,0.228625 0.72678,0.342937 1.31398,0.342936 0.59201,10e-7 1.03121,-0.114311 1.3176,-0.342936 0.28637,-0.228622 0.42956,-0.501767 0.42957,-0.819437 l 0,0 z"
         style="font-size:29.57190704px;font-style:normal;font-weight:bold;fill:#000000;fill-opacity:1;stroke:none;font-family:Futura XBlk BT"
         transform="matrix(0.9525881,0.304263,-0.304263,0.9525881,0,0)"
         inkscape:connector-curvature="0" />
      <path
         sodipodi:nodetypes="cc"
         id="path3733"
         d="M 113.43506,143.41804 518.90953,273.9704"
         style="fill:#ffd3a3;fill-opacity:1;fill-rule:nonzero;stroke:url(#linearGradient2543);stroke-width:2.77502751;stroke-linecap:butt;stroke-miterlimit:0;stroke-opacity:1;stroke-dasharray:none;stroke-dashoffset:0"
         inkscape:connector-curvature="0" />
      <path
         d="m 522.9271,267.64811 c -0.11536,1.21814 -0.55455,2.32264 -1.13822,3.38351 -0.5562,0.91303 -1.37055,1.6093 -2.33342,2.05882 -0.74005,0.38395 -1.50473,0.42421 -2.317,0.38435 -0.6005,3e-4 -1.19543,-0.0671 -1.78805,-0.15628 l -4.12029,-2.00268 c 0.58082,0.11345 1.16528,0.2139 1.75937,0.21652 0.77002,0.002 1.52645,0.19181 2.24243,-0.21637 0.92697,-0.29371 1.68766,-0.95935 2.2213,-1.76399 0.56506,-1.01065 0.98506,-2.05836 1.08746,-3.22552 l 4.38642,1.32164 z"
         id="path3798"
         style="opacity:0.43902438;fill:#fff3de;fill-opacity:1;fill-rule:nonzero;stroke:none"
         inkscape:connector-curvature="0" />
      <path
         d="m 141.01036,77.02951 c -1.06944,0.428184 -2.10835,0.935337 -3.13183,1.463727 -0.72876,0.412259 -1.18631,1.073172 -1.40566,1.868608 -0.1038,0.560836 -0.0737,0.277024 -0.0891,0.851596 l -4.39926,-1.27814 c 0.0398,-0.650213 -0.001,-0.333087 0.11948,-0.95178 0.25558,-0.89794 0.73917,-1.689436 1.53036,-2.214885 1.01739,-0.56914 2.09013,-1.045037 3.15426,-1.517913 l 4.22176,1.778787 z"
         id="path3808"
         style="opacity:0.43902438;fill:#fff3de;fill-opacity:1;fill-rule:nonzero;stroke:none"
         inkscape:connector-curvature="0" />
      <path
         d="m 538.6262,204.26786 c 0.97931,0.63143 1.83616,1.39744 2.63036,2.24632 0.729,0.6446 1.23335,1.38855 1.54184,2.30137 0.21985,0.86364 0.28436,1.74881 0.39136,2.63013 0.0838,0.86966 -0.10748,1.72137 -0.32208,2.55759 -0.14372,0.71955 -0.55422,1.30064 -0.99441,1.86689 l -4.31167,-1.54818 c 0.40762,-0.51553 0.81301,-1.01861 0.934,-1.68687 0.19933,-0.78313 0.37667,-1.57968 0.2739,-2.39288 -0.10925,-0.84854 -0.15491,-1.70922 -0.41748,-2.52994 -0.33297,-0.84145 -0.93726,-1.4909 -1.58412,-2.11426 -0.80313,-0.80105 -1.65647,-1.55143 -2.65794,-2.09888 l 4.51624,0.76871 z"
         id="path3812"
         style="opacity:0.43902438;fill:#fff3de;fill-opacity:1;fill-rule:nonzero;stroke:none"
         inkscape:connector-curvature="0" />
      <path
         d="m 540.87926,204.78014 c 0.80191,1.08941 1.44658,2.31615 1.74428,3.6407 0.10163,0.63711 -0.006,1.24202 -0.15278,1.85844 l -4.37498,-1.35889 c 0.12561,-0.55014 0.21336,-1.08662 0.0936,-1.65082 -0.34189,-1.25879 -0.9911,-2.42096 -1.78974,-3.44839 l 4.47965,0.95896 z"
         id="path3814"
         style="opacity:0.43902438;fill:#fff3de;fill-opacity:1;fill-rule:nonzero;stroke:none"
         inkscape:connector-curvature="0" />
      <path
         d="m 542.92612,204.38478 c 0.96045,0.76233 1.65221,1.73057 1.98021,2.909 0.1304,0.96856 0.008,1.96091 -0.0961,2.92953 -0.0936,0.62684 -0.0407,0.31501 -0.15848,0.9356 l -4.3809,-1.33981 c 0.11061,-0.59711 0.0613,-0.29707 0.14783,-0.90007 0.0925,-0.90827 0.22708,-1.847 0.0464,-2.74882 -0.39137,-1.09934 -1.1475,-1.93974 -2.03027,-2.68862 l 4.49129,0.90319 z"
         id="path3816"
         style="opacity:0.43902438;fill:#fff3de;fill-opacity:1;fill-rule:nonzero;stroke:none"
         inkscape:connector-curvature="0" />
      <path
         d="m 524.44859,273.42424 c -0.11639,1.10664 -0.56653,2.05535 -1.26306,2.90427 -0.64368,0.77101 -1.46322,1.06513 -2.43972,1.07117 -0.80516,-0.0995 -1.61506,-0.11705 -2.41788,-0.23522 -0.13792,-0.0266 -0.27587,-0.0531 -0.41386,-0.0796 l -4.11217,-2.01919 c 0.13526,0.032 0.27051,0.064 0.40577,0.096 0.79694,0.15864 1.59657,0.17005 2.395,0.28297 0.87911,0.10658 1.65362,0.025 2.27637,-0.67868 0.6664,-0.7754 1.08933,-1.62525 1.18314,-2.66336 l 4.38641,1.32163 z"
         id="path3818"
         style="opacity:0.43902438;fill:#fff3de;fill-opacity:1;fill-rule:nonzero;stroke:none"
         inkscape:connector-curvature="0" />
      <g
         transform="matrix(5.2869163,1.6886764,-1.6886764,5.2869163,-847.58796,-2622.2521)"
         style="fill:url(#linearGradient4081);fill-opacity:1"
         id="g3822">
        <path
           style="opacity:0.43902438;fill:url(#linearGradient4077);fill-opacity:1;fill-rule:nonzero;stroke:none"
           id="path3806"
           d="m 317.05832,420.71135 c 0.0268,0.20446 0.0635,0.41063 0.0536,0.61736 -0.0254,0.12463 -0.0337,0.20262 0.0193,0.31688 0.0717,0.10253 0.14328,0.1769 0.2611,0.22366 0.14245,0.0777 0.30109,0.10339 0.46031,0.11898 0.16832,0.0122 0.33724,0.011 0.5059,0.0108 -1.32014,0.0393 -0.77093,0.0289 -0.47208,-0.0462 l 0.81852,0.10661 c -0.40383,0.12686 -0.63586,0.12009 -1.16173,0.0686 -0.16926,-7.1e-4 -0.33909,-6.3e-4 -0.50742,-0.0208 -0.16228,-0.0244 -0.31954,-0.0657 -0.46386,-0.14664 -0.11516,-0.0685 -0.20127,-0.163 -0.26547,-0.28098 -0.0492,-0.11847 -0.0495,-0.23033 -0.02,-0.35518 0.011,-0.20061 -0.0284,-0.40108 -0.0535,-0.59949 l 0.82532,-0.0136 z"
           inkscape:connector-curvature="0" />
        <path
           style="opacity:0.43902438;fill:url(#linearGradient4079);fill-opacity:1;fill-rule:nonzero;stroke:none"
           id="path3820"
           d="m 316.71833,420.47054 c 0,0.22597 0,0.45193 0,0.6779 0,0.18924 0,0.37849 0,0.56774 -0.004,0.095 -0.007,0.17741 0.0793,0.22863 l -0.82273,0.0667 c -0.0695,-0.0904 -0.092,-0.18006 -0.082,-0.29535 0,-0.18925 0,-0.3785 0,-0.56774 0,-0.22597 0,-0.45193 0,-0.6779 l 0.82543,0 z"
           inkscape:connector-curvature="0" />
      </g>
      <g
         transform="matrix(5.2869163,1.6886764,-1.6886764,5.2869163,-847.58796,-2622.2521)"
         style="opacity:0.95934957"
         id="g3866">
        <path
           sodipodi:type="arc"
           style="fill:#d9ac5d;fill-opacity:1;fill-rule:nonzero;stroke:none"
           id="path3844"
           sodipodi:cx="319.02954"
           sodipodi:cy="418.01755"
           sodipodi:rx="1.0730618"
           sodipodi:ry="1.0730618"
           d="m 320.1026,418.01755 c 0,0.59263 -0.48042,1.07306 -1.07306,1.07306 -0.59263,0 -1.07306,-0.48043 -1.07306,-1.07306 0,-0.59264 0.48043,-1.07306 1.07306,-1.07306 0.59264,0 1.07306,0.48042 1.07306,1.07306 z"
           transform="matrix(0.3846154,0,0,0.3846154,196.32588,257.15903)" />
        <path
           sodipodi:type="arc"
           style="fill:#d9ac5d;fill-opacity:1;fill-rule:nonzero;stroke:none"
           id="path3846"
           sodipodi:cx="319.02954"
           sodipodi:cy="418.01755"
           sodipodi:rx="1.0730618"
           sodipodi:ry="1.0730618"
           d="m 320.1026,418.01755 c 0,0.59263 -0.48042,1.07306 -1.07306,1.07306 -0.59263,0 -1.07306,-0.48043 -1.07306,-1.07306 0,-0.59264 0.48043,-1.07306 1.07306,-1.07306 0.59264,0 1.07306,0.48042 1.07306,1.07306 z"
           transform="matrix(0.6538462,0,0,0.6538462,112.12543,145.31745)" />
        <path
           sodipodi:type="arc"
           style="fill:#d9ac5d;fill-opacity:1;fill-rule:nonzero;stroke:none"
           id="path3848"
           sodipodi:cx="319.02954"
           sodipodi:cy="418.01755"
           sodipodi:rx="1.0730618"
           sodipodi:ry="1.0730618"
           d="m 320.1026,418.01755 c 0,0.59263 -0.48042,1.07306 -1.07306,1.07306 -0.59263,0 -1.07306,-0.48043 -1.07306,-1.07306 0,-0.59264 0.48043,-1.07306 1.07306,-1.07306 0.59264,0 1.07306,0.48042 1.07306,1.07306 z"
           transform="matrix(0.5769231,0,0,0.5769231,137.16143,174.83126)" />
        <path
           sodipodi:type="arc"
           style="fill:#d9ac5d;fill-opacity:1;fill-rule:nonzero;stroke:none"
           id="path3850"
           sodipodi:cx="319.02954"
           sodipodi:cy="418.01755"
           sodipodi:rx="1.0730618"
           sodipodi:ry="1.0730618"
           d="m 320.1026,418.01755 c 0,0.59263 -0.48042,1.07306 -1.07306,1.07306 -0.59263,0 -1.07306,-0.48043 -1.07306,-1.07306 0,-0.59264 0.48043,-1.07306 1.07306,-1.07306 0.59264,0 1.07306,0.48042 1.07306,1.07306 z"
           transform="matrix(0.5,0,0,0.5,165.66423,209.13258)" />
        <path
           sodipodi:type="arc"
           style="fill:#d9ac5d;fill-opacity:1;fill-rule:nonzero;stroke:none"
           id="path3852"
           sodipodi:cx="319.02954"
           sodipodi:cy="418.01755"
           sodipodi:rx="1.0730618"
           sodipodi:ry="1.0730618"
           d="m 320.1026,418.01755 c 0,0.59263 -0.48042,1.07306 -1.07306,1.07306 -0.59263,0 -1.07306,-0.48043 -1.07306,-1.07306 0,-0.59264 0.48043,-1.07306 1.07306,-1.07306 0.59264,0 1.07306,0.48042 1.07306,1.07306 z"
           transform="matrix(0.1923077,0,0,0.1923077,257.05863,333.79129)" />
        <path
           sodipodi:type="arc"
           style="fill:#d9ac5d;fill-opacity:1;fill-rule:nonzero;stroke:none"
           id="path3854"
           sodipodi:cx="319.02954"
           sodipodi:cy="418.01755"
           sodipodi:rx="1.0730618"
           sodipodi:ry="1.0730618"
           d="m 320.1026,418.01755 c 0,0.59263 -0.48042,1.07306 -1.07306,1.07306 -0.59263,0 -1.07306,-0.48043 -1.07306,-1.07306 0,-0.59264 0.48043,-1.07306 1.07306,-1.07306 0.59264,0 1.07306,0.48042 1.07306,1.07306 z"
           transform="matrix(0.6538462,0,0,0.6538462,119.63687,140.19976)" />
        <path
           sodipodi:type="arc"
           style="fill:#d9ac5d;fill-opacity:1;fill-rule:nonzero;stroke:none"
           id="path3856"
           sodipodi:cx="319.02954"
           sodipodi:cy="418.01755"
           sodipodi:rx="1.0730618"
           sodipodi:ry="1.0730618"
           d="m 320.1026,418.01755 c 0,0.59263 -0.48042,1.07306 -1.07306,1.07306 -0.59263,0 -1.07306,-0.48043 -1.07306,-1.07306 0,-0.59264 0.48043,-1.07306 1.07306,-1.07306 0.59264,0 1.07306,0.48042 1.07306,1.07306 z"
           transform="matrix(0.3846154,0,0,0.3846154,199.21488,257.24156)" />
      </g>
      <path
         d="m 523.24714,234.14819 c -4.48869,2.79285 -8.49095,6.48194 -11.6508,10.72704 -0.80566,1.08243 -1.49338,2.24779 -2.24011,3.3717 -1.90414,2.78102 -2.3228,6.06086 -3.27727,9.18739 -0.21385,0.70036 -0.45274,2.16039 -1.70852,1.74518 -1.93308,-0.63905 -3.71615,-1.6646 -5.57421,-2.49695 -5.83254,-6.3954 -10.02002,-14.07302 -13.60989,-21.89291 -0.77874,-2.46948 -4.4685,-7.83718 2.83603,-2.99654 0.55539,0.36803 0.33826,1.28897 0.49094,1.9375 0.53699,2.28057 1.05504,4.78384 1.5397,7.06023 0.63686,3.95904 1.31324,7.95343 1.32465,11.97798 0.003,1.11022 -0.043,3.67658 -0.7323,4.8373 -0.23032,0.38782 -0.71444,0.55078 -1.07162,0.82612 -1.82992,-0.556 -3.76255,-0.84696 -5.48984,-1.66808 -0.67537,-0.32111 -3.13657,-3.80149 -3.33473,-4.08746 -2.10579,-3.03843 -3.93001,-6.25994 -5.78493,-9.45321 -1.64012,-2.27018 -2.83763,-5.17791 -5.1156,-6.954 -0.38356,-0.29911 -1.74696,-0.85549 -1.31845,-0.62522 3.30728,1.77725 3.67256,0.63947 1.93104,2.60361 -1.1736,1.54322 -1.34725,3.56785 -2.19141,5.25038 -0.11795,0.235 -0.26995,0.64923 -0.52564,0.58807 -5.13563,-1.2275 -4.3707,-0.60127 -5.72358,-3.60826 -1.88858,-4.37749 -3.17769,-8.97608 -3.92409,-13.67771 0.70218,-1.83141 0.5063,-1.69314 4.54884,1.98691 0.44661,0.40652 0.11706,1.20206 0.17316,1.80331 0.23753,2.54406 0.48868,5.08659 0.72785,7.63047 0.37738,2.35667 0.22444,5.51182 2.12663,7.33038 0.95524,0.91326 2.01485,1.11362 3.2199,1.52113 -0.63629,-0.32069 -1.83519,-0.25331 -1.90882,-0.96201 -0.062,-0.59654 1.20414,-0.0535 1.78993,-0.18215 1.3545,-0.29733 2.74989,-1.01911 3.04225,-2.44627 -2.06647,-0.92229 1.99387,0.88377 1.98362,0.96713 -0.11113,0.90353 -1.82017,0.0526 -2.72895,0.10607 -4.31016,0.2535 -8.60028,0.61519 -12.91561,0.80662 -6.14651,-0.1822 -13.88029,1.22679 -19.31773,-2.58611 -0.32303,-0.22652 0.12881,-0.7785 0.19324,-1.16774 0.89039,-1.3384 2.20383,-2.27804 3.38102,-3.34148 0.30368,-0.27437 1.02569,-0.96355 1.05714,-0.94983 1.346,0.58769 2.59428,1.3777 3.89149,2.06651 -1.09771,1.33173 -1.95983,2.8857 -3.1651,4.12929 -0.12706,0.13112 -0.25271,0.38207 -0.43021,0.33912 -1.53342,-0.37087 -2.9866,-1.01774 -4.47988,-1.52663 -0.2333,-0.62673 0.49077,-1.57756 0.12901,-2.15926 -0.0957,-0.15398 -0.68054,-0.24942 -0.51412,-0.17744 0.99158,0.42864 2.29018,0.42597 2.99093,1.24821 0.40313,0.47298 -1.24203,0.0501 -1.86301,0.0751 -4.11532,0.65587 -6.27102,1.46422 -10.34787,-1.04493 -0.33845,-0.20832 -0.0526,-2.10541 0.035,-2.94181 0.11068,-2.73353 0.84141,-7.14019 -0.53305,-9.64747 -0.18557,-0.33853 -0.52495,-0.56619 -0.78742,-0.84929 -0.33623,-0.0872 -1.30851,-0.43694 -1.00862,-0.26168 0.88809,0.51898 2.18228,0.48053 2.79589,1.30616 0.3275,0.44067 -1.08875,0.15174 -1.62507,0.26924 -2.1714,0.4759 -4.30136,1.2314 -6.43926,1.83482 -3.90545,1.32622 -7.86083,2.26005 -11.97482,2.55769 -3.89013,0.0866 -8.09965,-0.78344 -11.29548,-3.10645 -1.23627,-1.0064 -2.43925,-2.04423 -3.69106,-3.03188 -0.21848,-0.17239 -1.69388,-1.2836 -1.97657,-1.65775 -0.0855,-0.11325 -0.0522,-0.27898 -0.0783,-0.41846 l 4.35069,1.21113 c 1.48455,1.74017 3.74852,3.1371 5.57993,4.66412 1.98891,1.28677 1.07203,0.55053 -2.03058,-0.17892 -0.38299,-0.0901 0.74064,0.26738 1.11908,0.37474 1.40528,0.39864 2.83313,0.46667 4.28876,0.43498 4.15868,-0.21304 8.17939,-1.04823 12.12398,-2.39521 4.41297,-1.3043 0.32112,-0.0625 4.42743,-1.39681 0.21942,-0.0713 2.96242,-0.96562 3.36789,-0.92007 4.24171,0.47646 3.9659,0.43777 6.23011,1.60867 0.22028,0.33021 0.5105,0.62328 0.66081,0.99068 1.14303,2.7939 0.32374,6.8224 0.46077,9.76906 -0.004,0.53489 -0.0677,1.0725 -0.0133,1.60462 0.16952,1.66057 2.00019,2.25141 -2.98788,0.18108 -0.46036,-0.19109 0.99753,0.0669 1.49499,0.0346 1.35405,-0.088 2.81338,-0.42366 4.13485,-0.68436 3.1958,-0.39573 2.13138,-0.48413 6.9333,1.20059 0.21358,0.075 0.32886,0.33664 0.39338,0.55365 0.17615,0.59257 -0.29098,1.2809 0.0484,1.85541 -1.34232,-0.34951 -2.71469,-0.59908 -4.02691,-1.04845 -0.16722,-0.0573 0.36055,-0.0573 0.50637,-0.15725 0.28372,-0.1944 0.52382,-0.44905 0.75293,-0.70558 0.90052,-1.0082 1.62183,-2.17221 2.25303,-3.3618 1.47632,0.363 2.96648,0.67356 4.42884,1.08902 0.13472,0.0383 -0.29356,-0.0154 -0.41691,0.0508 -1.58785,0.8517 -2.91268,2.40453 -4.02073,3.77263 -0.39075,1.94789 0.30152,-0.26289 -3.10084,0.20402 -0.81608,0.11198 1.58448,0.47218 2.39972,0.59012 4.20418,0.60838 8.5117,0.28325 12.73566,0.34177 5.15354,-0.28697 4.04108,-0.16151 8.93293,-0.66654 3.33482,-0.34428 9.69134,-1.95801 11.87699,1.46226 -0.0796,0.24813 -0.10619,0.51998 -0.23857,0.74437 -0.85658,1.4518 -3.51277,2.56552 -5.13179,2.31821 -1.95134,-0.29805 -3.83275,-0.94694 -5.74914,-1.42044 -1.33764,-0.52816 -2.23772,-0.69913 -3.2422,-1.7955 -1.78895,-1.95258 -1.48425,-5.05477 -1.82795,-7.45417 -0.21939,-2.5604 -0.45147,-5.12719 -0.93309,-7.65535 -0.11702,-0.61424 -1.01957,-1.61805 -0.42987,-1.82588 3.26124,-1.14949 4.53315,1.97548 3.76189,0.2425 -0.28734,4.66929 1.87956,9.30966 3.76267,13.44653 1.37027,2.15468 2.10069,2.41304 -2.31083,1.09486 -0.23205,-0.0693 0.52185,-0.0914 0.66875,-0.28385 1.16567,-1.52698 1.10698,-3.7948 2.22973,-5.35833 0.32469,-0.47531 0.40027,-1.38012 0.97414,-1.42602 6.56348,-0.52512 8.01474,3.95763 10.86907,8.58783 1.87875,3.22279 3.74073,6.46965 5.99903,9.44941 0.62652,0.82662 1.26944,1.64548 1.9857,2.39565 0.54489,0.5707 2.25526,0.92001 1.78559,1.5541 -0.51307,0.69282 -1.68424,-0.36929 -2.52635,-0.55396 0.38247,-0.16589 0.87687,-0.1806 1.14737,-0.49779 0.89872,-1.05363 1.07271,-3.43286 1.12429,-4.56603 0.18184,-3.99352 -0.48657,-7.97692 -1.23138,-11.8802 -0.61683,-2.36731 -1.1796,-4.8559 -2.07573,-7.14755 -0.26044,-0.66616 -1.61623,-1.64402 -0.95669,-1.92073 4.96821,-2.08427 3.65194,0.2699 4.05426,1.98887 0.22028,0.94092 0.56926,1.84698 0.85391,2.77041 3.37535,8.03733 7.71773,15.82444 14.17166,21.81541 -0.75231,-0.009 -1.51037,-0.12015 -2.2569,-0.0267 -0.36081,0.0452 0.76396,0.35984 1.0768,0.17445 0.4436,-0.26283 0.6202,-0.83415 0.83071,-1.30479 1.34487,-3.00714 1.69352,-6.43064 3.69848,-9.16192 0.75506,-1.1325 1.46334,-2.29764 2.2652,-3.39754 3.06956,-4.21032 6.82727,-7.87853 10.85542,-11.16292 l 4.03777,1.6064 z"
         id="path3864"
         style="opacity:0.59349593;fill:#f8d18c;fill-opacity:1;fill-rule:nonzero;stroke:none"
         inkscape:connector-curvature="0" />
      <g
         transform="matrix(3.730012,1.1913908,-0.817689,2.5600248,-697.76102,-1307.6932)"
         style="opacity:0.26016259"
         id="g3903">
        <path
           style="opacity:0.95934957;fill:#f8d18c;fill-opacity:1;fill-rule:nonzero;stroke:none"
           id="path3875"
           d="m 334.22021,418.26551 c -0.75455,-0.0176 0.61548,0.0136 0.69742,0.0258 0.0669,0.01 -0.1326,0.0386 -0.19237,0.0773 -0.16329,0.10554 -0.1317,0.19481 -0.029,0.3181 0.33209,0.41259 0.44966,0.75301 0.14427,1.24407 -0.48106,0.41326 -1.08942,0.44686 -1.65431,0.51334 l -1.13964,-0.21149 c 0.54006,-0.0543 1.10996,-0.0845 1.59681,-0.40918 0.3123,-0.37661 0.10244,-0.71815 -0.1606,-1.0437 -0.4939,-1.11804 1.59291,-0.72648 1.93902,-0.72045 l -1.20162,0.20625 z"
           inkscape:connector-curvature="0" />
        <path
           style="opacity:0.95934957;fill:#f8d18c;fill-opacity:1;fill-rule:nonzero;stroke:none"
           id="path3877"
           d="m 334.95149,420.63682 c 0.33653,-0.39994 0.57034,-0.86763 0.87376,-1.2905 0.5725,-0.68573 0.84193,-0.52829 1.75004,-0.44892 0.31541,0.3119 0.45975,0.76736 0.58016,1.18556 0.0689,0.30076 0.0433,0.15738 0.0812,0.42934 l -0.7737,0.008 c -0.0168,-0.26183 0.002,-0.12291 -0.0645,-0.41549 -0.12177,-0.40042 -0.25839,-0.85151 -0.60044,-1.11774 0.21112,-0.016 0.42318,-0.0225 0.63335,-0.048 0.051,-0.006 -0.10272,-0.0155 -0.15385,-0.0102 -0.29335,0.0301 -0.51603,0.265 -0.70655,0.46503 -0.30988,0.40885 -0.53474,0.87026 -0.82284,1.29438 l -0.79661,-0.0513 z"
           inkscape:connector-curvature="0" />
        <path
           style="opacity:0.95934957;fill:#f8d18c;fill-opacity:1;fill-rule:nonzero;stroke:none"
           id="path3879"
           d="m 335.48978,420.31124 c 0.54759,-0.2393 1.09696,-0.47641 1.6595,-0.67864 0.35172,-0.10948 0.18252,-0.0664 0.50625,-0.13439 l 0.75214,0.10525 c -0.34012,0.0532 -0.16389,0.0153 -0.52729,0.11979 -0.54811,0.18736 -1.07865,0.41974 -1.60106,0.66963 l -0.78954,-0.0816 z"
           inkscape:connector-curvature="0" />
        <path
           style="opacity:0.95934957;fill:#f8d18c;fill-opacity:1;fill-rule:nonzero;stroke:none"
           id="path3881"
           d="m 338.71764,418.17739 c 0.22029,0.57867 0.28711,1.19446 0.3483,1.80567 -0.0256,0.36433 0.10958,0.74143 0.0783,1.10319 l -0.80913,-0.0238 c 0.12918,-0.19617 -0.0197,-0.84079 0.002,-1.07233 -0.0568,-0.60284 -0.12532,-1.22639 -0.4123,-1.76986 l 0.79258,-0.0429 z"
           inkscape:connector-curvature="0" />
        <path
           style="opacity:0.95934957;fill:#f8d18c;fill-opacity:1;fill-rule:nonzero;stroke:none"
           id="path3883"
           d="m 338.45901,418.53376 c 0.54407,0.009 1.08712,-0.0313 1.62313,0.0762 0.395,0.15844 0.64358,0.47075 0.62289,0.90027 -0.17281,0.39624 -0.63965,0.40884 -1.0161,0.44708 -0.43121,0.0907 -0.28134,0.24712 -0.004,0.38733 0.21675,0.0756 0.10487,0.0504 0.33585,0.0748 l -0.76873,0.10998 c -0.23578,-0.046 -0.12123,-0.0121 -0.34367,-0.10164 -0.33312,-0.19828 -0.44525,-0.46269 0.0251,-0.58296 0.34121,-0.0285 0.78074,-0.0213 0.98732,-0.34015 0.0383,-0.39238 -0.2299,-0.66679 -0.58702,-0.79042 -0.54635,-0.0954 -1.10025,-0.0553 -1.65272,-0.0573 l 0.77769,-0.12318 z"
           inkscape:connector-curvature="0" />
        <path
           style="opacity:0.95934957;fill:#f8d18c;fill-opacity:1;fill-rule:nonzero;stroke:none"
           id="path3885"
           d="m 341.52411,418.83773 c 0.27499,0.53443 0.63263,1.02073 0.94682,1.53223 0.20696,0.30272 0.11194,0.15777 0.2868,0.4337 l -0.76263,0.0408 c -0.1513,-0.27556 -0.0663,-0.13006 -0.2585,-0.43439 -0.31383,-0.5236 -0.67032,-1.01925 -1.00507,-1.52944 l 0.79258,-0.0429 z"
           inkscape:connector-curvature="0" />
        <path
           style="opacity:0.95934957;fill:#f8d18c;fill-opacity:1;fill-rule:nonzero;stroke:none"
           id="path3887"
           d="m 340.25619,421.45674 c 0.35661,-0.33024 0.63211,-0.73146 0.97493,-1.07553 0.35143,-0.34068 0.75276,-0.62247 1.11251,-0.95395 0.0267,-0.0338 0.0534,-0.0677 0.0802,-0.10151 l 0.78566,0.0539 c -0.0314,0.0373 -0.0628,0.0746 -0.0942,0.1119 -0.36761,0.33202 -0.78467,0.6041 -1.14188,0.9479 -0.33605,0.33788 -0.60241,0.7295 -0.92495,1.07963 l -0.79224,-0.0623 z"
           inkscape:connector-curvature="0" />
        <path
           style="opacity:0.95934957;fill:#f8d18c;fill-opacity:1;fill-rule:nonzero;stroke:none"
           id="path3889"
           d="m 344.66684,419.01229 c -0.33862,0.15239 -0.62852,0.39146 -0.83745,0.69694 -0.16518,0.30474 -0.17189,0.57096 0.1095,0.79388 0.15739,0.0888 0.3348,0.12941 0.51464,0.14091 0.081,0.005 0.32396,0.009 0.24346,-0.002 -0.43713,-0.056 -0.72045,0.01 -0.19107,-0.0738 0.48476,-0.0749 0.83609,-0.32526 1.03277,-0.76925 0.0844,-0.38839 -0.0965,-0.56098 -0.43411,-0.69902 -0.30131,-0.10932 -1.22548,-0.0998 0.14676,-0.0509 l -0.78635,-0.1017 c 0.51495,-0.0246 0.93937,-0.11182 1.41097,0.0636 0.3665,0.17911 0.52939,0.40059 0.43657,0.81996 -0.20139,0.46533 -0.56021,0.75321 -1.06807,0.84188 -0.58655,0.10196 -0.2897,0.0634 -1.29581,0.0867 -0.27665,0.006 -0.5601,-0.0299 -0.79193,-0.19047 -0.26341,-0.25822 -0.2781,-0.58432 -0.0994,-0.90551 0.20552,-0.31727 0.49179,-0.55717 0.819,-0.74612 l 0.79053,0.0946 z"
           inkscape:connector-curvature="0" />
        <path
           style="opacity:0.95934957;fill:#f8d18c;fill-opacity:1;fill-rule:nonzero;stroke:none"
           id="path3891"
           d="m 347.52511,419.09537 c -0.37033,-0.21849 -1.44322,-0.18784 -0.11989,-0.14882 -0.31567,0.12518 -0.25404,0.30079 0.01,0.43121 0.32338,0.11214 0.66641,0.0856 0.93858,0.31326 0.18967,0.31409 -0.0691,0.56522 -0.31153,0.74387 -0.25467,0.11028 -0.59966,0.361 -0.8829,0.37392 -0.30789,0.014 -0.61641,0.004 -0.92461,0.006 -0.12927,-0.0404 -0.0983,0.004 -0.0956,-0.13 l 0.81575,0.0339 c -0.0382,-0.0625 -0.0396,-0.0426 0.0543,-0.0252 -1.15295,0.0206 -0.6978,0.0484 -0.45703,-0.021 0.24921,-0.0718 0.48672,-0.19805 0.7184,-0.31069 0.19103,-0.13513 0.47776,-0.34398 0.29788,-0.59872 -0.27964,-0.19592 -0.62864,-0.15913 -0.93259,-0.30352 -0.289,-0.19039 -0.34392,-0.43463 -0.0108,-0.62189 0.62451,-0.021 1.13605,-0.10086 1.69673,0.16924 l -0.79622,0.0885 z"
           inkscape:connector-curvature="0" />
        <path
           style="opacity:0.95934957;fill:#f8d18c;fill-opacity:1;fill-rule:nonzero;stroke:none"
           id="path3893"
           d="m 349.51845,420.01359 c -0.0902,0.11933 -0.14395,0.23061 -0.15254,0.37821 l -0.79047,-0.006 c 0.0154,-0.15264 0.0594,-0.2777 0.14275,-0.40887 l 0.80026,0.0371 z"
           inkscape:connector-curvature="0" />
        <path
           style="opacity:0.95934957;fill:#f8d18c;fill-opacity:1;fill-rule:nonzero;stroke:none"
           id="path3895"
           d="m 350.91813,418.3256 c 0.19176,0.42724 0.30943,0.88222 0.34785,1.34808 0.0121,0.37255 -0.0479,0.75866 -0.232,1.08718 l -0.79648,-0.049 c 0.24083,-0.27294 0.26318,-0.68641 0.27043,-1.03246 -0.0317,-0.46079 -0.14914,-0.9185 -0.39006,-1.31668 l 0.80026,-0.0371 z"
           inkscape:connector-curvature="0" />
        <path
           style="opacity:0.95934957;fill:#f8d18c;fill-opacity:1;fill-rule:nonzero;stroke:none"
           id="path3897"
           d="m 349.52163,418.3435 c 0.57482,-0.15636 1.14143,-0.33782 1.72139,-0.47513 0.60086,-0.0826 1.40002,-0.38539 1.92663,0.004 0.20777,0.27733 0.0754,0.65017 -0.0318,0.94529 -0.16408,0.34126 -0.52397,0.44503 -0.86205,0.54568 -0.17463,0.0485 -0.35426,0.07 -0.53366,0.091 l -0.76843,-0.11339 c 0.17936,-0.0171 0.35902,-0.0344 0.53454,-0.0776 0.31835,-0.0852 0.6745,-0.1742 0.85339,-0.47411 0.10228,-0.25289 0.23033,-0.61007 0.0211,-0.83851 -0.22818,-0.12724 -0.74214,-0.14244 0.33959,-0.092 0.0751,0.003 -0.14962,0.0145 -0.22419,0.0239 -0.23318,0.0294 -0.28223,0.0418 -0.51986,0.0851 -0.56519,0.12467 -1.11405,0.29814 -1.66613,0.47009 l -0.79053,-0.0945 z"
           inkscape:connector-curvature="0" />
        <path
           style="opacity:0.95934957;fill:#f8d18c;fill-opacity:1;fill-rule:nonzero;stroke:none"
           id="path3899"
           d="m 354.34445,418.529 c -0.0476,0.45184 -0.18314,0.86899 -0.3962,1.26806 -0.22708,0.42505 -0.0644,0.46517 0.32858,0.52954 0.0646,0.006 0.12914,0.0121 0.19371,0.0181 l -0.76298,0.1125 c -0.066,-0.008 -0.13192,-0.0159 -0.19788,-0.0239 -0.45162,-0.0972 -0.57159,-0.24524 -0.31953,-0.67399 0.21194,-0.38492 0.35424,-0.78508 0.35604,-1.23037 l 0.79826,0 z"
           inkscape:connector-curvature="0" />
        <path
           style="opacity:0.95934957;fill:#f8d18c;fill-opacity:1;fill-rule:nonzero;stroke:none"
           id="path3901"
           d="m 339.72903,420.10341 c 0.3208,0.19391 0.61407,0.29653 0.80774,0.6374 l -0.7817,0.0416 c -0.19041,-0.31146 -0.51902,-0.42347 -0.82087,-0.60509 l 0.79483,-0.0739 z"
           inkscape:connector-curvature="0" />
      </g>
      <path
         sodipodi:nodetypes="ccccccccccccccscccccccccccccccccccccccccsccccccccscsccccccccccccccccccccccccccccccccccccccccccsccccccscccccccccccccccccccccccccccccccccccccccccscccccccccccccccsccccccccccsccccccccccccccccccccccscccccccccccccccccccccccccccsccccccccccccccccccccccccccccccccccsscsccccccccccccscccccccccccccccccccscccccccccccccccccccccccccccccccccccccscsccccccccccccccccccccccccccccccscccccccccccccccccccccccccccccccccccccccccccccccccccccccccccccccccccccccccccccccccccccc"
         id="rect3919"
         d="m 130.17475,96.674098 c -0.5141,0.392497 -2.71337,1.314112 -1.97569,-0.08483 -1.73416,0.598716 -1.97034,3.037671 -0.60565,4.176272 -2.21353,2.64916 -5.60209,4.75888 -4.98476,8.74408 -0.74896,2.30488 0.61465,5.33464 -1.89864,6.53618 -1.60377,1.30357 1.25731,3.16355 -0.99575,3.68753 -2.12985,2.19108 -0.9384,5.73357 -3.08144,7.93728 1.24528,3.29627 -3.89092,4.61683 -2.751,8.04282 -0.27088,1.08357 0.86429,3.98723 -0.83743,3.19187 -0.074,1.40334 -0.23631,2.8474 -1.16097,3.63476 0.79438,2.19814 3.9133,1.32789 3.83449,3.95583 0.84667,-0.20849 3.5125,0.70883 1.83118,1.67732 0.76817,1.50332 2.14195,2.16619 3.19188,0.83744 1.18253,0.17519 2.71,4.22491 3.25155,1.22064 0.37416,-1.67033 1.62576,1.13954 1.7508,-0.35114 1.44156,0.19109 3.21075,1.53061 2.45308,3.15046 1.11038,0.26884 2.89879,-0.10501 3.19878,1.38585 1.39318,-2.3476 1.24043,3.57701 1.9895,1.18168 0.7746,1.64625 4.2025,0.2377 2.45063,-1.40211 0.87058,-1.93726 2.17172,2.39511 2.63655,0.29591 1.8744,1.57233 -0.64316,-1.85747 1.24825,-1.05787 1.37936,0.29428 -0.0618,-2.40089 1.20239,-0.34424 1.15096,1.78476 -0.90424,2.5984 -2.00086,2.27406 -0.0888,1.53052 1.54254,0.97727 1.07168,2.34509 1.66737,1.49432 0.2546,-2.21534 1.84944,-1.22999 0.61465,0.77843 3.07828,1.87202 2.19368,-0.0276 -0.27073,-1.12297 0.61214,-3.67966 2.05362,-2.43928 -1.39752,1.21767 -0.158,3.39153 -1.04161,4.40116 2.11991,0.32445 4.16562,-1.96126 6.40891,-0.68402 -0.34646,-1.61332 1.89313,-3.09035 2.78107,-1.29657 -1.64958,1.16187 2.88844,1.43047 0.6426,3.1184 -0.16727,1.33416 2.32069,2.35886 2.3658,0.57358 -3.02062,-0.30778 1.73834,-1.8484 1.3676,-0.29147 -2.47613,0.87706 1.73131,3.04816 1.43417,0.64016 2.01233,-0.94957 1.4514,3.22024 3.69443,1.54417 1.52997,-1.10574 4.76754,-2.3894 5.47729,-0.61745 0.62546,-1.50307 5.57598,-2.39097 3.95138,0.16967 -0.37834,1.41526 -1.5754,2.22969 -2.8728,2.72384 0.79455,2.40374 4.18354,0.0619 4.38046,-0.60364 0.1836,-1.66035 3.56984,-0.26344 4.81286,-0.869 1.91525,0.29724 3.98262,-1.03991 5.26287,-0.46453 1.71375,1.96835 4.2015,-0.0463 4.80953,-1.37695 1.8933,0.0894 0.84201,2.04881 1.46178,2.83383 1.36903,-1.34679 1.75369,1.87251 2.63656,0.29592 1.34952,-1.44479 1.81704,0.89016 1.61319,1.78977 4.74641,2.50825 9.9674,4.2244 15.33792,4.73088 9.63643,2.24408 18.79929,6.08735 28.13335,9.30619 25.21759,9.12467 50.52363,18.00142 75.79652,26.971 -8.93188,-4.47832 -17.91036,-8.86112 -26.93268,-13.15427 -3.39011,-5.26062 -10.44021,-4.09465 -15.48638,-6.54181 -5.24073,-2.13734 -10.53531,-5.00649 -13.57533,-9.97065 -3.02522,-3.57949 -6.93744,1.52263 -9.61267,3.06718 -4.91293,1.22442 -5.93815,-5.65837 -9.69992,-7.49935 -2.57282,-2.88282 -7.08234,-2.26109 -9.05924,-5.59325 -4.81282,1.87615 -7.13977,-6.13277 -12.07458,-4.94913 0.42926,1.54107 -1.2042,1.11844 -0.87885,-0.0986 -1.76012,-0.29278 -1.6924,-3.36754 -3.71514,-3.18942 1.63618,2.31902 -3.9313,0.2782 -1.26896,-0.58739 1.41312,-1.58406 -2.78851,-0.67877 -1.78531,-2.39096 -1.15846,-0.1404 -3.84328,0.84555 -3.41677,-1.27341 -1.55646,2.43197 -3.15879,-2.35341 -0.85369,-2.45753 -0.25881,-1.58276 0.29696,-5.59814 -2.57933,-4.46529 -0.63128,0.78674 -2.1821,3.57754 -2.89351,1.07858 -1.75481,-0.98541 -5.66477,2.84829 -6.09919,-0.85569 0.63416,-0.83499 3.25699,-1.74012 0.68602,-2.14781 -1.34127,0.46715 -1.39029,3.91167 -3.2629,2.23509 -0.063,0.93459 -0.63219,2.20014 -1.41347,1.00511 -0.46123,0.18996 -2.8945,1.16321 -1.53972,-0.30973 -0.69902,-0.19886 -1.56075,-1.30604 -0.29146,-1.36759 -0.64445,-2.3011 2.51979,-2.51301 3.73784,-3.72204 -1.53644,0.91257 -1.42925,-2.88078 -2.92111,-1.1151 -0.8062,0.9606 -0.55773,4.29494 -2.4896,2.66417 0.65443,-1.3738 -2.52771,-2.4057 -0.19283,-2.24645 1.00613,-0.0977 0.49208,-2.22864 -0.11935,-0.76641 -1.46,-1.1698 -1.274,-3.89856 -0.21353,-3.89171 -0.43552,-1.9244 -2.66213,-0.65291 -1.90912,0.84679 0.28914,1.87927 -1.94811,0.0503 -1.1827,1.90719 -0.26008,0.17527 0.36448,1.91296 0.39114,0.57105 0.49801,1.58704 0.13815,0.22323 0.93162,-0.0666 1.02972,1.24793 0.88989,2.25119 -0.28902,3.18497 -0.62125,1.69313 1.75787,2.49003 2.81558,1.44553 -0.17025,1.01003 -2.31698,3.20871 -2.34509,1.07168 -1.24843,-0.12376 -3.69777,1.89926 -3.62785,-0.61255 1.41997,-1.81695 -2.38113,0.10338 -1.1358,1.27586 -0.78104,-0.39576 -2.6031,0.48821 -1.51901,1.33554 0.23421,-2.4016 2.71834,1.00535 0.61499,0.92472 -0.62229,-1.68167 -2.4031,1.93426 -2.20058,-0.52081 -0.0354,-1.33429 2.2848,-1.76632 1.55107,-3.14601 0.81054,0.005 2.89605,-1.5712 1.12891,-1.82428 0.53815,-2.84205 -3.61143,-2.17597 -4.83714,-0.81673 0.24898,-1.1684 -2.37691,-2.21093 0.0779,-2.52411 1.93168,0.27225 -3.05612,-0.97224 -0.78021,-0.97749 -0.30192,-1.17016 -2.74183,-0.7682 -2.35199,0.52326 -0.81459,0.59651 -1.6259,0.9006 -0.0986,0.87885 0.48852,1.66126 -1.49628,0.95628 -2.02846,0.0804 -0.0465,1.55133 -1.29846,2.83651 -3.04492,2.12265 0.76767,-0.45255 2.62322,-1.14988 0.64015,-1.43417 -1.65508,-0.0288 -1.22984,-1.15181 -0.95923,-2.1271 -1.49821,-1.39752 -2.49094,2.28969 -3.07253,-0.071 -0.35032,-1.58338 -1.55681,1.80156 -1.86325,0.13315 1.16062,-1.2698 2.19102,-5.17162 -0.61054,-4.92887 -0.91486,-2.24542 2.80065,-0.90461 2.26025,0.90401 -0.32821,1.68442 3.23745,3.22335 2.75591,1.06233 -1.27633,-0.11175 -0.2534,-1.90999 -0.0597,-0.38321 1.04415,0.68454 2.57008,0.62864 3.7334,0.28212 -2.39842,-1.48527 1.41948,-4.01328 -0.46791,-5.87781 -0.63053,-0.90125 0.46818,-3.52719 -1.55855,-2.59854 -1.35392,1.00018 -3.0691,0.78502 -4.37355,1.15206 -1.08574,0.92649 1.6208,4.19164 -0.83744,3.19188 -1.51788,-0.51762 -4.36934,-4.36933 -4.5067,-0.71118 -1.1579,1.83716 1.6836,1.92138 1.26205,0.039 0.69816,-1.605 2.0485,1.02305 0.33734,0.65396 0.7352,0.9898 -2.55134,2.53241 0.0414,3.29052 0.9883,1.55894 -2.91505,0.21355 -1.73009,1.9964 1.17984,2.22099 -4.56272,0.72575 -1.87015,-0.41527 1.18725,-1.42961 -1.24701,-5.16345 -2.16852,-2.33128 -2.30246,-1.42636 1.18027,2.0239 -0.62635,2.53101 -0.49074,1.44997 -2.03948,0.59681 -1.92292,-0.25005 0.0817,-0.50375 2.20461,-3.32914 -0.0804,-2.02846 -0.95096,0.14756 0.46936,-3.66403 -1.34934,-2.61585 -1.57037,2.76737 -4.42595,-2.02508 -1.627,-2.8866 -1.21126,2.19632 2.98893,1.21908 1.80357,-0.51636 2.25344,-1.38871 0.51429,2.86184 1.91157,3.70579 0.70896,1.416 0.52385,-1.00365 1.57868,-0.95234 0.16562,-1.10076 0.51449,-2.05985 1.28031,-2.86834 -2.11963,0.80506 -2.03305,-2.51973 -0.0873,-2.57688 -0.0345,-0.36223 2.47266,0.90899 1.30792,-0.67467 2.5927,0.59664 -2.30682,-2.66771 -1.64526,0.0207 -2.29898,-1.80116 -1.90208,2.55911 -4.30697,2.08369 -0.96812,-0.36621 -1.22722,-1.34994 -0.90646,-2.29232 -0.2766,0.5212 -1.74141,2.49076 -1.7439,0.89956 1.21553,-0.23656 1.01683,-2.93945 1.83563,-2.32683 0.6359,1.21496 1.43053,1.63622 2.53102,0.62635 2.4743,0.058 -0.13119,-2.77216 -0.66777,-0.75951 -0.27786,-2.71425 -3.76081,-3.72774 -4.08699,-6.58548 -2.00746,-0.21046 -4.66331,3.52216 -6.02571,0.62435 -0.23779,-1.04352 1.00763,-3.88177 2.1133,-2.05608 -2.36091,1.38953 2.40278,1.51067 0.33043,0.10555 0.82135,-0.42545 3.60651,1.92066 1.97569,0.0848 -0.17314,-0.39771 0.57235,-1.9714 -0.44978,-0.87195 -2.52517,-1.64554 -3.18898,-5.30842 -5.64141,-7.0613 -1.86168,-2.35801 -2.84844,-5.30877 -3.8681,-7.62868 -0.88648,-0.85144 -2.48606,-1.27928 -1.20238,0.34424 0.45102,1.84341 -2.97509,-0.19495 -3.43502,1.6339 0.0253,-0.94417 1.20677,-4.259552 -0.91337,-2.84073 -1.39225,-0.967314 1.7543,-3.327899 1.03026,-0.945429 1.06361,-2.781423 1.73383,3.434659 1.9826,0.633249 -0.5462,-1.24189 -0.83215,-3.876809 -2.6252,-3.751648 z m 15.48624,58.111312 c -0.0113,-1.66958 -1.46488,0.44229 0,0 z m -11.23404,-51.47305 c 0.52116,1.55923 -2.16204,0.44002 -0.49565,-0.15832 l 0.49565,0.15832 z m 0.72744,1.1427 -0.0986,0.87886 c -0.50258,0.59776 -0.38052,-2.02674 0.0986,-0.87886 z m -1.7508,0.35114 c 0.55178,2.92084 -1.06599,-0.81608 0,0 z m 3.26536,2.31748 c 1.11518,0.10241 0.38059,2.18483 -0.26386,0.82608 -1.07777,2.38508 -2.72979,-1.89652 -0.39701,-1.03716 l 0.66087,0.21108 z m -0.41527,1.87015 c -0.0687,-0.0715 -0.23913,2.65522 -0.21799,0.11245 l 0.0528,-0.16522 0.16522,0.0528 z m 3.03356,1.33308 c 0.90698,1.81316 1.29209,3.83757 1.99195,5.73425 -1.98618,-0.72034 -2.27878,3.50028 -2.34263,-0.10689 0.65104,-1.21525 -1.42224,-2.3152 -0.90202,-0.56533 -0.2711,1.27816 -3.20794,0.91202 -1.3745,-0.25695 0.55397,-0.90331 0.63856,-2.27227 1.77596,-2.71004 -1.93194,-0.12073 0.97763,-2.03526 0.85124,-2.09504 z m 5.51871,2.67308 c -1.38526,-1.10684 -1.87397,2.44521 -0.42907,0.7733 0.21535,-0.0865 2.81645,-1.73896 0.42907,-0.7733 z m 10.26411,4.91706 c -0.4622,0.99742 0.2228,3.71697 -1.71629,3.09324 -0.097,1.35357 0.93711,3.82568 1.77151,1.29412 0.37827,-1.54818 1.3633,-3.58364 0.32108,-4.99545 l -0.3763,0.60809 z m -6.47549,-0.2476 -0.26386,0.82609 c 0.2365,-0.12844 1.30714,-1.61179 0.26386,-0.82609 z m -0.3694,1.15652 c -0.80508,1.35551 1.03057,-0.60182 0,0 z m 1.65216,0.52771 c -0.38334,2.13449 0.99192,-0.006 0,0 z m -12.04007,-2.20704 c 0.79035,0.40183 -1.3188,1.59105 -0.43597,0.22489 l 0.32353,-0.44287 0.11244,0.21798 z m 12.39812,4.50626 0.0528,-0.16522 -0.0528,0.16522 z m 0.27766,0.27076 c -0.87869,0.78351 1.21075,2.50032 0.44978,0.87195 l -0.2318,-0.9844 -0.21798,0.11245 z m 6.95978,3.86164 c -0.0287,1.64836 2.12918,-0.32402 0.42907,-0.77331 l -0.42907,0.77331 z m -5.00925,-1.41791 -0.17212,-0.60119 0.17212,0.60119 z m 0.78021,0.97749 c 0.76363,1.87632 1.78127,-0.36262 0,0 z m 2.31303,0.73879 c 0.0439,0.5825 -0.7821,-0.60113 0,0 z m 1.0051,1.41347 c -1.22167,1.72526 2.37726,2.07029 1.10374,0.53461 -0.63647,0.23205 -0.64227,-1.90333 -1.10374,-0.53461 z m 14.55973,6.28912 c -1.81793,-0.22945 0.87197,0.68455 -1.03027,0.94543 -0.1956,1.36519 3.93016,-0.66626 1.68423,-1.28277 l -0.65396,0.33734 z m -15.74831,-4.84804 c 0.50071,1.64662 0.83727,-1.55242 0,0 z m 11.45269,3.47599 c -1.22342,1.84402 -4.50338,-1.54136 -1.31823,-0.52726 l 0.94201,0.3768 0.37622,0.15046 z m 1.59939,0.69293 c 1.65139,1.28931 -3.11166,1.88104 -1.14961,0.17902 0.31714,-0.21694 0.78113,-0.41517 1.14961,-0.17902 z m -11.34024,-3.25801 c -0.22797,0.72137 1.01592,-0.44778 0,0 z m 17.62535,5.81173 c -1.37632,-0.45738 -1.57376,1.84917 -3.01285,0.31217 -1.02775,-0.93269 -0.20101,1.9186 -1.24825,1.05788 -0.79896,2.48788 2.37624,0.0929 3.17807,-0.25941 0.87594,0.34015 2.76457,0.49453 1.79667,-1.06477 l -0.71364,-0.0459 z m 3.25155,1.22064 c 0.96082,-0.20815 -0.66226,-0.72658 0,0 z m 1.55353,1.40656 c -1.81845,-0.336 -2.09156,3.50147 -0.13761,2.14091 -0.18665,1.72882 2.8192,0.87821 2.82938,2.54237 2.62296,-1.36886 -1.06716,-3.43072 -1.40211,-2.45064 -0.32341,-0.81084 0.57255,-3.12156 -1.28966,-2.23264 z m -4.1235,-0.77086 c -1.51621,0.31275 -0.55122,2.46069 0.62189,1.47314 -0.61443,1.81586 2.658,-1.18177 0.42908,-0.77331 0.25566,-0.62879 -0.53637,-1.68475 -1.05097,-0.69983 z m -26.54013,-8.11295 c -0.12346,2.29656 -1.42691,-0.10799 0,0 z m 17.46014,5.75896 c 0.44822,2.28194 -2.45001,-0.26104 -0.49565,-0.15831 l 0.54842,-0.007 -0.0528,0.16522 z m 28.03397,9.13631 c -1.54684,-0.50339 -1.11605,1.8313 0.007,0.54842 0.93914,0.23331 0.51946,-1.47255 -0.007,-0.54842 z m -38.09835,-11.25851 c -0.35102,1.16028 1.85207,-0.75484 0.21109,-0.66087 l -0.21109,0.66087 z m 11.94143,3.08588 c -0.14222,2.18948 -2.1802,-1.01891 0,0 z m -15.13331,-3.92332 c -0.59655,0.59921 0.16793,-1.1658 0,0 z m 19.61486,6.9934 0.3763,-0.60809 -0.3763,0.60809 z m 32.04502,9.68919 c 0.81864,2.00726 -1.50364,-0.37523 0,0 z m -33.08909,-9.8406 c 0.45574,1.45433 0.48103,-1.30153 0,0 z m -18.1141,-5.42162 c 0.9701,0.81273 0.39415,-0.95966 0,0 z m 0,0 c -1.56934,-0.89045 -0.23261,1.82543 0,0 z m 16.02596,5.1188 c 0.0643,0.85802 1.68922,1.25845 0.90646,2.29232 2.07883,-0.87357 0.80429,-2.53029 -0.90646,-2.29232 z m -0.81918,0.28457 c -1.95998,-0.40126 -1.1014,1.64242 0.17212,0.60119 l 0.21109,-0.66087 -0.38321,0.0597 z m -1.14961,0.17902 c -0.59577,-1.71947 -1.9384,1.17745 0,0 z m -19.82593,-6.33254 c -1.25902,1.21233 1.40851,-0.31196 0,0 z m 1.21618,0.7526 c 0.56826,0.95378 0.23241,-0.71995 0,0 z m 15.04158,5.3506 c -1.9361,2.21999 2.11114,-0.22014 0,0 z m 8.8827,4.11169 c 1.1581,1.35053 -2.40299,0.88522 -0.54842,0.007 l 0.0459,-0.71363 0.50255,0.70673 z m 4.24285,1.53727 c -0.26571,0.86563 1.18977,2.80807 -0.52771,1.65216 -0.98702,-0.41064 -0.0367,-3.62081 0.52771,-1.65216 z m -1.81048,-0.0321 c -0.5363,1.94959 -1.86848,-1.58389 0,0 z m -5.31207,0.67022 0.0666,0.93163 c -0.19111,-0.12857 -0.77726,-2.83089 -0.0666,-0.93163 z m 97.27133,40.90098 c -0.0896,1.6117 -0.67008,-1.13184 0,0 z m 17.62536,5.81173 0.66777,0.75951 c -0.30914,0.0932 -1.34752,-0.83522 -0.66777,-0.75951 z M 182.21718,161.18163 c 0.2017,1.68401 -1.51777,0.34371 0,0 z m -6.97805,-0.95434 c 1.9128,0.91818 -2.19158,2.16985 -0.43597,0.22489 l 0.27076,-0.27766 0.16521,0.0528 z m -22.68493,-2.51185 c -0.16596,2.39403 1.63659,-1.16101 0,0 z m -5.2524,1.05342 c -2.10016,-0.80586 -0.76902,3.91999 -0.20418,1.20928 0.93891,0.28801 1.3144,-2.27081 0.20418,-1.20928 z m -12.50366,-4.17583 c 0.23624,1.84531 -1.66672,-0.86335 0,0 z m 2.42547,0.95679 c -0.16564,0.66471 0.55433,1.99625 0.72054,0.59429 -0.34992,1.30897 0.83549,2.01929 0.82608,0.26385 -0.31487,-0.20277 -1.20634,-1.54935 -1.54662,-0.85814 z m -5.82153,-0.58494 c -0.009,2.30981 2.13138,-0.3725 0.10555,-0.33043 l -0.10555,0.33043 z"
         clip-path="none"
         style="opacity:0.10975611;fill:url(#linearGradient2507);fill-opacity:1;fill-rule:nonzero;stroke:none"
         inkscape:connector-curvature="0" />
    </g>
  </g>
</svg>
