<?xml version="1.0" encoding="UTF-8" standalone="no"?>
<!-- Created with Inkscape (http://www.inkscape.org/) -->

<svg
   xmlns:dc="http://purl.org/dc/elements/1.1/"
   xmlns:cc="http://creativecommons.org/ns#"
   xmlns:rdf="http://www.w3.org/1999/02/22-rdf-syntax-ns#"
   xmlns:svg="http://www.w3.org/2000/svg"
   xmlns="http://www.w3.org/2000/svg"
   xmlns:xlink="http://www.w3.org/1999/xlink"
   xmlns:sodipodi="http://sodipodi.sourceforge.net/DTD/sodipodi-0.dtd"
   xmlns:inkscape="http://www.inkscape.org/namespaces/inkscape"
   sodipodi:docname="Link.svg"
   inkscape:version="0.48.2 r9819"
   sodipodi:version="0.32"
   id="svg1"
   height="64"
   width="64"
   version="1.1">
  <defs
     id="defs3">
    <linearGradient
       id="linearGradient2821">
      <stop
         id="stop2823"
         offset="0"
         style="stop-color:#d3b900;stop-opacity:1;" />
      <stop
         id="stop2825"
         offset="1.0000000"
         style="stop-color:#fdffb8;stop-opacity:1.0000000;" />
    </linearGradient>
    <linearGradient
       gradientUnits="userSpaceOnUse"
       y2="80.056961"
       x2="6.1456947"
       y1="115.99729"
       x1="43.923878"
       gradientTransform="matrix(0.75344237,0,0,0.56823809,0.73979536,40.03353)"
       id="linearGradient2827"
       xlink:href="#linearGradient2821"
       inkscape:collect="always" />
    <linearGradient
       gradientUnits="userSpaceOnUse"
       y2="46.700855"
       x2="64.275955"
       y1="81.668671"
       x1="73.541428"
       gradientTransform="matrix(0.54116804,0,0,0.48944903,1.4187034,56.300288)"
       id="linearGradient3593"
       xlink:href="#linearGradient2821"
       inkscape:collect="always" />
    <linearGradient
       gradientUnits="userSpaceOnUse"
       y2="14.364066"
       x2="98.987526"
       y1="58.779861"
       x1="112.68034"
       gradientTransform="matrix(0.47073976,0,0,0.56267672,1.4187034,56.300288)"
       id="linearGradient3601"
       xlink:href="#linearGradient2821"
       inkscape:collect="always" />
    <linearGradient
       inkscape:collect="always"
       xlink:href="#linearGradient2821"
       id="linearGradient2991"
       gradientUnits="userSpaceOnUse"
       gradientTransform="matrix(0.59609063,0,0,0.44435209,1.4187034,56.300288)"
       x1="43.923878"
       y1="115.99729"
       x2="6.1456947"
       y2="80.056961" />
  </defs>
  <sodipodi:namedview
     inkscape:window-y="24"
     inkscape:window-x="1"
     inkscape:window-height="746"
     inkscape:window-width="1152"
     inkscape:current-layer="layer1"
     inkscape:cy="35.453166"
     inkscape:cx="55.774603"
     inkscape:zoom="2.8284271"
     inkscape:pageshadow="2"
     inkscape:pageopacity="0.0"
     borderopacity="1.0"
     bordercolor="#666666"
     pagecolor="#ffffff"
     id="base"
     showgrid="false"
     inkscape:window-maximized="0" />
  <metadata
     id="metadata4">
    <rdf:RDF>
      <cc:Work
         rdf:about="">
        <dc:format>image/svg+xml</dc:format>
        <dc:type
           rdf:resource="http://purl.org/dc/dcmitype/StillImage" />
      </cc:Work>
    </rdf:RDF>
  </metadata>
  <g
     id="layer1"
     inkscape:groupmode="layer"
     inkscape:label="Layer 1"
     transform="translate(0,-56)">
    <path
       sodipodi:nodetypes="cccccccccccccccccc"
       id="path1088"
       d="m 23.706772,87.191286 c -4.464553,0.01689 -8.75335,1.576015 -12.628901,3.528709 -3.4536638,1.808361 -6.7487668,4.50187 -7.812795,8.188608 -0.908941,3.255707 0.4451351,6.845847 2.9906289,9.149617 2.6721959,2.3268 6.6098011,2.78421 10.1003721,2.29242 4.061853,-0.599 7.939818,-2.11706 11.410408,-4.14847 3.117756,-1.87855 5.934941,-4.64976 6.573728,-8.175068 0.491585,-2.998495 -0.625233,-5.785227 -2.936398,-7.893581 -1.180613,1.472648 -2.198991,2.755791 -2.929586,4.47159 -0.104225,0.844133 0.372583,1.629725 0.04874,2.565942 -0.460533,2.197004 -2.508133,3.673657 -4.432361,4.797567 -2.882482,1.53829 -6.035142,2.81981 -9.373696,3.11673 -1.90579,0.1627 -4.183901,-0.23842 -5.2189925,-1.9089 -0.9656709,-1.37923 -0.765978,-3.242956 0.2992382,-4.522062 1.9560513,-2.44958 5.0439493,-3.785775 8.0114643,-4.886817 1.806591,-0.629684 3.43296,-1.06691 5.375187,-1.083111 0.454874,-1.880035 1.442346,-3.702119 2.588171,-5.297873 -0.748865,-0.119682 -1.305114,-0.1906 -2.065212,-0.195301 z"
       style="font-size:12px;font-style:normal;font-variant:normal;font-weight:bold;font-stretch:normal;writing-mode:lr-tb;text-anchor:start;fill:url(#linearGradient2991);fill-opacity:1;stroke:#000000;stroke-width:0.51465917pt;stroke-linecap:butt;stroke-linejoin:miter;stroke-opacity:1;font-family:Bitstream Vera Sans"
       inkscape:connector-curvature="0" />
    <path
       sodipodi:nodetypes="cccccccccccccccccccccc"
       id="path1089"
       d="m 42.641287,77.219497 c -3.081274,0.09929 -6.087554,1.079465 -8.613277,2.717521 -3.234862,2.090349 -6.060275,4.7566 -8.226355,7.821588 -0.441128,0.794333 -1.152604,1.77717 -1.5511,2.716558 -0.904508,2.011494 -1.297153,4.23599 -1.142858,6.411445 0.150241,1.693526 0.726505,3.180381 2.373525,3.985341 1.389098,-1.055019 2.887153,-2.379725 2.756336,-4.14379 -0.733282,-0.857751 -0.23309,-1.990613 0.304017,-2.86766 1.971021,-3.659282 4.977219,-6.741331 8.338051,-9.340027 1.152558,-0.853703 2.447339,-1.6797 3.853179,-2.195585 0.925257,-0.322285 2.109539,-0.275352 2.76659,0.497239 1.03131,0.750301 0.304338,1.870422 0.543928,2.671099 0.992269,1.376499 2.872304,1.537054 4.576048,0.891885 0.64758,-1.873396 0.969091,-3.169486 0.460726,-5.111665 -0.73761,-2.265291 -3.109426,-4.045955 -5.684645,-4.053949 -0.251256,-0.0096 -0.502893,-0.0085 -0.754165,0 z m -2.839142,13.003141 c -1.800948,1.890703 -3.123712,3.310902 -5.322875,4.794517 0.550285,2.024086 0.0586,4.087182 -0.98369,5.923855 4.546818,-1.390327 7.976041,-4.264967 11.074722,-7.56678 0.606911,-0.523856 0.868713,-0.935073 -0.11533,-0.979654 -1.647538,-0.454936 -3.469188,-0.997496 -4.652827,-2.171938 z"
       style="font-size:12px;font-style:normal;font-variant:normal;font-weight:bold;font-stretch:normal;writing-mode:lr-tb;text-anchor:start;fill:url(#linearGradient3593);fill-opacity:1;stroke:#000000;stroke-width:0.51465917pt;stroke-linecap:butt;stroke-linejoin:miter;stroke-opacity:1;font-family:Bitstream Vera Sans"
       inkscape:connector-curvature="0" />
    <path
       sodipodi:nodetypes="cccccccccccccccccc"
       id="path1100"
       d="m 51.104445,62.967557 c -3.709267,-0.07298 -6.978511,2.152095 -9.114049,4.818647 -2.388811,3.006841 -4.337962,6.989258 -5.253099,10.615472 1.483361,-0.926809 5.272346,-1.560721 6.848497,-1.374018 1.061156,-2.693867 2.375019,-5.881363 4.874971,-7.684634 1.476406,-1.136687 3.733521,-1.187385 5.236944,-0.07466 1.81945,1.320002 1.920045,3.726549 1.632939,5.682685 -0.498752,2.906315 -1.644729,5.714162 -3.233494,8.25305 -1.155607,1.73349 -2.817597,3.592095 -5.158117,3.771382 -1.948155,0.127136 -3.8313,-1.183368 -4.256776,-2.959573 -0.410876,-0.51766 -0.01624,-1.642508 -0.571647,-1.665729 -0.811093,-0.222566 -2.971509,0.749092 -4.862063,2.160726 0.283484,2.959192 1.50045,5.142678 4.336224,6.588266 2.824772,1.517241 6.470698,1.873547 9.419968,0.432348 3.478286,-1.606194 5.80887,-4.733922 7.42456,-7.922714 1.892207,-3.90392 3.357437,-8.248729 2.635211,-12.572874 -0.426977,-2.74616 -2.120553,-5.367847 -4.784163,-6.699493 -1.578026,-0.817852 -3.362415,-1.340847 -5.175906,-1.36888 z"
       style="font-size:12px;font-style:normal;font-variant:normal;font-weight:bold;font-stretch:normal;writing-mode:lr-tb;text-anchor:start;fill:url(#linearGradient3601);fill-opacity:1;stroke:#000000;stroke-width:0.51465917pt;stroke-linecap:butt;stroke-linejoin:miter;stroke-opacity:1;font-family:Bitstream Vera Sans"
       inkscape:connector-curvature="0" />
  </g>
</svg>
