<?xml version="1.0" encoding="UTF-8" standalone="no"?>
<!-- Created with Inkscape (http://www.inkscape.org/) -->
<svg xmlns:dc="http://purl.org/dc/elements/1.1/" xmlns:cc="http://creativecommons.org/ns#" xmlns:rdf="http://www.w3.org/1999/02/22-rdf-syntax-ns#" xmlns:svg="http://www.w3.org/2000/svg" xmlns="http://www.w3.org/2000/svg" xmlns:xlink="http://www.w3.org/1999/xlink" xmlns:sodipodi="http://sodipodi.sourceforge.net/DTD/sodipodi-0.dtd" xmlns:inkscape="http://www.inkscape.org/namespaces/inkscape" width="334.03192" height="109.35115" id="svg2" sodipodi:version="0.32" inkscape:version="0.46" version="1.0" sodipodi:docname="xrayspex.svg" inkscape:output_extension="org.inkscape.output.svg.inkscape">
  <defs id="defs4">
    <linearGradient inkscape:collect="always" id="linearGradient3352">
      <stop style="stop-color:#000000;stop-opacity:1;" offset="0" id="stop3354"/>
      <stop style="stop-color:#000000;stop-opacity:0;" offset="1" id="stop3356"/>
    </linearGradient>
    <linearGradient inkscape:collect="always" id="linearGradient3301">
      <stop style="stop-color:#4d4d4d;stop-opacity:1" offset="0" id="stop3303"/>
      <stop style="stop-color:#1a1a1a;stop-opacity:0;" offset="1" id="stop3305"/>
    </linearGradient>
    <linearGradient inkscape:collect="always" id="linearGradient3253">
      <stop style="stop-color:#000000;stop-opacity:1" offset="0" id="stop3255"/>
      <stop id="stop3261" offset="0.95775282" style="stop-color:#000000;stop-opacity:1"/>
      <stop style="stop-color:#1a1a1a;stop-opacity:1" offset="0.97974139" id="stop3263"/>
      <stop style="stop-color:#000000;stop-opacity:1" offset="1" id="stop3257"/>
    </linearGradient>
    <linearGradient inkscape:collect="always" id="linearGradient3236">
      <stop style="stop-color:#000000;stop-opacity:1" offset="0" id="stop3238"/>
      <stop style="stop-color:#666666;stop-opacity:1" offset="1" id="stop3240"/>
    </linearGradient>
    <linearGradient inkscape:collect="always" id="linearGradient3222">
      <stop style="stop-color:#ffffff;stop-opacity:1" offset="0" id="stop3224"/>
      <stop style="stop-color:#000000;stop-opacity:1" offset="1" id="stop3226"/>
    </linearGradient>
    <linearGradient inkscape:collect="always" id="linearGradient3202">
      <stop style="stop-color:#ffffff;stop-opacity:1" offset="0" id="stop3204"/>
      <stop id="stop3210" offset="0.23629048" style="stop-color:#1a1a1a;stop-opacity:1"/>
      <stop style="stop-color:#ffffff;stop-opacity:1" offset="0.52953184" id="stop3212"/>
      <stop style="stop-color:#000000;stop-opacity:1" offset="1" id="stop3206"/>
    </linearGradient>
    <inkscape:perspective sodipodi:type="inkscape:persp3d" inkscape:vp_x="0 : 526.18109 : 1" inkscape:vp_y="0 : 1000 : 0" inkscape:vp_z="744.09448 : 526.18109 : 1" inkscape:persp3d-origin="372.04724 : 350.78739 : 1" id="perspective10"/>
    <linearGradient inkscape:collect="always" xlink:href="#linearGradient3202" id="linearGradient3208" x1="86.873116" y1="448.29095" x2="88.893417" y2="182.42905" gradientUnits="userSpaceOnUse"/>
    <radialGradient inkscape:collect="always" xlink:href="#linearGradient3222" id="radialGradient3228" cx="-100" cy="263.73389" fx="-100" fy="263.73389" r="139.49182" gradientTransform="matrix(0.8331649,0.5851345,-0.4260165,0.6065983,95.671463,173.75229)" gradientUnits="userSpaceOnUse"/>
    <radialGradient inkscape:collect="always" xlink:href="#linearGradient3222" id="radialGradient3230" gradientUnits="userSpaceOnUse" gradientTransform="matrix(1.1813676,0.646582,-0.3558823,0.6502302,47.911835,164.42453)" cx="131.36324" cy="28.781925" fx="131.36324" fy="28.781925" r="139.49182"/>
    <linearGradient inkscape:collect="always" xlink:href="#linearGradient3236" id="linearGradient3251" gradientUnits="userSpaceOnUse" x1="199.29439" y1="406.07758" x2="163.56087" y2="343.207" gradientTransform="translate(0,-6.060915)"/>
    <linearGradient inkscape:collect="always" xlink:href="#linearGradient3253" id="linearGradient3259" x1="-157.14285" y1="190.93362" x2="534.28571" y2="369.50504" gradientUnits="userSpaceOnUse"/>
    <linearGradient inkscape:collect="always" xlink:href="#linearGradient3301" id="linearGradient3307" x1="120.20815" y1="158.37718" x2="185.86807" y2="424.85181" gradientUnits="userSpaceOnUse"/>
    <filter inkscape:collect="always" id="filter3317">
      <feGaussianBlur inkscape:collect="always" stdDeviation="2.452431" id="feGaussianBlur3319"/>
    </filter>
    <radialGradient inkscape:collect="always" xlink:href="#linearGradient3352" id="radialGradient3358" cx="-501.91965" cy="179.87302" fx="-501.91965" fy="179.87302" r="98.896339" gradientTransform="matrix(0.7042061,0.6982167,-1.0653693,1.074509,55.101151,364.09548)" gradientUnits="userSpaceOnUse"/>
    <radialGradient inkscape:collect="always" xlink:href="#linearGradient3352" id="radialGradient3362" gradientUnits="userSpaceOnUse" gradientTransform="matrix(0.7042061,0.6982167,-1.0653693,1.074509,55.101151,364.09548)" cx="-501.91965" cy="179.87302" fx="-501.91965" fy="179.87302" r="98.896339"/>
    <linearGradient inkscape:collect="always" xlink:href="#linearGradient3253" id="linearGradient3369" gradientUnits="userSpaceOnUse" x1="-157.14285" y1="190.93362" x2="534.28571" y2="369.50504"/>
    <linearGradient inkscape:collect="always" xlink:href="#linearGradient3202" id="linearGradient3371" gradientUnits="userSpaceOnUse" x1="86.873116" y1="448.29095" x2="88.893417" y2="182.42905"/>
    <radialGradient inkscape:collect="always" xlink:href="#linearGradient3222" id="radialGradient3389" gradientUnits="userSpaceOnUse" gradientTransform="matrix(0.8331649,0.5851345,-0.4260165,0.6065983,95.671463,173.75229)" cx="-100" cy="263.73389" fx="-100" fy="263.73389" r="139.49182"/>
    <radialGradient inkscape:collect="always" xlink:href="#linearGradient3222" id="radialGradient3391" gradientUnits="userSpaceOnUse" gradientTransform="matrix(1.1813676,0.646582,-0.3558823,0.6502302,47.911835,164.42453)" cx="131.36324" cy="28.781925" fx="131.36324" fy="28.781925" r="139.49182"/>
    <linearGradient inkscape:collect="always" xlink:href="#linearGradient3236" id="linearGradient3393" gradientUnits="userSpaceOnUse" gradientTransform="translate(0,-6.060915)" x1="199.29439" y1="406.07758" x2="163.56087" y2="343.207"/>
    <linearGradient inkscape:collect="always" xlink:href="#linearGradient3253" id="linearGradient3395" gradientUnits="userSpaceOnUse" x1="-157.14285" y1="190.93362" x2="534.28571" y2="369.50504"/>
    <linearGradient inkscape:collect="always" xlink:href="#linearGradient3202" id="linearGradient3397" gradientUnits="userSpaceOnUse" x1="86.873116" y1="448.29095" x2="88.893417" y2="182.42905"/>
    <linearGradient inkscape:collect="always" xlink:href="#linearGradient3301" id="linearGradient3399" gradientUnits="userSpaceOnUse" x1="120.20815" y1="158.37718" x2="185.86807" y2="424.85181"/>
    <radialGradient inkscape:collect="always" xlink:href="#linearGradient3352" id="radialGradient3401" gradientUnits="userSpaceOnUse" gradientTransform="matrix(0.7042061,0.6982167,-1.0653693,1.074509,55.101151,364.09548)" cx="-501.91965" cy="179.87302" fx="-501.91965" fy="179.87302" r="98.896339"/>
    <radialGradient inkscape:collect="always" xlink:href="#linearGradient3352" id="radialGradient3403" gradientUnits="userSpaceOnUse" gradientTransform="matrix(0.7042061,0.6982167,-1.0653693,1.074509,55.101151,364.09548)" cx="-501.91965" cy="179.87302" fx="-501.91965" fy="179.87302" r="98.896339"/>
  </defs>
  <sodipodi:namedview id="base" pagecolor="#ffffff" bordercolor="#666666" borderopacity="1.0" gridtolerance="10000" guidetolerance="10" objecttolerance="10" inkscape:pageopacity="0.0" inkscape:pageshadow="2" inkscape:zoom="0.98994949" inkscape:cx="224.66569" inkscape:cy="53.841167" inkscape:document-units="px" inkscape:current-layer="layer1" showgrid="false"/>
  <metadata id="metadata7">
    <rdf:RDF>
      <cc:Work rdf:about="">
        <dc:format>image/svg+xml</dc:format>
        <dc:type rdf:resource="http://purl.org/dc/dcmitype/StillImage"/>
        <dc:title>Comic Book X Ray Spex Glasses</dc:title>
        <dc:date>03/22/12</dc:date>
        <dc:creator>
          <cc:Agent>
            <dc:title>Studio-Hades</dc:title>
          </cc:Agent>
        </dc:creator>
        <dc:publisher>
          <cc:Agent>
            <dc:title>Acheron Mint</dc:title>
          </cc:Agent>
        </dc:publisher>
        <dc:rights>
          <cc:Agent>
            <dc:title>Acheron Mint</dc:title>
          </cc:Agent>
        </dc:rights>
        <dc:subject>
          <rdf:Bag>
            <rdf:li>X Ray Glasses</rdf:li>
            <rdf:li>Comic Books</rdf:li>
            <rdf:li>sunglasses</rdf:li>
          </rdf:Bag>
        </dc:subject>
        <dc:description>Modern X Ray glasses</dc:description>
        <cc:license rdf:resource="http://creativecommons.org/licenses/by-sa/3.0/"/>
      </cc:Work>
      <cc:License rdf:about="http://creativecommons.org/licenses/by-sa/3.0/">
        <cc:permits rdf:resource="http://creativecommons.org/ns#Reproduction"/>
        <cc:permits rdf:resource="http://creativecommons.org/ns#Distribution"/>
        <cc:requires rdf:resource="http://creativecommons.org/ns#Notice"/>
        <cc:requires rdf:resource="http://creativecommons.org/ns#Attribution"/>
        <cc:permits rdf:resource="http://creativecommons.org/ns#DerivativeWorks"/>
        <cc:requires rdf:resource="http://creativecommons.org/ns#ShareAlike"/>
      </cc:License>
    </rdf:RDF>
  </metadata>
  <g inkscape:label="Layer 1" inkscape:groupmode="layer" id="layer1" transform="translate(-68.870215,-163.52131)">
    <g id="g3376" transform="matrix(0.431548,0,0,0.431548,162.44884,84.578643)">
      <path sodipodi:nodetypes="ccccccccccccccccc" id="rect2417" d="M -213.15625,214.25 L -214.03125,260.375 C -121.48201,255.5783 -43.675384,277.97787 40.53125,288.21875 L -65.15625,303.46875 C -98.66183,312.62601 -123.39371,334.43709 -150.5,352.8125 C -167.67983,373.87938 -191.87719,433.7638 -143.71875,417.90625 C -119.47319,395.55654 -78.775461,339.31887 -45.78125,340.96875 C 26.492037,326.75196 98.374968,315.10925 170.28125,305 C 242.19213,315.1097 314.09709,326.75105 386.375,340.96875 C 419.36921,339.31887 460.06694,395.55654 484.3125,417.90625 C 532.47094,433.7638 508.24233,373.87938 491.0625,352.8125 C 463.9562,334.43709 439.22433,312.62601 405.71875,303.46875 L 300.03125,288.21875 C 385.43393,277.33185 481.38517,260.09671 554.59375,260.375 L 553.71875,214.25 L 170.28125,269.53125 L -213.15625,214.25 z" style="fill:#000000;fill-rule:evenodd;stroke:#000000;stroke-width:1px;stroke-linecap:butt;stroke-linejoin:miter;stroke-opacity:1"/>
      <path id="path2428" d="M -23.799661,204.93193 C -67.482819,206.79597 -113.71914,210.55565 -152.15217,232.96366 C -167.18641,240.87362 -170.84943,258.73312 -167.10305,274.10999 C -157.82011,333.83663 -107.49407,378.33803 -52.841547,398.1236 C -27.268201,408.6698 0.20033119,414.06418 27.970657,410.75051 C 63.923138,408.1044 94.284424,378.94131 101.64866,344.08044 C 108.00488,316.2802 112.29799,287.28397 109.79301,258.78569 C 106.5839,242.24745 96.749095,226.32436 79.804109,221.34691 C 47.186405,206.9781 11.467128,203.88121 -23.799661,204.93193 z" style="opacity:0.85393258;fill:url(#radialGradient3389);fill-opacity:1;stroke:none;stroke-width:1px;stroke-linecap:butt;stroke-linejoin:miter;stroke-opacity:1"/>
      <path id="path2430" d="M 350.27245,204.36372 C 313.69443,206.00986 275.01946,210.46789 243.70136,230.81709 C 226.79403,249.88295 228.71088,276.71307 230.95156,300.31561 C 233.85514,338.29146 244.56084,382.33021 281.32954,401.34347 C 322.37729,422.6528 371.47614,408.97501 410.81847,390.67373 C 452.02583,371.20971 488.37378,337.84552 502.48981,293.50968 C 508.47863,275.42603 516.05259,250.27053 497.43905,236.75174 C 468.06307,215.99979 430.79266,210.8724 395.91872,206.06835 C 380.75358,204.5924 365.5079,203.90463 350.27245,204.36372 z" style="opacity:0.85393258;fill:url(#radialGradient3391);fill-opacity:1;fill-rule:nonzero;stroke:none;stroke-width:1px;stroke-linecap:butt;stroke-linejoin:miter;marker:none;marker-start:none;marker-mid:none;marker-end:none;stroke-miterlimit:4;stroke-dasharray:none;stroke-dashoffset:0;stroke-opacity:1;visibility:visible;display:inline;overflow:visible;enable-background:accumulate"/>
      <path d="M 230.52588,336.52845 C 236.99303,354.94192 236.26401,371.98567 228.89862,374.57253 C 221.53323,377.15938 210.30684,364.3146 203.83969,345.90113 C 197.37255,327.48765 198.10155,310.44391 205.46694,307.85705 C 212.83233,305.27019 224.05874,318.11498 230.52588,336.52845 z M 112.92596,336.52845 C 106.45881,354.94192 107.18783,371.98567 114.55322,374.57253 C 121.91861,377.15938 133.145,364.3146 139.61215,345.90113 C 146.07929,327.48765 145.35029,310.44391 137.9849,307.85705 C 130.61951,305.27019 119.3931,318.11498 112.92596,336.52845 z" style="fill:#000000;fill-opacity:1;fill-rule:evenodd;stroke:url(#linearGradient3393);stroke-width:3.00000024;stroke-linecap:butt;stroke-linejoin:miter;stroke-miterlimit:4;stroke-opacity:1" id="path3232"/>
      <path style="opacity:0.58426962;fill:#ffffff;fill-rule:evenodd;stroke:#ffffff;stroke-width:0.55443901px;stroke-linecap:butt;stroke-linejoin:miter;stroke-opacity:1" d="M 212.97452,292.17097 C 205.11549,274.55169 219.42699,254.43956 229.50912,234.80298 C 256.57469,224.06308 268.7075,225.91596 283.83708,225.24165 C 265.2239,239.09679 259.57586,271.14714 267.30249,284.20319 C 250.95205,299.31861 231.18684,290.24462 212.97452,292.17097 z" id="path3325" sodipodi:nodetypes="ccccc"/>
      <path id="path2383" d="M -18.90625,184.4375 C -68.561553,184.92673 -119.91556,195.67104 -162.5,212.375 L -213.8125,217.25 L -214.28125,229.28125 L -201.21875,229.28125 L -201.21875,245.4375 L -214.875,245.4375 L -215.34375,257.59375 C -215.45025,263.50896 -188.95092,257.21493 -188.4375,262.9375 C -173.35668,431.02815 98.536074,516.89686 126.0625,326.65625 L 128.0625,302.84375 C 156.13542,292.99121 184.20833,286.14456 212.28125,302.84375 L 214.28125,326.65625 C 241.80767,516.89686 513.70043,431.02815 528.78125,262.9375 C 529.29467,257.21493 555.794,261.7277 555.6875,255.8125 L 555.28125,245.4375 L 538.34375,245.4375 L 538.34375,229.28125 L 554.65625,229.28125 L 554.15625,216.53125 L 502.84375,212.375 C 458.88562,195.1322 405.56933,184.25599 354.4375,184.4375 C 318.0477,186.37679 244.83896,192.63325 222.4375,225.71875 L 217.09375,238.1875 C 185.8125,226.26641 154.53125,228.61271 123.25,238.1875 L 118.15625,225.71875 C 103.69343,191.88852 17.55961,185.88248 -14.09375,184.4375 C -15.69162,184.43183 -17.304466,184.42172 -18.90625,184.4375 z M -15.15625,208.46875 C -13.56961,208.46424 -11.99287,208.48336 -10.40625,208.5 C 26.16216,209.20585 63.571732,215.2813 95.25,234.25 C 101.11046,247.4367 110.28471,261.51039 105.96875,276.59375 C 103.49432,310.75136 103.59659,348.10413 81.96875,376.59375 C 61.35505,403.7318 23.74188,412.66107 -8.78125,406.28125 C -85.94654,391.77954 -160.4344,340.60139 -164.34375,257.96875 C -163.3059,243.06767 -149.3142,233.63271 -136.3125,229.0625 C -108.3846,218.15593 -78.228568,213.25061 -48.4375,210.0625 C -37.37683,209.05931 -26.26275,208.50035 -15.15625,208.46875 z M 355.5,208.46875 C 366.6065,208.50035 377.72058,209.05931 388.78125,210.0625 C 418.57232,213.25061 448.72835,218.15593 476.65625,229.0625 C 489.65795,233.63271 503.64965,243.06767 504.6875,257.96875 C 500.77815,340.60139 426.29029,391.77954 349.125,406.28125 C 316.60187,412.66107 278.9887,403.7318 258.375,376.59375 C 236.74716,348.10413 236.84943,310.75136 234.375,276.59375 C 230.05904,261.51039 239.23329,247.4367 245.09375,234.25 C 276.77202,215.2813 314.18159,209.20585 350.75,208.5 C 352.33662,208.48336 353.91336,208.46424 355.5,208.46875 z" style="fill:url(#linearGradient3395);fill-opacity:1;fill-rule:evenodd;stroke:url(#linearGradient3397);stroke-width:3;stroke-linecap:butt;stroke-linejoin:miter;stroke-miterlimit:4;stroke-dasharray:none;stroke-opacity:1"/>
      <path id="path3265" d="M 353.34375,194.46875 C 311.91511,195.4759 269.01866,201.78056 233.71875,224.84375 C 229.88338,233.64337 226.15063,242.48719 222.375,251.3125 C 190.10836,235.26144 151.59529,238.0877 118.625,250.25 C 110.84628,242.00549 112.34614,227.24636 101.625,221.59375 C 55.642505,195.10824 0.33354872,191.53833 -51.708682,196.26292 C -89.660961,199.73459 -126.78809,209.61217 -162.46236,222.48791 C -176.27296,223.98038 -190.25649,224.73912 -203.96875,226.59375 C -204.08099,233.25194 -206.00536,239.99113 -204.5625,246.59375 C -195.48631,248.3308 -183.10366,249.56823 -179.25,259.59375 C -175.48141,296.2679 -159.56244,331.52564 -134.4375,358.34375 C -96.421419,400.37621 -40.045631,427.05711 17.125,424.5625 C 49.081968,422.5756 80.813031,406.88847 97.5625,378.90625 C 112.66574,355.46504 117.06803,327.17264 118.40625,299.84375 C 121.96366,290.98479 133.02712,291.58536 140.53125,288.1875 C 165.68701,280.57448 195.36824,279.65893 218.03125,294.78125 C 225.65982,301.53192 221.54508,312.98644 223.6875,321.71875 C 227.53906,355.28682 242.42241,390.12041 272.09375,408.5 C 307.52198,430.60362 353.37322,428.12366 391.44337,413.94951 C 450.4831,393.03529 501.12945,343.78626 515.625,282.1875 C 517.97183,273.19026 517.63358,262.98612 522.28125,254.875 C 528.30447,248.5608 537.60209,248.6412 545.46875,246.34375 C 544.76952,239.68642 545.26248,232.95528 544.40625,226.3125 C 521.83561,224.59022 498.69158,223.48416 477.75,214.1875 C 437.67283,201.3279 395.58553,193.97006 353.34375,194.46875 z M -15.0625,198.46875 C 25.725392,198.56552 67.939571,205.42 102.9375,227.21875 C 111.95172,244.01901 120.64181,263.51319 115.65453,283.02919 C 113.59463,317.75079 111.35514,355.42507 89.058778,383.74638 C 63.750313,415.67489 17.416402,424.86389 -20.725884,413.96921 C -74.898648,401.75005 -127.78727,371.59572 -155.88114,322.52151 C -167.99263,300.45216 -176.58088,274.74222 -172.78125,249.25 C -166.03218,229.24159 -144.60361,219.92255 -125.66941,214.83029 C -89.972918,203.64991 -52.448247,198.98171 -15.0625,198.46875 z M 353.125,198.46875 C 401.30603,199.39031 450.85413,205.19291 494.48429,226.41773 C 509.00071,235.05467 518.12165,252.88759 513.84375,269.65625 C 507.93202,319.85145 473.48597,363.06817 430.0625,387.0625 C 398.77582,405.09959 363.277,416.89126 327.03125,418.34375 C 291.95986,418.25504 255.85924,399.78662 240.8125,367.21875 C 225.92007,336.79445 226.51238,301.92034 223.3125,268.78125 C 223.64251,253.94894 230.09514,239.695 238.40625,227.78125 C 247.0731,219.35547 259.39819,216.29681 270.28125,211.5 C 296.84184,202.16304 325.05565,198.80462 353.125,198.46875 z" style="fill:url(#linearGradient3399);fill-opacity:1;fill-rule:evenodd;stroke:none;stroke-width:3;stroke-linecap:butt;stroke-linejoin:miter;stroke-miterlimit:4;stroke-dasharray:none;stroke-opacity:1;filter:url(#filter3317)"/>
      <path sodipodi:type="spiral" style="fill:none;fill-opacity:1;fill-rule:evenodd;stroke:url(#radialGradient3401);stroke-width:5.39446735;stroke-linecap:butt;stroke-linejoin:miter;stroke-miterlimit:4;stroke-dasharray:none;stroke-opacity:1" id="path3360" sodipodi:cx="-492.95444" sodipodi:cy="209.89496" sodipodi:expansion="0.89999998" sodipodi:revolution="7.6999998" sodipodi:radius="101.01525" sodipodi:argument="-47.453232" sodipodi:t0="0" d="M -492.95444,209.89496 C -495.68856,210.82945 -495.62578,206.86157 -494.44881,205.52276 C -491.71482,202.41283 -486.84421,204.16495 -484.79563,207.10636 C -481.32402,212.09099 -483.99828,218.83147 -488.93775,221.64688 C -495.9212,225.62732 -504.68119,221.95775 -508.17931,215.09867 C -512.71172,206.21154 -508.04205,195.42879 -499.31553,191.28383 C -488.58114,186.18516 -475.79534,191.84563 -471.02458,202.39956 C -465.35542,214.94093 -471.99474,229.70639 -484.34357,235.08842 C -498.66043,241.3282 -515.38273,233.72189 -521.36505,219.60542 C -528.17373,203.539 -519.61149,184.88105 -503.75079,178.30726 C -485.95689,170.93222 -465.38272,180.44028 -458.22485,198.02474 C -450.28636,217.52689 -460.731,239.99951 -480.02105,247.73513 C -501.21444,256.23402 -525.56919,244.86124 -533.877,223.88187 C -542.93323,201.01252 -530.64007,174.79064 -507.98613,165.91562 C -483.45465,156.30505 -455.37953,169.51145 -445.94177,193.82651 C -435.77977,220.00745 -449.89281,249.92294 -475.85661,259.91935 C -503.67536,270.62994 -535.41921,255.61642 -545.97052,228.01532 C -557.22701,198.56955 -541.31874,165.00856 -512.09095,153.90583 C -481.02822,142.10606 -445.66064,158.9037 -434.00972,189.74825 C -421.66915,222.41855 -439.35112,259.58281 -471.80314,271.77889 C -506.07218,284.65785 -545.02374,266.09631 -557.76215,232.04557 C -571.1772,196.18611 -551.7406,155.45611 -516.09938,142.17806 C -478.65735,128.22912 -436.15734,148.53653 -422.34218,185.76041 C -407.86147,224.77756 -429.03563,269.03957 -467.83477,283.38944 C -508.41996,298.39988 -554.43635,276.36282 -569.31863,235.99547 C -584.85684,193.84897 -561.96056,146.08551 -520.0317,130.67298 C -476.33035,114.60891 -426.82678,138.36088 -410.88609,181.84483 C -394.29797,227.0949 -418.90228,278.33189 -463.93519,294.79874 C -510.72808,311.90916 -563.69207,286.45573 -580.68318,239.87975 C -598.31418,191.54969 -572.01474,136.86486 -523.90133,119.35134 C -474.03954,101.20139 -417.63981,128.34386 -399.60563,177.98928 C -384.98526,218.23697 -398.64532,264.43872 -432.34518,290.70708" transform="matrix(-0.9268756,0,0,0.9268756,-106.45963,109.25216)"/>
      <path sodipodi:nodetypes="ccccc" id="path3321" d="M -146.63979,296.21158 C -154.49882,278.5923 -140.18732,258.48017 -130.10519,238.84359 C -103.03962,228.10369 -90.906804,229.95657 -75.777221,229.28226 C -94.390401,243.1374 -100.03845,275.18775 -92.31182,288.2438 C -108.66226,303.35922 -128.42747,294.28523 -146.63979,296.21158 z" style="opacity:0.58426962;fill:#ffffff;fill-rule:evenodd;stroke:#ffffff;stroke-width:0.55443901px;stroke-linecap:butt;stroke-linejoin:miter;stroke-opacity:1"/>
      <path transform="matrix(0.9268756,0,0,0.9268756,435.85045,109.25216)" d="M -492.95444,209.89496 C -495.68856,210.82945 -495.62578,206.86157 -494.44881,205.52276 C -491.71482,202.41283 -486.84421,204.16495 -484.79563,207.10636 C -481.32402,212.09099 -483.99828,218.83147 -488.93775,221.64688 C -495.9212,225.62732 -504.68119,221.95775 -508.17931,215.09867 C -512.71172,206.21154 -508.04205,195.42879 -499.31553,191.28383 C -488.58114,186.18516 -475.79534,191.84563 -471.02458,202.39956 C -465.35542,214.94093 -471.99474,229.70639 -484.34357,235.08842 C -498.66043,241.3282 -515.38273,233.72189 -521.36505,219.60542 C -528.17373,203.539 -519.61149,184.88105 -503.75079,178.30726 C -485.95689,170.93222 -465.38272,180.44028 -458.22485,198.02474 C -450.28636,217.52689 -460.731,239.99951 -480.02105,247.73513 C -501.21444,256.23402 -525.56919,244.86124 -533.877,223.88187 C -542.93323,201.01252 -530.64007,174.79064 -507.98613,165.91562 C -483.45465,156.30505 -455.37953,169.51145 -445.94177,193.82651 C -435.77977,220.00745 -449.89281,249.92294 -475.85661,259.91935 C -503.67536,270.62994 -535.41921,255.61642 -545.97052,228.01532 C -557.22701,198.56955 -541.31874,165.00856 -512.09095,153.90583 C -481.02822,142.10606 -445.66064,158.9037 -434.00972,189.74825 C -421.66915,222.41855 -439.35112,259.58281 -471.80314,271.77889 C -506.07218,284.65785 -545.02374,266.09631 -557.76215,232.04557 C -571.1772,196.18611 -551.7406,155.45611 -516.09938,142.17806 C -478.65735,128.22912 -436.15734,148.53653 -422.34218,185.76041 C -407.86147,224.77756 -429.03563,269.03957 -467.83477,283.38944 C -508.41996,298.39988 -554.43635,276.36282 -569.31863,235.99547 C -584.85684,193.84897 -561.96056,146.08551 -520.0317,130.67298 C -476.33035,114.60891 -426.82678,138.36088 -410.88609,181.84483 C -394.29797,227.0949 -418.90228,278.33189 -463.93519,294.79874 C -510.72808,311.90916 -563.69207,286.45573 -580.68318,239.87975 C -598.31418,191.54969 -572.01474,136.86486 -523.90133,119.35134 C -474.03954,101.20139 -417.63981,128.34386 -399.60563,177.98928 C -384.98526,218.23697 -398.64532,264.43872 -432.34518,290.70708" sodipodi:t0="0" sodipodi:argument="-47.453232" sodipodi:radius="101.01525" sodipodi:revolution="7.6999998" sodipodi:expansion="0.89999998" sodipodi:cy="209.89496" sodipodi:cx="-492.95444" id="path3342" style="fill:none;fill-opacity:1;fill-rule:evenodd;stroke:url(#radialGradient3403);stroke-width:5.39446735;stroke-linecap:butt;stroke-linejoin:miter;stroke-miterlimit:4;stroke-dasharray:none;stroke-opacity:1" sodipodi:type="spiral"/>
      <path sodipodi:nodetypes="ccccccc" id="path3374" d="M 178.64375,238.79212 L 158.72099,266.18591 L 168.68237,262.03534 L 156.6457,284.03338 L 178.64375,254.5643 L 167.85225,258.29982 L 178.64375,238.79212 z" style="fill:#d40000;fill-rule:evenodd;stroke:#000000;stroke-width:0.20544298px;stroke-linecap:butt;stroke-linejoin:miter;stroke-opacity:1"/>
    </g>
  </g>
</svg>