<?xml version="1.0" encoding="UTF-8" standalone="no"?>
<svg xmlns:dc="http://purl.org/dc/elements/1.1/" xmlns:cc="http://creativecommons.org/ns#" xmlns:rdf="http://www.w3.org/1999/02/22-rdf-syntax-ns#" xmlns:svg="http://www.w3.org/2000/svg" xmlns="http://www.w3.org/2000/svg" xmlns:sodipodi="http://sodipodi.sourceforge.net/DTD/sodipodi-0.dtd" xmlns:inkscape="http://www.inkscape.org/namespaces/inkscape" width="445pt" height="431pt" viewBox="0 0 445 431" version="1.1" id="svg4136" inkscape:version="0.91 r13725" sodipodi:docname="AbstractDesign64.svg">
  <metadata id="metadata4144">
    <rdf:RDF>
      <cc:Work rdf:about="">
        <dc:format>image/svg+xml</dc:format>
        <dc:type rdf:resource="http://purl.org/dc/dcmitype/StillImage"/>
        <dc:title/>
      </cc:Work>
    </rdf:RDF>
  </metadata>
  <defs id="defs4142"/>
  <sodipodi:namedview pagecolor="#ffffff" bordercolor="#666666" borderopacity="1" objecttolerance="10" gridtolerance="10" guidetolerance="10" inkscape:pageopacity="0" inkscape:pageshadow="2" inkscape:window-width="1600" inkscape:window-height="837" id="namedview4140" showgrid="false" inkscape:zoom="1.2496083" inkscape:cx="278.12205" inkscape:cy="269.37475" inkscape:window-x="-8" inkscape:window-y="-8" inkscape:window-maximized="1" inkscape:current-layer="svg4136"/>
  <path d="M 349.40039 1.2988281 C 348.95114 1.3199677 348.48125 1.3851563 347.98828 1.5 C 343.65078 13.2125 336.2 23.613281 328.5 33.363281 C 323.9 32.850781 324.03789 23.011719 317.90039 25.324219 C 312.12539 39.649219 302.36211 53.225 295.47461 67.625 C 296.51211 61.5625 290.31211 56.838281 285.09961 55.363281 C 280.78711 59.775781 282.03711 68.374219 277.72461 71.949219 C 274.87461 66.711719 274.83789 60.288281 271.15039 55.363281 C 266.00039 56.838281 259.57422 61.5875 260.88672 67.625 C 253.11172 56.7125 249.2 43.249609 240.875 32.662109 C 240.9 18.899609 231.5875 27.6875 228.5625 33.4375 C 217.6375 26.325 214.63672 6.0121094 204.32422 1.4746094 C 199.43672 4.1746094 197.78828 10.811719 195.11328 14.761719 C 190.21328 12.249219 181.07578 5.0003906 177.55078 12.712891 C 180.88828 24.600391 180.13672 37.599609 180.82422 50.099609 C 175.83672 49.799609 171.28789 44.211719 166.40039 47.636719 C 171.13789 62.911719 170.1125 79.124609 174.1875 94.724609 C 168.45 89.687109 152.91328 89.0625 160.23828 100.9375 C 169.77578 122.7625 146.29961 91.1375 143.66211 106 C 142.41211 109.475 143.28672 113.07539 144.51172 116.40039 C 130.96172 108.36289 115.64922 103.37461 102.44922 95.099609 C 97.324219 96.412109 99.812891 104.46211 100.02539 108.09961 C 87.250391 106.13711 75.100781 100.04922 63.988281 94.074219 C 55.788281 97.024219 63.099219 108.97539 61.074219 112.83789 C 54.949219 108.91289 37.625781 119.23828 49.175781 123.11328 C 55.413281 131.41328 63.7 139.81289 69.6875 149.08789 C 66.275 151.42539 58.662891 150.7875 57.775391 156.0625 C 69.387891 166.625 80.837891 178.01211 90.587891 190.09961 C 71.962891 189.46211 78.537891 202.93789 90.212891 208.21289 C 75.075391 203.05039 67.112109 216.9125 80.162109 223.9375 C 64.262109 225.925 48.700781 231.66289 32.675781 231.71289 C 31.375781 237.07539 38.075 239.76289 38.3125 244.90039 C 26.55 247.71289 14.987109 253.55 2.6621094 252.8125 C -2.7878906 260.325 8.0507813 264.63711 10.863281 269.78711 C 6.2632812 273.77461 -2.05 279.125 2.6875 285.9375 C 14.7875 285.7 26.537109 290.98828 38.287109 293.92578 C 37.212109 298.58828 31.837109 301.88789 32.662109 306.96289 C 48.724609 307.03789 63.999609 313.7625 80.099609 314.75 C 67.312109 321.85 74.912891 335.67461 90.212891 330.53711 C 77.625391 336.47461 72.761719 348.825 91.074219 349.625 C 79.624219 360.6625 68.813281 372.47461 57.488281 383.53711 C 60.300781 387.87461 65.924219 387.48672 69.761719 389.63672 C 63.986719 398.93672 56.062109 406.475 49.912109 415.5 C 39.787109 416.2875 48.711719 427.97539 55.449219 425.83789 C 69.324219 421.91289 52.825391 441.60078 63.962891 444.67578 C 75.112891 438.70078 87.224219 432.93711 99.949219 430.41211 C 99.749219 434.02461 97.236719 442.36211 102.44922 443.66211 C 115.63672 435.36211 130.96172 430.38711 144.51172 422.34961 C 142.38672 427.07461 142.71211 432.61328 145.41211 437.05078 C 152.11211 437.96328 156.575 430.74961 162.6875 428.91211 C 156.075 440.41211 159.78672 454.63828 174.19922 443.98828 C 169.88672 459.47578 170.5875 475.66172 166.4375 491.07422 C 171.3 494.57422 175.86289 488.92539 180.83789 488.65039 C 180.11289 501.15039 180.81328 514.20078 177.55078 526.05078 C 181.10078 533.73828 190.21328 526.50078 195.11328 523.98828 C 198.30078 528.33828 200.36172 539.0875 208.26172 537.25 C 212.59922 525.5375 220.05 515.12422 227.75 505.38672 C 232.35 505.89922 232.19961 515.73828 238.34961 513.42578 C 244.12461 499.10078 253.88789 485.525 260.77539 471.125 C 259.73789 477.1875 265.93789 481.91172 271.15039 483.38672 C 275.45039 478.96172 274.21289 470.37578 278.52539 466.80078 C 281.37539 472.03828 281.39961 478.46172 285.09961 483.38672 C 290.24961 481.91172 296.67578 477.1625 295.36328 471.125 C 303.13828 482.0375 307.05 495.50039 315.375 506.08789 C 315.35 519.85039 324.6625 511.0625 327.6875 505.3125 C 336.1125 513.7125 343.7125 525.47578 348 537.23828 C 355.8875 539.08828 357.94922 528.32578 361.13672 523.98828 C 366.03672 526.50078 375.17422 533.73711 378.69922 526.03711 C 375.36172 514.14961 376.11328 501.15039 375.42578 488.65039 C 380.41328 488.95039 384.94961 494.53828 389.84961 491.11328 C 385.11211 475.83828 386.1375 459.62539 382.0625 444.02539 C 387.7875 449.06289 403.33672 449.6875 396.01172 437.8125 C 386.47422 415.9875 409.95039 447.6125 412.58789 432.75 C 413.83789 429.275 412.95078 425.67461 411.73828 422.34961 C 425.28828 430.37461 440.60078 435.37539 453.80078 443.65039 C 458.92578 442.35039 456.42461 434.27539 456.22461 430.65039 C 468.99961 432.61289 481.14922 438.70078 492.26172 444.67578 C 500.46172 441.72578 493.15078 429.77461 495.17578 425.91211 C 501.30078 429.83711 518.62422 419.51172 507.07422 415.63672 C 500.83672 407.33672 492.55 398.93711 486.5625 389.66211 C 489.975 387.32461 497.58711 387.95 498.47461 382.6875 C 486.86211 372.1125 475.41211 360.72539 465.66211 348.65039 C 484.28711 349.28789 477.69961 335.81211 466.03711 330.53711 C 481.17461 335.69961 489.13789 321.8375 476.08789 314.8125 C 491.98789 312.825 507.54922 307.08711 523.57422 307.03711 C 524.87422 301.67461 518.175 298.97461 517.9375 293.84961 C 529.7 291.03711 541.26289 285.1875 553.58789 285.9375 C 559.02539 278.425 548.18672 274.11289 545.38672 268.96289 C 549.97422 264.96289 558.2875 259.6125 553.5625 252.8125 C 541.4625 253.05 529.71289 247.76172 517.96289 244.82422 C 519.02539 240.16172 524.41289 236.86211 523.58789 231.78711 C 507.52539 231.71211 492.25039 224.9875 476.15039 224 C 488.93789 216.9 481.33711 203.07539 466.03711 208.21289 C 478.61211 202.27539 483.48828 189.925 465.17578 189.125 C 476.62578 178.0875 487.43672 166.27539 498.76172 155.21289 C 495.93672 150.87539 490.32578 151.25078 486.48828 149.11328 C 492.25078 139.81328 500.18789 132.2625 506.33789 123.25 C 516.45039 122.4625 507.53828 110.77461 500.80078 112.91211 C 486.91328 116.83711 503.42461 97.149219 492.28711 94.074219 C 481.13711 100.04922 469.02578 105.81289 456.30078 108.33789 C 456.48828 104.71289 459.01328 96.387891 453.80078 95.087891 C 440.61328 103.38789 425.28828 108.36289 411.73828 116.40039 C 413.86328 111.67539 413.53789 106.13672 410.83789 101.69922 C 404.13789 100.78672 399.675 108.00039 393.5625 109.83789 C 400.175 98.337891 396.46328 84.111719 382.05078 94.761719 C 386.36328 79.274219 385.6625 63.088281 389.8125 47.675781 C 384.95 44.175781 380.38711 49.824609 375.41211 50.099609 C 376.13711 37.599609 375.43672 24.549219 378.69922 12.699219 C 375.14922 5.0117188 366.03672 12.249219 361.13672 14.761719 C 358.14844 10.683594 356.13913 0.98173523 349.40039 1.2988281 z M 203.80078 8.875 C 208.47578 13.425 212.98789 20.286719 216.27539 26.199219 C 203.25039 28.149219 198.37578 19.325 203.80078 8.875 z M 351.875 9.0117188 C 360.8875 18.974219 352.38711 27.8875 339.91211 26.125 C 343.11211 20.075 347.7625 14.511719 351.875 9.0117188 z M 184 15.0625 C 197.4625 19.1125 196.775 29.224219 185.9375 36.136719 C 182.8375 29.924219 186 22.2 184 15.0625 z M 371.40039 15.337891 C 372.17539 20.050391 371.61172 29.35 371.07422 35.625 C 360.73672 31.3375 357.56289 19.300391 371.40039 15.337891 z M 202.02148 29.023438 C 220.10801 29.221149 231.18125 55.782813 212.36328 63.787109 C 190.45078 70.674609 183.15 39.462891 200.25 29.087891 C 200.84727 29.037891 201.43805 29.01706 202.02148 29.023438 z M 353.40234 29.164062 C 353.99287 29.147 354.59141 29.158203 355.19922 29.199219 C 372.71172 37.561719 366.98672 70.025781 344.82422 64.050781 C 325.425 57.354297 335.09607 29.692996 353.40234 29.164062 z M 320.91211 33.363281 C 323.81211 38.288281 325.54922 44.9 325.76172 50.5625 C 313.46172 55.4375 306.70078 67.2875 302.42578 78.8125 C 297.48828 61.0875 313.78711 47.400781 320.91211 33.363281 z M 234.33789 34.537109 C 241.87539 43.262109 258.54961 62.275391 253.84961 78.712891 C 249.54961 67.337891 242.80078 55.4 230.48828 50.5625 C 230.06328 45.175 232.95039 39.674609 234.33789 34.537109 z M 174.22461 53.511719 C 179.17461 55.636719 185.11328 58.675391 187.42578 63.962891 C 182.66328 75.687891 180.3 89.5625 186.5 101.25 C 172.3625 90.3375 175.33711 69.674219 174.22461 53.511719 z M 379.36328 54.25 C 384.46328 63.175 383.42422 91.412109 369.76172 101.22461 C 382.77422 85.724609 357.53828 62.625 379.36328 54.25 z M 227.61328 55.113281 C 238.30078 61.163281 250.02422 71.924219 247.88672 85.511719 C 247.99922 95.699219 235.84961 103.7625 226.41211 99.875 C 217.57461 96.8125 220.82422 107.83672 212.44922 107.69922 C 188.52422 114.71172 182.0375 79.287891 194.75 66.337891 C 205.9125 74.637891 223.12578 67.975781 227.61328 55.113281 z M 327.84961 55.537109 C 333.42461 66.412109 350.52422 75.200781 362.44922 66.238281 C 368.18672 77.663281 372.23828 94.062891 361.30078 103.77539 C 354.87578 110.41289 342.72578 109.88672 336.86328 103.82422 C 337.87578 99.974219 332.85039 98.1125 329.83789 99.875 C 320.40039 103.7625 308.26328 95.699219 308.36328 85.511719 C 306.22578 72.099219 317.36211 61.674609 327.84961 55.537109 z M 287.46289 63.650391 C 294.98789 70.512891 299.9125 88.188281 287.75 92.675781 C 283.9125 96.113281 282.08672 102.32539 277.69922 104.52539 C 272.96172 99.025391 269.76328 91.688281 262.48828 89.050781 C 259.75078 80.413281 262.03672 70.911719 267.94922 64.074219 C 273.48672 66.786719 272.73789 79.988281 278.58789 83.488281 C 282.48789 77.313281 283.73789 69.837891 287.46289 63.650391 z M 252.33789 90.912109 C 269.43789 95.787109 283.68789 117.56172 272.90039 134.07422 C 263.15039 145.03672 246.61172 144.15 235.01172 136.4375 C 229.53672 148.3125 219.52461 158.48828 205.22461 157.23828 C 185.27461 152.80078 182.21289 123.9375 193.58789 110.25 C 201.57539 113.8875 210.9625 114.43711 218.875 110.47461 C 224.4 110.72461 230.38672 130.91328 231.76172 116.61328 C 226.27422 101.03828 250.23789 104.76211 252.33789 90.912109 z M 300.95508 91.925781 C 307.03949 92.042877 311.32422 104.5293 319.94922 104.97461 C 330.18672 104.64961 319.61172 120.12461 326.94922 122.28711 C 330.52422 118.63711 332.575 111.88711 337.375 110.47461 C 345.6625 114.78711 355.26289 113.4125 363.71289 110.125 C 372.48789 125.2125 371.625 150.05 352.9375 156.875 C 338.3 160.0625 326.4875 148.73672 321.25 136.44922 C 309.75 144.03672 292.98828 145.19922 283.36328 134.07422 C 273.15078 118.58672 285.13789 99.686719 299.71289 92.074219 C 300.13633 91.964844 300.54945 91.917975 300.95508 91.925781 z M 165 97.462891 C 174.15 98.850391 181.1125 105.51328 184.8125 113.80078 C 180.325 120.42578 182.85078 128.52422 181.23828 135.88672 C 165.48828 133.48672 146.66211 129.36211 148.78711 108.91211 C 155.96211 110.96211 161.7 116.4 168.9375 118.4375 C 168.3 111.3375 166.3875 104.43789 165 97.462891 z M 389.28711 98.037109 C 394.73711 98.499609 384.94922 115.04922 388.26172 118.13672 C 395.11172 116.06172 400.55 110.63828 407.5 108.98828 C 409.3125 129.22578 391.36328 134.7375 374.98828 135.8125 C 373.42578 128.475 375.9125 120.40078 371.4375 113.80078 C 375.025 106.43828 380.82461 99.487109 389.28711 98.037109 z M 64.787109 101.65039 C 71.699609 103.48789 78.462109 106.17539 85.162109 108.83789 C 75.312109 119.87539 65.587109 114.73789 64.787109 101.65039 z M 490.47461 101.77539 C 492.66211 111.33789 481.08789 122.08789 471.90039 109.33789 C 474.30039 106.47539 484.93711 104.36289 490.47461 101.77539 z M 104.625 104.34961 C 120.325 109.01211 139.44922 113.37422 146.51172 129.63672 C 134.07422 114.68672 104.325 129.41211 104.625 104.34961 z M 450.82422 104.67578 C 450.73672 107.96328 449.28789 123.39922 439.52539 119.88672 C 428.40039 118.56172 418.39961 123.25039 409.72461 129.65039 C 416.61211 113.61289 435.52422 109.42578 450.82422 104.67578 z M 469.65234 116.20117 C 487.00827 116.576 486.67188 147.65664 467.30078 148.80078 C 448.18828 150.88828 442.99922 119.69922 463.69922 117.13672 C 465.87187 116.45117 467.8569 116.1624 469.65234 116.20117 z M 88.572266 116.625 C 97.016699 116.83726 106.16406 122.34453 106 131.48828 C 109.175 144.80078 88.962891 154.7875 80.275391 144.8125 C 70.350391 137.9625 69.587891 116.57578 85.025391 116.86328 C 86.173828 116.67266 87.365918 116.59468 88.572266 116.625 z M 59.990234 117.32617 C 69.440747 117.44375 70.033203 127.01797 65.275391 134.92578 C 63.362891 129.71328 49.436719 121.11172 55.386719 117.88672 C 57.108594 117.48516 58.640161 117.30938 59.990234 117.32617 z M 494.42773 117.66016 C 495.41764 117.62575 496.55234 117.69336 497.84961 117.875 C 510.68711 117.45 492.8625 129.98672 490.875 135.01172 C 488.84727 127.7957 484.85861 117.99274 494.42773 117.66016 z M 437.00781 124.94141 C 448.86474 124.75497 440.6168 144.07188 452.61328 149.72461 C 455.07578 155.83711 468.575 150.40039 465.1875 158.90039 C 463.3375 175.30039 444.625 191.59961 429.0625 180.97461 C 426.6625 177.18711 421.39961 171.98828 424.53711 167.42578 C 423.07461 159.86328 413.28789 163.70039 410.90039 156.46289 C 401.31289 142.12539 417.46172 124.28711 432.63672 125.66211 C 434.33828 125.18867 435.78123 124.96069 437.00781 124.94141 z M 119.41016 125.49805 C 129.72439 125.25281 140.71016 128.36445 145.67578 138.08789 C 152.12578 146.98789 146.08672 162.35078 134.88672 162.73828 C 130.08672 167.85078 134.12578 176.8125 126.42578 181.4375 C 109.10078 192.65 89.600391 171.37539 90.962891 154.46289 C 108.05039 155.38789 111.35078 134.40078 115.05078 125.80078 C 116.47734 125.63828 117.93669 125.53308 119.41016 125.49805 z M 277.71289 135.59961 C 284.53789 143.21211 294.78672 150.29922 306.13672 146.19922 C 300.22422 154.89922 303.87422 165.6 304.63672 175.125 C 288.92422 187.775 267.32578 187.775 251.61328 175.125 C 252.40078 165.5875 255.97539 154.93672 250.15039 146.19922 C 260.90039 149.59922 271.68789 144.53711 277.71289 135.59961 z M 397.79102 137.60352 C 407.78513 137.9821 400.19609 154.97969 408.48828 161.1875 C 417.77578 166.4875 394.3625 181.10039 407.5625 177.58789 C 422.0625 168.53789 425.54961 191.925 440.41211 189.9375 C 440.01211 207.675 424.33672 228.55 404.44922 222.1875 C 390.18672 216.1 389.55039 199.82578 390.65039 186.61328 C 376.52539 185.91328 361.59961 175.81211 362.03711 160.53711 C 364.79961 145.51211 380.26289 138.65078 394.08789 138.05078 C 395.53516 137.70391 396.75714 137.56435 397.79102 137.60352 z M 159.13867 137.91016 C 159.48929 137.918 159.85938 137.94414 160.25 137.98828 C 175.175 137.46328 192.72461 145.99961 194.41211 162.34961 C 193.14961 177.31211 179.03789 185.56289 165.40039 186.71289 C 168.16289 200.92539 163.76172 223.1 145.44922 222.8125 C 127.32422 224.6375 116.72539 204.93789 115.96289 189.46289 C 130.61289 192.71289 133.88711 168.81328 147.72461 177.23828 C 162.81211 181.95078 137.8875 166.27461 148.0625 160.47461 C 156.0668 154.41992 148.26946 137.66715 159.13867 137.91016 z M 315.63477 144.89844 C 328.76492 144.42497 317.65313 161.65 311.9375 166.32422 C 310.225 159.63672 310.07461 151.125 314.28711 145 C 314.76211 144.94688 315.21121 144.91371 315.63477 144.89844 z M 239.57812 145.22852 C 247.3168 145.48564 244.63867 160.08008 245.03711 165.78711 C 240.31211 164.24961 228.16172 147.3875 237.88672 145.375 C 238.49922 145.25781 239.06221 145.21137 239.57812 145.22852 z M 226.77539 154.15039 C 230.57539 160.45039 235.89922 170.93711 243.32422 176.84961 C 240.84922 196.39961 221.525 210.92422 201.8125 208.07422 C 195.6375 201.09922 192.38828 190.02578 184.17578 186.30078 C 193.57578 182.17578 199.55039 171.6125 199.71289 160.9375 C 208.87539 164.6125 221.27539 162.93789 226.77539 154.15039 z M 327.61328 154.1875 C 334.67578 160.35 346.21211 166.0125 356.53711 160.9375 C 356.69961 171.6125 362.67422 182.17578 372.07422 186.30078 C 363.86172 190.02578 360.6125 201.09922 354.4375 208.07422 C 334.55 210.93672 316.71211 196.875 312.66211 177.75 C 317.47461 170.075 327.28828 164.4625 327.61328 154.1875 z M 76.5625 154.30078 C 91.95 157.82578 89.024609 182.32422 104.78711 187.69922 C 86.912109 184.98672 76.799609 168.95 67.912109 155 C 70.812109 155.575 74.0625 156.25078 76.5625 154.30078 z M 478.83789 154.41211 C 481.88789 154.88711 484.84961 157.05 488.34961 155 C 479.76211 167.975 467.87578 187.57539 451.55078 186.65039 C 468.71328 182.66289 463.78789 158.17461 478.83789 154.41211 z M 254.55078 186.35547 C 279.45065 186.34324 275.18633 218.92773 272.63672 235.48828 C 257.03672 244.98828 251.63672 221.325 242.44922 213.6875 C 234.49922 204.275 243.63711 193.14961 250.66211 186.59961 C 252.03145 186.43555 253.3262 186.35607 254.55078 186.35547 z M 301.67188 186.48633 C 302.13763 186.4934 302.60938 186.51523 303.08789 186.55078 C 312.33789 189.50078 321.63828 204.59922 313.80078 213.69922 C 307.08828 221.62422 301.59922 232.0375 293.57422 238.25 C 278.59922 239.175 282.7875 223.05039 281.9375 212.77539 C 279.00703 199.51563 287.23356 186.26722 301.67188 186.48633 z M 175.32422 190.22461 C 183.69922 190.91211 186.5 201.07578 191.0625 206.48828 C 184.7375 205.06328 163.71172 199.51211 175.32422 190.22461 z M 379.09961 190.40039 C 394.03711 195.72539 372.6375 207.03828 365.1875 206.48828 C 369.4625 201.13828 372.01211 192.86289 379.09961 190.40039 z M 97.978516 193.73047 C 110.89539 193.40703 115.34687 208.91133 120.98828 218.6875 C 114.16328 221.725 106.64961 223.54922 100.91211 228.57422 C 92.062109 227.81172 83.300391 222.37422 79.650391 214.19922 C 86.687891 215.58672 93.663281 213.15039 100.61328 212.33789 C 100.87578 206.65039 75.3875 195.25078 93.6875 194.36328 C 95.215625 193.96719 96.642287 193.76393 97.978516 193.73047 z M 463.62891 194.05859 C 466.56641 194.14922 469.1375 194.8 469.875 197.1875 C 465.875 202.675 459.3125 206.17422 455.125 211.69922 C 461.975 213.03672 469.35039 215.35078 476.58789 214.23828 C 469.07539 233.03828 446.96172 226.9875 435.63672 217.875 C 442.53672 210.25 442.725 195.27461 455.1875 194.28711 C 457.3875 194.43711 460.69141 193.96797 463.62891 194.05859 z M 170.13672 204.8125 C 177.16172 211.8875 186.86289 213.2875 196.08789 215.0625 C 205.00039 232.525 197.66289 255.67461 179.83789 264.66211 C 171.02539 260.84961 161.84961 257.24922 152.22461 256.82422 C 160.14961 249.77422 157.03672 236.04961 151.01172 228.59961 C 161.11172 224.22461 168.96172 216.325 170.13672 204.8125 z M 385.55078 205.41211 C 388.15078 214.43711 393.80078 224.81211 404.55078 227.91211 C 401.51328 236.33711 395.41289 249.025 403.77539 257.125 C 393.83789 256.225 385.27461 261.54961 376.41211 264.66211 C 358.54961 255.71211 351.29961 232.33711 360.22461 215.09961 C 369.39961 214.26211 378.35078 211.38711 385.55078 205.41211 z M 224.98633 212.47656 C 237.60889 212.71907 242.91328 229.58047 250.44922 238.36328 C 255.66172 243.22578 252.08828 250.34922 247.23828 253.57422 C 234.38828 250.34922 220.0125 249.225 209.4375 240.375 C 203.975 231.0625 204.49961 212.82539 219.09961 213.46289 C 221.2293 212.74727 223.18311 212.44192 224.98633 212.47656 z M 327.09961 212.90039 C 333.81211 213.05039 342.07461 213.05078 347.66211 217.48828 C 353.58711 229.15078 347.84922 245.85078 333.69922 247.48828 C 323.03672 247.48828 306.5 261.96328 302.6875 244.92578 C 308.55 233.10078 316.14961 220.13789 327.09961 212.90039 z M 128.9043 223.92188 C 139.59674 223.73135 151.43242 231.40352 150.66211 243.16211 C 153.61211 254.33711 143.55 262.30078 137.8125 269.80078 C 148.2625 278.08828 155.49961 292.93789 148.16211 305.58789 C 135.99961 321.28789 110.3875 314.85078 100.1875 300.23828 C 107.9125 294.67578 108.34961 283.60039 109.97461 275.33789 C 113.11211 272.33789 129.57578 270.27422 118.98828 267.32422 C 103.10078 265.69922 111.6625 245.225 99.9375 237.5625 C 107.1 230.9875 115.54922 224.76328 125.63672 224.23828 C 126.70312 224.04609 127.79818 223.94158 128.9043 223.92188 z M 427.91406 223.97266 C 438.80918 223.99026 449.59844 230.11172 456.0625 238.51172 C 448.35 244.07422 447.90039 255.13711 446.27539 263.41211 C 443.13789 266.41211 426.67422 268.47578 437.26172 271.42578 C 452.94922 272.91328 444.62539 292.77461 455.71289 300.53711 C 446.73789 314.43711 418.8125 321.90078 407.5625 304.67578 C 400.75 291.07578 409.2625 277.97422 418.4375 268.94922 C 401.4 258.53672 399.7125 226.79961 423.25 224.34961 C 424.79844 224.0918 426.35762 223.97014 427.91406 223.97266 z M 71.599609 229.17578 C 76.699609 231.18828 86.55 229.19922 88.4375 234.51172 C 69.775 226.79922 56.275 259.02578 41.9375 239.05078 C 47.9375 233.81328 62.162109 231.26328 71.599609 229.17578 z M 481.88672 229.375 C 493.31172 229.2375 504.48672 234.0625 515.01172 238.4375 C 510.89922 241.975 506.12422 246.8625 500.57422 246.75 C 492.06172 237.95 480.175 232.98789 467.8125 234.46289 C 468.9 229.08789 477.73672 232.0875 481.88672 229.375 z M 85.521484 238.34961 C 100.35164 238.17117 111.8543 259.63711 97.886719 268.9375 C 112.18672 279.3625 99.450391 304.23828 81.587891 299.86328 C 74.275391 297.91328 53.086719 290.94922 63.574219 281.07422 C 70.836719 272.07422 66.038281 259.22539 60.050781 251.21289 C 65.088281 245.58789 73.025391 240.36172 80.837891 239.13672 C 82.41875 238.61758 83.987331 238.36807 85.521484 238.34961 z M 470.32031 238.82031 C 481.88742 238.63196 503.80273 248.16836 491.51172 259.22461 C 485.93672 268.52461 490.58672 279.76211 496.19922 287.53711 C 487.18672 298.54961 466.44922 306.17578 455.94922 292.73828 C 449.22422 285.51328 451.97578 274.425 458.36328 268.9375 C 446.11328 261.15 453.32578 240.83672 467.11328 239.19922 C 468.03906 238.9625 469.12371 238.8398 470.32031 238.82031 z M 278.22461 241.21484 A 28.378284 28.378284 0 0 1 299.77344 251.17969 C 300.33236 251.72494 300.81899 252.34741 301.22266 253.0293 A 28.378284 28.378284 0 0 1 306.60156 269.59375 A 28.378284 28.378284 0 0 1 278.22461 297.9707 A 28.378284 28.378284 0 0 1 249.8457 269.59375 A 28.378284 28.378284 0 0 1 278.22461 241.21484 z M 208.98828 251.76172 C 220.33828 257.61172 249.35078 255.65039 244.42578 274.90039 C 229.11328 280.17539 207.275 296.21211 195.625 277.97461 C 184.1 268.99961 198.61328 252.77422 208.98828 251.76172 z M 346.47461 251.96289 C 356.57461 252.01289 372.6625 268.77461 360.5625 277.91211 C 349.25 296.97461 327.8375 279.61211 312.5 275.41211 C 305.2375 256.63711 335.44961 257.28789 346.47461 251.96289 z M 528.83789 252.5 C 535.28789 256.0625 543.275 255.425 548.75 259.875 C 540.2375 268.9625 529.88789 266.3625 528.83789 252.5 z M 509.02344 252.89453 C 520.96242 253.13298 537.08203 267.30859 525.19922 277.55078 C 518.64922 287.11328 503.40039 288.48828 496.83789 278.11328 C 489.57539 268.66328 497.28672 256.81211 506.69922 253.03711 C 507.44844 252.92383 508.22751 252.87863 509.02344 252.89453 z M 25.511719 252.92578 C 29.774219 252.92578 22.787109 262.80078 20.724609 266.05078 C 15.662109 266.67578 11.7625 262 7.5 259.875 C 12.2375 255.1125 19.961719 257.11328 25.511719 252.92578 z M 48.724609 252.96289 C 60.174609 255.82539 67.850391 272.53828 56.775391 280.55078 C 47.675391 292.25078 28.175 281.41211 26.4375 268.91211 C 29.2625 259.09961 38.749609 253.05039 48.724609 252.96289 z M 151.40039 263.75977 C 152.07542 263.75481 152.86953 263.8793 153.80078 264.16211 C 159.28828 265.29961 167.24961 266.47461 170.84961 269.84961 C 163.46211 271.69961 156.20039 276.27539 148.40039 273.90039 C 147.77695 270.22539 146.67522 263.79446 151.40039 263.75977 z M 403.05469 263.76953 C 408.31272 263.39373 409.51211 268.93477 407.84961 273.90039 C 400.04961 276.27539 392.77539 271.69961 385.40039 269.84961 C 388.30039 266.38711 396.13828 266.5375 400.55078 264.3125 C 401.47109 263.99844 402.30354 263.82322 403.05469 263.76953 z M 536.45898 272.64258 C 541.06418 272.64899 544.74219 276.88281 548.75 278.875 C 543.275 283.325 535.28789 282.6875 528.83789 286.25 C 530.43789 281.475 532.43789 276.71172 535.52539 272.69922 C 535.84102 272.66016 536.15197 272.64215 536.45898 272.64258 z M 18.8125 272.75391 C 24.086683 272.81598 25.225781 282.21719 27.412109 286.25 C 18.337109 282.775 -1.3753906 280.25078 17.037109 273.05078 C 17.676953 272.84102 18.266895 272.74748 18.8125 272.75391 z M 375.5 274.1875 C 384.8 276.8875 393.98789 282.01328 404.02539 281.92578 C 395.26289 289.18828 400.81211 303.53672 404.53711 310.76172 C 394.28711 314.51172 387.51328 323.08672 386.05078 333.94922 C 379.28828 326.07422 368.39922 326.01211 359.26172 323.28711 C 352.19922 304.69961 358.4375 284.5125 375.5 274.1875 z M 178.92578 274.19922 C 197.53828 281.56172 205.04961 306.56289 196.03711 323.65039 C 186.61211 324.55039 177.30039 327.45 170.15039 333.9375 C 168.77539 323.0625 161.94922 314.46289 151.69922 310.83789 C 154.73672 302.40039 160.82461 289.725 152.47461 281.625 C 162.01211 282.25 170.53828 277.88672 178.92578 274.19922 z M 246.61719 285.33984 C 252.29652 285.46811 255.48438 295.44141 250.9375 299.625 C 241.9375 310.775 234.92461 333.13789 216.41211 324.52539 C 204.09961 324.41289 205.75 309.12422 207.75 300.88672 C 216.25 288.66172 232.98672 290.37422 245.44922 285.44922 C 245.84844 285.36563 246.23857 285.33129 246.61719 285.33984 z M 308.09961 285.42578 C 322.87461 288.97578 350.2875 289.18828 349.75 310.17578 C 353.4875 328.28828 322.53789 331.88711 316.96289 316.59961 C 312.30039 307.14961 295.73711 295.58828 308.09961 285.42578 z M 54.0625 291.86328 C 63.675 298.62578 75.0875 306.88711 88.4375 304.28711 C 76.4875 314.44961 55.413281 306.7375 41.238281 300.3125 C 45.013281 296.7875 49.0375 293.38828 54.0625 291.86328 z M 500.59961 291.98828 C 506.03711 291.83828 510.925 296.77578 515 300.30078 C 500.525 306.87578 481.61328 313.49961 467.80078 305.22461 C 478.13828 304.84961 492.49961 301.60078 500.59961 291.98828 z M 262.05078 300.65039 C 265.83828 300.71289 269.36172 301.57578 272.63672 303.23828 C 275.18672 320.66328 280.64961 355.58789 250.66211 352.15039 C 228.38711 337.00039 247.73828 314.10039 262.05078 300.65039 z M 293.59961 300.75 C 308.73711 313.2 327.85078 337.22422 305.55078 352.07422 C 279.83828 355.36172 279.11172 324.63789 283.51172 307.40039 C 280.58672 301.32539 289.42461 300.975 293.59961 300.75 z M 100.21289 310.46289 C 106.57539 314.35039 113.85078 317.3125 120.98828 320.0625 C 115.65078 334.9875 104.96289 350.8875 86.712891 343.4375 C 86.825391 336.125 97.7125 333.37578 101.125 327.05078 C 94.275 325.70078 86.899609 323.42578 79.662109 324.48828 C 83.324609 316.80078 91.450391 310.71289 100.21289 310.46289 z M 456.30469 310.57031 C 464.81918 310.70929 473.06055 316.92188 476.59961 324.55078 C 469.56211 323.16328 462.57422 325.59961 455.63672 326.41211 C 455.37422 332.08711 480.8625 343.49922 462.5625 344.38672 C 446.25 348.61172 441.4875 330.85 435.25 320.0625 C 441.775 317.05 449.12461 315.525 454.59961 310.625 C 455.16836 310.57891 455.73705 310.56105 456.30469 310.57031 z M 145.39453 315.4668 C 162.99367 315.81566 168.48242 337.35938 165.59961 352.13672 C 179.54961 352.91172 193.72422 362.32578 194.38672 377.30078 C 191.29922 395.95078 169.57422 403.2125 153.01172 399.875 C 156.01172 384.4125 138.67578 372.21328 153.67578 359.86328 C 137.00078 370.85078 131.60039 349.75 115.83789 348.8125 C 116.75039 334.45 125.90039 317.5 141.71289 315.6875 C 142.99492 315.51406 144.22126 315.44354 145.39453 315.4668 z M 410.25977 315.63477 C 411.39339 315.59494 412.57734 315.64766 413.8125 315.80078 C 430.6 316.58828 439.29961 334.67461 440.28711 349.28711 C 425.63711 346.03711 422.36289 369.93672 408.52539 361.51172 C 395.71289 356.74922 411.53789 369.05 410.71289 374.5625 C 404.56289 381.45 402.50078 390.82578 403.05078 399.86328 C 386.50078 403.53828 365.03711 395.72422 361.84961 377.32422 C 362.41211 361.98672 376.92461 353.11211 390.84961 352.03711 C 387.5918 337.61133 393.25536 316.23219 410.25977 315.63477 z M 349.90234 330.13867 C 360.9473 329.93376 360.70078 349.38711 372.1875 351.55078 C 364.375 357.01328 356.07461 366.35 356.53711 377.8125 C 346.21211 372.7375 334.66328 378.40078 327.61328 384.55078 C 327.38828 374.18828 317.33828 368.97539 312.61328 361.02539 C 316.85078 345.51289 328.61289 330.85 346.08789 330.875 C 347.49766 330.39219 348.75976 330.15987 349.90234 330.13867 z M 207.3418 330.30273 C 224.92301 330.48266 239.91758 343.66797 243.58789 361 C 238.77539 368.675 228.96172 374.2875 228.63672 384.5625 C 221.57422 378.4 210.03789 372.7375 199.71289 377.8125 C 199.55039 367.1375 193.57578 356.56172 184.17578 352.44922 C 192.38828 348.72422 195.6375 337.65078 201.8125 330.67578 C 203.67695 330.40625 205.52305 330.28412 207.3418 330.30273 z M 189.88672 332.16211 C 188.82422 338.52461 176.71172 356.34922 171.57422 343.44922 C 172.51172 335.59922 184.57422 335.64961 189.88672 332.16211 z M 365.1875 332.26172 C 370.95 334.07422 391.775 338.3625 381.625 347.9375 C 373.275 349.7 369.575 337.11172 365.1875 332.26172 z M 451.46289 351.05078 C 469.33789 353.76328 479.45039 369.7875 488.33789 383.75 C 465.32539 390.85 469.07539 357.73828 451.46289 351.05078 z M 103.34961 351.21484 C 104.72949 351.16797 105.39766 352.16836 103.17578 353.16211 C 85.575781 359.33711 90.675391 391.3125 67.900391 383.75 C 76.987891 370.9875 85.0625 355.16289 101.8125 351.65039 C 102.35 351.36289 102.88965 351.23047 103.34961 351.21484 z M 275.66211 353.25 C 286.09961 353.2125 295.88672 358.275 304.63672 363.625 C 303.84922 373.1625 300.27461 383.81328 306.09961 392.55078 C 294.68711 388.35078 284.60039 395.61289 277.71289 403.15039 C 271.75039 394.16289 260.78828 389.22578 250.11328 392.55078 C 256.02578 383.85078 252.37578 373.15 251.61328 363.625 C 258.93828 358.6625 267.14961 355.475 275.66211 353.25 z M 114.66406 353.91211 C 115.66964 353.90757 116.64961 354.04648 117.58789 354.34961 C 127.12539 354.29961 134.37539 364.67539 132.27539 372.83789 C 138.25039 378.73789 149.93672 380.5625 148.26172 392.625 C 146.84922 409.4875 125.75 417.04922 111.8125 411.57422 C 113.7 401.73672 109.03711 392.51289 101.03711 386.71289 C 78.572266 386.50195 99.580383 353.98022 114.66406 353.91211 z M 439.96289 354.125 C 454.94527 353.92606 465.69727 370.88086 465.28711 384.28711 C 451.86211 384.63711 441.29961 398.62422 444.59961 411.82422 C 428.07461 418.59922 401.66328 404.87578 409.48828 384.73828 C 411.02578 375.51328 421.48828 379.12461 424.30078 372.09961 C 421.67578 364.63711 428.86211 355.55039 436.91211 354.40039 C 437.94648 354.22852 438.96407 354.13826 439.96289 354.125 z M 244.3125 372.42578 C 247.0875 379.13828 246.2375 399.56172 234.0625 392.19922 C 234.1375 384.43672 239.1 377.73828 244.3125 372.42578 z M 311.21289 372.96289 C 317.10039 375.22539 321.87461 385.28672 322.22461 392.19922 C 309.99961 399.21172 310.10039 380.83789 311.21289 372.96289 z M 208.25 381.29102 C 220.75382 381.35943 230.25352 391.41445 235 402.30078 C 246.5 394.71328 263.26172 393.55078 272.88672 404.67578 C 283.71172 421.18828 269.43789 442.96289 252.33789 447.83789 C 250.23789 433.98789 226.27422 437.71172 231.76172 422.13672 C 230.38672 407.83672 224.4 428.02539 218.875 428.27539 C 210.5875 423.96289 200.98711 425.3375 192.53711 428.625 C 183.51211 413.3375 184.81289 387.62461 204.27539 381.59961 C 205.63125 381.38281 206.9565 381.28394 208.25 381.29102 z M 346.7207 381.6543 C 347.12903 381.64639 347.54375 381.64883 347.96289 381.66211 C 370.13789 381.78711 374.89961 414.6125 362.66211 428.5 C 354.67461 424.8625 345.2875 424.31289 337.375 428.27539 C 331.85 428.02539 325.86328 407.83672 324.48828 422.13672 C 329.97578 437.71172 306.01211 433.98789 303.91211 447.83789 C 286.81211 442.96289 272.56211 421.18828 283.34961 404.67578 C 293.09961 393.71328 309.62578 394.5875 321.23828 402.3125 C 326.5543 392.16484 334.06257 381.89956 346.7207 381.6543 z M 90.400391 389.52539 C 97.925391 391.33789 107.65078 396.20039 105.98828 405.52539 C 107.43828 421.35039 83.2625 427.73828 73.875 416.42578 C 70.5125 404.63828 77.600391 390.08789 90.400391 389.52539 z M 465.08789 389.58789 C 478.02539 389.58789 485.82461 403.75078 482.47461 415.73828 C 474.72461 427.07578 450.3 422.77422 450.25 407.26172 C 447.7875 397.56172 457.08789 391.66289 465.08789 389.58789 z M 375.01172 402.86328 C 390.76172 405.26328 409.57539 409.38789 407.46289 429.83789 C 400.28789 427.78789 394.5375 422.3375 387.3125 420.3125 C 387.95 427.4125 389.85 434.31211 391.25 441.28711 C 382.1 439.89961 375.1375 433.22422 371.4375 424.94922 C 375.925 418.32422 373.39922 410.22578 375.01172 402.86328 z M 180.32422 403.07422 C 183.71172 408.61172 179.875 418.47422 184.8125 424.94922 C 181.1125 433.22422 174.16172 439.90039 165.01172 441.27539 C 166.16172 434.25039 168.09961 427.36211 168.91211 420.28711 C 161.68711 422.29961 155.975 427.96172 148.75 429.76172 C 147.025 410.08672 164.09922 403.97422 180.32422 403.07422 z M 65.375 403.73828 C 72.5625 415.23828 65.674219 424.78711 52.574219 420.03711 C 56.136719 414.14961 61.25 409.26328 65.375 403.73828 z M 490.07422 404.21289 C 495.14922 406.92539 499.70078 414.74961 503.67578 420.03711 C 491.20078 424.48711 483.61172 415.97539 490.07422 404.21289 z M 409.73828 409.11328 C 422.17578 424.06328 451.925 409.33789 451.625 434.40039 C 435.925 429.73789 416.80078 425.37578 409.73828 409.11328 z M 145.6875 409.48828 C 142.6 423.02578 117.13828 431.93789 104.80078 433.52539 C 104.96328 410.03789 134.1875 424.73828 145.6875 409.48828 z M 71.375 422.66211 C 76.1 424.79961 80.749609 427.1875 85.162109 429.9375 C 78.112109 431.8125 71.825781 435.42539 64.800781 437.08789 C 65.588281 431.86289 68.0125 426.71211 71.375 422.66211 z M 484.05078 423.01172 C 488.36328 424.76172 490.40039 432.27461 491.46289 437.09961 C 484.55039 435.26211 477.78789 432.57461 471.08789 429.91211 C 475.23789 427.32461 479.63828 425.13672 484.05078 423.01172 z M 208.7168 429.51953 C 217.63394 429.32761 219.20273 442.71211 228.84961 438.16211 C 237.78711 436.32461 247.99922 443.91328 247.88672 453.23828 C 250.03672 466.96328 238.41328 477.57578 227.61328 483.61328 C 223.01328 471.23828 205.7 463.83789 194.75 472.46289 C 184.8 460.95039 184.85039 433.20039 204.40039 430.52539 C 206.01914 429.85195 207.44292 429.54695 208.7168 429.51953 z M 349.95703 430.10938 C 369.0864 430.55748 372.86211 460.64668 361.5 472.41211 C 350.3375 464.11211 333.12422 470.77422 328.63672 483.63672 C 317.94922 477.58672 306.22578 466.82578 308.36328 453.23828 C 308.23828 443.37578 319.75039 435.33672 329.02539 438.63672 C 338.53789 442.42422 335.69922 430.52461 344.76172 430.66211 C 346.60352 430.24512 348.3359 430.0714 349.95703 430.10938 z M 277.69922 434.22461 C 283.42422 438.33711 286.01172 447.33672 293.76172 449.69922 C 296.48672 458.46172 294.28789 468.87461 287.46289 475.09961 C 283.31289 469.16211 282.97461 459.63672 277.66211 455.26172 C 273.74961 461.42422 272.51211 468.89961 268.78711 475.09961 C 261.26211 468.23711 256.325 450.56172 268.5 446.07422 C 271.9625 442.44922 274.28672 437.89961 277.69922 434.22461 z M 369.75 437.5 C 383.8875 448.4125 380.91289 469.06328 382.02539 485.23828 C 377.07539 483.11328 371.13672 480.07461 368.82422 474.78711 C 373.58672 463.06211 375.95 449.1875 369.75 437.5 z M 185.58789 437.94922 C 185.12539 443.91172 179.86328 457.90039 184.86328 466.46289 C 192.06328 475.43789 181.63711 482.82422 174.09961 485.13672 C 175.17461 468.97422 172.37539 449.62422 185.58789 437.94922 z M 302.40039 460.03711 C 306.70039 471.41211 313.44922 483.35 325.76172 488.1875 C 325.54922 493.8375 323.81211 500.46172 320.91211 505.38672 C 313.77461 491.38672 297.66289 477.58711 302.40039 460.03711 z M 253.05078 460.58789 C 260.11328 474.03789 241.89922 494.45078 234.82422 504.80078 C 232.67422 499.76328 230.38828 493.7 230.48828 488.1875 C 241.95078 483.1125 250.00078 472.61289 253.05078 460.58789 z M 350.4082 474.10156 C 367.58002 474.61673 370.70312 499.71094 356.6875 509.07422 C 335.825 513.47422 323.73711 478.87539 346.78711 474.33789 C 348.05586 474.1418 349.26342 474.06722 350.4082 474.10156 z M 207.60156 474.20703 C 222.80298 474.04041 228.51172 498.06055 213.6875 505.15039 C 191.95 523.18789 179.65 475.44922 204.4375 474.57422 C 205.53203 474.33594 206.58813 474.21814 207.60156 474.20703 z M 370.3125 502.61328 C 373.4125 508.81328 370.25 516.55 372.25 523.6875 C 358.7875 519.6375 359.475 509.51328 370.3125 502.61328 z M 185.17578 503.125 C 196.20078 507.4875 198.1625 520.2125 184 523.6875 C 185.45 516.6125 183.88828 509.8875 185.17578 503.125 z M 343.47852 512.08594 C 354.08916 511.79074 358.02461 522.56797 351.48828 529.86328 C 348.13828 523.67578 342.67461 518.81328 339.97461 512.55078 C 341.21094 512.26719 342.38086 512.11647 343.47852 512.08594 z M 212.09961 512.78906 C 212.80339 512.80111 213.5375 512.84687 214.30078 512.92578 C 217.47578 515.32578 206.975 525.7625 203.5 530.3125 C 197.76953 519.8125 201.54285 512.60829 212.09961 512.78906 z " transform="scale(0.8,0.8)" id="path4138"/>
</svg>