<?xml version="1.0" encoding="UTF-8" standalone="no"?>
<!-- Created with Inkscape (http://www.inkscape.org/) -->

<svg
   xmlns:dc="http://purl.org/dc/elements/1.1/"
   xmlns:cc="http://creativecommons.org/ns#"
   xmlns:rdf="http://www.w3.org/1999/02/22-rdf-syntax-ns#"
   xmlns:svg="http://www.w3.org/2000/svg"
   xmlns="http://www.w3.org/2000/svg"
   xmlns:xlink="http://www.w3.org/1999/xlink"
   xmlns:sodipodi="http://sodipodi.sourceforge.net/DTD/sodipodi-0.dtd"
   xmlns:inkscape="http://www.inkscape.org/namespaces/inkscape"
   width="128"
   height="128"
   id="svg2"
   version="1.1"
   inkscape:version="0.48.3.1 r9886"
   sodipodi:docname="BuildProject.svg">
  <defs
     id="defs4">
    <linearGradient
       inkscape:collect="always"
       id="linearGradient4544">
      <stop
         style="stop-color:#800000;stop-opacity:1;"
         offset="0"
         id="stop4546" />
      <stop
         style="stop-color:#800000;stop-opacity:0;"
         offset="1"
         id="stop4548" />
    </linearGradient>
    <linearGradient
       inkscape:collect="always"
       id="linearGradient4400">
      <stop
         style="stop-color:#1a1a1a;stop-opacity:1;"
         offset="0"
         id="stop4402" />
      <stop
         style="stop-color:#1a1a1a;stop-opacity:0;"
         offset="1"
         id="stop4404" />
    </linearGradient>
    <linearGradient
       inkscape:collect="always"
       id="linearGradient4392">
      <stop
         style="stop-color:#ffffff;stop-opacity:1;"
         offset="0"
         id="stop4394" />
      <stop
         style="stop-color:#ffffff;stop-opacity:0;"
         offset="1"
         id="stop4396" />
    </linearGradient>
    <linearGradient
       inkscape:collect="always"
       id="linearGradient4382">
      <stop
         style="stop-color:#333333;stop-opacity:1;"
         offset="0"
         id="stop4384" />
      <stop
         style="stop-color:#333333;stop-opacity:0;"
         offset="1"
         id="stop4386" />
    </linearGradient>
    <linearGradient
       inkscape:collect="always"
       id="linearGradient4344">
      <stop
         style="stop-color:#4d4d4d;stop-opacity:1;"
         offset="0"
         id="stop4346" />
      <stop
         style="stop-color:#4d4d4d;stop-opacity:0;"
         offset="1"
         id="stop4348" />
    </linearGradient>
    <linearGradient
       inkscape:collect="always"
       id="linearGradient4132">
      <stop
         style="stop-color:#ffffff;stop-opacity:1;"
         offset="0"
         id="stop4134" />
      <stop
         style="stop-color:#ffffff;stop-opacity:0;"
         offset="1"
         id="stop4136" />
    </linearGradient>
    <linearGradient
       inkscape:collect="always"
       id="linearGradient4124">
      <stop
         style="stop-color:#800000;stop-opacity:1;"
         offset="0"
         id="stop4126" />
      <stop
         style="stop-color:#800000;stop-opacity:0;"
         offset="1"
         id="stop4128" />
    </linearGradient>
    <linearGradient
       inkscape:collect="always"
       id="linearGradient4098">
      <stop
         style="stop-color:#000080;stop-opacity:1;"
         offset="0"
         id="stop4100" />
      <stop
         style="stop-color:#000080;stop-opacity:0;"
         offset="1"
         id="stop4102" />
    </linearGradient>
    <linearGradient
       inkscape:collect="always"
       id="linearGradient4090">
      <stop
         style="stop-color:#ffffff;stop-opacity:1;"
         offset="0"
         id="stop4092" />
      <stop
         style="stop-color:#ffffff;stop-opacity:0;"
         offset="1"
         id="stop4094" />
    </linearGradient>
    <linearGradient
       inkscape:collect="always"
       id="linearGradient3792">
      <stop
         style="stop-color:#000000;stop-opacity:1;"
         offset="0"
         id="stop3794" />
      <stop
         style="stop-color:#000000;stop-opacity:0;"
         offset="1"
         id="stop3796" />
    </linearGradient>
    <linearGradient
       inkscape:collect="always"
       id="linearGradient3784">
      <stop
         style="stop-color:#ffffff;stop-opacity:1;"
         offset="0"
         id="stop3786" />
      <stop
         style="stop-color:#ffffff;stop-opacity:0;"
         offset="1"
         id="stop3788" />
    </linearGradient>
    <radialGradient
       inkscape:collect="always"
       xlink:href="#linearGradient3784-3"
       id="radialGradient3790-1"
       cx="93.944183"
       cy="40.11673"
       fx="93.944183"
       fy="40.11673"
       r="7.274653"
       gradientUnits="userSpaceOnUse" />
    <linearGradient
       inkscape:collect="always"
       id="linearGradient3784-3">
      <stop
         style="stop-color:#ffffff;stop-opacity:1;"
         offset="0"
         id="stop3786-8" />
      <stop
         style="stop-color:#ffffff;stop-opacity:0;"
         offset="1"
         id="stop3788-7" />
    </linearGradient>
    <radialGradient
       inkscape:collect="always"
       xlink:href="#linearGradient3792-3"
       id="radialGradient3798-9"
       cx="93.944183"
       cy="40.11673"
       fx="93.944183"
       fy="40.11673"
       r="6.5659914"
       gradientUnits="userSpaceOnUse" />
    <linearGradient
       inkscape:collect="always"
       id="linearGradient3792-3">
      <stop
         style="stop-color:#000000;stop-opacity:1;"
         offset="0"
         id="stop3794-8" />
      <stop
         style="stop-color:#000000;stop-opacity:0;"
         offset="1"
         id="stop3796-8" />
    </linearGradient>
    <radialGradient
       inkscape:collect="always"
       xlink:href="#linearGradient3784"
       id="radialGradient3860"
       gradientUnits="userSpaceOnUse"
       cx="93.944183"
       cy="40.11673"
       fx="93.944183"
       fy="40.11673"
       r="7.2746528" />
    <radialGradient
       inkscape:collect="always"
       xlink:href="#linearGradient3792"
       id="radialGradient3862"
       gradientUnits="userSpaceOnUse"
       cx="93.944183"
       cy="40.11673"
       fx="93.944183"
       fy="40.11673"
       r="6.5659914" />
    <radialGradient
       r="7.274653"
       fy="40.11673"
       fx="93.944183"
       cy="40.11673"
       cx="93.944183"
       gradientUnits="userSpaceOnUse"
       id="radialGradient3825-8"
       xlink:href="#linearGradient3784-3-5"
       inkscape:collect="always" />
    <linearGradient
       inkscape:collect="always"
       id="linearGradient3784-3-5">
      <stop
         style="stop-color:#ffffff;stop-opacity:1;"
         offset="0"
         id="stop3786-8-2" />
      <stop
         style="stop-color:#ffffff;stop-opacity:0;"
         offset="1"
         id="stop3788-7-8" />
    </linearGradient>
    <radialGradient
       r="6.5659914"
       fy="40.11673"
       fx="93.944183"
       cy="40.11673"
       cx="93.944183"
       gradientUnits="userSpaceOnUse"
       id="radialGradient3827-3"
       xlink:href="#linearGradient3792-3-6"
       inkscape:collect="always" />
    <linearGradient
       inkscape:collect="always"
       id="linearGradient3792-3-6">
      <stop
         style="stop-color:#000000;stop-opacity:1;"
         offset="0"
         id="stop3794-8-7" />
      <stop
         style="stop-color:#000000;stop-opacity:0;"
         offset="1"
         id="stop3796-8-8" />
    </linearGradient>
    <radialGradient
       r="7.274653"
       fy="40.11673"
       fx="93.944183"
       cy="40.11673"
       cx="93.944183"
       gradientUnits="userSpaceOnUse"
       id="radialGradient3885-6"
       xlink:href="#linearGradient3784-3-5-2"
       inkscape:collect="always" />
    <linearGradient
       inkscape:collect="always"
       id="linearGradient3784-3-5-2">
      <stop
         style="stop-color:#ffffff;stop-opacity:1;"
         offset="0"
         id="stop3786-8-2-9" />
      <stop
         style="stop-color:#ffffff;stop-opacity:0;"
         offset="1"
         id="stop3788-7-8-7" />
    </linearGradient>
    <radialGradient
       r="6.5659914"
       fy="40.11673"
       fx="93.944183"
       cy="40.11673"
       cx="93.944183"
       gradientUnits="userSpaceOnUse"
       id="radialGradient3887-0"
       xlink:href="#linearGradient3792-3-6-3"
       inkscape:collect="always" />
    <linearGradient
       inkscape:collect="always"
       id="linearGradient3792-3-6-3">
      <stop
         style="stop-color:#000000;stop-opacity:1;"
         offset="0"
         id="stop3794-8-7-7" />
      <stop
         style="stop-color:#000000;stop-opacity:0;"
         offset="1"
         id="stop3796-8-8-2" />
    </linearGradient>
    <radialGradient
       inkscape:collect="always"
       xlink:href="#linearGradient3784-35"
       id="radialGradient3860-3"
       gradientUnits="userSpaceOnUse"
       cx="93.944183"
       cy="40.11673"
       fx="93.944183"
       fy="40.11673"
       r="7.274653" />
    <linearGradient
       inkscape:collect="always"
       id="linearGradient3784-35">
      <stop
         style="stop-color:#ffffff;stop-opacity:1;"
         offset="0"
         id="stop3786-0" />
      <stop
         style="stop-color:#ffffff;stop-opacity:0;"
         offset="1"
         id="stop3788-1" />
    </linearGradient>
    <radialGradient
       inkscape:collect="always"
       xlink:href="#linearGradient3792-5"
       id="radialGradient3862-4"
       gradientUnits="userSpaceOnUse"
       cx="93.944183"
       cy="40.11673"
       fx="93.944183"
       fy="40.11673"
       r="6.5659914" />
    <linearGradient
       inkscape:collect="always"
       id="linearGradient3792-5">
      <stop
         style="stop-color:#000000;stop-opacity:1;"
         offset="0"
         id="stop3794-7" />
      <stop
         style="stop-color:#000000;stop-opacity:0;"
         offset="1"
         id="stop3796-0" />
    </linearGradient>
    <radialGradient
       r="7.274653"
       fy="40.11673"
       fx="93.944183"
       cy="40.11673"
       cx="93.944183"
       gradientUnits="userSpaceOnUse"
       id="radialGradient3825-4"
       xlink:href="#linearGradient3784-3-6"
       inkscape:collect="always" />
    <linearGradient
       inkscape:collect="always"
       id="linearGradient3784-3-6">
      <stop
         style="stop-color:#ffffff;stop-opacity:1;"
         offset="0"
         id="stop3786-8-4" />
      <stop
         style="stop-color:#ffffff;stop-opacity:0;"
         offset="1"
         id="stop3788-7-5" />
    </linearGradient>
    <radialGradient
       r="6.5659914"
       fy="40.11673"
       fx="93.944183"
       cy="40.11673"
       cx="93.944183"
       gradientUnits="userSpaceOnUse"
       id="radialGradient3827-5"
       xlink:href="#linearGradient3792-3-5"
       inkscape:collect="always" />
    <linearGradient
       inkscape:collect="always"
       id="linearGradient3792-3-5">
      <stop
         style="stop-color:#000000;stop-opacity:1;"
         offset="0"
         id="stop3794-8-6" />
      <stop
         style="stop-color:#000000;stop-opacity:0;"
         offset="1"
         id="stop3796-8-0" />
    </linearGradient>
    <radialGradient
       inkscape:collect="always"
       xlink:href="#linearGradient4090"
       id="radialGradient4096"
       cx="93.944183"
       cy="40.11673"
       fx="93.944183"
       fy="40.11673"
       r="7.0659914"
       gradientUnits="userSpaceOnUse" />
    <radialGradient
       inkscape:collect="always"
       xlink:href="#linearGradient4098"
       id="radialGradient4104"
       cx="93.944183"
       cy="40.11673"
       fx="93.944183"
       fy="40.11673"
       r="7.0659914"
       gradientUnits="userSpaceOnUse" />
    <radialGradient
       inkscape:collect="always"
       xlink:href="#linearGradient4124"
       id="radialGradient4130"
       cx="93.944183"
       cy="40.11673"
       fx="93.944183"
       fy="40.11673"
       r="7.0659914"
       gradientUnits="userSpaceOnUse" />
    <radialGradient
       inkscape:collect="always"
       xlink:href="#linearGradient4132"
       id="radialGradient4138"
       cx="93.944183"
       cy="40.11673"
       fx="93.944183"
       fy="40.11673"
       r="7.0659914"
       gradientUnits="userSpaceOnUse" />
    <radialGradient
       inkscape:collect="always"
       xlink:href="#linearGradient4090-1"
       id="radialGradient4096-4"
       cx="93.944183"
       cy="40.11673"
       fx="93.944183"
       fy="40.11673"
       r="7.0659914"
       gradientUnits="userSpaceOnUse" />
    <linearGradient
       inkscape:collect="always"
       id="linearGradient4090-1">
      <stop
         style="stop-color:#ffffff;stop-opacity:1;"
         offset="0"
         id="stop4092-6" />
      <stop
         style="stop-color:#ffffff;stop-opacity:0;"
         offset="1"
         id="stop4094-8" />
    </linearGradient>
    <radialGradient
       inkscape:collect="always"
       xlink:href="#linearGradient4098-4"
       id="radialGradient4104-0"
       cx="93.944183"
       cy="40.11673"
       fx="93.944183"
       fy="40.11673"
       r="7.0659914"
       gradientUnits="userSpaceOnUse" />
    <linearGradient
       inkscape:collect="always"
       id="linearGradient4098-4">
      <stop
         style="stop-color:#000080;stop-opacity:1;"
         offset="0"
         id="stop4100-8" />
      <stop
         style="stop-color:#000080;stop-opacity:0;"
         offset="1"
         id="stop4102-8" />
    </linearGradient>
    <radialGradient
       r="7.0659914"
       fy="40.11673"
       fx="93.944183"
       cy="40.11673"
       cx="93.944183"
       gradientUnits="userSpaceOnUse"
       id="radialGradient4183"
       xlink:href="#linearGradient4090-1"
       inkscape:collect="always" />
    <radialGradient
       r="7.0659914"
       fy="40.11673"
       fx="93.944183"
       cy="40.11673"
       cx="93.944183"
       gradientUnits="userSpaceOnUse"
       id="radialGradient4185"
       xlink:href="#linearGradient4098-4"
       inkscape:collect="always" />
    <radialGradient
       r="7.0659914"
       fy="40.11673"
       fx="93.944183"
       cy="40.11673"
       cx="93.944183"
       gradientUnits="userSpaceOnUse"
       id="radialGradient4183-7"
       xlink:href="#linearGradient4090-1-4"
       inkscape:collect="always" />
    <linearGradient
       inkscape:collect="always"
       id="linearGradient4090-1-4">
      <stop
         style="stop-color:#ffffff;stop-opacity:1;"
         offset="0"
         id="stop4092-6-7" />
      <stop
         style="stop-color:#ffffff;stop-opacity:0;"
         offset="1"
         id="stop4094-8-5" />
    </linearGradient>
    <radialGradient
       r="7.0659914"
       fy="40.11673"
       fx="93.944183"
       cy="40.11673"
       cx="93.944183"
       gradientUnits="userSpaceOnUse"
       id="radialGradient4185-6"
       xlink:href="#linearGradient4098-4-5"
       inkscape:collect="always" />
    <linearGradient
       inkscape:collect="always"
       id="linearGradient4098-4-5">
      <stop
         style="stop-color:#000080;stop-opacity:1;"
         offset="0"
         id="stop4100-8-7" />
      <stop
         style="stop-color:#000080;stop-opacity:0;"
         offset="1"
         id="stop4102-8-6" />
    </linearGradient>
    <radialGradient
       r="7.0659914"
       fy="40.11673"
       fx="93.944183"
       cy="40.11673"
       cx="93.944183"
       gradientUnits="userSpaceOnUse"
       id="radialGradient4239"
       xlink:href="#linearGradient4090-1-4"
       inkscape:collect="always" />
    <radialGradient
       r="7.0659914"
       fy="40.11673"
       fx="93.944183"
       cy="40.11673"
       cx="93.944183"
       gradientUnits="userSpaceOnUse"
       id="radialGradient4241"
       xlink:href="#linearGradient4098-4-5"
       inkscape:collect="always" />
    <radialGradient
       r="7.0659914"
       fy="40.11673"
       fx="93.944183"
       cy="40.11673"
       cx="93.944183"
       gradientUnits="userSpaceOnUse"
       id="radialGradient4239-3"
       xlink:href="#linearGradient4090-1-4-2"
       inkscape:collect="always" />
    <linearGradient
       inkscape:collect="always"
       id="linearGradient4090-1-4-2">
      <stop
         style="stop-color:#ffffff;stop-opacity:1;"
         offset="0"
         id="stop4092-6-7-3" />
      <stop
         style="stop-color:#ffffff;stop-opacity:0;"
         offset="1"
         id="stop4094-8-5-8" />
    </linearGradient>
    <radialGradient
       r="7.0659914"
       fy="40.11673"
       fx="93.944183"
       cy="40.11673"
       cx="93.944183"
       gradientUnits="userSpaceOnUse"
       id="radialGradient4241-0"
       xlink:href="#linearGradient4098-4-5-5"
       inkscape:collect="always" />
    <linearGradient
       inkscape:collect="always"
       id="linearGradient4098-4-5-5">
      <stop
         style="stop-color:#000080;stop-opacity:1;"
         offset="0"
         id="stop4100-8-7-2" />
      <stop
         style="stop-color:#000080;stop-opacity:0;"
         offset="1"
         id="stop4102-8-6-5" />
    </linearGradient>
    <radialGradient
       r="7.0659914"
       fy="40.11673"
       fx="93.944183"
       cy="40.11673"
       cx="93.944183"
       gradientUnits="userSpaceOnUse"
       id="radialGradient4295"
       xlink:href="#linearGradient4090-1-4-2"
       inkscape:collect="always" />
    <radialGradient
       r="7.0659914"
       fy="40.11673"
       fx="93.944183"
       cy="40.11673"
       cx="93.944183"
       gradientUnits="userSpaceOnUse"
       id="radialGradient4297"
       xlink:href="#linearGradient4098-4-5-5"
       inkscape:collect="always" />
    <radialGradient
       inkscape:collect="always"
       xlink:href="#linearGradient4344"
       id="radialGradient4354"
       cx="12.121831"
       cy="27.742359"
       fx="12.121831"
       fy="27.742359"
       r="4.7492719"
       gradientTransform="matrix(1.8376924,0,0,3.180137,-5.254348,862.86993)"
       gradientUnits="userSpaceOnUse" />
    <radialGradient
       inkscape:collect="always"
       xlink:href="#linearGradient4382"
       id="radialGradient4388"
       cx="44.050488"
       cy="949.99486"
       fx="44.050488"
       fy="949.99486"
       r="7.3887177"
       gradientTransform="matrix(1,0,0,2.3443392,0.2652288,-1272.8653)"
       gradientUnits="userSpaceOnUse" />
    <radialGradient
       inkscape:collect="always"
       xlink:href="#linearGradient4392"
       id="radialGradient4398"
       cx="93.944183"
       cy="40.11673"
       fx="93.944183"
       fy="40.11673"
       r="7.0659914"
       gradientUnits="userSpaceOnUse" />
    <radialGradient
       inkscape:collect="always"
       xlink:href="#linearGradient4400"
       id="radialGradient4406"
       cx="93.944183"
       cy="40.11673"
       fx="93.944183"
       fy="40.11673"
       r="7.0659914"
       gradientUnits="userSpaceOnUse" />
    <radialGradient
       inkscape:collect="always"
       xlink:href="#linearGradient4382-4"
       id="radialGradient4388-0"
       cx="44.050488"
       cy="949.99487"
       fx="44.050488"
       fy="949.99487"
       r="7.3887177"
       gradientTransform="matrix(1,0,0,2.3443392,1.5152288,-1277.1153)"
       gradientUnits="userSpaceOnUse" />
    <linearGradient
       inkscape:collect="always"
       id="linearGradient4382-4">
      <stop
         style="stop-color:#333333;stop-opacity:1;"
         offset="0"
         id="stop4384-6" />
      <stop
         style="stop-color:#333333;stop-opacity:0;"
         offset="1"
         id="stop4386-6" />
    </linearGradient>
    <radialGradient
       r="7.3887177"
       fy="949.99487"
       fx="44.050488"
       cy="949.99487"
       cx="44.050488"
       gradientTransform="matrix(-0.61816192,-0.78605079,1.8427697,-1.4491812,-1702.418,2401.2827)"
       gradientUnits="userSpaceOnUse"
       id="radialGradient4423"
       xlink:href="#linearGradient4382-4"
       inkscape:collect="always" />
    <radialGradient
       r="7.3887177"
       fy="949.99487"
       fx="44.050488"
       cy="949.99487"
       cx="44.050488"
       gradientTransform="matrix(-0.61816192,-0.78605079,1.8427697,-1.4491812,-1701.168,2397.0327)"
       gradientUnits="userSpaceOnUse"
       id="radialGradient4423-2"
       xlink:href="#linearGradient4382-4-2"
       inkscape:collect="always" />
    <linearGradient
       inkscape:collect="always"
       id="linearGradient4382-4-2">
      <stop
         style="stop-color:#333333;stop-opacity:1;"
         offset="0"
         id="stop4384-6-7" />
      <stop
         style="stop-color:#333333;stop-opacity:0;"
         offset="1"
         id="stop4386-6-2" />
    </linearGradient>
    <radialGradient
       r="7.3887177"
       fy="949.99487"
       fx="44.050488"
       cy="949.99487"
       cx="44.050488"
       gradientTransform="matrix(-0.93780603,0.34715973,-0.81386013,-2.1985354,868.57828,3075.5008)"
       gradientUnits="userSpaceOnUse"
       id="radialGradient4457"
       xlink:href="#linearGradient4382-4-2"
       inkscape:collect="always" />
    <radialGradient
       r="7.3887177"
       fy="949.99487"
       fx="44.050488"
       cy="949.99487"
       cx="44.050488"
       gradientTransform="matrix(-0.61816192,-0.78605079,1.8427697,-1.4491812,-1701.168,2397.0327)"
       gradientUnits="userSpaceOnUse"
       id="radialGradient4423-3"
       xlink:href="#linearGradient4382-4-7"
       inkscape:collect="always" />
    <linearGradient
       inkscape:collect="always"
       id="linearGradient4382-4-7">
      <stop
         style="stop-color:#333333;stop-opacity:1;"
         offset="0"
         id="stop4384-6-0" />
      <stop
         style="stop-color:#333333;stop-opacity:0;"
         offset="1"
         id="stop4386-6-4" />
    </linearGradient>
    <radialGradient
       r="7.3887177"
       fy="949.99487"
       fx="44.050488"
       cy="949.99487"
       cx="44.050488"
       gradientTransform="matrix(0.36382298,0.93146811,-2.1836772,0.85292445,2133.2073,115.05655)"
       gradientUnits="userSpaceOnUse"
       id="radialGradient4491"
       xlink:href="#linearGradient4382-4-7"
       inkscape:collect="always" />
    <radialGradient
       r="7.3887177"
       fy="949.99487"
       fx="44.050488"
       cy="949.99487"
       cx="44.050488"
       gradientTransform="matrix(0.36382298,0.93146811,-2.1836772,0.85292445,2134.4573,110.80655)"
       gradientUnits="userSpaceOnUse"
       id="radialGradient4491-8"
       xlink:href="#linearGradient4382-4-7-6"
       inkscape:collect="always" />
    <linearGradient
       inkscape:collect="always"
       id="linearGradient4382-4-7-6">
      <stop
         style="stop-color:#333333;stop-opacity:1;"
         offset="0"
         id="stop4384-6-0-6" />
      <stop
         style="stop-color:#333333;stop-opacity:0;"
         offset="1"
         id="stop4386-6-4-3" />
    </linearGradient>
    <radialGradient
       inkscape:collect="always"
       xlink:href="#linearGradient4544"
       id="radialGradient4550"
       cx="103.54064"
       cy="965.48911"
       fx="103.54064"
       fy="965.48911"
       r="16.868345"
       gradientTransform="matrix(0.04660107,0.61173063,-0.40555466,0.03047587,483.98652,883.30742)"
       gradientUnits="userSpaceOnUse" />
    <radialGradient
       id="Grad1"
       gradientUnits="userSpaceOnUse"
       gradientTransform="matrix(0.202713,0,0,0.202713,192.1,135.25)"
       r="819.20001"
       cx="0"
       cy="0">
      <stop
         offset="0.0"
         stop-color="#FFFFFF"
         id="stop3889" />
      <stop
         offset="0.33333334"
         stop-color="#CECECE"
         id="stop3891" />
      <stop
         offset="0.5176471"
         stop-color="#AEAEAE"
         id="stop3893" />
      <stop
         offset="0.6509804"
         stop-color="#8F8F8F"
         id="stop3895" />
      <stop
         offset="0.84705883"
         stop-color="#646464"
         id="stop3897" />
      <stop
         offset="1.0"
         stop-color="#484848"
         id="stop3899" />
    </radialGradient>
    <radialGradient
       id="Grad2"
       gradientUnits="userSpaceOnUse"
       gradientTransform="matrix(0.0573883,0,0,0.0573883,274.2,205.2)"
       r="819.20001"
       cx="0"
       cy="0">
      <stop
         offset="0.0"
         stop-color="#FFFFFF"
         stop-opacity="0.4509804"
         id="stop3902" />
      <stop
         offset="0.27058825"
         stop-color="#FFFFFF"
         stop-opacity="0.30588236"
         id="stop3904" />
      <stop
         offset="0.4392157"
         stop-color="#FFFFFF"
         stop-opacity="0.1764706"
         id="stop3906" />
      <stop
         offset="0.7411765"
         stop-color="#FFFFFF"
         stop-opacity="0.050980393"
         id="stop3908" />
      <stop
         offset="1.0"
         stop-color="#FFFFFF"
         stop-opacity="0.0"
         id="stop3910" />
    </radialGradient>
    <radialGradient
       id="Grad3"
       gradientUnits="userSpaceOnUse"
       gradientTransform="matrix(0.202713,0,0,0.202713,151.75,281.3)"
       r="819.20001"
       cx="0"
       cy="0">
      <stop
         offset="0.0"
         stop-color="#FFFFFF"
         id="stop3913" />
      <stop
         offset="0.33333334"
         stop-color="#CECECE"
         id="stop3915" />
      <stop
         offset="0.5176471"
         stop-color="#AEAEAE"
         id="stop3917" />
      <stop
         offset="0.6509804"
         stop-color="#8F8F8F"
         id="stop3919" />
      <stop
         offset="0.84705883"
         stop-color="#646464"
         id="stop3921" />
      <stop
         offset="1.0"
         stop-color="#484848"
         id="stop3923" />
    </radialGradient>
    <radialGradient
       id="Grad4"
       gradientUnits="userSpaceOnUse"
       gradientTransform="matrix(0.0573883,0,0,0.0573883,233.9,351.25)"
       r="819.20001"
       cx="0"
       cy="0">
      <stop
         offset="0.0"
         stop-color="#FFFFFF"
         stop-opacity="0.4509804"
         id="stop3926" />
      <stop
         offset="0.27058825"
         stop-color="#FFFFFF"
         stop-opacity="0.30588236"
         id="stop3928" />
      <stop
         offset="0.4392157"
         stop-color="#FFFFFF"
         stop-opacity="0.1764706"
         id="stop3930" />
      <stop
         offset="0.7411765"
         stop-color="#FFFFFF"
         stop-opacity="0.050980393"
         id="stop3932" />
      <stop
         offset="1.0"
         stop-color="#FFFFFF"
         stop-opacity="0.0"
         id="stop3934" />
    </radialGradient>
    <radialGradient
       id="Grad5"
       gradientUnits="userSpaceOnUse"
       gradientTransform="matrix(0.202713,0,0,0.202713,123.65,177.05)"
       r="819.20001"
       cx="0"
       cy="0">
      <stop
         offset="0.0"
         stop-color="#FFFFFF"
         id="stop3937" />
      <stop
         offset="0.33333334"
         stop-color="#CECECE"
         id="stop3939" />
      <stop
         offset="0.5176471"
         stop-color="#AEAEAE"
         id="stop3941" />
      <stop
         offset="0.6509804"
         stop-color="#8F8F8F"
         id="stop3943" />
      <stop
         offset="0.84705883"
         stop-color="#646464"
         id="stop3945" />
      <stop
         offset="1.0"
         stop-color="#484848"
         id="stop3947" />
    </radialGradient>
    <radialGradient
       id="Grad6"
       gradientUnits="userSpaceOnUse"
       gradientTransform="matrix(0.0573883,0,0,0.0573883,205.75,247)"
       r="819.20001"
       cx="0"
       cy="0">
      <stop
         offset="0.0"
         stop-color="#FFFFFF"
         stop-opacity="0.4509804"
         id="stop3950" />
      <stop
         offset="0.27058825"
         stop-color="#FFFFFF"
         stop-opacity="0.30588236"
         id="stop3952" />
      <stop
         offset="0.4392157"
         stop-color="#FFFFFF"
         stop-opacity="0.1764706"
         id="stop3954" />
      <stop
         offset="0.7411765"
         stop-color="#FFFFFF"
         stop-opacity="0.050980393"
         id="stop3956" />
      <stop
         offset="1.0"
         stop-color="#FFFFFF"
         stop-opacity="0.0"
         id="stop3958" />
    </radialGradient>
    <radialGradient
       id="Grad7"
       gradientUnits="userSpaceOnUse"
       gradientTransform="matrix(0.202713,0,0,0.202713,372.25,254.65)"
       r="819.20001"
       cx="0"
       cy="0">
      <stop
         offset="0.0"
         stop-color="#FFFFFF"
         id="stop3961" />
      <stop
         offset="0.33333334"
         stop-color="#CECECE"
         id="stop3963" />
      <stop
         offset="0.5176471"
         stop-color="#AEAEAE"
         id="stop3965" />
      <stop
         offset="0.6509804"
         stop-color="#8F8F8F"
         id="stop3967" />
      <stop
         offset="0.84705883"
         stop-color="#646464"
         id="stop3969" />
      <stop
         offset="1.0"
         stop-color="#484848"
         id="stop3971" />
    </radialGradient>
    <radialGradient
       id="Grad8"
       gradientUnits="userSpaceOnUse"
       gradientTransform="matrix(0.0573883,0,0,0.0573883,454.4,324.6)"
       r="819.20001"
       cx="0"
       cy="0">
      <stop
         offset="0.0"
         stop-color="#FFFFFF"
         stop-opacity="0.4509804"
         id="stop3974" />
      <stop
         offset="0.27058825"
         stop-color="#FFFFFF"
         stop-opacity="0.30588236"
         id="stop3976" />
      <stop
         offset="0.4392157"
         stop-color="#FFFFFF"
         stop-opacity="0.1764706"
         id="stop3978" />
      <stop
         offset="0.7411765"
         stop-color="#FFFFFF"
         stop-opacity="0.050980393"
         id="stop3980" />
      <stop
         offset="1.0"
         stop-color="#FFFFFF"
         stop-opacity="0.0"
         id="stop3982" />
    </radialGradient>
    <radialGradient
       id="Grad9"
       gradientUnits="userSpaceOnUse"
       gradientTransform="matrix(0.202713,0,0,0.202713,442.25,135.25)"
       r="819.20001"
       cx="0"
       cy="0">
      <stop
         offset="0.0"
         stop-color="#FFFFFF"
         id="stop3985" />
      <stop
         offset="0.33333334"
         stop-color="#CECECE"
         id="stop3987" />
      <stop
         offset="0.5176471"
         stop-color="#AEAEAE"
         id="stop3989" />
      <stop
         offset="0.6509804"
         stop-color="#8F8F8F"
         id="stop3991" />
      <stop
         offset="0.84705883"
         stop-color="#646464"
         id="stop3993" />
      <stop
         offset="1.0"
         stop-color="#484848"
         id="stop3995" />
    </radialGradient>
    <radialGradient
       id="Grad10"
       gradientUnits="userSpaceOnUse"
       gradientTransform="matrix(0.0573883,0,0,0.0573883,524.35,205.2)"
       r="819.20001"
       cx="0"
       cy="0">
      <stop
         offset="0.0"
         stop-color="#FFFFFF"
         stop-opacity="0.4509804"
         id="stop3998" />
      <stop
         offset="0.27058825"
         stop-color="#FFFFFF"
         stop-opacity="0.30588236"
         id="stop4000" />
      <stop
         offset="0.4392157"
         stop-color="#FFFFFF"
         stop-opacity="0.1764706"
         id="stop4002" />
      <stop
         offset="0.7411765"
         stop-color="#FFFFFF"
         stop-opacity="0.050980393"
         id="stop4004" />
      <stop
         offset="1.0"
         stop-color="#FFFFFF"
         stop-opacity="0.0"
         id="stop4006" />
    </radialGradient>
    <radialGradient
       id="Grad11"
       gradientUnits="userSpaceOnUse"
       gradientTransform="matrix(0.202713,0,0,0.202713,306.1,300.3)"
       r="819.20001"
       cx="0"
       cy="0">
      <stop
         offset="0.0"
         stop-color="#FFFFFF"
         id="stop4009" />
      <stop
         offset="0.33333334"
         stop-color="#CECECE"
         id="stop4011" />
      <stop
         offset="0.5176471"
         stop-color="#AEAEAE"
         id="stop4013" />
      <stop
         offset="0.6509804"
         stop-color="#8F8F8F"
         id="stop4015" />
      <stop
         offset="0.84705883"
         stop-color="#646464"
         id="stop4017" />
      <stop
         offset="1.0"
         stop-color="#484848"
         id="stop4019" />
    </radialGradient>
    <radialGradient
       id="Grad12"
       gradientUnits="userSpaceOnUse"
       gradientTransform="matrix(0.0573883,0,0,0.0573883,388.25,370.25)"
       r="819.20001"
       cx="0"
       cy="0">
      <stop
         offset="0.0"
         stop-color="#FFFFFF"
         stop-opacity="0.4509804"
         id="stop4022" />
      <stop
         offset="0.27058825"
         stop-color="#FFFFFF"
         stop-opacity="0.30588236"
         id="stop4024" />
      <stop
         offset="0.4392157"
         stop-color="#FFFFFF"
         stop-opacity="0.1764706"
         id="stop4026" />
      <stop
         offset="0.7411765"
         stop-color="#FFFFFF"
         stop-opacity="0.050980393"
         id="stop4028" />
      <stop
         offset="1.0"
         stop-color="#FFFFFF"
         stop-opacity="0.0"
         id="stop4030" />
    </radialGradient>
    <radialGradient
       id="Grad13"
       gradientUnits="userSpaceOnUse"
       gradientTransform="matrix(0.293137,0,0,0.293137,282.6,214.3)"
       r="819.20001"
       cx="0"
       cy="0">
      <stop
         offset="0.0"
         stop-color="#3D3D3D"
         id="stop4033" />
      <stop
         offset="0.32156864"
         stop-color="#212121"
         id="stop4035" />
      <stop
         offset="0.72156864"
         stop-color="#121212"
         id="stop4037" />
      <stop
         offset="0.92941177"
         stop-color="#101010"
         id="stop4039" />
    </radialGradient>
    <radialGradient
       id="Grad14"
       gradientUnits="userSpaceOnUse"
       gradientTransform="matrix(0.290543,0,0,0.290543,211.9,155)"
       r="819.20001"
       cx="0"
       cy="0">
      <stop
         offset="0.0"
         stop-color="#3D3D3D"
         id="stop4042" />
      <stop
         offset="0.32156864"
         stop-color="#212121"
         id="stop4044" />
      <stop
         offset="0.72156864"
         stop-color="#121212"
         id="stop4046" />
      <stop
         offset="0.92941177"
         stop-color="#101010"
         id="stop4048" />
    </radialGradient>
    <radialGradient
       id="Grad15"
       gradientUnits="userSpaceOnUse"
       gradientTransform="matrix(0.236206,0,0,0.236206,334.5,104.15)"
       r="819.20001"
       cx="0"
       cy="0">
      <stop
         offset="0.0"
         stop-color="#F04254"
         id="stop4051" />
      <stop
         offset="0.32156864"
         stop-color="#C20000"
         id="stop4053" />
      <stop
         offset="0.72156864"
         stop-color="#890000"
         id="stop4055" />
      <stop
         offset="0.92941177"
         stop-color="#450102"
         id="stop4057" />
    </radialGradient>
  </defs>
  <sodipodi:namedview
     id="base"
     pagecolor="#ffffff"
     bordercolor="#666666"
     borderopacity="1.0"
     inkscape:pageopacity="0.0"
     inkscape:pageshadow="2"
     inkscape:zoom="2"
     inkscape:cx="-15.254141"
     inkscape:cy="71.353158"
     inkscape:document-units="px"
     inkscape:current-layer="layer1"
     showgrid="false"
     units="px"
     inkscape:window-width="1280"
     inkscape:window-height="776"
     inkscape:window-x="0"
     inkscape:window-y="24"
     inkscape:window-maximized="1" />
  <metadata
     id="metadata7">
    <rdf:RDF>
      <cc:Work
         rdf:about="">
        <dc:format>image/svg+xml</dc:format>
        <dc:type
           rdf:resource="http://purl.org/dc/dcmitype/StillImage" />
        <dc:title />
      </cc:Work>
    </rdf:RDF>
  </metadata>
  <g
     inkscape:label="Layer 1"
     inkscape:groupmode="layer"
     id="layer1"
     transform="translate(0,-924.36223)">
    <g
       transform="matrix(0.23898255,0,0,0.23974717,-14.161659,921.16959)"
       id="g4061">
      <g
         id="g4063">
        <path
           style="fill:url(#Grad1);stroke-linecap:round;stroke-linejoin:round"
           inkscape:connector-curvature="0"
           d="m 237.15,80.5 c 27.8,0 51.5167,9.816666 71.15,29.45 19.63332,19.63333 29.45,43.35 29.45,71.15 0,27.80001 -9.81668,51.5 -29.45,71.1 -19.63334,19.6333 -43.35002,29.44996 -71.15,29.45 -27.76667,0 -51.46667,-9.8167 -71.1,-29.45 -19.63333,-19.6 -29.45,-43.29999 -29.45,-71.1 0,-27.8 9.81667,-51.51667 29.45,-71.15 19.63333,-19.633334 43.33333,-29.45 71.1,-29.45 z"
           id="path4065" />
        <path
           style="fill:url(#Grad2);stroke-linecap:round;stroke-linejoin:round"
           inkscape:connector-curvature="0"
           d="m 241.4,172.4 c 9.06666,-9.06667 20,-13.6 32.8,-13.6 12.8,0 23.71666,4.53333 32.75,13.6 9.10002,9.06666 13.65,20 13.65,32.8 0,12.8 -4.54998,23.71667 -13.65,32.75 -9.03334,9.06666 -19.95,13.6 -32.75,13.6 -12.8,0 -23.73334,-4.53334 -32.8,-13.6 -9.03333,-9.03334 -13.55,-19.95002 -13.55,-32.75 0,-12.8 4.51667,-23.73334 13.55,-32.8 z"
           id="path4067" />
        <path
           style="fill:url(#Grad3);stroke-linecap:round;stroke-linejoin:round"
           inkscape:connector-curvature="0"
           d="m 196.8,226.55 c 27.8,0 51.51668,9.81667 71.15,29.45 19.63334,19.63333 29.45,43.35 29.45,71.15 0,27.8 -9.81666,51.50002 -29.45,71.1 -19.63333,19.63333 -43.35001,29.45 -71.15,29.45 -27.76667,0 -51.46667,-9.81667 -71.1,-29.45 -19.63333,-19.6 -29.45,-43.30002 -29.45,-71.1 0,-27.8 9.81667,-51.51667 29.45,-71.15 19.63333,-19.63333 43.33333,-29.45 71.1,-29.45 z"
           id="path4069" />
        <path
           style="fill:url(#Grad4);stroke-linecap:round;stroke-linejoin:round"
           inkscape:connector-curvature="0"
           d="m 201.1,318.45 c 9.06667,-9.06667 20,-13.6 32.8,-13.6 12.8,0 23.71667,4.53333 32.75,13.6 9.1,9.06666 13.65,19.99998 13.65,32.8 0,12.80002 -4.55,23.71667 -13.65,32.75 -9.03333,9.06668 -19.95,13.6 -32.75,13.6 -12.80001,0 -23.73334,-4.53332 -32.8,-13.6 -9.03333,-9.03333 -13.55,-19.94998 -13.55,-32.75 0,-12.80002 4.51667,-23.73334 13.55,-32.8 z"
           id="path4071" />
        <path
           style="fill:url(#Grad5);stroke-linecap:round;stroke-linejoin:round"
           inkscape:connector-curvature="0"
           d="m 168.7,122.3 c 27.8,0 51.51667,9.81667 71.15,29.45 19.63334,19.63333 29.45,43.34999 29.45,71.15 0,27.8 -9.81666,51.5 -29.45,71.1 -19.63334,19.63333 -43.35002,29.45 -71.15,29.45 -27.76667,0 -51.46666,-9.81667 -71.1,-29.45 -19.63333,-19.6 -29.45,-43.3 -29.45,-71.1 0,-27.80001 9.81667,-51.51667 29.45,-71.15 19.63334,-19.63333 43.33333,-29.45 71.1,-29.45 z"
           id="path4073" />
        <path
           style="fill:url(#Grad6);stroke-linecap:round;stroke-linejoin:round"
           inkscape:connector-curvature="0"
           d="m 172.95,214.2 c 9.06666,-9.06667 20,-13.6 32.8,-13.6 12.8,0 23.71667,4.53333 32.75,13.6 9.09999,9.06666 13.65,20 13.65,32.8 0,12.80002 -4.55001,23.71667 -13.65,32.75 -9.03334,9.06668 -19.95001,13.6 -32.75,13.6 -12.8,0 -23.73334,-4.53332 -32.8,-13.6 -9.03334,-9.03333 -13.55,-19.94998 -13.55,-32.75 0,-12.8 4.51666,-23.73334 13.55,-32.8 z"
           id="path4075" />
        <path
           style="fill:url(#Grad7);stroke-linecap:round;stroke-linejoin:round"
           inkscape:connector-curvature="0"
           d="m 417.3,199.9 c 27.8,0 51.51668,9.81666 71.15,29.45 19.63334,19.63332 29.45,43.34998 29.45,71.15 0,27.80002 -9.81666,51.50003 -29.45,71.1 -19.63332,19.63334 -43.35,29.45 -71.15,29.45 -27.76667,0 -51.46666,-9.81666 -71.1,-29.45 -19.63332,-19.6 -29.45,-43.3 -29.45,-71.1 0,-27.80002 9.81668,-51.51668 29.45,-71.15 19.63334,-19.63334 43.33333,-29.45 71.1,-29.45 z"
           id="path4077" />
        <path
           style="fill:url(#Grad8);stroke-linecap:round;stroke-linejoin:round"
           inkscape:connector-curvature="0"
           d="m 421.6,291.8 c 9.0667,-9.06666 20,-13.6 32.8,-13.6 12.8,0 23.71667,4.53334 32.75,13.6 9.1,9.06667 13.65,20.00002 13.65,32.8 0,12.8 -4.55,23.71665 -13.65,32.75 -9.03333,9.0667 -19.95,13.6 -32.75,13.6 -12.8,0 -23.7333,-4.5333 -32.8,-13.6 -9.03335,-9.03335 -13.55,-19.95 -13.55,-32.75 0,-12.8 4.51665,-23.73336 13.55,-32.8 z"
           id="path4079" />
        <path
           style="fill:url(#Grad9);stroke-linecap:round;stroke-linejoin:round"
           inkscape:connector-curvature="0"
           d="m 487.3,80.5 c 27.8,0 51.51665,9.816666 71.15,29.45 19.6334,19.63333 29.45,43.35 29.45,71.15 0,27.80001 -9.8166,51.5 -29.45,71.1 -19.63335,19.6333 -43.35,29.44996 -71.15,29.45 -27.76667,0 -51.46666,-9.8167 -71.1,-29.45 -19.63332,-19.6 -29.45,-43.29999 -29.45,-71.1 0,-27.8 9.81668,-51.51667 29.45,-71.15 19.63334,-19.633334 43.33333,-29.45 71.1,-29.45 z"
           id="path4081" />
        <path
           style="fill:url(#Grad10);stroke-linecap:round;stroke-linejoin:round"
           inkscape:connector-curvature="0"
           d="m 491.55,172.4 c 9.06667,-9.06667 20,-13.6 32.8,-13.6 12.79996,0 23.71665,4.53333 32.75,13.6 9.1,9.06666 13.65,20 13.65,32.8 0,12.8 -4.55,23.71667 -13.65,32.75 -9.03335,9.06666 -19.95004,13.6 -32.75,13.6 -12.8,0 -23.73333,-4.53334 -32.8,-13.6 C 482.51666,228.91666 478,217.99998 478,205.2 c 0,-12.8 4.51666,-23.73334 13.55,-32.8 z"
           id="path4083" />
        <path
           style="fill:url(#Grad11);stroke-linecap:round;stroke-linejoin:round"
           inkscape:connector-curvature="0"
           d="m 351.15,245.55 c 27.8,0 51.5167,9.81667 71.15,29.45 19.63332,19.63333 29.45,43.35 29.45,71.15 0,27.8 -9.81668,51.50002 -29.45,71.1 -19.63334,19.63333 -43.35002,29.45 -71.15,29.45 -27.76667,0 -51.46668,-9.81667 -71.1,-29.45 -19.63334,-19.6 -29.45001,-43.30002 -29.45,-71.1 0,-27.8 9.81666,-51.51667 29.45,-71.15 19.63332,-19.63333 43.33333,-29.45 71.1,-29.45 z"
           id="path4085" />
        <path
           style="fill:url(#Grad12);stroke-linecap:round;stroke-linejoin:round"
           inkscape:connector-curvature="0"
           d="m 355.45,337.45 c 9.06666,-9.06667 19.99998,-13.6 32.8,-13.6 12.80002,0 23.71667,4.53333 32.75,13.6 9.1,9.06666 13.65,19.99998 13.65,32.8 0,12.80002 -4.55,23.71667 -13.65,32.75 -9.03333,9.06668 -19.94998,13.6 -32.75,13.6 -12.80002,0 -23.73334,-4.53332 -32.8,-13.6 -9.03334,-9.03333 -13.55,-19.94998 -13.55,-32.75 0,-12.80002 4.51666,-23.73334 13.55,-32.8 z"
           id="path4087" />
        <path
           style="fill:url(#Grad13);stroke-linecap:round;stroke-linejoin:round"
           inkscape:connector-curvature="0"
           d="m 295.65,122.5 30.45,106.85 114.4,40.55 c 17.6,9.66665 37.6667,13.25 60.2,10.75 -1.33333,36 -15.43334,67.41665 -42.3,94.25 l -8.3,8.15 c -3.06667,2.83333 -5.95,5.26668 -8.65,7.3 8.26667,-18.73333 10.88334,-35.31667 7.85,-49.75 -2.9,-14.03335 -11.03334,-25.65002 -24.4,-34.85 -24.9,-17.1 -50.86667,-25.6667 -77.9,-25.7 -17.9,-0.10002 -33.93332,2.14998 -48.1,6.75 -13.1,4.23333 -23.73334,10.14998 -31.9,17.75 -20,18.56667 -22.13333,46.3 -6.4,83.2 l -7.5,-6.55 c -24.4,-22.86666 -40.80001,-44.39998 -49.2,-64.6 9.26667,-11.5 19.78333,-30.63333 31.55,-57.4 11.76667,-26.79999 15.80002,-50.65 12.1,-71.55 -3.73333,-20.86666 -5.25,-31.64998 -4.55,-32.35 15.83334,-15.3 33.36667,-26.5 52.6,-33.6 l 0.05,0.8 z"
           id="path4089" />
        <path
           style="fill:url(#Grad14);stroke-linecap:round;stroke-linejoin:round"
           inkscape:connector-curvature="0"
           d="m 240.75,174.85 c -2.73334,-11.46667 -7.55,-21.43334 -14.45,-29.9 -6.73333,-8.26667 -15.48333,-14.2 -26.25,-17.8 -10.5,-3.5 -23.08333,-4.81666 -37.75,-3.95 17.63333,-11.7 39.46666,-17.55 65.5,-17.55 30.23333,0 57.04998,8.25 80.45,24.75 -10,6.63334 -20.35,19.11668 -31.05,37.45 -11.39998,19.53333 -20.4333,41.16666 -27.1,64.9 -7.56666,26.96667 -10.86666,52.95 -9.9,77.95 1.1,28.83336 7.91667,54.4167 20.45,76.75 -4.1,1.10002 -9.83335,1.65 -17.2,1.65 -9.7,0.0333 -19.85,-1.03335 -30.45,-3.2 -30.03334,-6.13334 -58.51668,-19.78333 -85.45,-40.95 -9.36667,-7.36666 -16.95,-15.73333 -22.75,-25.1 -5.5,-8.9 -10.06666,-19.88333 -13.7,-32.95 14.86667,18.23333 32.08333,28.65 51.65,31.25 19.56667,2.6 40.05,-6.48334 61.45,-27.25 10.76667,-10.43333 19.35,-22.05 25.75,-34.85 6.46666,-12.93335 10.58333,-26.78334 12.35,-41.55 1.7,-14.63333 1.18334,-27.84999 -1.55,-39.65 z"
           id="path4091" />
        <path
           style="fill:url(#Grad15);stroke-linecap:round;stroke-linejoin:round"
           inkscape:connector-curvature="0"
           d="m 494.8,80.85 c -14.63334,-3.36666 -27.63334,3.616675 -39,20.95 -10.63334,16.23334 -19,40.06667 -25.1,71.5 -2.53334,13.03334 -3.91667,26.18334 -4.15,39.45 -0.4,26.3 4.25,45.35 13.95,57.15 -17.16666,-1.66666 -35.05,-5.61667 -53.65,-11.85 -19.16665,-6.46667 -37.4333,-14.83334 -54.8,-25.1 -33.96666,-20.06667 -52.1333,-40.76667 -54.5,-62.1 l -0.1,-4.05 c 0,-34.76667 12.28334,-64.43335 36.85,-89 24.56667,-24.566666 54.23333,-36.850003 89,-36.85 34.76668,0 64.43334,12.283337 89,36.85 l 1.95,1.95 c 0.76666,0.833336 0.94998,1.200005 0.55,1.1 z"
           id="path4093" />
      </g>
    </g>
    <g
       style="font-size:40px;font-style:oblique;font-variant:normal;font-weight:bold;font-stretch:normal;line-height:125%;letter-spacing:0px;word-spacing:0px;fill:#1a1a1a;fill-opacity:1;stroke:#999999;font-family:LMMonoPropLt10;-inkscape-font-specification:LMMonoPropLt10 Bold Oblique"
       id="text2985">
      <path
         d="m 119.70055,1044.3744 c 0.448,-2.432 -1.344,-2.496 -2.624,-2.496 l -2.752,0 4.864,-29.248 2.752,0 c 1.216,0 3.072,-0.128 3.456,-2.432 0.448,-2.432 -1.344,-2.496 -2.624,-2.496 l -5.952,0 c -1.408,0 -3.072,0 -4.544,2.496 l -18.111998,30.016 -8.128,-29.888 c -0.511999,-2.112 -1.280002,-2.624 -3.648,-2.624 l -5.952,0 c -1.279999,0 -3.072,0.064 -3.52,2.496 -0.384,2.304 1.472001,2.432 2.688,2.432 l 2.752,0 -4.864,29.248 -2.752,0 c -1.279999,0 -3.072,0.064 -3.52,2.496 -0.384,2.368 1.472001,2.432 2.688,2.432 l 10.176,0 c 1.151999,0 3.072,-0.064 3.456,-2.432 0.448,-2.432 -1.408001,-2.496 -2.624,-2.496 l -2.816,0 4.48,-26.88 7.808,28.48 c 0.192,0.896 0.768002,2.624 2.816,2.624 0.639999,0 2.304001,-0.256 3.648,-2.496 l 17.343998,-28.544 -4.48,26.816 -2.816,0 c -1.152,0 -3.072,0.128 -3.456,2.432 -0.448,2.432 1.408,2.496 2.624,2.496 l 10.176,0 c 1.216,0 3.072,-0.064 3.456,-2.432"
         style="font-size:64px;fill:#1a1a1a;stroke:#999999;font-family:LMMonoPropLt10;-inkscape-font-specification:LMMonoPropLt10 Bold Oblique"
         id="path7800" />
    </g>
  </g>
</svg>
