<?xml version="1.0" encoding="UTF-8" standalone="no"?>
<!-- Created with Inkscape (http://www.inkscape.org/) -->

<svg
   xmlns:dc="http://purl.org/dc/elements/1.1/"
   xmlns:cc="http://creativecommons.org/ns#"
   xmlns:rdf="http://www.w3.org/1999/02/22-rdf-syntax-ns#"
   xmlns:svg="http://www.w3.org/2000/svg"
   xmlns="http://www.w3.org/2000/svg"
   xmlns:xlink="http://www.w3.org/1999/xlink"
   xmlns:sodipodi="http://sodipodi.sourceforge.net/DTD/sodipodi-0.dtd"
   xmlns:inkscape="http://www.inkscape.org/namespaces/inkscape"
   width="64"
   height="64"
   id="svg2"
   sodipodi:version="0.32"
   inkscape:version="0.48.3.1 r9886"
   sodipodi:docname="GlobalConfig.svg"
   inkscape:output_extension="org.inkscape.output.svg.inkscape"
   version="1.0">
  <defs
     id="defs4">
    <linearGradient
       id="linearGradient2254">
      <stop
         style="stop-color:#bedcdc;stop-opacity:1;"
         offset="0"
         id="stop2256" />
      <stop
         id="stop2264"
         offset="0.5"
         style="stop-color:#8e9e9e;stop-opacity:0.74149668;" />
      <stop
         style="stop-color:#404f5c;stop-opacity:0.8392157;"
         offset="1"
         id="stop2258" />
    </linearGradient>
    <radialGradient
       inkscape:collect="always"
       xlink:href="#linearGradient2254"
       id="radialGradient2340"
       gradientUnits="userSpaceOnUse"
       gradientTransform="matrix(-0.01209749,-0.10667795,0.1138665,-0.0129127,391.119,494.49576)"
       cx="380"
       cy="389.50504"
       fx="380"
       fy="389.50504"
       r="148.85715" />
    <filter
       inkscape:collect="always"
       id="filter3340"
       color-interpolation-filters="sRGB">
      <feGaussianBlur
         inkscape:collect="always"
         stdDeviation="3.9590909"
         id="feGaussianBlur3342" />
    </filter>
    <filter
       inkscape:collect="always"
       id="filter3390"
       color-interpolation-filters="sRGB">
      <feGaussianBlur
         inkscape:collect="always"
         stdDeviation="10.093933"
         id="feGaussianBlur3392" />
    </filter>
    <radialGradient
       inkscape:collect="always"
       xlink:href="#linearGradient2254"
       id="radialGradient3406"
       gradientUnits="userSpaceOnUse"
       gradientTransform="matrix(0.00995378,-0.06655435,0.07129086,0.0107235,415.87508,489.95274)"
       cx="380"
       cy="389.50504"
       fx="380"
       fy="389.50504"
       r="148.85715" />
  </defs>
  <sodipodi:namedview
     id="base"
     pagecolor="#ffffff"
     bordercolor="#666666"
     borderopacity="1.0"
     gridtolerance="10000"
     guidetolerance="10"
     objecttolerance="10"
     inkscape:pageopacity="0.0"
     inkscape:pageshadow="2"
     inkscape:zoom="5.6568542"
     inkscape:cx="25.032637"
     inkscape:cy="33.846418"
     inkscape:document-units="px"
     inkscape:current-layer="layer1"
     showguides="true"
     inkscape:guide-bbox="true"
     showgrid="true"
     inkscape:window-width="1278"
     inkscape:window-height="715"
     inkscape:window-x="0"
     inkscape:window-y="24"
     fit-margin-top="0"
     fit-margin-left="0"
     fit-margin-right="0"
     fit-margin-bottom="0"
     inkscape:window-maximized="0">
    <sodipodi:guide
       orientation="horizontal"
       position="-222.50984,414.8715"
       id="guide2191" />
    <sodipodi:guide
       orientation="vertical"
       position="157.49016,-243.69993"
       id="guide2193" />
    <sodipodi:guide
       orientation="horizontal"
       position="-222.50984,636.30007"
       id="guide2195" />
    <sodipodi:guide
       orientation="horizontal"
       position="-222.50984,216.30007"
       id="guide2197" />
  </sodipodi:namedview>
  <metadata
     id="metadata7">
    <rdf:RDF>
      <cc:Work
         rdf:about="">
        <dc:format>image/svg+xml</dc:format>
        <dc:type
           rdf:resource="http://purl.org/dc/dcmitype/StillImage" />
      </cc:Work>
    </rdf:RDF>
  </metadata>
  <g
     inkscape:label="Layer 1"
     inkscape:groupmode="layer"
     id="layer1"
     transform="translate(-403.16609,-421.54666)">
    <path
       id="path3344"
       d="m 417.4375,175.3125 c -2.40761,18.12082 -17.91084,32.125 -36.6875,32.125 -17.82254,1e-5 -32.72374,-12.59753 -36.25,-29.375 -13.05912,2.8118 -25.65303,6.85014 -37.6875,11.96875 6.59543,16.77035 0.1373,36.31297 -15.9375,45.59375 -14.92546,8.61721 -33.38787,5.68118 -44.9375,-6.0625 -8.09997,7.53123 -15.63753,15.6906 -22.46875,24.40625 14.38109,11.16882 18.67245,31.53809 9.3125,47.75 -8.9272,15.46236 -27.34017,22.07308 -43.65625,16.6875 -3.91032,12.02029 -6.77907,24.51463 -8.46875,37.375 18.74222,1.82534 33.40625,17.62407 33.40625,36.84375 1e-5,18.10476 -13.01226,33.16068 -30.1875,36.375 1.27795,5.75903 2.75941,11.42917 4.5,17 3.35961,-0.88443 6.79511,-1.29527 10.1875,-1.21875 12.5076,0.28213 24.57292,6.91208 31.28125,18.53125 9.1309,15.8152 5.26366,35.5792 -8.28125,46.90625 7.55764,9.9478 15.97857,19.20846 25.15625,27.65625 6.97835,-8.45322 17.22796,-13.19945 27.78125,-13.4375 6.5516,-0.14778 13.19502,1.45486 19.28125,4.96875 16.87547,9.74303 23.17121,30.78021 14.875,48.0625 11.47456,4.75069 23.45238,8.51948 35.84375,11.1875 3.52626,-16.77746 18.42747,-29.375 36.25,-29.375 18.77665,-3e-5 34.27988,14.00417 36.6875,32.125 11.22039,-1.52949 22.16481,-3.92513 32.75,-7.15625 -5.53756,-16.37811 1.05171,-34.93305 16.59375,-43.90625 5.53294,-3.19444 11.5606,-4.78346 17.53125,-4.9375 12.00396,-0.3097 23.78515,5.25309 31.09375,15.5 10.67427,-8.07824 20.55433,-17.16218 29.5,-27.09375 -12.83087,-11.43588 -16.33532,-30.69065 -7.40625,-46.15625 6.70834,-11.61918 18.77365,-18.24913 31.28125,-18.53125 4.98942,-0.11254 10.05708,0.79237 14.875,2.78125 4.3232,-10.70375 7.78842,-21.85142 10.3125,-33.34375 -16.09754,-4.0234 -28.03125,-18.5974 -28.03125,-35.9375 3e-5,-18.44179 13.50638,-33.74143 31.15625,-36.5625 -2.44861,-18.8367 -7.39681,-36.88211 -14.5,-53.8125 -17.27746,8.27773 -38.293,1.99215 -48.03125,-14.875 -9.10417,-15.76889 -5.26652,-35.4694 8.1875,-46.8125 -8.07675,-8.69949 -16.87718,-16.73656 -26.3125,-23.96875 -11.35627,13.37287 -30.98903,17.1753 -46.71875,8.09375 -14.78347,-8.53524 -21.4615,-25.74519 -17.3125,-41.5 -11.27509,-3.57995 -22.96024,-6.23825 -34.96875,-7.875 z m -28.5625,133.75 c 1.28143,0 2.54694,0.0295 3.8125,0.0937 5.0622,0.25708 10.0042,1.0271 14.75,2.25 1.18649,0.3055 2.36843,0.63807 3.53125,1 2.32555,0.72436 4.591,1.55919 6.8125,2.5 1.1108,0.47009 2.20031,0.9754 3.28125,1.5 0.54047,0.2623 1.09201,0.53738 1.625,0.8125 0.0745,0.0382 0.1444,0.0866 0.21875,0.125 0.725,0.37479 1.4454,0.75853 2.15625,1.15625 0.78266,0.43999 1.54669,0.87827 2.3125,1.34375 2.04204,1.24203 4.03069,2.57278 5.9375,4 0.7151,0.5349 1.42909,1.09666 2.125,1.65625 0.42748,0.34454 0.86163,0.67751 1.28125,1.03125 0.56656,0.47632 1.10429,0.97606 1.65625,1.46875 1.03448,0.92341 2.05194,1.86444 3.03125,2.84375 0.63022,0.63058 1.23675,1.28479 1.84375,1.9375 0.0101,0.0109 0.0211,0.0204 0.0312,0.0312 0.28068,0.30218 0.56813,0.59944 0.84375,0.90625 0.70735,0.78739 1.38911,1.58908 2.0625,2.40625 0.18903,0.22939 0.3762,0.45582 0.5625,0.6875 0.56135,0.69675 1.11987,1.40792 1.65625,2.125 0.66839,0.89519 1.30906,1.79303 1.9375,2.71875 0.8779,1.29319 1.73386,2.61892 2.53125,3.96875 0.45439,0.76858 0.88533,1.55773 1.3125,2.34375 1.14403,2.1051 2.18482,4.24714 3.125,6.46875 0.41211,0.97313 0.81633,1.9435 1.1875,2.9375 0.0379,0.10148 0.0563,0.21081 0.0937,0.3125 0.32958,0.89463 0.6418,1.80824 0.9375,2.71875 0.0406,0.12504 0.085,0.24967 0.125,0.375 0.11505,0.36082 0.20285,0.73055 0.3125,1.09375 0.2693,0.89198 0.54495,1.78171 0.78125,2.6875 0.065,0.24927 0.125,0.49972 0.1875,0.75 0.16007,0.6401 0.29417,1.29095 0.4375,1.9375 0.17687,0.79784 0.34904,1.59902 0.5,2.40625 0.008,0.0421 0.0235,0.0828 0.0312,0.125 0.0134,0.0723 0.0181,0.14636 0.0312,0.21875 0.16988,0.93277 0.3341,1.86797 0.46875,2.8125 0.009,0.063 0.0224,0.12448 0.0312,0.1875 0.0289,0.20674 0.0353,0.41772 0.0625,0.625 0.11459,0.87239 0.2285,1.74339 0.3125,2.625 0.10428,1.09564 0.19375,2.20385 0.25,3.3125 0.0632,1.25541 0.0937,2.54148 0.0937,3.8125 0,2.56286 -0.12124,5.06624 -0.375,7.5625 -0.001,0.0103 10e-4,0.021 0,0.0312 -0.12634,1.23766 -0.28232,2.46853 -0.46875,3.6875 -0.002,0.0102 0.002,0.0211 0,0.0312 -0.18692,1.2188 -0.41078,2.42641 -0.65625,3.625 -0.002,0.01 0.002,0.0212 0,0.0312 -0.12298,0.59923 -0.26393,1.18752 -0.40625,1.78125 -0.13757,0.59506 -0.28571,1.19175 -0.4375,1.78125 -0.003,0.01 0.003,0.0215 0,0.0312 -0.30347,1.17658 -0.64104,2.34671 -1,3.5 -0.003,0.01 0.003,0.0217 0,0.0312 -0.72181,2.31581 -1.56363,4.5999 -2.5,6.8125 -0.94018,2.22161 -1.98097,4.36365 -3.125,6.46875 -0.004,0.008 0.004,0.0232 0,0.0312 -1.14045,2.09669 -2.38839,4.12509 -3.71875,6.09375 -0.005,0.007 0.005,0.024 0,0.0312 -0.66325,0.98075 -1.3544,1.92835 -2.0625,2.875 -0.005,0.007 0.005,0.0244 0,0.0312 -0.70862,0.9467 -1.46679,1.87021 -2.21875,2.78125 -0.005,0.006 0.005,0.025 0,0.0312 -3.02474,3.66229 -6.39924,7.0389 -10.0625,10.0625 -3.66903,3.02832 -7.63379,5.71218 -11.84375,8 -2.1051,1.14403 -4.27839,2.18482 -6.5,3.125 -2.2215,0.94007 -4.48695,1.77623 -6.8125,2.5 -1.16282,0.36193 -2.34476,0.6945 -3.53125,1 -4.7458,1.22187 -9.6878,1.99315 -14.75,2.25 -1.26556,0.0642 -2.53107,0.0937 -3.8125,0.0937 -1.28143,0 -2.54694,-0.0295 -3.8125,-0.0937 -5.0622,-0.25708 -10.0042,-1.0271 -14.75,-2.25 -1.18649,-0.3055 -2.36843,-0.63807 -3.53125,-1 -2.32555,-0.72436 -4.591,-1.55919 -6.8125,-2.5 -2.22161,-0.94018 -4.3949,-1.98097 -6.5,-3.125 -1.05249,-0.57237 -2.07273,-1.19148 -3.09375,-1.8125 -1.02102,-0.62101 -2.04048,-1.27116 -3.03125,-1.9375 -0.98806,-0.6677 -1.95278,-1.3493 -2.90625,-2.0625 -1.90694,-1.42641 -3.74076,-2.93218 -5.5,-4.53125 -0.87406,-0.79448 -1.7272,-1.63396 -2.5625,-2.46875 -0.84592,-0.84541 -1.66416,-1.67732 -2.46875,-2.5625 -0.005,-0.006 0.005,-0.0254 0,-0.0312 -0.79946,-0.88004 -1.58667,-1.76976 -2.34375,-2.6875 -0.75715,-0.91733 -1.50555,-1.85903 -2.21875,-2.8125 -0.71314,-0.95388 -1.39486,-1.9178 -2.0625,-2.90625 -1.3354,-1.97612 -2.57472,-4.0199 -3.71875,-6.125 -1.14403,-2.1051 -2.18482,-4.24714 -3.125,-6.46875 -0.004,-0.009 0.004,-0.0224 0,-0.0312 -0.46628,-1.10224 -0.92991,-2.21517 -1.34375,-3.34375 -0.003,-0.009 0.003,-0.022 0,-0.0312 -0.41674,-1.13788 -0.79437,-2.27443 -1.15625,-3.4375 -0.35411,-1.13771 -0.66841,-2.27781 -0.96875,-3.4375 -0.0215,-0.0831 -0.0413,-0.16683 -0.0625,-0.25 -0.26945,-1.05564 -0.52632,-2.14589 -0.75,-3.21875 -0.0561,-0.26964 -0.1031,-0.5418 -0.15625,-0.8125 -0.1496,-0.76056 -0.31137,-1.51258 -0.4375,-2.28125 -0.0631,-0.38498 -0.13034,-0.7693 -0.1875,-1.15625 -0.005,-0.0304 0.004,-0.0633 0,-0.0937 -0.14909,-1.01671 -0.26774,-2.03262 -0.375,-3.0625 -0.0185,-0.17766 -0.0452,-0.35322 -0.0625,-0.53125 -0.10206,-1.05377 -0.16146,-2.12084 -0.21875,-3.1875 -0.005,-0.0844 -0.027,-0.16551 -0.0312,-0.25 -0.0642,-1.26561 -0.0937,-2.53107 -0.0937,-3.8125 0,-1.28143 0.0295,-2.54694 0.0937,-3.8125 0.0613,-1.25301 0.15495,-2.5072 0.28125,-3.75 10e-4,-0.0103 -0.001,-0.0209 0,-0.0312 0.12581,-1.23779 0.28284,-2.46839 0.46875,-3.6875 0.002,-0.0102 -0.002,-0.0211 0,-0.0312 0.1864,-1.21894 0.41129,-2.42627 0.65625,-3.625 0.002,-0.01 -0.002,-0.0213 0,-0.0312 0.24545,-1.1986 0.54127,-2.38564 0.84375,-3.5625 0.002,-0.01 -0.003,-0.0215 0,-0.0312 0.30296,-1.17673 0.64153,-2.34655 1,-3.5 0.003,-0.009 -0.003,-0.0218 0,-0.0312 0.36188,-1.16278 0.73951,-2.29996 1.15625,-3.4375 0.31226,-0.85229 0.65771,-1.69389 1,-2.53125 0.0389,-0.095 0.0857,-0.18642 0.125,-0.28125 0.16826,-0.40679 0.32476,-0.81563 0.5,-1.21875 0.27026,-0.62099 0.55708,-1.23175 0.84375,-1.84375 0.19638,-0.41972 0.38979,-0.83459 0.59375,-1.25 0.44925,-0.914 0.92038,-1.82471 1.40625,-2.71875 0.004,-0.008 -0.004,-0.0233 0,-0.0312 0.57195,-1.05249 1.16068,-2.07273 1.78125,-3.09375 0.62508,-1.02839 1.26469,-2.03637 1.9375,-3.03125 0.66286,-0.98093 1.35478,-1.92816 2.0625,-2.875 0.005,-0.007 -0.005,-0.0247 0,-0.0312 0.70825,-0.94688 1.46715,-1.87002 2.21875,-2.78125 0.005,-0.006 -0.005,-0.0252 0,-0.0312 0.75708,-0.91726 1.54429,-1.80795 2.34375,-2.6875 2.3986,-2.63887 4.96677,-5.10355 7.71875,-7.375 3.66903,-3.02832 7.63379,-5.71218 11.84375,-8 2.1051,-1.14403 4.27839,-2.18482 6.5,-3.125 2.2215,-0.94007 4.48695,-1.77623 6.8125,-2.5 1.16282,-0.36193 2.34476,-0.6945 3.53125,-1 4.7458,-1.22187 9.6878,-1.99315 14.75,-2.25 1.26556,-0.0642 2.53107,-0.0937 3.8125,-0.0937 z"
       style="opacity:0.8848485;fill:#000000;fill-opacity:1;stroke:none;filter:url(#filter3390)"
       transform="matrix(0.10987891,0,0,0.11512287,389.15962,403.97628)"
       inkscape:connector-curvature="0" />
    <path
       style="fill:#c0c0c0;fill-opacity:1;stroke:none"
       d="m 435.16194,424.26831 c -0.2759,2.07658 -2.05251,3.6814 -4.20425,3.6814 -2.0424,1e-5 -3.75002,-1.44363 -4.15412,-3.36626 -1.49652,0.32222 -2.93974,0.785 -4.31885,1.37157 0.75582,1.92182 0.0157,4.16133 -1.82638,5.22488 -1.7104,0.9875 -3.82612,0.65104 -5.14967,-0.69474 -0.92822,0.86305 -1.792,1.79808 -2.57483,2.79686 1.64802,1.27991 2.13979,3.61415 1.06717,5.47198 -1.02302,1.77193 -3.13308,2.52949 -5.00284,1.91233 -0.44811,1.37748 -0.77686,2.80928 -0.97049,4.28303 2.14779,0.20918 3.82823,2.01966 3.82823,4.22216 1e-5,2.07474 -1.49115,3.80009 -3.45937,4.16844 0.14645,0.65997 0.31622,1.30974 0.51568,1.94814 0.385,-0.10135 0.7787,-0.14843 1.16745,-0.13966 1.43333,0.0323 2.81597,0.79209 3.58472,2.12361 1.04637,1.81236 0.60319,4.07724 -0.949,5.37528 0.86607,1.13998 1.83108,2.20122 2.88281,3.16931 0.79969,-0.96871 1.97426,-1.51261 3.18363,-1.53989 0.75079,-0.0169 1.5121,0.16672 2.20956,0.5694 1.93387,1.11652 2.65534,3.5273 1.70462,5.50779 1.31494,0.54441 2.68756,0.9763 4.10756,1.28204 0.4041,-1.92263 2.11172,-3.36626 4.15412,-3.36626 2.15173,-1e-5 3.92835,1.60482 4.20425,3.6814 1.28582,-0.17527 2.54001,-0.4498 3.75303,-0.82008 -0.63458,-1.87687 0.12052,-4.0032 1.90158,-5.03149 0.63406,-0.36607 1.32481,-0.54817 2.00902,-0.56582 1.37561,-0.0355 2.72569,0.60198 3.56323,1.77624 1.22323,-0.92574 2.35545,-1.96672 3.38059,-3.10484 -1.47037,-1.31051 -1.87196,-3.51704 -0.84873,-5.28934 0.76875,-1.33152 2.15139,-2.09128 3.58472,-2.12361 0.57177,-0.0129 1.1525,0.0908 1.70462,0.31872 0.49542,-1.22661 0.89252,-2.50409 1.18177,-3.82107 -1.84471,-0.46107 -3.21227,-2.1312 -3.21227,-4.11831 0,-2.11336 1.54778,-3.86664 3.57039,-4.18993 -0.2806,-2.15861 -0.84765,-4.22655 -1.66165,-6.16671 -1.97993,0.9486 -4.38824,0.22829 -5.5042,-1.70462 -1.04331,-1.80706 -0.60353,-4.06466 0.93825,-5.36454 -0.92556,-0.99693 -1.93406,-1.91795 -3.01531,-2.74673 -1.30139,1.53248 -3.55123,1.96822 -5.3538,0.92751 -1.69413,-0.97811 -2.45941,-2.9503 -1.98395,-4.75575 -1.29208,-0.41025 -2.63116,-0.71488 -4.00729,-0.90244 z m -3.27316,15.32726 c 0.14685,0 0.29187,0.003 0.4369,0.0107 0.58011,0.0295 1.14645,0.1177 1.6903,0.25784 0.13597,0.035 0.27141,0.0731 0.40467,0.1146 0.2665,0.083 0.52611,0.17867 0.78068,0.28649 0.1273,0.0539 0.25215,0.11178 0.37602,0.17189 0.0619,0.0301 0.12514,0.0616 0.18622,0.0931 0.009,0.004 0.0165,0.01 0.0251,0.0143 0.0831,0.043 0.16564,0.0869 0.2471,0.1325 0.0897,0.0504 0.17724,0.10065 0.265,0.15399 0.23401,0.14233 0.46191,0.29483 0.68042,0.45838 0.082,0.0613 0.16377,0.12568 0.24352,0.1898 0.049,0.0395 0.0987,0.0776 0.14682,0.11818 0.0649,0.0546 0.12655,0.11185 0.1898,0.16831 0.11855,0.10582 0.23515,0.21366 0.34737,0.32589 0.0722,0.0723 0.14173,0.14723 0.21129,0.22203 0.001,10e-4 0.002,0.002 0.004,0.004 0.0322,0.0346 0.0651,0.0687 0.0967,0.10385 0.0811,0.0902 0.15919,0.1821 0.23636,0.27575 0.0217,0.0263 0.0431,0.0522 0.0645,0.0788 0.0643,0.0799 0.12833,0.16135 0.1898,0.24352 0.0766,0.10259 0.15001,0.20548 0.22203,0.31156 0.1006,0.14819 0.19869,0.30012 0.29007,0.4548 0.0521,0.0881 0.10146,0.17851 0.15041,0.26859 0.1311,0.24124 0.25037,0.48671 0.35811,0.74129 0.0472,0.11152 0.0935,0.22272 0.13608,0.33663 0.004,0.0116 0.006,0.0242 0.0108,0.0358 0.0378,0.10252 0.0736,0.20722 0.10743,0.31156 0.005,0.0143 0.01,0.0286 0.0143,0.043 0.0132,0.0414 0.0232,0.0837 0.0358,0.12534 0.0309,0.10222 0.0625,0.20418 0.0895,0.30798 0.007,0.0286 0.0143,0.0573 0.0215,0.086 0.0183,0.0734 0.0337,0.14794 0.0501,0.22203 0.0203,0.0914 0.04,0.18324 0.0573,0.27575 9e-4,0.005 0.003,0.009 0.004,0.0143 0.002,0.008 0.002,0.0168 0.004,0.0251 0.0195,0.10689 0.0383,0.21406 0.0537,0.3223 10e-4,0.007 0.003,0.0143 0.004,0.0215 0.003,0.0237 0.004,0.0479 0.007,0.0716 0.0131,0.1 0.0262,0.19979 0.0358,0.30082 0.0119,0.12555 0.0222,0.25255 0.0286,0.3796 0.007,0.14386 0.0107,0.29124 0.0107,0.4369 0,0.29369 -0.0139,0.58057 -0.043,0.86663 -1.2e-4,0.001 1.2e-4,0.002 0,0.004 -0.0145,0.14183 -0.0324,0.28289 -0.0537,0.42258 -1.8e-4,0.001 1.8e-4,0.002 0,0.004 -0.0214,0.13967 -0.0471,0.27805 -0.0752,0.41541 -2.4e-4,10e-4 2.3e-4,0.002 0,0.004 -0.0141,0.0687 -0.0303,0.13608 -0.0466,0.20412 -0.0158,0.0682 -0.0327,0.13657 -0.0501,0.20413 -2.9e-4,0.001 2.9e-4,0.002 0,0.004 -0.0348,0.13483 -0.0735,0.26892 -0.1146,0.40109 -3.4e-4,10e-4 3.4e-4,0.002 0,0.004 -0.0827,0.26538 -0.17918,0.52713 -0.28649,0.78069 -0.10774,0.25458 -0.22701,0.50005 -0.35811,0.74129 -5.1e-4,9.3e-4 5e-4,0.003 0,0.004 -0.13069,0.24027 -0.2737,0.47272 -0.42616,0.69832 -5.6e-4,8.3e-4 5.6e-4,0.003 0,0.004 -0.076,0.11239 -0.15521,0.22099 -0.23635,0.32947 -5.9e-4,7.8e-4 5.8e-4,0.003 0,0.004 -0.0812,0.10849 -0.16809,0.21432 -0.25426,0.31872 -6e-4,7.2e-4 5.9e-4,0.003 0,0.004 -0.34663,0.41969 -0.73333,0.80663 -1.15313,1.15313 -0.42046,0.34703 -0.8748,0.65459 -1.35725,0.91677 -0.24124,0.1311 -0.49029,0.25037 -0.74488,0.35811 -0.25457,0.10773 -0.51418,0.20355 -0.78068,0.28649 -0.13326,0.0415 -0.2687,0.0796 -0.40467,0.1146 -0.54385,0.14002 -1.11019,0.22841 -1.6903,0.25784 -0.14503,0.007 -0.29005,0.0107 -0.4369,0.0107 -0.14684,0 -0.29187,-0.003 -0.43689,-0.0107 -0.58011,-0.0295 -1.14645,-0.1177 -1.6903,-0.25784 -0.13597,-0.035 -0.27141,-0.0731 -0.40467,-0.1146 -0.2665,-0.083 -0.52611,-0.17868 -0.78069,-0.28649 -0.25458,-0.10774 -0.50363,-0.22701 -0.74487,-0.35811 -0.12061,-0.0656 -0.23753,-0.13654 -0.35453,-0.20771 -0.11701,-0.0712 -0.23384,-0.14567 -0.34737,-0.22203 -0.11323,-0.0765 -0.22379,-0.15462 -0.33305,-0.23635 -0.21853,-0.16346 -0.42868,-0.33602 -0.63028,-0.51927 -0.10016,-0.091 -0.19793,-0.18724 -0.29365,-0.28291 -0.0969,-0.0969 -0.19071,-0.19221 -0.28291,-0.29365 -6.1e-4,-6.7e-4 6e-4,-0.003 0,-0.004 -0.0916,-0.10085 -0.18183,-0.20281 -0.26859,-0.30798 -0.0868,-0.10512 -0.17253,-0.21304 -0.25426,-0.3223 -0.0817,-0.10931 -0.15984,-0.21977 -0.23635,-0.33305 -0.15303,-0.22645 -0.29506,-0.46066 -0.42616,-0.7019 -0.1311,-0.24124 -0.25037,-0.48671 -0.35811,-0.74129 -4.3e-4,-10e-4 4.3e-4,-0.003 0,-0.004 -0.0534,-0.12631 -0.10657,-0.25385 -0.15399,-0.38318 -3.9e-4,-10e-4 3.9e-4,-0.003 0,-0.004 -0.0478,-0.1304 -0.091,-0.26064 -0.1325,-0.39392 -0.0406,-0.13038 -0.0766,-0.26103 -0.11102,-0.39393 -0.002,-0.01 -0.005,-0.0191 -0.007,-0.0287 -0.0309,-0.12097 -0.0603,-0.24591 -0.086,-0.36885 -0.006,-0.0309 -0.0118,-0.0621 -0.0179,-0.0931 -0.0171,-0.0872 -0.0357,-0.17334 -0.0501,-0.26143 -0.007,-0.0441 -0.0149,-0.0882 -0.0215,-0.1325 -5.1e-4,-0.003 5.2e-4,-0.007 0,-0.0107 -0.0171,-0.11651 -0.0307,-0.23293 -0.043,-0.35095 -0.002,-0.0204 -0.005,-0.0405 -0.007,-0.0609 -0.0117,-0.12076 -0.0185,-0.24304 -0.0251,-0.36528 -5.2e-4,-0.01 -0.003,-0.019 -0.004,-0.0286 -0.007,-0.14503 -0.0107,-0.29005 -0.0107,-0.4369 0,-0.14684 0.003,-0.29187 0.0107,-0.43689 0.007,-0.14359 0.0178,-0.28732 0.0322,-0.42974 1.2e-4,-10e-4 -1.2e-4,-0.002 0,-0.004 0.0144,-0.14185 0.0324,-0.28287 0.0537,-0.42258 1.8e-4,-10e-4 -1.8e-4,-0.002 0,-0.004 0.0214,-0.13968 0.0471,-0.27804 0.0752,-0.41541 2.3e-4,-10e-4 -2.3e-4,-0.002 0,-0.004 0.0281,-0.13735 0.062,-0.27339 0.0967,-0.40825 2.9e-4,-10e-4 -2.9e-4,-0.002 0,-0.004 0.0347,-0.13485 0.0735,-0.26891 0.1146,-0.40109 3.3e-4,-10e-4 -3.4e-4,-0.002 0,-0.004 0.0415,-0.13325 0.0847,-0.26357 0.1325,-0.39392 0.0358,-0.0977 0.0754,-0.19412 0.1146,-0.29008 0.004,-0.0109 0.01,-0.0214 0.0143,-0.0322 0.0193,-0.0466 0.0372,-0.0935 0.0573,-0.13966 0.031,-0.0712 0.0638,-0.14115 0.0967,-0.21129 0.0225,-0.0481 0.0447,-0.0956 0.068,-0.14324 0.0515,-0.10474 0.10547,-0.20911 0.16115,-0.31156 5e-4,-9.1e-4 -4.9e-4,-0.003 0,-0.004 0.0655,-0.12061 0.13301,-0.23753 0.20413,-0.35453 0.0716,-0.11785 0.14493,-0.23336 0.22203,-0.34737 0.076,-0.11242 0.15525,-0.22096 0.23635,-0.32947 5.6e-4,-7.5e-4 -5.6e-4,-0.003 0,-0.004 0.0812,-0.10851 0.16813,-0.2143 0.25426,-0.31872 5.7e-4,-6.9e-4 -5.7e-4,-0.003 0,-0.004 0.0868,-0.10512 0.17697,-0.20719 0.26859,-0.30798 0.27487,-0.3024 0.56917,-0.58485 0.88454,-0.84515 0.42046,-0.34703 0.8748,-0.65459 1.35725,-0.91677 0.24124,-0.1311 0.49029,-0.25037 0.74487,-0.35811 0.25458,-0.10773 0.51419,-0.20355 0.78069,-0.28649 0.13326,-0.0415 0.2687,-0.0796 0.40467,-0.1146 0.54385,-0.14002 1.11019,-0.22841 1.6903,-0.25784 0.14502,-0.007 0.29005,-0.0107 0.43689,-0.0107 z"
       id="path2274"
       inkscape:connector-curvature="0" />
    <path
       style="opacity:0.79393939;fill:#a9a9a9;fill-opacity:1;stroke:none"
       d="m 431.88699,428.49763 c -10.82601,0 -19.61029,8.78786 -19.61029,19.61388 0,10.82601 8.78428,19.61029 19.61029,19.61029 10.82602,1e-5 19.61388,-8.78428 19.61388,-19.61029 0,-10.82602 -8.78786,-19.61388 -19.61388,-19.61388 z m 0.004,11.09794 c 0.14685,0 0.29188,0.003 0.4369,0.0107 0.58011,0.0295 1.14645,0.1177 1.6903,0.25784 0.13597,0.035 0.27141,0.0731 0.40467,0.1146 0.2665,0.083 0.52611,0.17867 0.78069,0.28649 0.38188,0.16161 0.74837,0.35245 1.0994,0.56582 0.23401,0.14233 0.46191,0.29483 0.68042,0.45838 0.32779,0.24519 0.63861,0.51327 0.92751,0.80218 0.57777,0.5781 1.07142,1.2385 1.46469,1.96246 0.1311,0.24124 0.25037,0.48671 0.35811,0.74129 0.37781,0.89214 0.60736,1.86285 0.65893,2.87924 0.007,0.14386 0.0107,0.29124 0.0107,0.4369 0,0.29369 -0.0139,0.58057 -0.043,0.86663 -1.2e-4,0.001 1.2e-4,0.002 0,0.004 -0.0145,0.14183 -0.0324,0.28289 -0.0537,0.42258 -1.8e-4,0.001 1.8e-4,0.002 0,0.004 -0.0214,0.13967 -0.0471,0.27805 -0.0752,0.41541 -2.4e-4,10e-4 2.3e-4,0.002 0,0.004 -0.0282,0.13734 -0.062,0.2734 -0.0967,0.40825 -2.9e-4,0.001 2.9e-4,0.002 0,0.004 -0.0348,0.13483 -0.0735,0.26892 -0.1146,0.40109 -3.4e-4,10e-4 3.4e-4,0.002 0,0.004 -0.16577,0.53185 -0.38293,1.04048 -0.6446,1.52198 -5.1e-4,9.3e-4 5e-4,0.003 0,0.004 -0.13069,0.24027 -0.2737,0.47272 -0.42616,0.69832 -5.6e-4,8.3e-4 5.6e-4,0.003 0,0.004 -0.076,0.11239 -0.15521,0.22099 -0.23635,0.32947 -5.9e-4,7.8e-4 5.8e-4,0.003 0,0.004 -0.0812,0.10849 -0.16809,0.21432 -0.25426,0.31872 -6e-4,7.2e-4 5.9e-4,0.003 0,0.004 -0.17303,0.2095 -0.35595,0.40966 -0.54792,0.60163 -0.0969,0.0969 -0.19579,0.19071 -0.29723,0.28291 -0.1008,0.0916 -0.20286,0.18182 -0.30798,0.26859 -0.42046,0.34703 -0.8748,0.65459 -1.35725,0.91677 -0.24123,0.1311 -0.49029,0.25037 -0.74487,0.35811 -0.25458,0.10773 -0.51419,0.20355 -0.78069,0.28649 -0.13326,0.0415 -0.2687,0.0796 -0.40467,0.1146 -0.54385,0.14002 -1.11019,0.22841 -1.6903,0.25784 -0.14502,0.007 -0.29005,0.0107 -0.4369,0.0107 -0.14684,0 -0.29187,-0.003 -0.43689,-0.0107 -0.58011,-0.0295 -1.14645,-0.1177 -1.6903,-0.25784 -0.13597,-0.035 -0.27141,-0.0731 -0.40467,-0.1146 -0.2665,-0.083 -0.52611,-0.17868 -0.78068,-0.28649 -0.38189,-0.16161 -0.74838,-0.35245 -1.09941,-0.56582 -0.23401,-0.14233 -0.4619,-0.29483 -0.68042,-0.45838 -0.43778,-0.32746 -0.83987,-0.69543 -1.20684,-1.09941 -0.0916,-0.10085 -0.18183,-0.20281 -0.26859,-0.30798 -0.34706,-0.42049 -0.65456,-0.87478 -0.91677,-1.35725 -0.1311,-0.24124 -0.25037,-0.48671 -0.35811,-0.74129 -4.3e-4,-10e-4 4.3e-4,-0.003 0,-0.004 -0.0534,-0.12631 -0.10657,-0.25385 -0.15399,-0.38318 -3.9e-4,-10e-4 3.9e-4,-0.003 0,-0.004 -0.0478,-0.1304 -0.091,-0.26064 -0.1325,-0.39392 -0.20771,-0.66736 -0.33588,-1.36857 -0.37244,-2.09497 -0.007,-0.14503 -0.0107,-0.29005 -0.0107,-0.4369 0,-0.2949 0.0136,-0.583 0.043,-0.87021 0.0144,-0.14185 0.0324,-0.28287 0.0537,-0.42258 1.8e-4,-10e-4 -1.8e-4,-0.002 0,-0.004 0.0214,-0.13968 0.0471,-0.27804 0.0752,-0.41541 2.4e-4,-0.001 -2.3e-4,-0.002 0,-0.004 0.0281,-0.13735 0.062,-0.27339 0.0967,-0.40825 2.9e-4,-10e-4 -2.8e-4,-0.002 0,-0.004 0.0347,-0.13485 0.0735,-0.26891 0.1146,-0.40109 3.3e-4,-0.001 -3.4e-4,-0.002 0,-0.004 0.0415,-0.13325 0.0847,-0.26357 0.1325,-0.39392 0.14365,-0.39208 0.31483,-0.76896 0.5121,-1.13164 0.0656,-0.12061 0.13301,-0.23753 0.20413,-0.35453 0.0716,-0.11785 0.14493,-0.23336 0.22203,-0.34737 0.076,-0.11242 0.15525,-0.22096 0.23635,-0.32947 5.6e-4,-7.5e-4 -5.6e-4,-0.003 0,-0.004 0.0812,-0.10851 0.16813,-0.2143 0.25426,-0.31872 5.8e-4,-6.9e-4 -5.7e-4,-0.003 0,-0.004 0.0868,-0.10512 0.17697,-0.20719 0.26859,-0.30798 0.0916,-0.1008 0.18303,-0.19735 0.27933,-0.29365 0.0969,-0.0969 0.19579,-0.19071 0.29723,-0.28291 0.1008,-0.0916 0.20286,-0.18182 0.30798,-0.26859 0.42046,-0.34703 0.8748,-0.65459 1.35725,-0.91677 0.24124,-0.1311 0.49029,-0.25037 0.74488,-0.35811 0.25457,-0.10773 0.51418,-0.20355 0.78068,-0.28649 0.13326,-0.0415 0.2687,-0.0796 0.40467,-0.1146 0.54385,-0.14002 1.11019,-0.22841 1.6903,-0.25784 0.14502,-0.007 0.29005,-0.0107 0.43689,-0.0107 z"
       id="path2249"
       inkscape:connector-curvature="0" />
    <path
       style="opacity:0.79393939;fill:url(#radialGradient2340);fill-opacity:1;stroke:none"
       d="m 431.88699,431.05098 c -9.41628,0 -17.05694,7.64424 -17.05694,17.06053 0,9.41628 7.64066,17.05694 17.05694,17.05694 9.41629,0 17.06053,-7.64066 17.06053,-17.05694 0,-9.41629 -7.64424,-17.06053 -17.06053,-17.06053 z m 0.004,8.54459 c 4.69911,-1e-5 8.51236,3.81683 8.51236,8.51594 0,4.6991 -3.81325,8.51235 -8.51236,8.51235 -4.6991,0 -8.51235,-3.81683 -8.51235,-8.51594 0,-4.6991 3.81325,-8.51235 8.51235,-8.51235 z"
       id="path2252"
       inkscape:connector-curvature="0" />
    <path
       id="path3318"
       d="m 388.875,274.48438 c -60.099,0 -108.87501,48.76554 -108.875,108.85588 0,60.09035 48.77602,108.89412 108.875,108.89412 60.099,0 108.87501,-48.76555 108.875,-108.85589 l 0,-0.0382 c 0,-60.09034 -48.77599,-108.85588 -108.875,-108.85588 z m 0,24.6531 c 46.57461,1e-5 84.3743,37.73998 84.3743,84.24101 -2e-5,46.50101 -37.7997,84.20278 -84.3743,84.20278 -46.57459,0 -84.3743,-37.73998 -84.3743,-84.24101 -10e-6,-46.50103 37.7997,-84.20278 84.3743,-84.20278 z"
       style="opacity:0.58787878;fill:#696969;fill-opacity:1;stroke:none;filter:url(#filter3340)"
       transform="matrix(0.09591357,0,0,0.09577906,394.59039,411.39192)"
       inkscape:connector-curvature="0" />
    <path
       style="fill:#c0c0c0;fill-opacity:1;stroke:none"
       d="m 431.88878,437.90885 c -5.62198,0 -10.18474,4.56901 -10.18474,10.19907 0,5.63007 4.56277,10.20266 10.18474,10.20266 5.62199,0 10.18475,-4.56901 10.18475,-10.19907 l 0,-0.004 c 0,-5.63006 -4.56276,-10.19907 -10.18475,-10.19907 z m 0,2.30983 c 4.35684,0 7.89283,3.53599 7.89283,7.89283 0,4.35683 -3.53599,7.88924 -7.89283,7.88924 -4.35683,0 -7.89282,-3.53599 -7.89282,-7.89283 0,-4.35683 3.53599,-7.88924 7.89282,-7.88924 z"
       id="path3313"
       inkscape:connector-curvature="0" />
    <path
       transform="matrix(0.06677291,0.01789174,-0.0186753,0.06969719,429.36851,434.83178)"
       style="opacity:0.8848485;fill:#000000;fill-opacity:1;stroke:none;filter:url(#filter3390)"
       d="m 417.4375,175.3125 c -2.40761,18.12082 -17.91084,32.125 -36.6875,32.125 -17.82254,1e-5 -32.72374,-12.59753 -36.25,-29.375 -13.05912,2.8118 -25.65303,6.85014 -37.6875,11.96875 6.59543,16.77035 0.1373,36.31297 -15.9375,45.59375 -14.92546,8.61721 -33.38787,5.68118 -44.9375,-6.0625 -8.09997,7.53123 -15.63753,15.6906 -22.46875,24.40625 14.38109,11.16882 18.67245,31.53809 9.3125,47.75 -8.9272,15.46236 -27.34017,22.07308 -43.65625,16.6875 -3.91032,12.02029 -6.77907,24.51463 -8.46875,37.375 18.74222,1.82534 33.40625,17.62407 33.40625,36.84375 1e-5,18.10476 -13.01226,33.16068 -30.1875,36.375 1.27795,5.75903 2.75941,11.42917 4.5,17 3.35961,-0.88443 6.79511,-1.29527 10.1875,-1.21875 12.5076,0.28213 24.57292,6.91208 31.28125,18.53125 9.1309,15.8152 5.26366,35.5792 -8.28125,46.90625 7.55764,9.9478 15.97857,19.20846 25.15625,27.65625 6.97835,-8.45322 17.22796,-13.19945 27.78125,-13.4375 6.5516,-0.14778 13.19502,1.45486 19.28125,4.96875 16.87547,9.74303 23.17121,30.78021 14.875,48.0625 11.47456,4.75069 23.45238,8.51948 35.84375,11.1875 3.52626,-16.77746 18.42747,-29.375 36.25,-29.375 18.77665,-3e-5 34.27988,14.00417 36.6875,32.125 11.22039,-1.52949 22.16481,-3.92513 32.75,-7.15625 -5.53756,-16.37811 1.05171,-34.93305 16.59375,-43.90625 5.53294,-3.19444 11.5606,-4.78346 17.53125,-4.9375 12.00396,-0.3097 23.78515,5.25309 31.09375,15.5 10.67427,-8.07824 20.55433,-17.16218 29.5,-27.09375 -12.83087,-11.43588 -16.33532,-30.69065 -7.40625,-46.15625 6.70834,-11.61918 18.77365,-18.24913 31.28125,-18.53125 4.98942,-0.11254 10.05708,0.79237 14.875,2.78125 4.3232,-10.70375 7.78842,-21.85142 10.3125,-33.34375 -16.09754,-4.0234 -28.03125,-18.5974 -28.03125,-35.9375 3e-5,-18.44179 13.50638,-33.74143 31.15625,-36.5625 -2.44861,-18.8367 -7.39681,-36.88211 -14.5,-53.8125 -17.27746,8.27773 -38.293,1.99215 -48.03125,-14.875 -9.10417,-15.76889 -5.26652,-35.4694 8.1875,-46.8125 -8.07675,-8.69949 -16.87718,-16.73656 -26.3125,-23.96875 -11.35627,13.37287 -30.98903,17.1753 -46.71875,8.09375 -14.78347,-8.53524 -21.4615,-25.74519 -17.3125,-41.5 -11.27509,-3.57995 -22.96024,-6.23825 -34.96875,-7.875 z m -28.5625,133.75 c 1.28143,0 2.54694,0.0295 3.8125,0.0937 5.0622,0.25708 10.0042,1.0271 14.75,2.25 1.18649,0.3055 2.36843,0.63807 3.53125,1 2.32555,0.72436 4.591,1.55919 6.8125,2.5 1.1108,0.47009 2.20031,0.9754 3.28125,1.5 0.54047,0.2623 1.09201,0.53738 1.625,0.8125 0.0745,0.0382 0.1444,0.0866 0.21875,0.125 0.725,0.37479 1.4454,0.75853 2.15625,1.15625 0.78266,0.43999 1.54669,0.87827 2.3125,1.34375 2.04204,1.24203 4.03069,2.57278 5.9375,4 0.7151,0.5349 1.42909,1.09666 2.125,1.65625 0.42748,0.34454 0.86163,0.67751 1.28125,1.03125 0.56656,0.47632 1.10429,0.97606 1.65625,1.46875 1.03448,0.92341 2.05194,1.86444 3.03125,2.84375 0.63022,0.63058 1.23675,1.28479 1.84375,1.9375 0.0101,0.0109 0.0211,0.0204 0.0312,0.0312 0.28068,0.30218 0.56813,0.59944 0.84375,0.90625 0.70735,0.78739 1.38911,1.58908 2.0625,2.40625 0.18903,0.22939 0.3762,0.45582 0.5625,0.6875 0.56135,0.69675 1.11987,1.40792 1.65625,2.125 0.66839,0.89519 1.30906,1.79303 1.9375,2.71875 0.8779,1.29319 1.73386,2.61892 2.53125,3.96875 0.45439,0.76858 0.88533,1.55773 1.3125,2.34375 1.14403,2.1051 2.18482,4.24714 3.125,6.46875 0.41211,0.97313 0.81633,1.9435 1.1875,2.9375 0.0379,0.10148 0.0563,0.21081 0.0937,0.3125 0.32958,0.89463 0.6418,1.80824 0.9375,2.71875 0.0406,0.12504 0.085,0.24967 0.125,0.375 0.11505,0.36082 0.20285,0.73055 0.3125,1.09375 0.2693,0.89198 0.54495,1.78171 0.78125,2.6875 0.065,0.24927 0.125,0.49972 0.1875,0.75 0.16007,0.6401 0.29417,1.29095 0.4375,1.9375 0.17687,0.79784 0.34904,1.59902 0.5,2.40625 0.008,0.0421 0.0235,0.0828 0.0312,0.125 0.0134,0.0723 0.0181,0.14636 0.0312,0.21875 0.16988,0.93277 0.3341,1.86797 0.46875,2.8125 0.009,0.063 0.0224,0.12448 0.0312,0.1875 0.0289,0.20674 0.0353,0.41772 0.0625,0.625 0.11459,0.87239 0.2285,1.74339 0.3125,2.625 0.10428,1.09564 0.19375,2.20385 0.25,3.3125 0.0632,1.25541 0.0937,2.54148 0.0937,3.8125 0,2.56286 -0.12124,5.06624 -0.375,7.5625 -0.001,0.0103 10e-4,0.021 0,0.0312 -0.12634,1.23766 -0.28232,2.46853 -0.46875,3.6875 -0.002,0.0102 0.002,0.0211 0,0.0312 -0.18692,1.2188 -0.41078,2.42641 -0.65625,3.625 -0.002,0.01 0.002,0.0212 0,0.0312 -0.12298,0.59923 -0.26393,1.18752 -0.40625,1.78125 -0.13757,0.59506 -0.28571,1.19175 -0.4375,1.78125 -0.003,0.01 0.003,0.0215 0,0.0312 -0.30347,1.17658 -0.64104,2.34671 -1,3.5 -0.003,0.01 0.003,0.0217 0,0.0312 -0.72181,2.31581 -1.56363,4.5999 -2.5,6.8125 -0.94018,2.22161 -1.98097,4.36365 -3.125,6.46875 -0.004,0.008 0.004,0.0232 0,0.0312 -1.14045,2.09669 -2.38839,4.12509 -3.71875,6.09375 -0.005,0.007 0.005,0.024 0,0.0312 -0.66325,0.98075 -1.3544,1.92835 -2.0625,2.875 -0.005,0.007 0.005,0.0244 0,0.0312 -0.70862,0.9467 -1.46679,1.87021 -2.21875,2.78125 -0.005,0.006 0.005,0.025 0,0.0312 -3.02474,3.66229 -6.39924,7.0389 -10.0625,10.0625 -3.66903,3.02832 -7.63379,5.71218 -11.84375,8 -2.1051,1.14403 -4.27839,2.18482 -6.5,3.125 -2.2215,0.94007 -4.48695,1.77623 -6.8125,2.5 -1.16282,0.36193 -2.34476,0.6945 -3.53125,1 -4.7458,1.22187 -9.6878,1.99315 -14.75,2.25 -1.26556,0.0642 -2.53107,0.0937 -3.8125,0.0937 -1.28143,0 -2.54694,-0.0295 -3.8125,-0.0937 -5.0622,-0.25708 -10.0042,-1.0271 -14.75,-2.25 -1.18649,-0.3055 -2.36843,-0.63807 -3.53125,-1 -2.32555,-0.72436 -4.591,-1.55919 -6.8125,-2.5 -2.22161,-0.94018 -4.3949,-1.98097 -6.5,-3.125 -1.05249,-0.57237 -2.07273,-1.19148 -3.09375,-1.8125 -1.02102,-0.62101 -2.04048,-1.27116 -3.03125,-1.9375 -0.98806,-0.6677 -1.95278,-1.3493 -2.90625,-2.0625 -1.90694,-1.42641 -3.74076,-2.93218 -5.5,-4.53125 -0.87406,-0.79448 -1.7272,-1.63396 -2.5625,-2.46875 -0.84592,-0.84541 -1.66416,-1.67732 -2.46875,-2.5625 -0.005,-0.006 0.005,-0.0254 0,-0.0312 -0.79946,-0.88004 -1.58667,-1.76976 -2.34375,-2.6875 -0.75715,-0.91733 -1.50555,-1.85903 -2.21875,-2.8125 -0.71314,-0.95388 -1.39486,-1.9178 -2.0625,-2.90625 -1.3354,-1.97612 -2.57472,-4.0199 -3.71875,-6.125 -1.14403,-2.1051 -2.18482,-4.24714 -3.125,-6.46875 -0.004,-0.009 0.004,-0.0224 0,-0.0312 -0.46628,-1.10224 -0.92991,-2.21517 -1.34375,-3.34375 -0.003,-0.009 0.003,-0.022 0,-0.0312 -0.41674,-1.13788 -0.79437,-2.27443 -1.15625,-3.4375 -0.35411,-1.13771 -0.66841,-2.27781 -0.96875,-3.4375 -0.0215,-0.0831 -0.0413,-0.16683 -0.0625,-0.25 -0.26945,-1.05564 -0.52632,-2.14589 -0.75,-3.21875 -0.0561,-0.26964 -0.1031,-0.5418 -0.15625,-0.8125 -0.1496,-0.76056 -0.31137,-1.51258 -0.4375,-2.28125 -0.0631,-0.38498 -0.13034,-0.7693 -0.1875,-1.15625 -0.005,-0.0304 0.004,-0.0633 0,-0.0937 -0.14909,-1.01671 -0.26774,-2.03262 -0.375,-3.0625 -0.0185,-0.17766 -0.0452,-0.35322 -0.0625,-0.53125 -0.10206,-1.05377 -0.16146,-2.12084 -0.21875,-3.1875 -0.005,-0.0844 -0.027,-0.16551 -0.0312,-0.25 -0.0642,-1.26561 -0.0937,-2.53107 -0.0937,-3.8125 0,-1.28143 0.0295,-2.54694 0.0937,-3.8125 0.0613,-1.25301 0.15495,-2.5072 0.28125,-3.75 10e-4,-0.0103 -0.001,-0.0209 0,-0.0312 0.12581,-1.23779 0.28284,-2.46839 0.46875,-3.6875 0.002,-0.0102 -0.002,-0.0211 0,-0.0312 0.1864,-1.21894 0.41129,-2.42627 0.65625,-3.625 0.002,-0.01 -0.002,-0.0213 0,-0.0312 0.24545,-1.1986 0.54127,-2.38564 0.84375,-3.5625 0.002,-0.01 -0.003,-0.0215 0,-0.0312 0.30296,-1.17673 0.64153,-2.34655 1,-3.5 0.003,-0.009 -0.003,-0.0218 0,-0.0312 0.36188,-1.16278 0.73951,-2.29996 1.15625,-3.4375 0.31226,-0.85229 0.65771,-1.69389 1,-2.53125 0.0389,-0.095 0.0857,-0.18642 0.125,-0.28125 0.16826,-0.40679 0.32476,-0.81563 0.5,-1.21875 0.27026,-0.62099 0.55708,-1.23175 0.84375,-1.84375 0.19638,-0.41972 0.38979,-0.83459 0.59375,-1.25 0.44925,-0.914 0.92038,-1.82471 1.40625,-2.71875 0.004,-0.008 -0.004,-0.0233 0,-0.0312 0.57195,-1.05249 1.16068,-2.07273 1.78125,-3.09375 0.62508,-1.02839 1.26469,-2.03637 1.9375,-3.03125 0.66286,-0.98093 1.35478,-1.92816 2.0625,-2.875 0.005,-0.007 -0.005,-0.0247 0,-0.0312 0.70825,-0.94688 1.46715,-1.87002 2.21875,-2.78125 0.005,-0.006 -0.005,-0.0252 0,-0.0312 0.75708,-0.91726 1.54429,-1.80795 2.34375,-2.6875 2.3986,-2.63887 4.96677,-5.10355 7.71875,-7.375 3.66903,-3.02832 7.63379,-5.71218 11.84375,-8 2.1051,-1.14403 4.27839,-2.18482 6.5,-3.125 2.2215,-0.94007 4.48695,-1.77623 6.8125,-2.5 1.16282,-0.36193 2.34476,-0.6945 3.53125,-1 4.7458,-1.22187 9.6878,-1.99315 14.75,-2.25 1.26556,-0.0642 2.53107,-0.0937 3.8125,-0.0937 z"
       id="path3394"
       inkscape:connector-curvature="0" />
    <path
       id="path3396"
       d="m 454.03212,454.60752 c -0.50453,1.21226 -1.84451,1.89456 -3.15211,1.54419 -1.24115,-0.33256 -2.04468,-1.48462 -1.97836,-2.71441 -0.9617,-0.0486 -1.91381,-0.003 -2.84704,0.12713 0.14754,1.28657 -0.66549,2.5219 -1.95746,2.86583 -1.1996,0.31934 -2.43074,-0.22886 -3.01674,-1.25914 -0.70408,0.37136 -1.38067,0.7968 -2.01842,1.27401 0.79386,1.04322 0.71405,2.53649 -0.23915,3.48659 -0.90913,0.90617 -2.3143,1.02123 -3.35043,0.34313 -0.49576,0.76098 -0.92781,1.57429 -1.28455,2.43499 1.27127,0.47637 1.99877,1.84609 1.64148,3.17952 -0.33657,1.25608 -1.52263,2.05783 -2.77846,1.96034 -0.0181,0.4234 -0.0203,0.84443 -0.003,1.2634 0.2504,0.001 0.49729,0.0369 0.73211,0.10555 0.86578,0.25296 1.58276,0.93807 1.83392,1.86937 0.34187,1.26761 -0.29485,2.56665 -1.44868,3.09975 0.34138,0.83119 0.75566,1.63082 1.23774,2.38816 0.64312,-0.45625 1.44513,-0.59428 2.18448,-0.41387 0.459,0.112 0.89185,0.34715 1.25037,0.70451 0.99408,0.99085 1.04144,2.56785 0.14242,3.61206 0.71077,0.54371 1.47484,1.02869 2.28817,1.44501 0.55746,-1.09819 1.82936,-1.69413 3.07052,-1.36157 1.3076,0.35037 2.1269,1.61125 1.9577,2.91337 0.80982,0.10326 1.61652,0.14127 2.41373,0.11462 -0.0812,-1.23962 0.72264,-2.40397 1.9718,-2.73651 0.44469,-0.11838 0.894,-0.11615 1.31266,-0.0154 0.84171,0.2025 1.55873,0.80828 1.87721,1.65557 0.89353,-0.36127 1.75044,-0.80714 2.55804,-1.32925 -0.68095,-1.03283 -0.56705,-2.43409 0.34227,-3.34045 0.68317,-0.68095 1.64664,-0.91578 2.52291,-0.70197 0.34956,0.0853 0.68564,0.24264 0.98419,0.47053 0.50005,-0.66194 0.9486,-1.37069 1.33801,-2.12091 -1.04623,-0.57951 -1.60636,-1.81332 -1.28401,-3.01634 0.34283,-1.27947 1.56783,-2.0889 2.8494,-1.95528 0.17966,-1.35255 0.17053,-2.69685 -0.009,-4.00399 -1.35708,0.2519 -2.70375,-0.57634 -3.06836,-1.92827 -0.34087,-1.2639 0.29261,-2.55908 1.44042,-3.095 -0.40074,-0.75426 -0.86419,-1.47608 -1.38682,-2.1539 -1.03945,0.71588 -2.47735,0.61335 -3.40394,-0.31023 -0.87085,-0.86802 -1.01597,-2.18663 -0.43416,-3.20225 -0.71864,-0.45877 -1.48297,-0.86124 -2.28881,-1.19887 z m -4.47548,8.74639 c 0.0892,0.0239 0.17682,0.0496 0.26375,0.0776 0.34776,0.1123 0.6776,0.25794 0.98536,0.43133 0.077,0.0433 0.15308,0.0885 0.22733,0.13528 0.14848,0.0937 0.29073,0.19384 0.42794,0.30056 0.0686,0.0533 0.1351,0.10873 0.20062,0.1653 0.0328,0.0283 0.0661,0.0577 0.0981,0.0867 0.004,0.004 0.008,0.009 0.0129,0.0128 0.0435,0.0395 0.0866,0.0796 0.12867,0.12045 0.0463,0.0451 0.0914,0.0898 0.13606,0.13638 0.11912,0.12427 0.23287,0.25371 0.33913,0.3883 0.0399,0.0505 0.0791,0.10276 0.11719,0.15457 0.0234,0.0319 0.0474,0.0631 0.0701,0.0955 0.0306,0.0436 0.0588,0.0883 0.088,0.1328 0.0549,0.0834 0.10824,0.16765 0.15823,0.25386 0.0322,0.0555 0.0623,0.11222 0.0924,0.16883 5.1e-4,9.4e-4 10e-4,0.002 0.002,0.003 0.0139,0.0262 0.0284,0.0522 0.0419,0.0786 0.0346,0.0678 0.0672,0.13616 0.0989,0.20542 0.009,0.0195 0.0177,0.0386 0.0264,0.0582 0.0261,0.0588 0.0518,0.11857 0.0758,0.17833 0.0299,0.0746 0.0578,0.14883 0.0844,0.22478 0.0371,0.1061 0.0721,0.21405 0.1025,0.32258 0.0174,0.0618 0.0327,0.12459 0.0478,0.18709 0.0405,0.1674 0.0732,0.33543 0.0974,0.50711 0.0106,0.0752 0.0207,0.15007 0.0281,0.22596 7.6e-4,0.008 0,0.0157 7.2e-4,0.0234 0.006,0.0682 0.0111,0.13742 0.0147,0.20611 5e-4,0.009 0.001,0.0189 0.002,0.0283 0.001,0.0272 5.5e-4,0.0545 0.001,0.0817 0.002,0.0669 0.005,0.13379 0.004,0.20104 -1.1e-4,0.0185 -5.9e-4,0.037 -8.9e-4,0.0555 -7.5e-4,0.0474 -0.004,0.0951 -0.006,0.14258 -0.003,0.0587 -0.005,0.11745 -0.01,0.17628 -2.4e-4,0.003 9e-5,0.006 -1.5e-4,0.009 -4.1e-4,0.005 -10e-4,0.0105 -0.002,0.0158 -0.006,0.0679 -0.0115,0.13583 -0.0196,0.20388 -5.4e-4,0.005 -7.5e-4,0.009 -10e-4,0.0136 -0.002,0.0149 -0.005,0.0296 -0.007,0.0445 -0.008,0.0627 -0.0165,0.12522 -0.027,0.18795 -0.0131,0.078 -0.0275,0.15652 -0.0442,0.23448 -0.0189,0.0883 -0.0407,0.17808 -0.0643,0.26626 -0.0476,0.17781 -0.10262,0.34922 -0.16669,0.51768 -2.7e-4,6.9e-4 -3.2e-4,0.001 -5.9e-4,0.002 -0.0318,0.0835 -0.0655,0.166 -0.10119,0.24709 -3e-4,6.8e-4 -2.8e-4,10e-4 -5.8e-4,0.002 -0.0357,0.0811 -0.0737,0.16067 -0.11309,0.23925 -3.3e-4,6.6e-4 -2.5e-4,0.002 -5.8e-4,0.002 -0.0197,0.0393 -0.0405,0.0775 -0.0614,0.116 -0.0206,0.0387 -0.042,0.0774 -0.0636,0.11541 -3.5e-4,6.4e-4 -2.2e-4,0.002 -5.8e-4,0.002 -0.043,0.076 -0.0883,0.15085 -0.1347,0.22417 -3.8e-4,6e-4 -2e-4,0.002 -5.8e-4,0.002 -0.0933,0.1472 -0.1944,0.28996 -0.30074,0.42599 -0.10678,0.13659 -0.21908,0.26578 -0.33788,0.39048 -4.6e-4,4.8e-4 -1.3e-4,0.002 -5.8e-4,0.002 -0.1184,0.12419 -0.24301,0.24163 -0.37226,0.35338 -4.7e-4,4.2e-4 -10e-5,0.002 -5.8e-4,0.002 -0.0644,0.0557 -0.13017,0.10852 -0.19708,0.16098 -4.8e-4,3.8e-4 -9e-5,0.002 -5.8e-4,0.002 -0.0669,0.0525 -0.13691,0.10238 -0.20621,0.15156 -4.8e-4,3.4e-4 -1.1e-4,0.002 -5.8e-4,0.002 -0.27873,0.19765 -0.5765,0.36894 -0.88781,0.51036 -0.31181,0.14164 -0.63781,0.25386 -0.97352,0.33402 -0.16786,0.0401 -0.33856,0.0718 -0.51075,0.0955 -0.17218,0.0238 -0.34549,0.0395 -0.52089,0.0463 -0.0877,0.003 -0.1762,0.004 -0.26451,0.003 -0.35321,-0.004 -0.71171,-0.0425 -1.06901,-0.11913 -0.0893,-0.0192 -0.17801,-0.0407 -0.26725,-0.0646 -0.0892,-0.0239 -0.17681,-0.0496 -0.26375,-0.0776 -0.34775,-0.1123 -0.6776,-0.25794 -0.98536,-0.43134 -0.077,-0.0433 -0.15308,-0.0885 -0.22733,-0.13527 -0.14848,-0.0936 -0.29073,-0.19384 -0.42794,-0.30056 -0.13724,-0.10669 -0.26924,-0.21945 -0.39457,-0.3381 -0.0626,-0.0593 -0.12219,-0.12134 -0.18175,-0.18348 -0.0596,-0.0621 -0.11847,-0.12626 -0.17508,-0.19098 -0.0564,-0.0648 -0.1109,-0.13005 -0.16405,-0.19732 -0.10628,-0.13455 -0.20599,-0.27324 -0.29878,-0.417 -0.0461,-0.0714 -0.0899,-0.1456 -0.13256,-0.2191 -0.0432,-0.0744 -0.0847,-0.14742 -0.12428,-0.22385 -2.6e-4,-5e-4 8.4e-4,-0.002 5.8e-4,-0.002 -0.0393,-0.076 -0.0776,-0.15239 -0.11326,-0.23018 -0.0357,-0.0778 -0.0703,-0.15707 -0.10223,-0.23653 -0.0319,-0.0795 -0.0615,-0.15908 -0.0896,-0.24012 -0.0563,-0.16202 -0.10458,-0.32694 -0.14511,-0.49433 -0.0405,-0.1674 -0.0732,-0.33543 -0.0974,-0.50711 -1e-4,-6.8e-4 6.7e-4,-0.001 5.8e-4,-0.002 -0.012,-0.0852 -0.0236,-0.17103 -0.0314,-0.25705 -6e-5,-7.1e-4 6.4e-4,-0.001 5.8e-4,-0.002 -0.008,-0.0867 -0.013,-0.17262 -0.0166,-0.26007 -0.004,-0.0855 -0.004,-0.1705 -0.004,-0.25656 5e-5,-0.006 2.3e-4,-0.0123 3e-4,-0.0185 8.6e-4,-0.0783 0.003,-0.1587 0.008,-0.23731 0.001,-0.0197 0.003,-0.0395 0.004,-0.0593 0.004,-0.0556 0.006,-0.11075 0.0119,-0.16644 0.003,-0.0279 0.005,-0.0558 0.008,-0.0837 2.6e-4,-0.002 10e-4,-0.004 0.002,-0.007 0.009,-0.0733 0.0191,-0.14602 0.0308,-0.21947 0.002,-0.0127 0.003,-0.0254 0.006,-0.038 0.0125,-0.075 0.0282,-0.15015 0.044,-0.22523 10e-4,-0.006 10e-4,-0.012 0.002,-0.0179 0.0191,-0.089 0.0405,-0.17736 0.0643,-0.26626 0.0238,-0.0889 0.0494,-0.17615 0.0774,-0.26275 0.0276,-0.0858 0.0574,-0.17106 0.0893,-0.25493 2.6e-4,-6.9e-4 3.1e-4,-10e-4 5.8e-4,-0.002 0.0318,-0.0835 0.0656,-0.16598 0.10119,-0.24709 3e-4,-6.8e-4 2.8e-4,-10e-4 5.8e-4,-0.002 0.0356,-0.0811 0.0738,-0.16065 0.11309,-0.23925 3.3e-4,-6.5e-4 2.5e-4,-0.002 5.8e-4,-0.002 0.0394,-0.0786 0.082,-0.15541 0.12499,-0.23141 3.5e-4,-6.3e-4 2.2e-4,-0.002 5.8e-4,-0.002 0.043,-0.076 0.0883,-0.15083 0.1347,-0.22417 3.8e-4,-5.9e-4 2e-4,-0.002 5.8e-4,-0.002 0.0468,-0.0739 0.0943,-0.14577 0.14443,-0.21692 0.0376,-0.0533 0.0773,-0.10524 0.11669,-0.15695 0.004,-0.006 0.009,-0.0113 0.0139,-0.0172 0.0193,-0.0251 0.0378,-0.0505 0.0575,-0.0752 0.0304,-0.038 0.0617,-0.0751 0.093,-0.11217 0.0215,-0.0254 0.0427,-0.0506 0.0646,-0.0756 0.0483,-0.055 0.098,-0.10942 0.14847,-0.16238 4.5e-4,-4.7e-4 1.4e-4,-0.002 5.8e-4,-0.002 0.0594,-0.0623 0.11936,-0.12215 0.18156,-0.1814 0.0627,-0.0597 0.12593,-0.11769 0.19128,-0.17415 0.0644,-0.0557 0.13019,-0.1085 0.19708,-0.16098 4.6e-4,-3.6e-4 1.2e-4,-0.002 5.8e-4,-0.002 0.0669,-0.0525 0.13693,-0.10236 0.20621,-0.15156 4.6e-4,-3.2e-4 1.2e-4,-0.002 5.9e-4,-0.002 0.0698,-0.0495 0.14115,-0.0966 0.21317,-0.14272 0.2161,-0.13833 0.44076,-0.2614 0.67464,-0.36764 0.3118,-0.14164 0.6378,-0.25386 0.97351,-0.33402 0.16786,-0.0401 0.33856,-0.0718 0.51075,-0.0955 0.17218,-0.0238 0.34549,-0.0395 0.52089,-0.0463 0.0877,-0.003 0.1762,-0.004 0.26451,-0.003 0.35321,0.004 0.71171,0.0425 1.06901,0.11913 0.0893,0.0192 0.17801,0.0407 0.26725,0.0646 z"
       style="fill:#c0c0c0;fill-opacity:1;stroke:none"
       inkscape:connector-curvature="0" />
    <path
       id="path3398"
       d="m 451.35586,456.63475 c -6.57892,-1.76282 -13.34266,2.12714 -15.09886,8.68137 -1.7562,6.55424 2.15698,13.30274 8.73589,15.06556 6.57892,1.76282 13.34426,-2.12439 15.10046,-8.67863 1.7562,-6.55423 -2.15857,-13.30548 -8.73749,-15.0683 z m -1.79814,6.71945 c 0.0892,0.0239 0.17682,0.0496 0.26376,0.0776 0.34775,0.1123 0.6776,0.25794 0.98536,0.43134 0.077,0.0433 0.15308,0.0885 0.22733,0.13527 0.14848,0.0937 0.29073,0.19384 0.42794,0.30057 0.20585,0.16002 0.39761,0.33523 0.57632,0.52157 0.11912,0.12427 0.23287,0.25371 0.33912,0.38831 0.15943,0.20181 0.30482,0.41472 0.43352,0.63667 0.25733,0.44407 0.45019,0.92427 0.57173,1.4266 0.0405,0.1674 0.0732,0.33543 0.0974,0.50711 0.0849,0.60163 0.0669,1.22669 -0.0666,1.85043 -0.0189,0.0883 -0.0407,0.17807 -0.0644,0.26625 -0.0476,0.17781 -0.10262,0.34923 -0.1667,0.51768 -2.6e-4,6.9e-4 -3.1e-4,0.001 -5.8e-4,0.002 -0.0318,0.0835 -0.0655,0.16599 -0.10119,0.24708 -3e-4,6.8e-4 -2.9e-4,10e-4 -5.8e-4,0.002 -0.0357,0.0811 -0.0737,0.16067 -0.11309,0.23925 -3.3e-4,6.6e-4 -2.5e-4,0.002 -5.8e-4,0.002 -0.0394,0.0786 -0.082,0.15543 -0.12499,0.23142 -3.5e-4,6.3e-4 -2.2e-4,0.002 -5.8e-4,0.002 -0.043,0.076 -0.0883,0.15085 -0.1347,0.22417 -3.9e-4,6e-4 -2e-4,0.002 -5.8e-4,0.002 -0.18702,0.29499 -0.4015,0.56757 -0.63862,0.81647 -4.6e-4,4.7e-4 -1.3e-4,0.002 -5.9e-4,0.002 -0.11839,0.12419 -0.24301,0.24163 -0.37225,0.35339 -4.7e-4,4.1e-4 -1.1e-4,0.002 -5.8e-4,0.002 -0.0644,0.0557 -0.13017,0.10851 -0.19708,0.16097 -4.8e-4,3.8e-4 -10e-5,0.002 -5.8e-4,0.002 -0.067,0.0525 -0.13691,0.10238 -0.20621,0.15156 -4.8e-4,3.4e-4 -1.1e-4,0.002 -5.9e-4,0.002 -0.13913,0.0986 -0.28276,0.19005 -0.43056,0.27501 -0.0746,0.0429 -0.14992,0.0836 -0.22652,0.12288 -0.0761,0.0391 -0.15277,0.0771 -0.23073,0.11246 -0.3118,0.14164 -0.6378,0.25386 -0.97351,0.33402 -0.16787,0.0401 -0.33856,0.0718 -0.51075,0.0955 -0.17218,0.0238 -0.34549,0.0395 -0.5209,0.0463 -0.0877,0.003 -0.1762,0.004 -0.2645,0.003 -0.35321,-0.004 -0.71171,-0.0425 -1.06901,-0.11913 -0.0893,-0.0192 -0.17801,-0.0407 -0.26725,-0.0646 -0.0892,-0.0239 -0.17682,-0.0496 -0.26376,-0.0776 -0.34775,-0.1123 -0.67759,-0.25794 -0.98535,-0.43133 -0.077,-0.0433 -0.15308,-0.0885 -0.22733,-0.13527 -0.14848,-0.0937 -0.29073,-0.19385 -0.42794,-0.30057 -0.20586,-0.16003 -0.39761,-0.33524 -0.57632,-0.52158 -0.11912,-0.12427 -0.23287,-0.2537 -0.33913,-0.3883 -0.21291,-0.26954 -0.39757,-0.55778 -0.55504,-0.86211 -0.0393,-0.076 -0.0776,-0.15239 -0.11326,-0.23019 -0.1427,-0.31109 -0.25587,-0.63619 -0.33694,-0.97098 -0.0405,-0.1674 -0.0732,-0.33543 -0.0974,-0.50711 -10e-5,-6.8e-4 6.7e-4,-10e-4 5.8e-4,-0.002 -0.012,-0.0852 -0.0236,-0.17104 -0.0314,-0.25706 -7e-5,-7.1e-4 6.4e-4,-0.001 5.8e-4,-0.002 -0.008,-0.0867 -0.013,-0.17262 -0.0166,-0.26006 -0.018,-0.43785 0.0179,-0.88325 0.11352,-1.32897 0.019,-0.089 0.0405,-0.17735 0.0643,-0.26626 0.0478,-0.17854 0.10288,-0.35073 0.16729,-0.51984 0.0318,-0.0835 0.0656,-0.16598 0.10119,-0.24709 3e-4,-6.8e-4 2.8e-4,-10e-4 5.8e-4,-0.002 0.0356,-0.0811 0.0738,-0.16065 0.11309,-0.23925 3.3e-4,-6.5e-4 2.5e-4,-0.002 5.8e-4,-0.002 0.0394,-0.0786 0.082,-0.15541 0.12498,-0.23141 3.6e-4,-6.3e-4 2.3e-4,-0.002 5.9e-4,-0.002 0.043,-0.076 0.0883,-0.15083 0.1347,-0.22416 3.8e-4,-6e-4 2e-4,-0.002 5.8e-4,-0.002 0.0468,-0.0739 0.0943,-0.14577 0.14443,-0.21692 0.15089,-0.21397 0.31605,-0.41427 0.49477,-0.60172 0.0594,-0.0623 0.11936,-0.12215 0.18156,-0.1814 0.0627,-0.0597 0.12593,-0.11768 0.19128,-0.17415 0.0644,-0.0557 0.13019,-0.1085 0.19708,-0.16098 4.6e-4,-3.6e-4 1.1e-4,-0.002 5.8e-4,-0.002 0.0669,-0.0525 0.13693,-0.10236 0.20621,-0.15155 4.6e-4,-3.3e-4 1.2e-4,-0.002 5.8e-4,-0.002 0.0698,-0.0495 0.14116,-0.0966 0.21318,-0.14272 0.072,-0.0461 0.14324,-0.0897 0.21738,-0.1323 0.0746,-0.0429 0.14993,-0.0836 0.22653,-0.12288 0.0761,-0.0391 0.15277,-0.077 0.23072,-0.11246 0.31181,-0.14163 0.63781,-0.25385 0.97352,-0.33402 0.16786,-0.0401 0.33856,-0.0718 0.51075,-0.0955 0.17218,-0.0238 0.34549,-0.0395 0.52089,-0.0463 0.0877,-0.003 0.1762,-0.004 0.26451,-0.003 0.35321,0.004 0.7117,0.0425 1.06901,0.11913 0.0893,0.0192 0.17801,0.0407 0.26724,0.0646 z"
       style="opacity:0.79393939;fill:#a9a9a9;fill-opacity:1;stroke:none"
       inkscape:connector-curvature="0" />
    <path
       id="path3400"
       d="m 450.94166,458.18059 c -5.72224,-1.53327 -11.60549,1.85053 -13.133,7.5513 -1.52752,5.70076 1.87621,11.57068 7.59844,13.10395 5.72223,1.53327 11.60708,-1.84779 13.13459,-7.54855 1.52752,-5.70077 -1.8778,-11.57344 -7.60003,-13.1067 z m -1.38394,5.17361 c 2.85563,0.76516 4.55376,3.69685 3.79146,6.54176 -0.76229,2.84491 -3.69817,4.5326 -6.5538,3.76744 -2.85562,-0.76517 -4.55375,-3.69686 -3.79146,-6.54177 0.76229,-2.84491 3.69818,-4.5326 6.5538,-3.76743 z"
       style="opacity:0.79393939;fill:url(#radialGradient3406);fill-opacity:1;stroke:none"
       inkscape:connector-curvature="0" />
    <path
       transform="matrix(0.05828624,0.01561775,-0.01553734,0.05798614,431.46579,440.20562)"
       style="opacity:0.58787878;fill:#696969;fill-opacity:1;stroke:none;filter:url(#filter3340)"
       d="m 388.875,274.48438 c -60.099,0 -108.87501,48.76554 -108.875,108.85588 0,60.09035 48.77602,108.89412 108.875,108.89412 60.099,0 108.87501,-48.76555 108.875,-108.85589 l 0,-0.0382 c 0,-60.09034 -48.77599,-108.85588 -108.875,-108.85588 z m 0,24.6531 c 46.57461,1e-5 84.3743,37.73998 84.3743,84.24101 -2e-5,46.50101 -37.7997,84.20278 -84.3743,84.20278 -46.57459,0 -84.3743,-37.73998 -84.3743,-84.24101 -10e-6,-46.50103 37.7997,-84.20278 84.3743,-84.20278 z"
       id="path3402"
       inkscape:connector-curvature="0" />
    <path
       id="path3404"
       d="m 449.83026,462.33274 c -3.41646,-0.91543 -6.93042,1.10775 -7.84373,4.51628 -0.91331,3.40853 1.11769,6.91981 4.53415,7.83525 3.41645,0.91543 6.93041,-1.10775 7.84372,-4.51628 l 5.8e-4,-0.002 c 0.91331,-3.40853 -1.11827,-6.91764 -4.53472,-7.83308 z m -0.37471,1.39841 c 2.64763,0.70943 4.22282,3.42594 3.51606,6.06364 -0.70677,2.6377 -3.4286,4.2005 -6.07623,3.49107 -2.64763,-0.70943 -4.22282,-3.42594 -3.51605,-6.06364 0.70676,-2.6377 3.42859,-4.2005 6.07622,-3.49107 z"
       style="fill:#c0c0c0;fill-opacity:1;stroke:none"
       inkscape:connector-curvature="0" />
  </g>
</svg>
