<?xml version="1.0" encoding="UTF-8" standalone="no"?>
<svg
   xmlns:dc="http://purl.org/dc/elements/1.1/"
   xmlns:cc="http://creativecommons.org/ns#"
   xmlns:rdf="http://www.w3.org/1999/02/22-rdf-syntax-ns#"
   xmlns:svg="http://www.w3.org/2000/svg"
   xmlns="http://www.w3.org/2000/svg"
   xmlns:sodipodi="http://sodipodi.sourceforge.net/DTD/sodipodi-0.dtd"
   xmlns:inkscape="http://www.inkscape.org/namespaces/inkscape"
   version="1.1"
   width="128"
   height="128"
   overflow="visible"
   viewBox="0 0 128 128"
   enable-background="new 0.0 0.0 640.0 480.0"
   id="svg5327"
   inkscape:version="0.48.0 r9654"
   sodipodi:docname="ethanol.svg"
   style="overflow:visible">
  <metadata
     id="metadata5540">
    <rdf:RDF>
      <cc:Work
         rdf:about="">
        <dc:format>image/svg+xml</dc:format>
        <dc:type
           rdf:resource="http://purl.org/dc/dcmitype/StillImage" />
        <dc:title></dc:title>
      </cc:Work>
    </rdf:RDF>
  </metadata>
  <sodipodi:namedview
     pagecolor="#ffffff"
     bordercolor="#666666"
     borderopacity="1"
     objecttolerance="10"
     gridtolerance="10"
     guidetolerance="10"
     inkscape:pageopacity="0"
     inkscape:pageshadow="2"
     inkscape:window-width="1095"
     inkscape:window-height="672"
     id="namedview5538"
     showgrid="false"
     inkscape:zoom="3.2409061"
     inkscape:cx="83.791636"
     inkscape:cy="60.151711"
     inkscape:window-x="0"
     inkscape:window-y="0"
     inkscape:window-maximized="0"
     inkscape:current-layer="svg5327" />
  <defs
     id="defs5329">
    <radialGradient
       id="Grad1"
       gradientUnits="userSpaceOnUse"
       gradientTransform="matrix(0.202713,0,0,0.202713,192.1,135.25)"
       r="819.20001"
       cx="0"
       cy="0">
      <stop
         offset="0.0"
         stop-color="#FFFFFF"
         id="stop5332" />
      <stop
         offset="0.33333334"
         stop-color="#CECECE"
         id="stop5334" />
      <stop
         offset="0.5176471"
         stop-color="#AEAEAE"
         id="stop5336" />
      <stop
         offset="0.6509804"
         stop-color="#8F8F8F"
         id="stop5338" />
      <stop
         offset="0.84705883"
         stop-color="#646464"
         id="stop5340" />
      <stop
         offset="1.0"
         stop-color="#484848"
         id="stop5342" />
    </radialGradient>
    <radialGradient
       id="Grad2"
       gradientUnits="userSpaceOnUse"
       gradientTransform="matrix(0.0573883,0,0,0.0573883,274.2,205.2)"
       r="819.20001"
       cx="0"
       cy="0">
      <stop
         offset="0.0"
         stop-color="#FFFFFF"
         stop-opacity="0.4509804"
         id="stop5345" />
      <stop
         offset="0.27058825"
         stop-color="#FFFFFF"
         stop-opacity="0.30588236"
         id="stop5347" />
      <stop
         offset="0.4392157"
         stop-color="#FFFFFF"
         stop-opacity="0.1764706"
         id="stop5349" />
      <stop
         offset="0.7411765"
         stop-color="#FFFFFF"
         stop-opacity="0.050980393"
         id="stop5351" />
      <stop
         offset="1.0"
         stop-color="#FFFFFF"
         stop-opacity="0.0"
         id="stop5353" />
    </radialGradient>
    <radialGradient
       id="Grad3"
       gradientUnits="userSpaceOnUse"
       gradientTransform="matrix(0.202713,0,0,0.202713,151.75,281.3)"
       r="819.20001"
       cx="0"
       cy="0">
      <stop
         offset="0.0"
         stop-color="#FFFFFF"
         id="stop5356" />
      <stop
         offset="0.33333334"
         stop-color="#CECECE"
         id="stop5358" />
      <stop
         offset="0.5176471"
         stop-color="#AEAEAE"
         id="stop5360" />
      <stop
         offset="0.6509804"
         stop-color="#8F8F8F"
         id="stop5362" />
      <stop
         offset="0.84705883"
         stop-color="#646464"
         id="stop5364" />
      <stop
         offset="1.0"
         stop-color="#484848"
         id="stop5366" />
    </radialGradient>
    <radialGradient
       id="Grad4"
       gradientUnits="userSpaceOnUse"
       gradientTransform="matrix(0.0573883,0,0,0.0573883,233.9,351.25)"
       r="819.20001"
       cx="0"
       cy="0">
      <stop
         offset="0.0"
         stop-color="#FFFFFF"
         stop-opacity="0.4509804"
         id="stop5369" />
      <stop
         offset="0.27058825"
         stop-color="#FFFFFF"
         stop-opacity="0.30588236"
         id="stop5371" />
      <stop
         offset="0.4392157"
         stop-color="#FFFFFF"
         stop-opacity="0.1764706"
         id="stop5373" />
      <stop
         offset="0.7411765"
         stop-color="#FFFFFF"
         stop-opacity="0.050980393"
         id="stop5375" />
      <stop
         offset="1.0"
         stop-color="#FFFFFF"
         stop-opacity="0.0"
         id="stop5377" />
    </radialGradient>
    <radialGradient
       id="Grad5"
       gradientUnits="userSpaceOnUse"
       gradientTransform="matrix(0.202713,0,0,0.202713,123.65,177.05)"
       r="819.20001"
       cx="0"
       cy="0">
      <stop
         offset="0.0"
         stop-color="#FFFFFF"
         id="stop5380" />
      <stop
         offset="0.33333334"
         stop-color="#CECECE"
         id="stop5382" />
      <stop
         offset="0.5176471"
         stop-color="#AEAEAE"
         id="stop5384" />
      <stop
         offset="0.6509804"
         stop-color="#8F8F8F"
         id="stop5386" />
      <stop
         offset="0.84705883"
         stop-color="#646464"
         id="stop5388" />
      <stop
         offset="1.0"
         stop-color="#484848"
         id="stop5390" />
    </radialGradient>
    <radialGradient
       id="Grad6"
       gradientUnits="userSpaceOnUse"
       gradientTransform="matrix(0.0573883,0,0,0.0573883,205.75,247)"
       r="819.20001"
       cx="0"
       cy="0">
      <stop
         offset="0.0"
         stop-color="#FFFFFF"
         stop-opacity="0.4509804"
         id="stop5393" />
      <stop
         offset="0.27058825"
         stop-color="#FFFFFF"
         stop-opacity="0.30588236"
         id="stop5395" />
      <stop
         offset="0.4392157"
         stop-color="#FFFFFF"
         stop-opacity="0.1764706"
         id="stop5397" />
      <stop
         offset="0.7411765"
         stop-color="#FFFFFF"
         stop-opacity="0.050980393"
         id="stop5399" />
      <stop
         offset="1.0"
         stop-color="#FFFFFF"
         stop-opacity="0.0"
         id="stop5401" />
    </radialGradient>
    <radialGradient
       id="Grad7"
       gradientUnits="userSpaceOnUse"
       gradientTransform="matrix(0.202713,0,0,0.202713,372.25,254.65)"
       r="819.20001"
       cx="0"
       cy="0">
      <stop
         offset="0.0"
         stop-color="#FFFFFF"
         id="stop5404" />
      <stop
         offset="0.33333334"
         stop-color="#CECECE"
         id="stop5406" />
      <stop
         offset="0.5176471"
         stop-color="#AEAEAE"
         id="stop5408" />
      <stop
         offset="0.6509804"
         stop-color="#8F8F8F"
         id="stop5410" />
      <stop
         offset="0.84705883"
         stop-color="#646464"
         id="stop5412" />
      <stop
         offset="1.0"
         stop-color="#484848"
         id="stop5414" />
    </radialGradient>
    <radialGradient
       id="Grad8"
       gradientUnits="userSpaceOnUse"
       gradientTransform="matrix(0.0573883,0,0,0.0573883,454.4,324.6)"
       r="819.20001"
       cx="0"
       cy="0">
      <stop
         offset="0.0"
         stop-color="#FFFFFF"
         stop-opacity="0.4509804"
         id="stop5417" />
      <stop
         offset="0.27058825"
         stop-color="#FFFFFF"
         stop-opacity="0.30588236"
         id="stop5419" />
      <stop
         offset="0.4392157"
         stop-color="#FFFFFF"
         stop-opacity="0.1764706"
         id="stop5421" />
      <stop
         offset="0.7411765"
         stop-color="#FFFFFF"
         stop-opacity="0.050980393"
         id="stop5423" />
      <stop
         offset="1.0"
         stop-color="#FFFFFF"
         stop-opacity="0.0"
         id="stop5425" />
    </radialGradient>
    <radialGradient
       id="Grad9"
       gradientUnits="userSpaceOnUse"
       gradientTransform="matrix(0.202713,0,0,0.202713,442.25,135.25)"
       r="819.20001"
       cx="0"
       cy="0">
      <stop
         offset="0.0"
         stop-color="#FFFFFF"
         id="stop5428" />
      <stop
         offset="0.33333334"
         stop-color="#CECECE"
         id="stop5430" />
      <stop
         offset="0.5176471"
         stop-color="#AEAEAE"
         id="stop5432" />
      <stop
         offset="0.6509804"
         stop-color="#8F8F8F"
         id="stop5434" />
      <stop
         offset="0.84705883"
         stop-color="#646464"
         id="stop5436" />
      <stop
         offset="1.0"
         stop-color="#484848"
         id="stop5438" />
    </radialGradient>
    <radialGradient
       id="Grad10"
       gradientUnits="userSpaceOnUse"
       gradientTransform="matrix(0.0573883,0,0,0.0573883,524.35,205.2)"
       r="819.20001"
       cx="0"
       cy="0">
      <stop
         offset="0.0"
         stop-color="#FFFFFF"
         stop-opacity="0.4509804"
         id="stop5441" />
      <stop
         offset="0.27058825"
         stop-color="#FFFFFF"
         stop-opacity="0.30588236"
         id="stop5443" />
      <stop
         offset="0.4392157"
         stop-color="#FFFFFF"
         stop-opacity="0.1764706"
         id="stop5445" />
      <stop
         offset="0.7411765"
         stop-color="#FFFFFF"
         stop-opacity="0.050980393"
         id="stop5447" />
      <stop
         offset="1.0"
         stop-color="#FFFFFF"
         stop-opacity="0.0"
         id="stop5449" />
    </radialGradient>
    <radialGradient
       id="Grad11"
       gradientUnits="userSpaceOnUse"
       gradientTransform="matrix(0.202713,0,0,0.202713,306.1,300.3)"
       r="819.20001"
       cx="0"
       cy="0">
      <stop
         offset="0.0"
         stop-color="#FFFFFF"
         id="stop5452" />
      <stop
         offset="0.33333334"
         stop-color="#CECECE"
         id="stop5454" />
      <stop
         offset="0.5176471"
         stop-color="#AEAEAE"
         id="stop5456" />
      <stop
         offset="0.6509804"
         stop-color="#8F8F8F"
         id="stop5458" />
      <stop
         offset="0.84705883"
         stop-color="#646464"
         id="stop5460" />
      <stop
         offset="1.0"
         stop-color="#484848"
         id="stop5462" />
    </radialGradient>
    <radialGradient
       id="Grad12"
       gradientUnits="userSpaceOnUse"
       gradientTransform="matrix(0.0573883,0,0,0.0573883,388.25,370.25)"
       r="819.20001"
       cx="0"
       cy="0">
      <stop
         offset="0.0"
         stop-color="#FFFFFF"
         stop-opacity="0.4509804"
         id="stop5465" />
      <stop
         offset="0.27058825"
         stop-color="#FFFFFF"
         stop-opacity="0.30588236"
         id="stop5467" />
      <stop
         offset="0.4392157"
         stop-color="#FFFFFF"
         stop-opacity="0.1764706"
         id="stop5469" />
      <stop
         offset="0.7411765"
         stop-color="#FFFFFF"
         stop-opacity="0.050980393"
         id="stop5471" />
      <stop
         offset="1.0"
         stop-color="#FFFFFF"
         stop-opacity="0.0"
         id="stop5473" />
    </radialGradient>
    <radialGradient
       id="Grad13"
       gradientUnits="userSpaceOnUse"
       gradientTransform="matrix(0.293137,0,0,0.293137,282.6,214.3)"
       r="819.20001"
       cx="0"
       cy="0">
      <stop
         offset="0.0"
         stop-color="#3D3D3D"
         id="stop5476" />
      <stop
         offset="0.32156864"
         stop-color="#212121"
         id="stop5478" />
      <stop
         offset="0.72156864"
         stop-color="#121212"
         id="stop5480" />
      <stop
         offset="0.92941177"
         stop-color="#101010"
         id="stop5482" />
    </radialGradient>
    <radialGradient
       id="Grad14"
       gradientUnits="userSpaceOnUse"
       gradientTransform="matrix(0.290543,0,0,0.290543,211.9,155)"
       r="819.20001"
       cx="0"
       cy="0">
      <stop
         offset="0.0"
         stop-color="#3D3D3D"
         id="stop5485" />
      <stop
         offset="0.32156864"
         stop-color="#212121"
         id="stop5487" />
      <stop
         offset="0.72156864"
         stop-color="#121212"
         id="stop5489" />
      <stop
         offset="0.92941177"
         stop-color="#101010"
         id="stop5491" />
    </radialGradient>
    <radialGradient
       id="Grad15"
       gradientUnits="userSpaceOnUse"
       gradientTransform="matrix(0.236206,0,0,0.236206,334.5,104.15)"
       r="819.20001"
       cx="0"
       cy="0">
      <stop
         offset="0.0"
         stop-color="#F04254"
         id="stop5494" />
      <stop
         offset="0.32156864"
         stop-color="#C20000"
         id="stop5496" />
      <stop
         offset="0.72156864"
         stop-color="#890000"
         id="stop5498" />
      <stop
         offset="0.92941177"
         stop-color="#450102"
         id="stop5500" />
    </radialGradient>
  </defs>
  <g
     id="g5504"
     transform="matrix(0.23255368,0,0,0.24553524,-12.183554,3.8140569)">
    <g
       id="g5506">
      <path
         d="m 237.15,80.5 c 27.8,0 51.5167,9.816666 71.15,29.45 19.63332,19.63333 29.45,43.35 29.45,71.15 0,27.80001 -9.81668,51.5 -29.45,71.1 -19.63334,19.6333 -43.35002,29.44996 -71.15,29.45 -27.76667,0 -51.46667,-9.8167 -71.1,-29.45 -19.63333,-19.6 -29.45,-43.29999 -29.45,-71.1 0,-27.8 9.81667,-51.51667 29.45,-71.15 19.63333,-19.633334 43.33333,-29.45 71.1,-29.45 z"
         id="path5508"
         inkscape:connector-curvature="0"
         style="fill:url(#Grad1);stroke-linecap:round;stroke-linejoin:round" />
      <path
         d="m 241.4,172.4 c 9.06666,-9.06667 20,-13.6 32.8,-13.6 12.8,0 23.71666,4.53333 32.75,13.6 9.10002,9.06666 13.65,20 13.65,32.8 0,12.8 -4.54998,23.71667 -13.65,32.75 -9.03334,9.06666 -19.95,13.6 -32.75,13.6 -12.8,0 -23.73334,-4.53334 -32.8,-13.6 -9.03333,-9.03334 -13.55,-19.95002 -13.55,-32.75 0,-12.8 4.51667,-23.73334 13.55,-32.8 z"
         id="path5510"
         inkscape:connector-curvature="0"
         style="fill:url(#Grad2);stroke-linecap:round;stroke-linejoin:round" />
      <path
         d="m 196.8,226.55 c 27.8,0 51.51668,9.81667 71.15,29.45 19.63334,19.63333 29.45,43.35 29.45,71.15 0,27.8 -9.81666,51.50002 -29.45,71.1 -19.63333,19.63333 -43.35001,29.45 -71.15,29.45 -27.76667,0 -51.46667,-9.81667 -71.1,-29.45 -19.63333,-19.6 -29.45,-43.30002 -29.45,-71.1 0,-27.8 9.81667,-51.51667 29.45,-71.15 19.63333,-19.63333 43.33333,-29.45 71.1,-29.45 z"
         id="path5512"
         inkscape:connector-curvature="0"
         style="fill:url(#Grad3);stroke-linecap:round;stroke-linejoin:round" />
      <path
         d="m 201.1,318.45 c 9.06667,-9.06667 20,-13.6 32.8,-13.6 12.8,0 23.71667,4.53333 32.75,13.6 9.1,9.06666 13.65,19.99998 13.65,32.8 0,12.80002 -4.55,23.71667 -13.65,32.75 -9.03333,9.06668 -19.95,13.6 -32.75,13.6 -12.80001,0 -23.73334,-4.53332 -32.8,-13.6 -9.03333,-9.03333 -13.55,-19.94998 -13.55,-32.75 0,-12.80002 4.51667,-23.73334 13.55,-32.8 z"
         id="path5514"
         inkscape:connector-curvature="0"
         style="fill:url(#Grad4);stroke-linecap:round;stroke-linejoin:round" />
      <path
         d="m 168.7,122.3 c 27.8,0 51.51667,9.81667 71.15,29.45 19.63334,19.63333 29.45,43.34999 29.45,71.15 0,27.8 -9.81666,51.5 -29.45,71.1 -19.63334,19.63333 -43.35002,29.45 -71.15,29.45 -27.76667,0 -51.46666,-9.81667 -71.1,-29.45 -19.63333,-19.6 -29.45,-43.3 -29.45,-71.1 0,-27.80001 9.81667,-51.51667 29.45,-71.15 19.63334,-19.63333 43.33333,-29.45 71.1,-29.45 z"
         id="path5516"
         inkscape:connector-curvature="0"
         style="fill:url(#Grad5);stroke-linecap:round;stroke-linejoin:round" />
      <path
         d="m 172.95,214.2 c 9.06666,-9.06667 20,-13.6 32.8,-13.6 12.8,0 23.71667,4.53333 32.75,13.6 9.09999,9.06666 13.65,20 13.65,32.8 0,12.80002 -4.55001,23.71667 -13.65,32.75 -9.03334,9.06668 -19.95001,13.6 -32.75,13.6 -12.8,0 -23.73334,-4.53332 -32.8,-13.6 -9.03334,-9.03333 -13.55,-19.94998 -13.55,-32.75 0,-12.8 4.51666,-23.73334 13.55,-32.8 z"
         id="path5518"
         inkscape:connector-curvature="0"
         style="fill:url(#Grad6);stroke-linecap:round;stroke-linejoin:round" />
      <path
         d="m 417.3,199.9 c 27.8,0 51.51668,9.81666 71.15,29.45 19.63334,19.63332 29.45,43.34998 29.45,71.15 0,27.80002 -9.81666,51.50003 -29.45,71.1 -19.63332,19.63334 -43.35,29.45 -71.15,29.45 -27.76667,0 -51.46666,-9.81666 -71.1,-29.45 -19.63332,-19.6 -29.45,-43.3 -29.45,-71.1 0,-27.80002 9.81668,-51.51668 29.45,-71.15 19.63334,-19.63334 43.33333,-29.45 71.1,-29.45 z"
         id="path5520"
         inkscape:connector-curvature="0"
         style="fill:url(#Grad7);stroke-linecap:round;stroke-linejoin:round" />
      <path
         d="m 421.6,291.8 c 9.0667,-9.06666 20,-13.6 32.8,-13.6 12.8,0 23.71667,4.53334 32.75,13.6 9.1,9.06667 13.65,20.00002 13.65,32.8 0,12.8 -4.55,23.71665 -13.65,32.75 -9.03333,9.0667 -19.95,13.6 -32.75,13.6 -12.8,0 -23.7333,-4.5333 -32.8,-13.6 -9.03335,-9.03335 -13.55,-19.95 -13.55,-32.75 0,-12.8 4.51665,-23.73336 13.55,-32.8 z"
         id="path5522"
         inkscape:connector-curvature="0"
         style="fill:url(#Grad8);stroke-linecap:round;stroke-linejoin:round" />
      <path
         d="m 487.3,80.5 c 27.8,0 51.51665,9.816666 71.15,29.45 19.6334,19.63333 29.45,43.35 29.45,71.15 0,27.80001 -9.8166,51.5 -29.45,71.1 -19.63335,19.6333 -43.35,29.44996 -71.15,29.45 -27.76667,0 -51.46666,-9.8167 -71.1,-29.45 -19.63332,-19.6 -29.45,-43.29999 -29.45,-71.1 0,-27.8 9.81668,-51.51667 29.45,-71.15 19.63334,-19.633334 43.33333,-29.45 71.1,-29.45 z"
         id="path5524"
         inkscape:connector-curvature="0"
         style="fill:url(#Grad9);stroke-linecap:round;stroke-linejoin:round" />
      <path
         d="m 491.55,172.4 c 9.06667,-9.06667 20,-13.6 32.8,-13.6 12.79996,0 23.71665,4.53333 32.75,13.6 9.1,9.06666 13.65,20 13.65,32.8 0,12.8 -4.55,23.71667 -13.65,32.75 -9.03335,9.06666 -19.95004,13.6 -32.75,13.6 -12.8,0 -23.73333,-4.53334 -32.8,-13.6 C 482.51666,228.91666 478,217.99998 478,205.2 c 0,-12.8 4.51666,-23.73334 13.55,-32.8 z"
         id="path5526"
         inkscape:connector-curvature="0"
         style="fill:url(#Grad10);stroke-linecap:round;stroke-linejoin:round" />
      <path
         d="m 351.15,245.55 c 27.8,0 51.5167,9.81667 71.15,29.45 19.63332,19.63333 29.45,43.35 29.45,71.15 0,27.8 -9.81668,51.50002 -29.45,71.1 -19.63334,19.63333 -43.35002,29.45 -71.15,29.45 -27.76667,0 -51.46668,-9.81667 -71.1,-29.45 -19.63334,-19.6 -29.45001,-43.30002 -29.45,-71.1 0,-27.8 9.81666,-51.51667 29.45,-71.15 19.63332,-19.63333 43.33333,-29.45 71.1,-29.45 z"
         id="path5528"
         inkscape:connector-curvature="0"
         style="fill:url(#Grad11);stroke-linecap:round;stroke-linejoin:round" />
      <path
         d="m 355.45,337.45 c 9.06666,-9.06667 19.99998,-13.6 32.8,-13.6 12.80002,0 23.71667,4.53333 32.75,13.6 9.1,9.06666 13.65,19.99998 13.65,32.8 0,12.80002 -4.55,23.71667 -13.65,32.75 -9.03333,9.06668 -19.94998,13.6 -32.75,13.6 -12.80002,0 -23.73334,-4.53332 -32.8,-13.6 -9.03334,-9.03333 -13.55,-19.94998 -13.55,-32.75 0,-12.80002 4.51666,-23.73334 13.55,-32.8 z"
         id="path5530"
         inkscape:connector-curvature="0"
         style="fill:url(#Grad12);stroke-linecap:round;stroke-linejoin:round" />
      <path
         d="m 295.65,122.5 30.45,106.85 114.4,40.55 c 17.6,9.66665 37.6667,13.25 60.2,10.75 -1.33333,36 -15.43334,67.41665 -42.3,94.25 l -8.3,8.15 c -3.06667,2.83333 -5.95,5.26668 -8.65,7.3 8.26667,-18.73333 10.88334,-35.31667 7.85,-49.75 -2.9,-14.03335 -11.03334,-25.65002 -24.4,-34.85 -24.9,-17.1 -50.86667,-25.6667 -77.9,-25.7 -17.9,-0.10002 -33.93332,2.14998 -48.1,6.75 -13.1,4.23333 -23.73334,10.14998 -31.9,17.75 -20,18.56667 -22.13333,46.3 -6.4,83.2 l -7.5,-6.55 c -24.4,-22.86666 -40.80001,-44.39998 -49.2,-64.6 9.26667,-11.5 19.78333,-30.63333 31.55,-57.4 11.76667,-26.79999 15.80002,-50.65 12.1,-71.55 -3.73333,-20.86666 -5.25,-31.64998 -4.55,-32.35 15.83334,-15.3 33.36667,-26.5 52.6,-33.6 l 0.05,0.8 z"
         id="path5532"
         inkscape:connector-curvature="0"
         style="fill:url(#Grad13);stroke-linecap:round;stroke-linejoin:round" />
      <path
         d="m 240.75,174.85 c -2.73334,-11.46667 -7.55,-21.43334 -14.45,-29.9 -6.73333,-8.26667 -15.48333,-14.2 -26.25,-17.8 -10.5,-3.5 -23.08333,-4.81666 -37.75,-3.95 17.63333,-11.7 39.46666,-17.55 65.5,-17.55 30.23333,0 57.04998,8.25 80.45,24.75 -10,6.63334 -20.35,19.11668 -31.05,37.45 -11.39998,19.53333 -20.4333,41.16666 -27.1,64.9 -7.56666,26.96667 -10.86666,52.95 -9.9,77.95 1.1,28.83336 7.91667,54.4167 20.45,76.75 -4.1,1.10002 -9.83335,1.65 -17.2,1.65 -9.7,0.0333 -19.85,-1.03335 -30.45,-3.2 -30.03334,-6.13334 -58.51668,-19.78333 -85.45,-40.95 -9.36667,-7.36666 -16.95,-15.73333 -22.75,-25.1 -5.5,-8.9 -10.06666,-19.88333 -13.7,-32.95 14.86667,18.23333 32.08333,28.65 51.65,31.25 19.56667,2.6 40.05,-6.48334 61.45,-27.25 10.76667,-10.43333 19.35,-22.05 25.75,-34.85 6.46666,-12.93335 10.58333,-26.78334 12.35,-41.55 1.7,-14.63333 1.18334,-27.84999 -1.55,-39.65 z"
         id="path5534"
         inkscape:connector-curvature="0"
         style="fill:url(#Grad14);stroke-linecap:round;stroke-linejoin:round" />
      <path
         d="m 494.8,80.85 c -14.63334,-3.36666 -27.63334,3.616675 -39,20.95 -10.63334,16.23334 -19,40.06667 -25.1,71.5 -2.53334,13.03334 -3.91667,26.18334 -4.15,39.45 -0.4,26.3 4.25,45.35 13.95,57.15 -17.16666,-1.66666 -35.05,-5.61667 -53.65,-11.85 -19.16665,-6.46667 -37.4333,-14.83334 -54.8,-25.1 -33.96666,-20.06667 -52.1333,-40.76667 -54.5,-62.1 l -0.1,-4.05 c 0,-34.76667 12.28334,-64.43335 36.85,-89 24.56667,-24.566666 54.23333,-36.850003 89,-36.85 34.76668,0 64.43334,12.283337 89,36.85 l 1.95,1.95 c 0.76666,0.833336 0.94998,1.200005 0.55,1.1 z"
         id="path5536"
         inkscape:connector-curvature="0"
         style="fill:url(#Grad15);stroke-linecap:round;stroke-linejoin:round" />
    </g>
  </g>
</svg>
